G04 #@! TF.GenerationSoftware,KiCad,Pcbnew,(5.1.5)-3*
G04 #@! TF.CreationDate,2020-03-10T10:04:20+01:00*
G04 #@! TF.ProjectId,FPGA,46504741-2e6b-4696-9361-645f70636258,rev?*
G04 #@! TF.SameCoordinates,Original*
G04 #@! TF.FileFunction,Soldermask,Top*
G04 #@! TF.FilePolarity,Negative*
%FSLAX46Y46*%
G04 Gerber Fmt 4.6, Leading zero omitted, Abs format (unit mm)*
G04 Created by KiCad (PCBNEW (5.1.5)-3) date 2020-03-10 10:04:20*
%MOMM*%
%LPD*%
G04 APERTURE LIST*
%ADD10C,0.100000*%
G04 APERTURE END LIST*
D10*
G36*
X118387395Y-99669546D02*
G01*
X118560466Y-99741234D01*
X118560467Y-99741235D01*
X118716227Y-99845310D01*
X118848690Y-99977773D01*
X118848691Y-99977775D01*
X118952766Y-100133534D01*
X119024454Y-100306605D01*
X119061000Y-100490333D01*
X119061000Y-100677667D01*
X119024454Y-100861395D01*
X118952766Y-101034466D01*
X118952765Y-101034467D01*
X118848690Y-101190227D01*
X118716227Y-101322690D01*
X118637818Y-101375081D01*
X118560466Y-101426766D01*
X118387395Y-101498454D01*
X118203667Y-101535000D01*
X118016333Y-101535000D01*
X117832605Y-101498454D01*
X117659534Y-101426766D01*
X117582182Y-101375081D01*
X117503773Y-101322690D01*
X117371310Y-101190227D01*
X117267235Y-101034467D01*
X117267234Y-101034466D01*
X117195546Y-100861395D01*
X117159000Y-100677667D01*
X117159000Y-100490333D01*
X117195546Y-100306605D01*
X117267234Y-100133534D01*
X117371309Y-99977775D01*
X117371310Y-99977773D01*
X117503773Y-99845310D01*
X117659533Y-99741235D01*
X117659534Y-99741234D01*
X117832605Y-99669546D01*
X118016333Y-99633000D01*
X118203667Y-99633000D01*
X118387395Y-99669546D01*
G37*
G36*
X128547395Y-99669546D02*
G01*
X128720466Y-99741234D01*
X128720467Y-99741235D01*
X128876227Y-99845310D01*
X129008690Y-99977773D01*
X129008691Y-99977775D01*
X129112766Y-100133534D01*
X129184454Y-100306605D01*
X129221000Y-100490333D01*
X129221000Y-100677667D01*
X129184454Y-100861395D01*
X129112766Y-101034466D01*
X129112765Y-101034467D01*
X129008690Y-101190227D01*
X128876227Y-101322690D01*
X128797818Y-101375081D01*
X128720466Y-101426766D01*
X128547395Y-101498454D01*
X128363667Y-101535000D01*
X128176333Y-101535000D01*
X127992605Y-101498454D01*
X127819534Y-101426766D01*
X127742182Y-101375081D01*
X127663773Y-101322690D01*
X127531310Y-101190227D01*
X127427235Y-101034467D01*
X127427234Y-101034466D01*
X127355546Y-100861395D01*
X127319000Y-100677667D01*
X127319000Y-100490333D01*
X127355546Y-100306605D01*
X127427234Y-100133534D01*
X127531309Y-99977775D01*
X127531310Y-99977773D01*
X127663773Y-99845310D01*
X127819533Y-99741235D01*
X127819534Y-99741234D01*
X127992605Y-99669546D01*
X128176333Y-99633000D01*
X128363667Y-99633000D01*
X128547395Y-99669546D01*
G37*
G36*
X131087395Y-99669546D02*
G01*
X131260466Y-99741234D01*
X131260467Y-99741235D01*
X131416227Y-99845310D01*
X131548690Y-99977773D01*
X131548691Y-99977775D01*
X131652766Y-100133534D01*
X131724454Y-100306605D01*
X131761000Y-100490333D01*
X131761000Y-100677667D01*
X131724454Y-100861395D01*
X131652766Y-101034466D01*
X131652765Y-101034467D01*
X131548690Y-101190227D01*
X131416227Y-101322690D01*
X131337818Y-101375081D01*
X131260466Y-101426766D01*
X131087395Y-101498454D01*
X130903667Y-101535000D01*
X130716333Y-101535000D01*
X130532605Y-101498454D01*
X130359534Y-101426766D01*
X130282182Y-101375081D01*
X130203773Y-101322690D01*
X130071310Y-101190227D01*
X129967235Y-101034467D01*
X129967234Y-101034466D01*
X129895546Y-100861395D01*
X129859000Y-100677667D01*
X129859000Y-100490333D01*
X129895546Y-100306605D01*
X129967234Y-100133534D01*
X130071309Y-99977775D01*
X130071310Y-99977773D01*
X130203773Y-99845310D01*
X130359533Y-99741235D01*
X130359534Y-99741234D01*
X130532605Y-99669546D01*
X130716333Y-99633000D01*
X130903667Y-99633000D01*
X131087395Y-99669546D01*
G37*
G36*
X126007395Y-99669546D02*
G01*
X126180466Y-99741234D01*
X126180467Y-99741235D01*
X126336227Y-99845310D01*
X126468690Y-99977773D01*
X126468691Y-99977775D01*
X126572766Y-100133534D01*
X126644454Y-100306605D01*
X126681000Y-100490333D01*
X126681000Y-100677667D01*
X126644454Y-100861395D01*
X126572766Y-101034466D01*
X126572765Y-101034467D01*
X126468690Y-101190227D01*
X126336227Y-101322690D01*
X126257818Y-101375081D01*
X126180466Y-101426766D01*
X126007395Y-101498454D01*
X125823667Y-101535000D01*
X125636333Y-101535000D01*
X125452605Y-101498454D01*
X125279534Y-101426766D01*
X125202182Y-101375081D01*
X125123773Y-101322690D01*
X124991310Y-101190227D01*
X124887235Y-101034467D01*
X124887234Y-101034466D01*
X124815546Y-100861395D01*
X124779000Y-100677667D01*
X124779000Y-100490333D01*
X124815546Y-100306605D01*
X124887234Y-100133534D01*
X124991309Y-99977775D01*
X124991310Y-99977773D01*
X125123773Y-99845310D01*
X125279533Y-99741235D01*
X125279534Y-99741234D01*
X125452605Y-99669546D01*
X125636333Y-99633000D01*
X125823667Y-99633000D01*
X126007395Y-99669546D01*
G37*
G36*
X120927395Y-99669546D02*
G01*
X121100466Y-99741234D01*
X121100467Y-99741235D01*
X121256227Y-99845310D01*
X121388690Y-99977773D01*
X121388691Y-99977775D01*
X121492766Y-100133534D01*
X121564454Y-100306605D01*
X121601000Y-100490333D01*
X121601000Y-100677667D01*
X121564454Y-100861395D01*
X121492766Y-101034466D01*
X121492765Y-101034467D01*
X121388690Y-101190227D01*
X121256227Y-101322690D01*
X121177818Y-101375081D01*
X121100466Y-101426766D01*
X120927395Y-101498454D01*
X120743667Y-101535000D01*
X120556333Y-101535000D01*
X120372605Y-101498454D01*
X120199534Y-101426766D01*
X120122182Y-101375081D01*
X120043773Y-101322690D01*
X119911310Y-101190227D01*
X119807235Y-101034467D01*
X119807234Y-101034466D01*
X119735546Y-100861395D01*
X119699000Y-100677667D01*
X119699000Y-100490333D01*
X119735546Y-100306605D01*
X119807234Y-100133534D01*
X119911309Y-99977775D01*
X119911310Y-99977773D01*
X120043773Y-99845310D01*
X120199533Y-99741235D01*
X120199534Y-99741234D01*
X120372605Y-99669546D01*
X120556333Y-99633000D01*
X120743667Y-99633000D01*
X120927395Y-99669546D01*
G37*
G36*
X123467395Y-99669546D02*
G01*
X123640466Y-99741234D01*
X123640467Y-99741235D01*
X123796227Y-99845310D01*
X123928690Y-99977773D01*
X123928691Y-99977775D01*
X124032766Y-100133534D01*
X124104454Y-100306605D01*
X124141000Y-100490333D01*
X124141000Y-100677667D01*
X124104454Y-100861395D01*
X124032766Y-101034466D01*
X124032765Y-101034467D01*
X123928690Y-101190227D01*
X123796227Y-101322690D01*
X123717818Y-101375081D01*
X123640466Y-101426766D01*
X123467395Y-101498454D01*
X123283667Y-101535000D01*
X123096333Y-101535000D01*
X122912605Y-101498454D01*
X122739534Y-101426766D01*
X122662182Y-101375081D01*
X122583773Y-101322690D01*
X122451310Y-101190227D01*
X122347235Y-101034467D01*
X122347234Y-101034466D01*
X122275546Y-100861395D01*
X122239000Y-100677667D01*
X122239000Y-100490333D01*
X122275546Y-100306605D01*
X122347234Y-100133534D01*
X122451309Y-99977775D01*
X122451310Y-99977773D01*
X122583773Y-99845310D01*
X122739533Y-99741235D01*
X122739534Y-99741234D01*
X122912605Y-99669546D01*
X123096333Y-99633000D01*
X123283667Y-99633000D01*
X123467395Y-99669546D01*
G37*
G36*
X97751112Y-97706727D02*
G01*
X97900412Y-97736424D01*
X98064384Y-97804344D01*
X98211954Y-97902947D01*
X98337453Y-98028446D01*
X98436056Y-98176016D01*
X98503976Y-98339988D01*
X98538600Y-98514059D01*
X98538600Y-98691541D01*
X98503976Y-98865612D01*
X98436056Y-99029584D01*
X98337453Y-99177154D01*
X98211954Y-99302653D01*
X98064384Y-99401256D01*
X97900412Y-99469176D01*
X97751112Y-99498873D01*
X97726342Y-99503800D01*
X97548858Y-99503800D01*
X97524088Y-99498873D01*
X97374788Y-99469176D01*
X97210816Y-99401256D01*
X97063246Y-99302653D01*
X96937747Y-99177154D01*
X96839144Y-99029584D01*
X96771224Y-98865612D01*
X96736600Y-98691541D01*
X96736600Y-98514059D01*
X96771224Y-98339988D01*
X96839144Y-98176016D01*
X96937747Y-98028446D01*
X97063246Y-97902947D01*
X97210816Y-97804344D01*
X97374788Y-97736424D01*
X97524088Y-97706727D01*
X97548858Y-97701800D01*
X97726342Y-97701800D01*
X97751112Y-97706727D01*
G37*
G36*
X147535112Y-97706727D02*
G01*
X147684412Y-97736424D01*
X147848384Y-97804344D01*
X147995954Y-97902947D01*
X148121453Y-98028446D01*
X148220056Y-98176016D01*
X148287976Y-98339988D01*
X148322600Y-98514059D01*
X148322600Y-98691541D01*
X148287976Y-98865612D01*
X148220056Y-99029584D01*
X148121453Y-99177154D01*
X147995954Y-99302653D01*
X147848384Y-99401256D01*
X147684412Y-99469176D01*
X147535112Y-99498873D01*
X147510342Y-99503800D01*
X147332858Y-99503800D01*
X147308088Y-99498873D01*
X147158788Y-99469176D01*
X146994816Y-99401256D01*
X146847246Y-99302653D01*
X146721747Y-99177154D01*
X146623144Y-99029584D01*
X146555224Y-98865612D01*
X146520600Y-98691541D01*
X146520600Y-98514059D01*
X146555224Y-98339988D01*
X146623144Y-98176016D01*
X146721747Y-98028446D01*
X146847246Y-97902947D01*
X146994816Y-97804344D01*
X147158788Y-97736424D01*
X147308088Y-97706727D01*
X147332858Y-97701800D01*
X147510342Y-97701800D01*
X147535112Y-97706727D01*
G37*
G36*
X147535112Y-95166727D02*
G01*
X147684412Y-95196424D01*
X147848384Y-95264344D01*
X147995954Y-95362947D01*
X148121453Y-95488446D01*
X148220056Y-95636016D01*
X148287976Y-95799988D01*
X148322600Y-95974059D01*
X148322600Y-96151541D01*
X148287976Y-96325612D01*
X148220056Y-96489584D01*
X148121453Y-96637154D01*
X147995954Y-96762653D01*
X147848384Y-96861256D01*
X147684412Y-96929176D01*
X147535112Y-96958873D01*
X147510342Y-96963800D01*
X147332858Y-96963800D01*
X147308088Y-96958873D01*
X147158788Y-96929176D01*
X146994816Y-96861256D01*
X146847246Y-96762653D01*
X146721747Y-96637154D01*
X146623144Y-96489584D01*
X146555224Y-96325612D01*
X146520600Y-96151541D01*
X146520600Y-95974059D01*
X146555224Y-95799988D01*
X146623144Y-95636016D01*
X146721747Y-95488446D01*
X146847246Y-95362947D01*
X146994816Y-95264344D01*
X147158788Y-95196424D01*
X147308088Y-95166727D01*
X147332858Y-95161800D01*
X147510342Y-95161800D01*
X147535112Y-95166727D01*
G37*
G36*
X97751112Y-95115927D02*
G01*
X97900412Y-95145624D01*
X98064384Y-95213544D01*
X98211954Y-95312147D01*
X98337453Y-95437646D01*
X98436056Y-95585216D01*
X98503976Y-95749188D01*
X98538600Y-95923259D01*
X98538600Y-96100741D01*
X98503976Y-96274812D01*
X98436056Y-96438784D01*
X98337453Y-96586354D01*
X98211954Y-96711853D01*
X98064384Y-96810456D01*
X97900412Y-96878376D01*
X97751112Y-96908073D01*
X97726342Y-96913000D01*
X97548858Y-96913000D01*
X97524088Y-96908073D01*
X97374788Y-96878376D01*
X97210816Y-96810456D01*
X97063246Y-96711853D01*
X96937747Y-96586354D01*
X96839144Y-96438784D01*
X96771224Y-96274812D01*
X96736600Y-96100741D01*
X96736600Y-95923259D01*
X96771224Y-95749188D01*
X96839144Y-95585216D01*
X96937747Y-95437646D01*
X97063246Y-95312147D01*
X97210816Y-95213544D01*
X97374788Y-95145624D01*
X97524088Y-95115927D01*
X97548858Y-95111000D01*
X97726342Y-95111000D01*
X97751112Y-95115927D01*
G37*
G36*
X97751112Y-92626727D02*
G01*
X97900412Y-92656424D01*
X98064384Y-92724344D01*
X98211954Y-92822947D01*
X98337453Y-92948446D01*
X98436056Y-93096016D01*
X98503976Y-93259988D01*
X98538600Y-93434059D01*
X98538600Y-93611541D01*
X98503976Y-93785612D01*
X98436056Y-93949584D01*
X98337453Y-94097154D01*
X98211954Y-94222653D01*
X98064384Y-94321256D01*
X97900412Y-94389176D01*
X97751112Y-94418873D01*
X97726342Y-94423800D01*
X97548858Y-94423800D01*
X97524088Y-94418873D01*
X97374788Y-94389176D01*
X97210816Y-94321256D01*
X97063246Y-94222653D01*
X96937747Y-94097154D01*
X96839144Y-93949584D01*
X96771224Y-93785612D01*
X96736600Y-93611541D01*
X96736600Y-93434059D01*
X96771224Y-93259988D01*
X96839144Y-93096016D01*
X96937747Y-92948446D01*
X97063246Y-92822947D01*
X97210816Y-92724344D01*
X97374788Y-92656424D01*
X97524088Y-92626727D01*
X97548858Y-92621800D01*
X97726342Y-92621800D01*
X97751112Y-92626727D01*
G37*
G36*
X147535112Y-92626727D02*
G01*
X147684412Y-92656424D01*
X147848384Y-92724344D01*
X147995954Y-92822947D01*
X148121453Y-92948446D01*
X148220056Y-93096016D01*
X148287976Y-93259988D01*
X148322600Y-93434059D01*
X148322600Y-93611541D01*
X148287976Y-93785612D01*
X148220056Y-93949584D01*
X148121453Y-94097154D01*
X147995954Y-94222653D01*
X147848384Y-94321256D01*
X147684412Y-94389176D01*
X147535112Y-94418873D01*
X147510342Y-94423800D01*
X147332858Y-94423800D01*
X147308088Y-94418873D01*
X147158788Y-94389176D01*
X146994816Y-94321256D01*
X146847246Y-94222653D01*
X146721747Y-94097154D01*
X146623144Y-93949584D01*
X146555224Y-93785612D01*
X146520600Y-93611541D01*
X146520600Y-93434059D01*
X146555224Y-93259988D01*
X146623144Y-93096016D01*
X146721747Y-92948446D01*
X146847246Y-92822947D01*
X146994816Y-92724344D01*
X147158788Y-92656424D01*
X147308088Y-92626727D01*
X147332858Y-92621800D01*
X147510342Y-92621800D01*
X147535112Y-92626727D01*
G37*
G36*
X137437395Y-92557546D02*
G01*
X137610466Y-92629234D01*
X137651160Y-92656425D01*
X137766227Y-92733310D01*
X137898690Y-92865773D01*
X137898691Y-92865775D01*
X138002766Y-93021534D01*
X138074454Y-93194605D01*
X138111000Y-93378333D01*
X138111000Y-93565667D01*
X138074454Y-93749395D01*
X138002766Y-93922466D01*
X137984646Y-93949584D01*
X137898690Y-94078227D01*
X137766227Y-94210690D01*
X137748323Y-94222653D01*
X137610466Y-94314766D01*
X137437395Y-94386454D01*
X137253667Y-94423000D01*
X137066333Y-94423000D01*
X136882605Y-94386454D01*
X136709534Y-94314766D01*
X136571677Y-94222653D01*
X136553773Y-94210690D01*
X136421310Y-94078227D01*
X136335354Y-93949584D01*
X136317234Y-93922466D01*
X136245546Y-93749395D01*
X136209000Y-93565667D01*
X136209000Y-93378333D01*
X136245546Y-93194605D01*
X136317234Y-93021534D01*
X136421309Y-92865775D01*
X136421310Y-92865773D01*
X136553773Y-92733310D01*
X136668840Y-92656425D01*
X136709534Y-92629234D01*
X136882605Y-92557546D01*
X137066333Y-92521000D01*
X137253667Y-92521000D01*
X137437395Y-92557546D01*
G37*
G36*
X142517395Y-92557546D02*
G01*
X142690466Y-92629234D01*
X142731160Y-92656425D01*
X142846227Y-92733310D01*
X142978690Y-92865773D01*
X142978691Y-92865775D01*
X143082766Y-93021534D01*
X143154454Y-93194605D01*
X143191000Y-93378333D01*
X143191000Y-93565667D01*
X143154454Y-93749395D01*
X143082766Y-93922466D01*
X143064646Y-93949584D01*
X142978690Y-94078227D01*
X142846227Y-94210690D01*
X142828323Y-94222653D01*
X142690466Y-94314766D01*
X142517395Y-94386454D01*
X142333667Y-94423000D01*
X142146333Y-94423000D01*
X141962605Y-94386454D01*
X141789534Y-94314766D01*
X141651677Y-94222653D01*
X141633773Y-94210690D01*
X141501310Y-94078227D01*
X141415354Y-93949584D01*
X141397234Y-93922466D01*
X141325546Y-93749395D01*
X141289000Y-93565667D01*
X141289000Y-93378333D01*
X141325546Y-93194605D01*
X141397234Y-93021534D01*
X141501309Y-92865775D01*
X141501310Y-92865773D01*
X141633773Y-92733310D01*
X141748840Y-92656425D01*
X141789534Y-92629234D01*
X141962605Y-92557546D01*
X142146333Y-92521000D01*
X142333667Y-92521000D01*
X142517395Y-92557546D01*
G37*
G36*
X139977395Y-92557546D02*
G01*
X140150466Y-92629234D01*
X140191160Y-92656425D01*
X140306227Y-92733310D01*
X140438690Y-92865773D01*
X140438691Y-92865775D01*
X140542766Y-93021534D01*
X140614454Y-93194605D01*
X140651000Y-93378333D01*
X140651000Y-93565667D01*
X140614454Y-93749395D01*
X140542766Y-93922466D01*
X140524646Y-93949584D01*
X140438690Y-94078227D01*
X140306227Y-94210690D01*
X140288323Y-94222653D01*
X140150466Y-94314766D01*
X139977395Y-94386454D01*
X139793667Y-94423000D01*
X139606333Y-94423000D01*
X139422605Y-94386454D01*
X139249534Y-94314766D01*
X139111677Y-94222653D01*
X139093773Y-94210690D01*
X138961310Y-94078227D01*
X138875354Y-93949584D01*
X138857234Y-93922466D01*
X138785546Y-93749395D01*
X138749000Y-93565667D01*
X138749000Y-93378333D01*
X138785546Y-93194605D01*
X138857234Y-93021534D01*
X138961309Y-92865775D01*
X138961310Y-92865773D01*
X139093773Y-92733310D01*
X139208840Y-92656425D01*
X139249534Y-92629234D01*
X139422605Y-92557546D01*
X139606333Y-92521000D01*
X139793667Y-92521000D01*
X139977395Y-92557546D01*
G37*
G36*
X147535112Y-90086727D02*
G01*
X147684412Y-90116424D01*
X147848384Y-90184344D01*
X147995954Y-90282947D01*
X148121453Y-90408446D01*
X148220056Y-90556016D01*
X148287976Y-90719988D01*
X148322600Y-90894059D01*
X148322600Y-91071541D01*
X148287976Y-91245612D01*
X148220056Y-91409584D01*
X148121453Y-91557154D01*
X147995954Y-91682653D01*
X147848384Y-91781256D01*
X147684412Y-91849176D01*
X147535112Y-91878873D01*
X147510342Y-91883800D01*
X147332858Y-91883800D01*
X147308088Y-91878873D01*
X147158788Y-91849176D01*
X146994816Y-91781256D01*
X146847246Y-91682653D01*
X146721747Y-91557154D01*
X146623144Y-91409584D01*
X146555224Y-91245612D01*
X146520600Y-91071541D01*
X146520600Y-90894059D01*
X146555224Y-90719988D01*
X146623144Y-90556016D01*
X146721747Y-90408446D01*
X146847246Y-90282947D01*
X146994816Y-90184344D01*
X147158788Y-90116424D01*
X147308088Y-90086727D01*
X147332858Y-90081800D01*
X147510342Y-90081800D01*
X147535112Y-90086727D01*
G37*
G36*
X139977395Y-90017546D02*
G01*
X140150466Y-90089234D01*
X140191160Y-90116425D01*
X140306227Y-90193310D01*
X140438690Y-90325773D01*
X140438691Y-90325775D01*
X140542766Y-90481534D01*
X140614454Y-90654605D01*
X140651000Y-90838333D01*
X140651000Y-91025667D01*
X140614454Y-91209395D01*
X140542766Y-91382466D01*
X140524646Y-91409584D01*
X140438690Y-91538227D01*
X140306227Y-91670690D01*
X140288323Y-91682653D01*
X140150466Y-91774766D01*
X139977395Y-91846454D01*
X139793667Y-91883000D01*
X139606333Y-91883000D01*
X139422605Y-91846454D01*
X139249534Y-91774766D01*
X139111677Y-91682653D01*
X139093773Y-91670690D01*
X138961310Y-91538227D01*
X138875354Y-91409584D01*
X138857234Y-91382466D01*
X138785546Y-91209395D01*
X138749000Y-91025667D01*
X138749000Y-90838333D01*
X138785546Y-90654605D01*
X138857234Y-90481534D01*
X138961309Y-90325775D01*
X138961310Y-90325773D01*
X139093773Y-90193310D01*
X139208840Y-90116425D01*
X139249534Y-90089234D01*
X139422605Y-90017546D01*
X139606333Y-89981000D01*
X139793667Y-89981000D01*
X139977395Y-90017546D01*
G37*
G36*
X142517395Y-90017546D02*
G01*
X142690466Y-90089234D01*
X142731160Y-90116425D01*
X142846227Y-90193310D01*
X142978690Y-90325773D01*
X142978691Y-90325775D01*
X143082766Y-90481534D01*
X143154454Y-90654605D01*
X143191000Y-90838333D01*
X143191000Y-91025667D01*
X143154454Y-91209395D01*
X143082766Y-91382466D01*
X143064646Y-91409584D01*
X142978690Y-91538227D01*
X142846227Y-91670690D01*
X142828323Y-91682653D01*
X142690466Y-91774766D01*
X142517395Y-91846454D01*
X142333667Y-91883000D01*
X142146333Y-91883000D01*
X141962605Y-91846454D01*
X141789534Y-91774766D01*
X141651677Y-91682653D01*
X141633773Y-91670690D01*
X141501310Y-91538227D01*
X141415354Y-91409584D01*
X141397234Y-91382466D01*
X141325546Y-91209395D01*
X141289000Y-91025667D01*
X141289000Y-90838333D01*
X141325546Y-90654605D01*
X141397234Y-90481534D01*
X141501309Y-90325775D01*
X141501310Y-90325773D01*
X141633773Y-90193310D01*
X141748840Y-90116425D01*
X141789534Y-90089234D01*
X141962605Y-90017546D01*
X142146333Y-89981000D01*
X142333667Y-89981000D01*
X142517395Y-90017546D01*
G37*
G36*
X137437395Y-90017546D02*
G01*
X137610466Y-90089234D01*
X137651160Y-90116425D01*
X137766227Y-90193310D01*
X137898690Y-90325773D01*
X137898691Y-90325775D01*
X138002766Y-90481534D01*
X138074454Y-90654605D01*
X138111000Y-90838333D01*
X138111000Y-91025667D01*
X138074454Y-91209395D01*
X138002766Y-91382466D01*
X137984646Y-91409584D01*
X137898690Y-91538227D01*
X137766227Y-91670690D01*
X137748323Y-91682653D01*
X137610466Y-91774766D01*
X137437395Y-91846454D01*
X137253667Y-91883000D01*
X137066333Y-91883000D01*
X136882605Y-91846454D01*
X136709534Y-91774766D01*
X136571677Y-91682653D01*
X136553773Y-91670690D01*
X136421310Y-91538227D01*
X136335354Y-91409584D01*
X136317234Y-91382466D01*
X136245546Y-91209395D01*
X136209000Y-91025667D01*
X136209000Y-90838333D01*
X136245546Y-90654605D01*
X136317234Y-90481534D01*
X136421309Y-90325775D01*
X136421310Y-90325773D01*
X136553773Y-90193310D01*
X136668840Y-90116425D01*
X136709534Y-90089234D01*
X136882605Y-90017546D01*
X137066333Y-89981000D01*
X137253667Y-89981000D01*
X137437395Y-90017546D01*
G37*
G36*
X97751112Y-90035927D02*
G01*
X97900412Y-90065624D01*
X98064384Y-90133544D01*
X98211954Y-90232147D01*
X98337453Y-90357646D01*
X98436056Y-90505216D01*
X98503976Y-90669188D01*
X98538600Y-90843259D01*
X98538600Y-91020741D01*
X98503976Y-91194812D01*
X98436056Y-91358784D01*
X98337453Y-91506354D01*
X98211954Y-91631853D01*
X98064384Y-91730456D01*
X97900412Y-91798376D01*
X97751112Y-91828073D01*
X97726342Y-91833000D01*
X97548858Y-91833000D01*
X97524088Y-91828073D01*
X97374788Y-91798376D01*
X97210816Y-91730456D01*
X97063246Y-91631853D01*
X96937747Y-91506354D01*
X96839144Y-91358784D01*
X96771224Y-91194812D01*
X96736600Y-91020741D01*
X96736600Y-90843259D01*
X96771224Y-90669188D01*
X96839144Y-90505216D01*
X96937747Y-90357646D01*
X97063246Y-90232147D01*
X97210816Y-90133544D01*
X97374788Y-90065624D01*
X97524088Y-90035927D01*
X97548858Y-90031000D01*
X97726342Y-90031000D01*
X97751112Y-90035927D01*
G37*
G36*
X147535112Y-87546727D02*
G01*
X147684412Y-87576424D01*
X147848384Y-87644344D01*
X147995954Y-87742947D01*
X148121453Y-87868446D01*
X148220056Y-88016016D01*
X148287976Y-88179988D01*
X148322600Y-88354059D01*
X148322600Y-88531541D01*
X148287976Y-88705612D01*
X148220056Y-88869584D01*
X148121453Y-89017154D01*
X147995954Y-89142653D01*
X147848384Y-89241256D01*
X147684412Y-89309176D01*
X147535112Y-89338873D01*
X147510342Y-89343800D01*
X147332858Y-89343800D01*
X147308088Y-89338873D01*
X147158788Y-89309176D01*
X146994816Y-89241256D01*
X146847246Y-89142653D01*
X146721747Y-89017154D01*
X146623144Y-88869584D01*
X146555224Y-88705612D01*
X146520600Y-88531541D01*
X146520600Y-88354059D01*
X146555224Y-88179988D01*
X146623144Y-88016016D01*
X146721747Y-87868446D01*
X146847246Y-87742947D01*
X146994816Y-87644344D01*
X147158788Y-87576424D01*
X147308088Y-87546727D01*
X147332858Y-87541800D01*
X147510342Y-87541800D01*
X147535112Y-87546727D01*
G37*
G36*
X137437395Y-87477546D02*
G01*
X137610466Y-87549234D01*
X137651160Y-87576425D01*
X137766227Y-87653310D01*
X137898690Y-87785773D01*
X137898691Y-87785775D01*
X138002766Y-87941534D01*
X138074454Y-88114605D01*
X138111000Y-88298333D01*
X138111000Y-88485667D01*
X138074454Y-88669395D01*
X138002766Y-88842466D01*
X137984646Y-88869584D01*
X137898690Y-88998227D01*
X137766227Y-89130690D01*
X137748323Y-89142653D01*
X137610466Y-89234766D01*
X137437395Y-89306454D01*
X137253667Y-89343000D01*
X137066333Y-89343000D01*
X136882605Y-89306454D01*
X136709534Y-89234766D01*
X136571677Y-89142653D01*
X136553773Y-89130690D01*
X136421310Y-88998227D01*
X136335354Y-88869584D01*
X136317234Y-88842466D01*
X136245546Y-88669395D01*
X136209000Y-88485667D01*
X136209000Y-88298333D01*
X136245546Y-88114605D01*
X136317234Y-87941534D01*
X136421309Y-87785775D01*
X136421310Y-87785773D01*
X136553773Y-87653310D01*
X136668840Y-87576425D01*
X136709534Y-87549234D01*
X136882605Y-87477546D01*
X137066333Y-87441000D01*
X137253667Y-87441000D01*
X137437395Y-87477546D01*
G37*
G36*
X142517395Y-87477546D02*
G01*
X142690466Y-87549234D01*
X142731160Y-87576425D01*
X142846227Y-87653310D01*
X142978690Y-87785773D01*
X142978691Y-87785775D01*
X143082766Y-87941534D01*
X143154454Y-88114605D01*
X143191000Y-88298333D01*
X143191000Y-88485667D01*
X143154454Y-88669395D01*
X143082766Y-88842466D01*
X143064646Y-88869584D01*
X142978690Y-88998227D01*
X142846227Y-89130690D01*
X142828323Y-89142653D01*
X142690466Y-89234766D01*
X142517395Y-89306454D01*
X142333667Y-89343000D01*
X142146333Y-89343000D01*
X141962605Y-89306454D01*
X141789534Y-89234766D01*
X141651677Y-89142653D01*
X141633773Y-89130690D01*
X141501310Y-88998227D01*
X141415354Y-88869584D01*
X141397234Y-88842466D01*
X141325546Y-88669395D01*
X141289000Y-88485667D01*
X141289000Y-88298333D01*
X141325546Y-88114605D01*
X141397234Y-87941534D01*
X141501309Y-87785775D01*
X141501310Y-87785773D01*
X141633773Y-87653310D01*
X141748840Y-87576425D01*
X141789534Y-87549234D01*
X141962605Y-87477546D01*
X142146333Y-87441000D01*
X142333667Y-87441000D01*
X142517395Y-87477546D01*
G37*
G36*
X139977395Y-87477546D02*
G01*
X140150466Y-87549234D01*
X140191160Y-87576425D01*
X140306227Y-87653310D01*
X140438690Y-87785773D01*
X140438691Y-87785775D01*
X140542766Y-87941534D01*
X140614454Y-88114605D01*
X140651000Y-88298333D01*
X140651000Y-88485667D01*
X140614454Y-88669395D01*
X140542766Y-88842466D01*
X140524646Y-88869584D01*
X140438690Y-88998227D01*
X140306227Y-89130690D01*
X140288323Y-89142653D01*
X140150466Y-89234766D01*
X139977395Y-89306454D01*
X139793667Y-89343000D01*
X139606333Y-89343000D01*
X139422605Y-89306454D01*
X139249534Y-89234766D01*
X139111677Y-89142653D01*
X139093773Y-89130690D01*
X138961310Y-88998227D01*
X138875354Y-88869584D01*
X138857234Y-88842466D01*
X138785546Y-88669395D01*
X138749000Y-88485667D01*
X138749000Y-88298333D01*
X138785546Y-88114605D01*
X138857234Y-87941534D01*
X138961309Y-87785775D01*
X138961310Y-87785773D01*
X139093773Y-87653310D01*
X139208840Y-87576425D01*
X139249534Y-87549234D01*
X139422605Y-87477546D01*
X139606333Y-87441000D01*
X139793667Y-87441000D01*
X139977395Y-87477546D01*
G37*
G36*
X97751112Y-87495927D02*
G01*
X97900412Y-87525624D01*
X98064384Y-87593544D01*
X98211954Y-87692147D01*
X98337453Y-87817646D01*
X98436056Y-87965216D01*
X98503976Y-88129188D01*
X98538600Y-88303259D01*
X98538600Y-88480741D01*
X98503976Y-88654812D01*
X98436056Y-88818784D01*
X98337453Y-88966354D01*
X98211954Y-89091853D01*
X98064384Y-89190456D01*
X97900412Y-89258376D01*
X97751112Y-89288073D01*
X97726342Y-89293000D01*
X97548858Y-89293000D01*
X97524088Y-89288073D01*
X97374788Y-89258376D01*
X97210816Y-89190456D01*
X97063246Y-89091853D01*
X96937747Y-88966354D01*
X96839144Y-88818784D01*
X96771224Y-88654812D01*
X96736600Y-88480741D01*
X96736600Y-88303259D01*
X96771224Y-88129188D01*
X96839144Y-87965216D01*
X96937747Y-87817646D01*
X97063246Y-87692147D01*
X97210816Y-87593544D01*
X97374788Y-87525624D01*
X97524088Y-87495927D01*
X97548858Y-87491000D01*
X97726342Y-87491000D01*
X97751112Y-87495927D01*
G37*
G36*
X97751112Y-85006727D02*
G01*
X97900412Y-85036424D01*
X98064384Y-85104344D01*
X98211954Y-85202947D01*
X98337453Y-85328446D01*
X98436056Y-85476016D01*
X98503976Y-85639988D01*
X98538600Y-85814059D01*
X98538600Y-85991541D01*
X98503976Y-86165612D01*
X98436056Y-86329584D01*
X98337453Y-86477154D01*
X98211954Y-86602653D01*
X98064384Y-86701256D01*
X97900412Y-86769176D01*
X97751112Y-86798873D01*
X97726342Y-86803800D01*
X97548858Y-86803800D01*
X97524088Y-86798873D01*
X97374788Y-86769176D01*
X97210816Y-86701256D01*
X97063246Y-86602653D01*
X96937747Y-86477154D01*
X96839144Y-86329584D01*
X96771224Y-86165612D01*
X96736600Y-85991541D01*
X96736600Y-85814059D01*
X96771224Y-85639988D01*
X96839144Y-85476016D01*
X96937747Y-85328446D01*
X97063246Y-85202947D01*
X97210816Y-85104344D01*
X97374788Y-85036424D01*
X97524088Y-85006727D01*
X97548858Y-85001800D01*
X97726342Y-85001800D01*
X97751112Y-85006727D01*
G37*
G36*
X147535112Y-85006727D02*
G01*
X147684412Y-85036424D01*
X147848384Y-85104344D01*
X147995954Y-85202947D01*
X148121453Y-85328446D01*
X148220056Y-85476016D01*
X148287976Y-85639988D01*
X148322600Y-85814059D01*
X148322600Y-85991541D01*
X148287976Y-86165612D01*
X148220056Y-86329584D01*
X148121453Y-86477154D01*
X147995954Y-86602653D01*
X147848384Y-86701256D01*
X147684412Y-86769176D01*
X147535112Y-86798873D01*
X147510342Y-86803800D01*
X147332858Y-86803800D01*
X147308088Y-86798873D01*
X147158788Y-86769176D01*
X146994816Y-86701256D01*
X146847246Y-86602653D01*
X146721747Y-86477154D01*
X146623144Y-86329584D01*
X146555224Y-86165612D01*
X146520600Y-85991541D01*
X146520600Y-85814059D01*
X146555224Y-85639988D01*
X146623144Y-85476016D01*
X146721747Y-85328446D01*
X146847246Y-85202947D01*
X146994816Y-85104344D01*
X147158788Y-85036424D01*
X147308088Y-85006727D01*
X147332858Y-85001800D01*
X147510342Y-85001800D01*
X147535112Y-85006727D01*
G37*
G36*
X137437395Y-84937546D02*
G01*
X137610466Y-85009234D01*
X137651160Y-85036425D01*
X137766227Y-85113310D01*
X137898690Y-85245773D01*
X137898691Y-85245775D01*
X138002766Y-85401534D01*
X138074454Y-85574605D01*
X138111000Y-85758333D01*
X138111000Y-85945667D01*
X138074454Y-86129395D01*
X138002766Y-86302466D01*
X137984646Y-86329584D01*
X137898690Y-86458227D01*
X137766227Y-86590690D01*
X137748323Y-86602653D01*
X137610466Y-86694766D01*
X137437395Y-86766454D01*
X137253667Y-86803000D01*
X137066333Y-86803000D01*
X136882605Y-86766454D01*
X136709534Y-86694766D01*
X136571677Y-86602653D01*
X136553773Y-86590690D01*
X136421310Y-86458227D01*
X136335354Y-86329584D01*
X136317234Y-86302466D01*
X136245546Y-86129395D01*
X136209000Y-85945667D01*
X136209000Y-85758333D01*
X136245546Y-85574605D01*
X136317234Y-85401534D01*
X136421309Y-85245775D01*
X136421310Y-85245773D01*
X136553773Y-85113310D01*
X136668840Y-85036425D01*
X136709534Y-85009234D01*
X136882605Y-84937546D01*
X137066333Y-84901000D01*
X137253667Y-84901000D01*
X137437395Y-84937546D01*
G37*
G36*
X142517395Y-84937546D02*
G01*
X142690466Y-85009234D01*
X142731160Y-85036425D01*
X142846227Y-85113310D01*
X142978690Y-85245773D01*
X142978691Y-85245775D01*
X143082766Y-85401534D01*
X143154454Y-85574605D01*
X143191000Y-85758333D01*
X143191000Y-85945667D01*
X143154454Y-86129395D01*
X143082766Y-86302466D01*
X143064646Y-86329584D01*
X142978690Y-86458227D01*
X142846227Y-86590690D01*
X142828323Y-86602653D01*
X142690466Y-86694766D01*
X142517395Y-86766454D01*
X142333667Y-86803000D01*
X142146333Y-86803000D01*
X141962605Y-86766454D01*
X141789534Y-86694766D01*
X141651677Y-86602653D01*
X141633773Y-86590690D01*
X141501310Y-86458227D01*
X141415354Y-86329584D01*
X141397234Y-86302466D01*
X141325546Y-86129395D01*
X141289000Y-85945667D01*
X141289000Y-85758333D01*
X141325546Y-85574605D01*
X141397234Y-85401534D01*
X141501309Y-85245775D01*
X141501310Y-85245773D01*
X141633773Y-85113310D01*
X141748840Y-85036425D01*
X141789534Y-85009234D01*
X141962605Y-84937546D01*
X142146333Y-84901000D01*
X142333667Y-84901000D01*
X142517395Y-84937546D01*
G37*
G36*
X139977395Y-84937546D02*
G01*
X140150466Y-85009234D01*
X140191160Y-85036425D01*
X140306227Y-85113310D01*
X140438690Y-85245773D01*
X140438691Y-85245775D01*
X140542766Y-85401534D01*
X140614454Y-85574605D01*
X140651000Y-85758333D01*
X140651000Y-85945667D01*
X140614454Y-86129395D01*
X140542766Y-86302466D01*
X140524646Y-86329584D01*
X140438690Y-86458227D01*
X140306227Y-86590690D01*
X140288323Y-86602653D01*
X140150466Y-86694766D01*
X139977395Y-86766454D01*
X139793667Y-86803000D01*
X139606333Y-86803000D01*
X139422605Y-86766454D01*
X139249534Y-86694766D01*
X139111677Y-86602653D01*
X139093773Y-86590690D01*
X138961310Y-86458227D01*
X138875354Y-86329584D01*
X138857234Y-86302466D01*
X138785546Y-86129395D01*
X138749000Y-85945667D01*
X138749000Y-85758333D01*
X138785546Y-85574605D01*
X138857234Y-85401534D01*
X138961309Y-85245775D01*
X138961310Y-85245773D01*
X139093773Y-85113310D01*
X139208840Y-85036425D01*
X139249534Y-85009234D01*
X139422605Y-84937546D01*
X139606333Y-84901000D01*
X139793667Y-84901000D01*
X139977395Y-84937546D01*
G37*
G36*
X147535112Y-82466727D02*
G01*
X147684412Y-82496424D01*
X147848384Y-82564344D01*
X147995954Y-82662947D01*
X148121453Y-82788446D01*
X148220056Y-82936016D01*
X148287976Y-83099988D01*
X148322600Y-83274059D01*
X148322600Y-83451541D01*
X148287976Y-83625612D01*
X148220056Y-83789584D01*
X148121453Y-83937154D01*
X147995954Y-84062653D01*
X147848384Y-84161256D01*
X147684412Y-84229176D01*
X147535112Y-84258873D01*
X147510342Y-84263800D01*
X147332858Y-84263800D01*
X147308088Y-84258873D01*
X147158788Y-84229176D01*
X146994816Y-84161256D01*
X146847246Y-84062653D01*
X146721747Y-83937154D01*
X146623144Y-83789584D01*
X146555224Y-83625612D01*
X146520600Y-83451541D01*
X146520600Y-83274059D01*
X146555224Y-83099988D01*
X146623144Y-82936016D01*
X146721747Y-82788446D01*
X146847246Y-82662947D01*
X146994816Y-82564344D01*
X147158788Y-82496424D01*
X147308088Y-82466727D01*
X147332858Y-82461800D01*
X147510342Y-82461800D01*
X147535112Y-82466727D01*
G37*
G36*
X142517395Y-82397546D02*
G01*
X142690466Y-82469234D01*
X142731160Y-82496425D01*
X142846227Y-82573310D01*
X142978690Y-82705773D01*
X142978691Y-82705775D01*
X143082766Y-82861534D01*
X143154454Y-83034605D01*
X143191000Y-83218333D01*
X143191000Y-83405667D01*
X143154454Y-83589395D01*
X143082766Y-83762466D01*
X143064646Y-83789584D01*
X142978690Y-83918227D01*
X142846227Y-84050690D01*
X142828323Y-84062653D01*
X142690466Y-84154766D01*
X142517395Y-84226454D01*
X142333667Y-84263000D01*
X142146333Y-84263000D01*
X141962605Y-84226454D01*
X141789534Y-84154766D01*
X141651677Y-84062653D01*
X141633773Y-84050690D01*
X141501310Y-83918227D01*
X141415354Y-83789584D01*
X141397234Y-83762466D01*
X141325546Y-83589395D01*
X141289000Y-83405667D01*
X141289000Y-83218333D01*
X141325546Y-83034605D01*
X141397234Y-82861534D01*
X141501309Y-82705775D01*
X141501310Y-82705773D01*
X141633773Y-82573310D01*
X141748840Y-82496425D01*
X141789534Y-82469234D01*
X141962605Y-82397546D01*
X142146333Y-82361000D01*
X142333667Y-82361000D01*
X142517395Y-82397546D01*
G37*
G36*
X137437395Y-82397546D02*
G01*
X137610466Y-82469234D01*
X137651160Y-82496425D01*
X137766227Y-82573310D01*
X137898690Y-82705773D01*
X137898691Y-82705775D01*
X138002766Y-82861534D01*
X138074454Y-83034605D01*
X138111000Y-83218333D01*
X138111000Y-83405667D01*
X138074454Y-83589395D01*
X138002766Y-83762466D01*
X137984646Y-83789584D01*
X137898690Y-83918227D01*
X137766227Y-84050690D01*
X137748323Y-84062653D01*
X137610466Y-84154766D01*
X137437395Y-84226454D01*
X137253667Y-84263000D01*
X137066333Y-84263000D01*
X136882605Y-84226454D01*
X136709534Y-84154766D01*
X136571677Y-84062653D01*
X136553773Y-84050690D01*
X136421310Y-83918227D01*
X136335354Y-83789584D01*
X136317234Y-83762466D01*
X136245546Y-83589395D01*
X136209000Y-83405667D01*
X136209000Y-83218333D01*
X136245546Y-83034605D01*
X136317234Y-82861534D01*
X136421309Y-82705775D01*
X136421310Y-82705773D01*
X136553773Y-82573310D01*
X136668840Y-82496425D01*
X136709534Y-82469234D01*
X136882605Y-82397546D01*
X137066333Y-82361000D01*
X137253667Y-82361000D01*
X137437395Y-82397546D01*
G37*
G36*
X139977395Y-82397546D02*
G01*
X140150466Y-82469234D01*
X140191160Y-82496425D01*
X140306227Y-82573310D01*
X140438690Y-82705773D01*
X140438691Y-82705775D01*
X140542766Y-82861534D01*
X140614454Y-83034605D01*
X140651000Y-83218333D01*
X140651000Y-83405667D01*
X140614454Y-83589395D01*
X140542766Y-83762466D01*
X140524646Y-83789584D01*
X140438690Y-83918227D01*
X140306227Y-84050690D01*
X140288323Y-84062653D01*
X140150466Y-84154766D01*
X139977395Y-84226454D01*
X139793667Y-84263000D01*
X139606333Y-84263000D01*
X139422605Y-84226454D01*
X139249534Y-84154766D01*
X139111677Y-84062653D01*
X139093773Y-84050690D01*
X138961310Y-83918227D01*
X138875354Y-83789584D01*
X138857234Y-83762466D01*
X138785546Y-83589395D01*
X138749000Y-83405667D01*
X138749000Y-83218333D01*
X138785546Y-83034605D01*
X138857234Y-82861534D01*
X138961309Y-82705775D01*
X138961310Y-82705773D01*
X139093773Y-82573310D01*
X139208840Y-82496425D01*
X139249534Y-82469234D01*
X139422605Y-82397546D01*
X139606333Y-82361000D01*
X139793667Y-82361000D01*
X139977395Y-82397546D01*
G37*
G36*
X147535112Y-79926727D02*
G01*
X147684412Y-79956424D01*
X147848384Y-80024344D01*
X147995954Y-80122947D01*
X148121453Y-80248446D01*
X148220056Y-80396016D01*
X148287976Y-80559988D01*
X148322600Y-80734059D01*
X148322600Y-80911541D01*
X148287976Y-81085612D01*
X148220056Y-81249584D01*
X148121453Y-81397154D01*
X147995954Y-81522653D01*
X147848384Y-81621256D01*
X147684412Y-81689176D01*
X147535112Y-81718873D01*
X147510342Y-81723800D01*
X147332858Y-81723800D01*
X147308088Y-81718873D01*
X147158788Y-81689176D01*
X146994816Y-81621256D01*
X146847246Y-81522653D01*
X146721747Y-81397154D01*
X146623144Y-81249584D01*
X146555224Y-81085612D01*
X146520600Y-80911541D01*
X146520600Y-80734059D01*
X146555224Y-80559988D01*
X146623144Y-80396016D01*
X146721747Y-80248446D01*
X146847246Y-80122947D01*
X146994816Y-80024344D01*
X147158788Y-79956424D01*
X147308088Y-79926727D01*
X147332858Y-79921800D01*
X147510342Y-79921800D01*
X147535112Y-79926727D01*
G37*
G36*
X139977395Y-79857546D02*
G01*
X140150466Y-79929234D01*
X140191160Y-79956425D01*
X140306227Y-80033310D01*
X140438690Y-80165773D01*
X140438691Y-80165775D01*
X140542766Y-80321534D01*
X140614454Y-80494605D01*
X140651000Y-80678333D01*
X140651000Y-80865667D01*
X140614454Y-81049395D01*
X140542766Y-81222466D01*
X140524646Y-81249584D01*
X140438690Y-81378227D01*
X140306227Y-81510690D01*
X140288323Y-81522653D01*
X140150466Y-81614766D01*
X139977395Y-81686454D01*
X139793667Y-81723000D01*
X139606333Y-81723000D01*
X139422605Y-81686454D01*
X139249534Y-81614766D01*
X139111677Y-81522653D01*
X139093773Y-81510690D01*
X138961310Y-81378227D01*
X138875354Y-81249584D01*
X138857234Y-81222466D01*
X138785546Y-81049395D01*
X138749000Y-80865667D01*
X138749000Y-80678333D01*
X138785546Y-80494605D01*
X138857234Y-80321534D01*
X138961309Y-80165775D01*
X138961310Y-80165773D01*
X139093773Y-80033310D01*
X139208840Y-79956425D01*
X139249534Y-79929234D01*
X139422605Y-79857546D01*
X139606333Y-79821000D01*
X139793667Y-79821000D01*
X139977395Y-79857546D01*
G37*
G36*
X137437395Y-79857546D02*
G01*
X137610466Y-79929234D01*
X137651160Y-79956425D01*
X137766227Y-80033310D01*
X137898690Y-80165773D01*
X137898691Y-80165775D01*
X138002766Y-80321534D01*
X138074454Y-80494605D01*
X138111000Y-80678333D01*
X138111000Y-80865667D01*
X138074454Y-81049395D01*
X138002766Y-81222466D01*
X137984646Y-81249584D01*
X137898690Y-81378227D01*
X137766227Y-81510690D01*
X137748323Y-81522653D01*
X137610466Y-81614766D01*
X137437395Y-81686454D01*
X137253667Y-81723000D01*
X137066333Y-81723000D01*
X136882605Y-81686454D01*
X136709534Y-81614766D01*
X136571677Y-81522653D01*
X136553773Y-81510690D01*
X136421310Y-81378227D01*
X136335354Y-81249584D01*
X136317234Y-81222466D01*
X136245546Y-81049395D01*
X136209000Y-80865667D01*
X136209000Y-80678333D01*
X136245546Y-80494605D01*
X136317234Y-80321534D01*
X136421309Y-80165775D01*
X136421310Y-80165773D01*
X136553773Y-80033310D01*
X136668840Y-79956425D01*
X136709534Y-79929234D01*
X136882605Y-79857546D01*
X137066333Y-79821000D01*
X137253667Y-79821000D01*
X137437395Y-79857546D01*
G37*
G36*
X142517395Y-79857546D02*
G01*
X142690466Y-79929234D01*
X142731160Y-79956425D01*
X142846227Y-80033310D01*
X142978690Y-80165773D01*
X142978691Y-80165775D01*
X143082766Y-80321534D01*
X143154454Y-80494605D01*
X143191000Y-80678333D01*
X143191000Y-80865667D01*
X143154454Y-81049395D01*
X143082766Y-81222466D01*
X143064646Y-81249584D01*
X142978690Y-81378227D01*
X142846227Y-81510690D01*
X142828323Y-81522653D01*
X142690466Y-81614766D01*
X142517395Y-81686454D01*
X142333667Y-81723000D01*
X142146333Y-81723000D01*
X141962605Y-81686454D01*
X141789534Y-81614766D01*
X141651677Y-81522653D01*
X141633773Y-81510690D01*
X141501310Y-81378227D01*
X141415354Y-81249584D01*
X141397234Y-81222466D01*
X141325546Y-81049395D01*
X141289000Y-80865667D01*
X141289000Y-80678333D01*
X141325546Y-80494605D01*
X141397234Y-80321534D01*
X141501309Y-80165775D01*
X141501310Y-80165773D01*
X141633773Y-80033310D01*
X141748840Y-79956425D01*
X141789534Y-79929234D01*
X141962605Y-79857546D01*
X142146333Y-79821000D01*
X142333667Y-79821000D01*
X142517395Y-79857546D01*
G37*
G36*
X142517395Y-76047546D02*
G01*
X142690466Y-76119234D01*
X142767818Y-76170919D01*
X142846227Y-76223310D01*
X142978690Y-76355773D01*
X142982481Y-76361447D01*
X143082766Y-76511534D01*
X143154454Y-76684605D01*
X143191000Y-76868333D01*
X143191000Y-77055667D01*
X143154454Y-77239395D01*
X143082766Y-77412466D01*
X143082765Y-77412467D01*
X142978690Y-77568227D01*
X142846227Y-77700690D01*
X142795992Y-77734256D01*
X142690466Y-77804766D01*
X142517395Y-77876454D01*
X142333667Y-77913000D01*
X142146333Y-77913000D01*
X141962605Y-77876454D01*
X141789534Y-77804766D01*
X141684008Y-77734256D01*
X141633773Y-77700690D01*
X141501310Y-77568227D01*
X141397235Y-77412467D01*
X141397234Y-77412466D01*
X141325546Y-77239395D01*
X141289000Y-77055667D01*
X141289000Y-76868333D01*
X141325546Y-76684605D01*
X141397234Y-76511534D01*
X141497519Y-76361447D01*
X141501310Y-76355773D01*
X141633773Y-76223310D01*
X141712182Y-76170919D01*
X141789534Y-76119234D01*
X141962605Y-76047546D01*
X142146333Y-76011000D01*
X142333667Y-76011000D01*
X142517395Y-76047546D01*
G37*
G36*
X137437395Y-76047546D02*
G01*
X137610466Y-76119234D01*
X137687818Y-76170919D01*
X137766227Y-76223310D01*
X137898690Y-76355773D01*
X137902481Y-76361447D01*
X138002766Y-76511534D01*
X138074454Y-76684605D01*
X138111000Y-76868333D01*
X138111000Y-77055667D01*
X138074454Y-77239395D01*
X138002766Y-77412466D01*
X138002765Y-77412467D01*
X137898690Y-77568227D01*
X137766227Y-77700690D01*
X137715992Y-77734256D01*
X137610466Y-77804766D01*
X137437395Y-77876454D01*
X137253667Y-77913000D01*
X137066333Y-77913000D01*
X136882605Y-77876454D01*
X136709534Y-77804766D01*
X136604008Y-77734256D01*
X136553773Y-77700690D01*
X136421310Y-77568227D01*
X136317235Y-77412467D01*
X136317234Y-77412466D01*
X136245546Y-77239395D01*
X136209000Y-77055667D01*
X136209000Y-76868333D01*
X136245546Y-76684605D01*
X136317234Y-76511534D01*
X136417519Y-76361447D01*
X136421310Y-76355773D01*
X136553773Y-76223310D01*
X136632182Y-76170919D01*
X136709534Y-76119234D01*
X136882605Y-76047546D01*
X137066333Y-76011000D01*
X137253667Y-76011000D01*
X137437395Y-76047546D01*
G37*
G36*
X139977395Y-76047546D02*
G01*
X140150466Y-76119234D01*
X140227818Y-76170919D01*
X140306227Y-76223310D01*
X140438690Y-76355773D01*
X140442481Y-76361447D01*
X140542766Y-76511534D01*
X140614454Y-76684605D01*
X140651000Y-76868333D01*
X140651000Y-77055667D01*
X140614454Y-77239395D01*
X140542766Y-77412466D01*
X140542765Y-77412467D01*
X140438690Y-77568227D01*
X140306227Y-77700690D01*
X140255992Y-77734256D01*
X140150466Y-77804766D01*
X139977395Y-77876454D01*
X139793667Y-77913000D01*
X139606333Y-77913000D01*
X139422605Y-77876454D01*
X139249534Y-77804766D01*
X139144008Y-77734256D01*
X139093773Y-77700690D01*
X138961310Y-77568227D01*
X138857235Y-77412467D01*
X138857234Y-77412466D01*
X138785546Y-77239395D01*
X138749000Y-77055667D01*
X138749000Y-76868333D01*
X138785546Y-76684605D01*
X138857234Y-76511534D01*
X138957519Y-76361447D01*
X138961310Y-76355773D01*
X139093773Y-76223310D01*
X139172182Y-76170919D01*
X139249534Y-76119234D01*
X139422605Y-76047546D01*
X139606333Y-76011000D01*
X139793667Y-76011000D01*
X139977395Y-76047546D01*
G37*
G36*
X147535112Y-76039727D02*
G01*
X147684412Y-76069424D01*
X147848384Y-76137344D01*
X147995954Y-76235947D01*
X148121453Y-76361446D01*
X148220056Y-76509016D01*
X148287976Y-76672988D01*
X148322600Y-76847059D01*
X148322600Y-77024541D01*
X148287976Y-77198612D01*
X148220056Y-77362584D01*
X148121453Y-77510154D01*
X147995954Y-77635653D01*
X147848384Y-77734256D01*
X147684412Y-77802176D01*
X147535112Y-77831873D01*
X147510342Y-77836800D01*
X147332858Y-77836800D01*
X147308088Y-77831873D01*
X147158788Y-77802176D01*
X146994816Y-77734256D01*
X146847246Y-77635653D01*
X146721747Y-77510154D01*
X146623144Y-77362584D01*
X146555224Y-77198612D01*
X146520600Y-77024541D01*
X146520600Y-76847059D01*
X146555224Y-76672988D01*
X146623144Y-76509016D01*
X146721747Y-76361446D01*
X146847246Y-76235947D01*
X146994816Y-76137344D01*
X147158788Y-76069424D01*
X147308088Y-76039727D01*
X147332858Y-76034800D01*
X147510342Y-76034800D01*
X147535112Y-76039727D01*
G37*
G36*
X97751112Y-75507127D02*
G01*
X97900412Y-75536824D01*
X98064384Y-75604744D01*
X98211954Y-75703347D01*
X98337453Y-75828846D01*
X98436056Y-75976416D01*
X98503976Y-76140388D01*
X98538600Y-76314459D01*
X98538600Y-76491941D01*
X98503976Y-76666012D01*
X98436056Y-76829984D01*
X98337453Y-76977554D01*
X98211954Y-77103053D01*
X98064384Y-77201656D01*
X97900412Y-77269576D01*
X97751112Y-77299273D01*
X97726342Y-77304200D01*
X97548858Y-77304200D01*
X97524088Y-77299273D01*
X97374788Y-77269576D01*
X97210816Y-77201656D01*
X97063246Y-77103053D01*
X96937747Y-76977554D01*
X96839144Y-76829984D01*
X96771224Y-76666012D01*
X96736600Y-76491941D01*
X96736600Y-76314459D01*
X96771224Y-76140388D01*
X96839144Y-75976416D01*
X96937747Y-75828846D01*
X97063246Y-75703347D01*
X97210816Y-75604744D01*
X97374788Y-75536824D01*
X97524088Y-75507127D01*
X97548858Y-75502200D01*
X97726342Y-75502200D01*
X97751112Y-75507127D01*
G37*
G36*
X142517395Y-73507546D02*
G01*
X142690466Y-73579234D01*
X142767818Y-73630919D01*
X142846227Y-73683310D01*
X142978690Y-73815773D01*
X142985028Y-73825259D01*
X143082766Y-73971534D01*
X143154454Y-74144605D01*
X143191000Y-74328333D01*
X143191000Y-74515667D01*
X143154454Y-74699395D01*
X143082766Y-74872466D01*
X143082765Y-74872467D01*
X142978690Y-75028227D01*
X142846227Y-75160690D01*
X142794794Y-75195056D01*
X142690466Y-75264766D01*
X142517395Y-75336454D01*
X142333667Y-75373000D01*
X142146333Y-75373000D01*
X141962605Y-75336454D01*
X141789534Y-75264766D01*
X141685206Y-75195056D01*
X141633773Y-75160690D01*
X141501310Y-75028227D01*
X141397235Y-74872467D01*
X141397234Y-74872466D01*
X141325546Y-74699395D01*
X141289000Y-74515667D01*
X141289000Y-74328333D01*
X141325546Y-74144605D01*
X141397234Y-73971534D01*
X141494972Y-73825259D01*
X141501310Y-73815773D01*
X141633773Y-73683310D01*
X141712182Y-73630919D01*
X141789534Y-73579234D01*
X141962605Y-73507546D01*
X142146333Y-73471000D01*
X142333667Y-73471000D01*
X142517395Y-73507546D01*
G37*
G36*
X137437395Y-73507546D02*
G01*
X137610466Y-73579234D01*
X137687818Y-73630919D01*
X137766227Y-73683310D01*
X137898690Y-73815773D01*
X137905028Y-73825259D01*
X138002766Y-73971534D01*
X138074454Y-74144605D01*
X138111000Y-74328333D01*
X138111000Y-74515667D01*
X138074454Y-74699395D01*
X138002766Y-74872466D01*
X138002765Y-74872467D01*
X137898690Y-75028227D01*
X137766227Y-75160690D01*
X137714794Y-75195056D01*
X137610466Y-75264766D01*
X137437395Y-75336454D01*
X137253667Y-75373000D01*
X137066333Y-75373000D01*
X136882605Y-75336454D01*
X136709534Y-75264766D01*
X136605206Y-75195056D01*
X136553773Y-75160690D01*
X136421310Y-75028227D01*
X136317235Y-74872467D01*
X136317234Y-74872466D01*
X136245546Y-74699395D01*
X136209000Y-74515667D01*
X136209000Y-74328333D01*
X136245546Y-74144605D01*
X136317234Y-73971534D01*
X136414972Y-73825259D01*
X136421310Y-73815773D01*
X136553773Y-73683310D01*
X136632182Y-73630919D01*
X136709534Y-73579234D01*
X136882605Y-73507546D01*
X137066333Y-73471000D01*
X137253667Y-73471000D01*
X137437395Y-73507546D01*
G37*
G36*
X139977395Y-73507546D02*
G01*
X140150466Y-73579234D01*
X140227818Y-73630919D01*
X140306227Y-73683310D01*
X140438690Y-73815773D01*
X140445028Y-73825259D01*
X140542766Y-73971534D01*
X140614454Y-74144605D01*
X140651000Y-74328333D01*
X140651000Y-74515667D01*
X140614454Y-74699395D01*
X140542766Y-74872466D01*
X140542765Y-74872467D01*
X140438690Y-75028227D01*
X140306227Y-75160690D01*
X140254794Y-75195056D01*
X140150466Y-75264766D01*
X139977395Y-75336454D01*
X139793667Y-75373000D01*
X139606333Y-75373000D01*
X139422605Y-75336454D01*
X139249534Y-75264766D01*
X139145206Y-75195056D01*
X139093773Y-75160690D01*
X138961310Y-75028227D01*
X138857235Y-74872467D01*
X138857234Y-74872466D01*
X138785546Y-74699395D01*
X138749000Y-74515667D01*
X138749000Y-74328333D01*
X138785546Y-74144605D01*
X138857234Y-73971534D01*
X138954972Y-73825259D01*
X138961310Y-73815773D01*
X139093773Y-73683310D01*
X139172182Y-73630919D01*
X139249534Y-73579234D01*
X139422605Y-73507546D01*
X139606333Y-73471000D01*
X139793667Y-73471000D01*
X139977395Y-73507546D01*
G37*
G36*
X147535112Y-73500527D02*
G01*
X147684412Y-73530224D01*
X147848384Y-73598144D01*
X147995954Y-73696747D01*
X148121453Y-73822246D01*
X148220056Y-73969816D01*
X148287976Y-74133788D01*
X148322600Y-74307859D01*
X148322600Y-74485341D01*
X148287976Y-74659412D01*
X148220056Y-74823384D01*
X148121453Y-74970954D01*
X147995954Y-75096453D01*
X147848384Y-75195056D01*
X147684412Y-75262976D01*
X147535112Y-75292673D01*
X147510342Y-75297600D01*
X147332858Y-75297600D01*
X147308088Y-75292673D01*
X147158788Y-75262976D01*
X146994816Y-75195056D01*
X146847246Y-75096453D01*
X146721747Y-74970954D01*
X146623144Y-74823384D01*
X146555224Y-74659412D01*
X146520600Y-74485341D01*
X146520600Y-74307859D01*
X146555224Y-74133788D01*
X146623144Y-73969816D01*
X146721747Y-73822246D01*
X146847246Y-73696747D01*
X146994816Y-73598144D01*
X147158788Y-73530224D01*
X147308088Y-73500527D01*
X147332858Y-73495600D01*
X147510342Y-73495600D01*
X147535112Y-73500527D01*
G37*
G36*
X97751112Y-73017927D02*
G01*
X97900412Y-73047624D01*
X98064384Y-73115544D01*
X98211954Y-73214147D01*
X98337453Y-73339646D01*
X98436056Y-73487216D01*
X98503976Y-73651188D01*
X98538600Y-73825259D01*
X98538600Y-74002741D01*
X98503976Y-74176812D01*
X98436056Y-74340784D01*
X98337453Y-74488354D01*
X98211954Y-74613853D01*
X98064384Y-74712456D01*
X97900412Y-74780376D01*
X97751112Y-74810073D01*
X97726342Y-74815000D01*
X97548858Y-74815000D01*
X97524088Y-74810073D01*
X97374788Y-74780376D01*
X97210816Y-74712456D01*
X97063246Y-74613853D01*
X96937747Y-74488354D01*
X96839144Y-74340784D01*
X96771224Y-74176812D01*
X96736600Y-74002741D01*
X96736600Y-73825259D01*
X96771224Y-73651188D01*
X96839144Y-73487216D01*
X96937747Y-73339646D01*
X97063246Y-73214147D01*
X97210816Y-73115544D01*
X97374788Y-73047624D01*
X97524088Y-73017927D01*
X97548858Y-73013000D01*
X97726342Y-73013000D01*
X97751112Y-73017927D01*
G37*
G36*
X139977395Y-70967546D02*
G01*
X140150466Y-71039234D01*
X140227818Y-71090919D01*
X140306227Y-71143310D01*
X140438690Y-71275773D01*
X140445028Y-71285259D01*
X140542766Y-71431534D01*
X140614454Y-71604605D01*
X140651000Y-71788333D01*
X140651000Y-71975667D01*
X140614454Y-72159395D01*
X140542766Y-72332466D01*
X140542765Y-72332467D01*
X140438690Y-72488227D01*
X140306227Y-72620690D01*
X140254794Y-72655056D01*
X140150466Y-72724766D01*
X139977395Y-72796454D01*
X139793667Y-72833000D01*
X139606333Y-72833000D01*
X139422605Y-72796454D01*
X139249534Y-72724766D01*
X139145206Y-72655056D01*
X139093773Y-72620690D01*
X138961310Y-72488227D01*
X138857235Y-72332467D01*
X138857234Y-72332466D01*
X138785546Y-72159395D01*
X138749000Y-71975667D01*
X138749000Y-71788333D01*
X138785546Y-71604605D01*
X138857234Y-71431534D01*
X138954972Y-71285259D01*
X138961310Y-71275773D01*
X139093773Y-71143310D01*
X139172182Y-71090919D01*
X139249534Y-71039234D01*
X139422605Y-70967546D01*
X139606333Y-70931000D01*
X139793667Y-70931000D01*
X139977395Y-70967546D01*
G37*
G36*
X142517395Y-70967546D02*
G01*
X142690466Y-71039234D01*
X142767818Y-71090919D01*
X142846227Y-71143310D01*
X142978690Y-71275773D01*
X142985028Y-71285259D01*
X143082766Y-71431534D01*
X143154454Y-71604605D01*
X143191000Y-71788333D01*
X143191000Y-71975667D01*
X143154454Y-72159395D01*
X143082766Y-72332466D01*
X143082765Y-72332467D01*
X142978690Y-72488227D01*
X142846227Y-72620690D01*
X142794794Y-72655056D01*
X142690466Y-72724766D01*
X142517395Y-72796454D01*
X142333667Y-72833000D01*
X142146333Y-72833000D01*
X141962605Y-72796454D01*
X141789534Y-72724766D01*
X141685206Y-72655056D01*
X141633773Y-72620690D01*
X141501310Y-72488227D01*
X141397235Y-72332467D01*
X141397234Y-72332466D01*
X141325546Y-72159395D01*
X141289000Y-71975667D01*
X141289000Y-71788333D01*
X141325546Y-71604605D01*
X141397234Y-71431534D01*
X141494972Y-71285259D01*
X141501310Y-71275773D01*
X141633773Y-71143310D01*
X141712182Y-71090919D01*
X141789534Y-71039234D01*
X141962605Y-70967546D01*
X142146333Y-70931000D01*
X142333667Y-70931000D01*
X142517395Y-70967546D01*
G37*
G36*
X137437395Y-70967546D02*
G01*
X137610466Y-71039234D01*
X137687818Y-71090919D01*
X137766227Y-71143310D01*
X137898690Y-71275773D01*
X137905028Y-71285259D01*
X138002766Y-71431534D01*
X138074454Y-71604605D01*
X138111000Y-71788333D01*
X138111000Y-71975667D01*
X138074454Y-72159395D01*
X138002766Y-72332466D01*
X138002765Y-72332467D01*
X137898690Y-72488227D01*
X137766227Y-72620690D01*
X137714794Y-72655056D01*
X137610466Y-72724766D01*
X137437395Y-72796454D01*
X137253667Y-72833000D01*
X137066333Y-72833000D01*
X136882605Y-72796454D01*
X136709534Y-72724766D01*
X136605206Y-72655056D01*
X136553773Y-72620690D01*
X136421310Y-72488227D01*
X136317235Y-72332467D01*
X136317234Y-72332466D01*
X136245546Y-72159395D01*
X136209000Y-71975667D01*
X136209000Y-71788333D01*
X136245546Y-71604605D01*
X136317234Y-71431534D01*
X136414972Y-71285259D01*
X136421310Y-71275773D01*
X136553773Y-71143310D01*
X136632182Y-71090919D01*
X136709534Y-71039234D01*
X136882605Y-70967546D01*
X137066333Y-70931000D01*
X137253667Y-70931000D01*
X137437395Y-70967546D01*
G37*
G36*
X147535112Y-70960527D02*
G01*
X147684412Y-70990224D01*
X147848384Y-71058144D01*
X147995954Y-71156747D01*
X148121453Y-71282246D01*
X148220056Y-71429816D01*
X148287976Y-71593788D01*
X148322600Y-71767859D01*
X148322600Y-71945341D01*
X148287976Y-72119412D01*
X148220056Y-72283384D01*
X148121453Y-72430954D01*
X147995954Y-72556453D01*
X147848384Y-72655056D01*
X147684412Y-72722976D01*
X147535112Y-72752673D01*
X147510342Y-72757600D01*
X147332858Y-72757600D01*
X147308088Y-72752673D01*
X147158788Y-72722976D01*
X146994816Y-72655056D01*
X146847246Y-72556453D01*
X146721747Y-72430954D01*
X146623144Y-72283384D01*
X146555224Y-72119412D01*
X146520600Y-71945341D01*
X146520600Y-71767859D01*
X146555224Y-71593788D01*
X146623144Y-71429816D01*
X146721747Y-71282246D01*
X146847246Y-71156747D01*
X146994816Y-71058144D01*
X147158788Y-70990224D01*
X147308088Y-70960527D01*
X147332858Y-70955600D01*
X147510342Y-70955600D01*
X147535112Y-70960527D01*
G37*
G36*
X97751112Y-70477927D02*
G01*
X97900412Y-70507624D01*
X98064384Y-70575544D01*
X98211954Y-70674147D01*
X98337453Y-70799646D01*
X98436056Y-70947216D01*
X98503976Y-71111188D01*
X98538600Y-71285259D01*
X98538600Y-71462741D01*
X98503976Y-71636812D01*
X98436056Y-71800784D01*
X98337453Y-71948354D01*
X98211954Y-72073853D01*
X98064384Y-72172456D01*
X97900412Y-72240376D01*
X97751112Y-72270073D01*
X97726342Y-72275000D01*
X97548858Y-72275000D01*
X97524088Y-72270073D01*
X97374788Y-72240376D01*
X97210816Y-72172456D01*
X97063246Y-72073853D01*
X96937747Y-71948354D01*
X96839144Y-71800784D01*
X96771224Y-71636812D01*
X96736600Y-71462741D01*
X96736600Y-71285259D01*
X96771224Y-71111188D01*
X96839144Y-70947216D01*
X96937747Y-70799646D01*
X97063246Y-70674147D01*
X97210816Y-70575544D01*
X97374788Y-70507624D01*
X97524088Y-70477927D01*
X97548858Y-70473000D01*
X97726342Y-70473000D01*
X97751112Y-70477927D01*
G37*
G36*
X142517395Y-68427546D02*
G01*
X142690466Y-68499234D01*
X142767818Y-68550919D01*
X142846227Y-68603310D01*
X142978690Y-68735773D01*
X142985028Y-68745259D01*
X143082766Y-68891534D01*
X143154454Y-69064605D01*
X143191000Y-69248333D01*
X143191000Y-69435667D01*
X143154454Y-69619395D01*
X143082766Y-69792466D01*
X143082765Y-69792467D01*
X142978690Y-69948227D01*
X142846227Y-70080690D01*
X142794794Y-70115056D01*
X142690466Y-70184766D01*
X142517395Y-70256454D01*
X142333667Y-70293000D01*
X142146333Y-70293000D01*
X141962605Y-70256454D01*
X141789534Y-70184766D01*
X141685206Y-70115056D01*
X141633773Y-70080690D01*
X141501310Y-69948227D01*
X141397235Y-69792467D01*
X141397234Y-69792466D01*
X141325546Y-69619395D01*
X141289000Y-69435667D01*
X141289000Y-69248333D01*
X141325546Y-69064605D01*
X141397234Y-68891534D01*
X141494972Y-68745259D01*
X141501310Y-68735773D01*
X141633773Y-68603310D01*
X141712182Y-68550919D01*
X141789534Y-68499234D01*
X141962605Y-68427546D01*
X142146333Y-68391000D01*
X142333667Y-68391000D01*
X142517395Y-68427546D01*
G37*
G36*
X137437395Y-68427546D02*
G01*
X137610466Y-68499234D01*
X137687818Y-68550919D01*
X137766227Y-68603310D01*
X137898690Y-68735773D01*
X137905028Y-68745259D01*
X138002766Y-68891534D01*
X138074454Y-69064605D01*
X138111000Y-69248333D01*
X138111000Y-69435667D01*
X138074454Y-69619395D01*
X138002766Y-69792466D01*
X138002765Y-69792467D01*
X137898690Y-69948227D01*
X137766227Y-70080690D01*
X137714794Y-70115056D01*
X137610466Y-70184766D01*
X137437395Y-70256454D01*
X137253667Y-70293000D01*
X137066333Y-70293000D01*
X136882605Y-70256454D01*
X136709534Y-70184766D01*
X136605206Y-70115056D01*
X136553773Y-70080690D01*
X136421310Y-69948227D01*
X136317235Y-69792467D01*
X136317234Y-69792466D01*
X136245546Y-69619395D01*
X136209000Y-69435667D01*
X136209000Y-69248333D01*
X136245546Y-69064605D01*
X136317234Y-68891534D01*
X136414972Y-68745259D01*
X136421310Y-68735773D01*
X136553773Y-68603310D01*
X136632182Y-68550919D01*
X136709534Y-68499234D01*
X136882605Y-68427546D01*
X137066333Y-68391000D01*
X137253667Y-68391000D01*
X137437395Y-68427546D01*
G37*
G36*
X139977395Y-68427546D02*
G01*
X140150466Y-68499234D01*
X140227818Y-68550919D01*
X140306227Y-68603310D01*
X140438690Y-68735773D01*
X140445028Y-68745259D01*
X140542766Y-68891534D01*
X140614454Y-69064605D01*
X140651000Y-69248333D01*
X140651000Y-69435667D01*
X140614454Y-69619395D01*
X140542766Y-69792466D01*
X140542765Y-69792467D01*
X140438690Y-69948227D01*
X140306227Y-70080690D01*
X140254794Y-70115056D01*
X140150466Y-70184766D01*
X139977395Y-70256454D01*
X139793667Y-70293000D01*
X139606333Y-70293000D01*
X139422605Y-70256454D01*
X139249534Y-70184766D01*
X139145206Y-70115056D01*
X139093773Y-70080690D01*
X138961310Y-69948227D01*
X138857235Y-69792467D01*
X138857234Y-69792466D01*
X138785546Y-69619395D01*
X138749000Y-69435667D01*
X138749000Y-69248333D01*
X138785546Y-69064605D01*
X138857234Y-68891534D01*
X138954972Y-68745259D01*
X138961310Y-68735773D01*
X139093773Y-68603310D01*
X139172182Y-68550919D01*
X139249534Y-68499234D01*
X139422605Y-68427546D01*
X139606333Y-68391000D01*
X139793667Y-68391000D01*
X139977395Y-68427546D01*
G37*
G36*
X147535112Y-68420527D02*
G01*
X147684412Y-68450224D01*
X147848384Y-68518144D01*
X147995954Y-68616747D01*
X148121453Y-68742246D01*
X148220056Y-68889816D01*
X148287976Y-69053788D01*
X148322600Y-69227859D01*
X148322600Y-69405341D01*
X148287976Y-69579412D01*
X148220056Y-69743384D01*
X148121453Y-69890954D01*
X147995954Y-70016453D01*
X147848384Y-70115056D01*
X147684412Y-70182976D01*
X147535112Y-70212673D01*
X147510342Y-70217600D01*
X147332858Y-70217600D01*
X147308088Y-70212673D01*
X147158788Y-70182976D01*
X146994816Y-70115056D01*
X146847246Y-70016453D01*
X146721747Y-69890954D01*
X146623144Y-69743384D01*
X146555224Y-69579412D01*
X146520600Y-69405341D01*
X146520600Y-69227859D01*
X146555224Y-69053788D01*
X146623144Y-68889816D01*
X146721747Y-68742246D01*
X146847246Y-68616747D01*
X146994816Y-68518144D01*
X147158788Y-68450224D01*
X147308088Y-68420527D01*
X147332858Y-68415600D01*
X147510342Y-68415600D01*
X147535112Y-68420527D01*
G37*
G36*
X97751112Y-67937927D02*
G01*
X97900412Y-67967624D01*
X98064384Y-68035544D01*
X98211954Y-68134147D01*
X98337453Y-68259646D01*
X98436056Y-68407216D01*
X98503976Y-68571188D01*
X98538600Y-68745259D01*
X98538600Y-68922741D01*
X98503976Y-69096812D01*
X98436056Y-69260784D01*
X98337453Y-69408354D01*
X98211954Y-69533853D01*
X98064384Y-69632456D01*
X97900412Y-69700376D01*
X97751112Y-69730073D01*
X97726342Y-69735000D01*
X97548858Y-69735000D01*
X97524088Y-69730073D01*
X97374788Y-69700376D01*
X97210816Y-69632456D01*
X97063246Y-69533853D01*
X96937747Y-69408354D01*
X96839144Y-69260784D01*
X96771224Y-69096812D01*
X96736600Y-68922741D01*
X96736600Y-68745259D01*
X96771224Y-68571188D01*
X96839144Y-68407216D01*
X96937747Y-68259646D01*
X97063246Y-68134147D01*
X97210816Y-68035544D01*
X97374788Y-67967624D01*
X97524088Y-67937927D01*
X97548858Y-67933000D01*
X97726342Y-67933000D01*
X97751112Y-67937927D01*
G37*
G36*
X142517395Y-65887546D02*
G01*
X142690466Y-65959234D01*
X142690467Y-65959235D01*
X142846227Y-66063310D01*
X142978690Y-66195773D01*
X142982481Y-66201447D01*
X143082766Y-66351534D01*
X143154454Y-66524605D01*
X143191000Y-66708333D01*
X143191000Y-66895667D01*
X143154454Y-67079395D01*
X143082766Y-67252466D01*
X143082765Y-67252467D01*
X142978690Y-67408227D01*
X142846227Y-67540690D01*
X142795992Y-67574256D01*
X142690466Y-67644766D01*
X142517395Y-67716454D01*
X142333667Y-67753000D01*
X142146333Y-67753000D01*
X141962605Y-67716454D01*
X141789534Y-67644766D01*
X141684008Y-67574256D01*
X141633773Y-67540690D01*
X141501310Y-67408227D01*
X141397235Y-67252467D01*
X141397234Y-67252466D01*
X141325546Y-67079395D01*
X141289000Y-66895667D01*
X141289000Y-66708333D01*
X141325546Y-66524605D01*
X141397234Y-66351534D01*
X141497519Y-66201447D01*
X141501310Y-66195773D01*
X141633773Y-66063310D01*
X141789533Y-65959235D01*
X141789534Y-65959234D01*
X141962605Y-65887546D01*
X142146333Y-65851000D01*
X142333667Y-65851000D01*
X142517395Y-65887546D01*
G37*
G36*
X139977395Y-65887546D02*
G01*
X140150466Y-65959234D01*
X140150467Y-65959235D01*
X140306227Y-66063310D01*
X140438690Y-66195773D01*
X140442481Y-66201447D01*
X140542766Y-66351534D01*
X140614454Y-66524605D01*
X140651000Y-66708333D01*
X140651000Y-66895667D01*
X140614454Y-67079395D01*
X140542766Y-67252466D01*
X140542765Y-67252467D01*
X140438690Y-67408227D01*
X140306227Y-67540690D01*
X140255992Y-67574256D01*
X140150466Y-67644766D01*
X139977395Y-67716454D01*
X139793667Y-67753000D01*
X139606333Y-67753000D01*
X139422605Y-67716454D01*
X139249534Y-67644766D01*
X139144008Y-67574256D01*
X139093773Y-67540690D01*
X138961310Y-67408227D01*
X138857235Y-67252467D01*
X138857234Y-67252466D01*
X138785546Y-67079395D01*
X138749000Y-66895667D01*
X138749000Y-66708333D01*
X138785546Y-66524605D01*
X138857234Y-66351534D01*
X138957519Y-66201447D01*
X138961310Y-66195773D01*
X139093773Y-66063310D01*
X139249533Y-65959235D01*
X139249534Y-65959234D01*
X139422605Y-65887546D01*
X139606333Y-65851000D01*
X139793667Y-65851000D01*
X139977395Y-65887546D01*
G37*
G36*
X137437395Y-65887546D02*
G01*
X137610466Y-65959234D01*
X137610467Y-65959235D01*
X137766227Y-66063310D01*
X137898690Y-66195773D01*
X137902481Y-66201447D01*
X138002766Y-66351534D01*
X138074454Y-66524605D01*
X138111000Y-66708333D01*
X138111000Y-66895667D01*
X138074454Y-67079395D01*
X138002766Y-67252466D01*
X138002765Y-67252467D01*
X137898690Y-67408227D01*
X137766227Y-67540690D01*
X137715992Y-67574256D01*
X137610466Y-67644766D01*
X137437395Y-67716454D01*
X137253667Y-67753000D01*
X137066333Y-67753000D01*
X136882605Y-67716454D01*
X136709534Y-67644766D01*
X136604008Y-67574256D01*
X136553773Y-67540690D01*
X136421310Y-67408227D01*
X136317235Y-67252467D01*
X136317234Y-67252466D01*
X136245546Y-67079395D01*
X136209000Y-66895667D01*
X136209000Y-66708333D01*
X136245546Y-66524605D01*
X136317234Y-66351534D01*
X136417519Y-66201447D01*
X136421310Y-66195773D01*
X136553773Y-66063310D01*
X136709533Y-65959235D01*
X136709534Y-65959234D01*
X136882605Y-65887546D01*
X137066333Y-65851000D01*
X137253667Y-65851000D01*
X137437395Y-65887546D01*
G37*
G36*
X147535112Y-65879727D02*
G01*
X147684412Y-65909424D01*
X147848384Y-65977344D01*
X147995954Y-66075947D01*
X148121453Y-66201446D01*
X148220056Y-66349016D01*
X148287976Y-66512988D01*
X148322600Y-66687059D01*
X148322600Y-66864541D01*
X148287976Y-67038612D01*
X148220056Y-67202584D01*
X148121453Y-67350154D01*
X147995954Y-67475653D01*
X147848384Y-67574256D01*
X147684412Y-67642176D01*
X147535112Y-67671873D01*
X147510342Y-67676800D01*
X147332858Y-67676800D01*
X147308088Y-67671873D01*
X147158788Y-67642176D01*
X146994816Y-67574256D01*
X146847246Y-67475653D01*
X146721747Y-67350154D01*
X146623144Y-67202584D01*
X146555224Y-67038612D01*
X146520600Y-66864541D01*
X146520600Y-66687059D01*
X146555224Y-66512988D01*
X146623144Y-66349016D01*
X146721747Y-66201446D01*
X146847246Y-66075947D01*
X146994816Y-65977344D01*
X147158788Y-65909424D01*
X147308088Y-65879727D01*
X147332858Y-65874800D01*
X147510342Y-65874800D01*
X147535112Y-65879727D01*
G37*
G36*
X137437395Y-63347546D02*
G01*
X137610466Y-63419234D01*
X137610467Y-63419235D01*
X137766227Y-63523310D01*
X137898690Y-63655773D01*
X137902481Y-63661447D01*
X138002766Y-63811534D01*
X138074454Y-63984605D01*
X138111000Y-64168333D01*
X138111000Y-64355667D01*
X138074454Y-64539395D01*
X138002766Y-64712466D01*
X138002765Y-64712467D01*
X137898690Y-64868227D01*
X137766227Y-65000690D01*
X137715992Y-65034256D01*
X137610466Y-65104766D01*
X137437395Y-65176454D01*
X137253667Y-65213000D01*
X137066333Y-65213000D01*
X136882605Y-65176454D01*
X136709534Y-65104766D01*
X136604008Y-65034256D01*
X136553773Y-65000690D01*
X136421310Y-64868227D01*
X136317235Y-64712467D01*
X136317234Y-64712466D01*
X136245546Y-64539395D01*
X136209000Y-64355667D01*
X136209000Y-64168333D01*
X136245546Y-63984605D01*
X136317234Y-63811534D01*
X136417519Y-63661447D01*
X136421310Y-63655773D01*
X136553773Y-63523310D01*
X136709533Y-63419235D01*
X136709534Y-63419234D01*
X136882605Y-63347546D01*
X137066333Y-63311000D01*
X137253667Y-63311000D01*
X137437395Y-63347546D01*
G37*
G36*
X142517395Y-63347546D02*
G01*
X142690466Y-63419234D01*
X142690467Y-63419235D01*
X142846227Y-63523310D01*
X142978690Y-63655773D01*
X142982481Y-63661447D01*
X143082766Y-63811534D01*
X143154454Y-63984605D01*
X143191000Y-64168333D01*
X143191000Y-64355667D01*
X143154454Y-64539395D01*
X143082766Y-64712466D01*
X143082765Y-64712467D01*
X142978690Y-64868227D01*
X142846227Y-65000690D01*
X142795992Y-65034256D01*
X142690466Y-65104766D01*
X142517395Y-65176454D01*
X142333667Y-65213000D01*
X142146333Y-65213000D01*
X141962605Y-65176454D01*
X141789534Y-65104766D01*
X141684008Y-65034256D01*
X141633773Y-65000690D01*
X141501310Y-64868227D01*
X141397235Y-64712467D01*
X141397234Y-64712466D01*
X141325546Y-64539395D01*
X141289000Y-64355667D01*
X141289000Y-64168333D01*
X141325546Y-63984605D01*
X141397234Y-63811534D01*
X141497519Y-63661447D01*
X141501310Y-63655773D01*
X141633773Y-63523310D01*
X141789533Y-63419235D01*
X141789534Y-63419234D01*
X141962605Y-63347546D01*
X142146333Y-63311000D01*
X142333667Y-63311000D01*
X142517395Y-63347546D01*
G37*
G36*
X139977395Y-63347546D02*
G01*
X140150466Y-63419234D01*
X140150467Y-63419235D01*
X140306227Y-63523310D01*
X140438690Y-63655773D01*
X140442481Y-63661447D01*
X140542766Y-63811534D01*
X140614454Y-63984605D01*
X140651000Y-64168333D01*
X140651000Y-64355667D01*
X140614454Y-64539395D01*
X140542766Y-64712466D01*
X140542765Y-64712467D01*
X140438690Y-64868227D01*
X140306227Y-65000690D01*
X140255992Y-65034256D01*
X140150466Y-65104766D01*
X139977395Y-65176454D01*
X139793667Y-65213000D01*
X139606333Y-65213000D01*
X139422605Y-65176454D01*
X139249534Y-65104766D01*
X139144008Y-65034256D01*
X139093773Y-65000690D01*
X138961310Y-64868227D01*
X138857235Y-64712467D01*
X138857234Y-64712466D01*
X138785546Y-64539395D01*
X138749000Y-64355667D01*
X138749000Y-64168333D01*
X138785546Y-63984605D01*
X138857234Y-63811534D01*
X138957519Y-63661447D01*
X138961310Y-63655773D01*
X139093773Y-63523310D01*
X139249533Y-63419235D01*
X139249534Y-63419234D01*
X139422605Y-63347546D01*
X139606333Y-63311000D01*
X139793667Y-63311000D01*
X139977395Y-63347546D01*
G37*
G36*
X147535112Y-63339727D02*
G01*
X147684412Y-63369424D01*
X147848384Y-63437344D01*
X147995954Y-63535947D01*
X148121453Y-63661446D01*
X148220056Y-63809016D01*
X148287976Y-63972988D01*
X148317673Y-64122288D01*
X148320583Y-64136916D01*
X148322600Y-64147059D01*
X148322600Y-64324541D01*
X148287976Y-64498612D01*
X148220056Y-64662584D01*
X148121453Y-64810154D01*
X147995954Y-64935653D01*
X147848384Y-65034256D01*
X147684412Y-65102176D01*
X147535112Y-65131873D01*
X147510342Y-65136800D01*
X147332858Y-65136800D01*
X147308088Y-65131873D01*
X147158788Y-65102176D01*
X146994816Y-65034256D01*
X146847246Y-64935653D01*
X146721747Y-64810154D01*
X146623144Y-64662584D01*
X146555224Y-64498612D01*
X146520600Y-64324541D01*
X146520600Y-64147059D01*
X146522618Y-64136916D01*
X146525527Y-64122288D01*
X146555224Y-63972988D01*
X146623144Y-63809016D01*
X146721747Y-63661446D01*
X146847246Y-63535947D01*
X146994816Y-63437344D01*
X147158788Y-63369424D01*
X147308088Y-63339727D01*
X147332858Y-63334800D01*
X147510342Y-63334800D01*
X147535112Y-63339727D01*
G37*
G36*
X101042964Y-63022789D02*
G01*
X101234233Y-63102015D01*
X101234235Y-63102016D01*
X101406373Y-63217035D01*
X101552765Y-63363427D01*
X101659595Y-63523309D01*
X101667785Y-63535567D01*
X101747011Y-63726836D01*
X101787400Y-63929884D01*
X101787400Y-64136916D01*
X101747011Y-64339964D01*
X101681297Y-64498611D01*
X101667784Y-64531235D01*
X101552765Y-64703373D01*
X101406373Y-64849765D01*
X101234235Y-64964784D01*
X101234234Y-64964785D01*
X101234233Y-64964785D01*
X101042964Y-65044011D01*
X100839916Y-65084400D01*
X100632884Y-65084400D01*
X100429836Y-65044011D01*
X100238567Y-64964785D01*
X100238566Y-64964785D01*
X100238565Y-64964784D01*
X100066427Y-64849765D01*
X99920035Y-64703373D01*
X99805016Y-64531235D01*
X99791503Y-64498611D01*
X99725789Y-64339964D01*
X99685400Y-64136916D01*
X99685400Y-63929884D01*
X99725789Y-63726836D01*
X99805015Y-63535567D01*
X99813206Y-63523309D01*
X99920035Y-63363427D01*
X100066427Y-63217035D01*
X100238565Y-63102016D01*
X100238567Y-63102015D01*
X100429836Y-63022789D01*
X100632884Y-62982400D01*
X100839916Y-62982400D01*
X101042964Y-63022789D01*
G37*
G36*
X101042964Y-59441389D02*
G01*
X101234233Y-59520615D01*
X101234235Y-59520616D01*
X101406373Y-59635635D01*
X101552765Y-59782027D01*
X101667785Y-59954167D01*
X101747011Y-60145436D01*
X101787400Y-60348484D01*
X101787400Y-60555516D01*
X101747011Y-60758564D01*
X101667785Y-60949833D01*
X101667784Y-60949835D01*
X101552765Y-61121973D01*
X101406373Y-61268365D01*
X101234235Y-61383384D01*
X101234234Y-61383385D01*
X101234233Y-61383385D01*
X101042964Y-61462611D01*
X100839916Y-61503000D01*
X100632884Y-61503000D01*
X100429836Y-61462611D01*
X100238567Y-61383385D01*
X100238566Y-61383385D01*
X100238565Y-61383384D01*
X100066427Y-61268365D01*
X99920035Y-61121973D01*
X99805016Y-60949835D01*
X99805015Y-60949833D01*
X99725789Y-60758564D01*
X99685400Y-60555516D01*
X99685400Y-60348484D01*
X99725789Y-60145436D01*
X99805015Y-59954167D01*
X99920035Y-59782027D01*
X100066427Y-59635635D01*
X100238565Y-59520616D01*
X100238567Y-59520615D01*
X100429836Y-59441389D01*
X100632884Y-59401000D01*
X100839916Y-59401000D01*
X101042964Y-59441389D01*
G37*
G36*
X135913395Y-53187546D02*
G01*
X136086466Y-53259234D01*
X136086467Y-53259235D01*
X136242227Y-53363310D01*
X136374690Y-53495773D01*
X136374691Y-53495775D01*
X136478766Y-53651534D01*
X136550454Y-53824605D01*
X136587000Y-54008333D01*
X136587000Y-54195667D01*
X136550454Y-54379395D01*
X136478766Y-54552466D01*
X136478765Y-54552467D01*
X136374690Y-54708227D01*
X136242227Y-54840690D01*
X136163818Y-54893081D01*
X136086466Y-54944766D01*
X135913395Y-55016454D01*
X135729667Y-55053000D01*
X135542333Y-55053000D01*
X135358605Y-55016454D01*
X135185534Y-54944766D01*
X135108182Y-54893081D01*
X135029773Y-54840690D01*
X134897310Y-54708227D01*
X134793235Y-54552467D01*
X134793234Y-54552466D01*
X134721546Y-54379395D01*
X134685000Y-54195667D01*
X134685000Y-54008333D01*
X134721546Y-53824605D01*
X134793234Y-53651534D01*
X134897309Y-53495775D01*
X134897310Y-53495773D01*
X135029773Y-53363310D01*
X135185533Y-53259235D01*
X135185534Y-53259234D01*
X135358605Y-53187546D01*
X135542333Y-53151000D01*
X135729667Y-53151000D01*
X135913395Y-53187546D01*
G37*
G36*
X145057395Y-53187546D02*
G01*
X145230466Y-53259234D01*
X145230467Y-53259235D01*
X145386227Y-53363310D01*
X145518690Y-53495773D01*
X145518691Y-53495775D01*
X145622766Y-53651534D01*
X145694454Y-53824605D01*
X145731000Y-54008333D01*
X145731000Y-54195667D01*
X145694454Y-54379395D01*
X145622766Y-54552466D01*
X145622765Y-54552467D01*
X145518690Y-54708227D01*
X145386227Y-54840690D01*
X145307818Y-54893081D01*
X145230466Y-54944766D01*
X145057395Y-55016454D01*
X144873667Y-55053000D01*
X144686333Y-55053000D01*
X144502605Y-55016454D01*
X144329534Y-54944766D01*
X144252182Y-54893081D01*
X144173773Y-54840690D01*
X144041310Y-54708227D01*
X143937235Y-54552467D01*
X143937234Y-54552466D01*
X143865546Y-54379395D01*
X143829000Y-54195667D01*
X143829000Y-54008333D01*
X143865546Y-53824605D01*
X143937234Y-53651534D01*
X144041309Y-53495775D01*
X144041310Y-53495773D01*
X144173773Y-53363310D01*
X144329533Y-53259235D01*
X144329534Y-53259234D01*
X144502605Y-53187546D01*
X144686333Y-53151000D01*
X144873667Y-53151000D01*
X145057395Y-53187546D01*
G37*
G36*
X113827000Y-52613000D02*
G01*
X111725000Y-52613000D01*
X111725000Y-50511000D01*
X113827000Y-50511000D01*
X113827000Y-52613000D01*
G37*
G36*
X113082564Y-46751389D02*
G01*
X113273833Y-46830615D01*
X113273835Y-46830616D01*
X113445973Y-46945635D01*
X113592365Y-47092027D01*
X113707385Y-47264167D01*
X113786611Y-47455436D01*
X113827000Y-47658484D01*
X113827000Y-47865516D01*
X113786611Y-48068564D01*
X113707385Y-48259833D01*
X113707384Y-48259835D01*
X113592365Y-48431973D01*
X113445973Y-48578365D01*
X113273835Y-48693384D01*
X113273834Y-48693385D01*
X113273833Y-48693385D01*
X113082564Y-48772611D01*
X112879516Y-48813000D01*
X112672484Y-48813000D01*
X112469436Y-48772611D01*
X112278167Y-48693385D01*
X112278166Y-48693385D01*
X112278165Y-48693384D01*
X112106027Y-48578365D01*
X111959635Y-48431973D01*
X111844616Y-48259835D01*
X111844615Y-48259833D01*
X111765389Y-48068564D01*
X111725000Y-47865516D01*
X111725000Y-47658484D01*
X111765389Y-47455436D01*
X111844615Y-47264167D01*
X111959635Y-47092027D01*
X112106027Y-46945635D01*
X112278165Y-46830616D01*
X112278167Y-46830615D01*
X112469436Y-46751389D01*
X112672484Y-46711000D01*
X112879516Y-46711000D01*
X113082564Y-46751389D01*
G37*
G36*
X104671395Y-43535546D02*
G01*
X104844466Y-43607234D01*
X104844467Y-43607235D01*
X105000227Y-43711310D01*
X105132690Y-43843773D01*
X105132691Y-43843775D01*
X105236766Y-43999534D01*
X105308454Y-44172605D01*
X105345000Y-44356333D01*
X105345000Y-44543667D01*
X105308454Y-44727395D01*
X105236766Y-44900466D01*
X105236765Y-44900467D01*
X105132690Y-45056227D01*
X105000227Y-45188690D01*
X104921818Y-45241081D01*
X104844466Y-45292766D01*
X104671395Y-45364454D01*
X104487667Y-45401000D01*
X104300333Y-45401000D01*
X104116605Y-45364454D01*
X103943534Y-45292766D01*
X103866182Y-45241081D01*
X103787773Y-45188690D01*
X103655310Y-45056227D01*
X103551235Y-44900467D01*
X103551234Y-44900466D01*
X103479546Y-44727395D01*
X103443000Y-44543667D01*
X103443000Y-44356333D01*
X103479546Y-44172605D01*
X103551234Y-43999534D01*
X103655309Y-43843775D01*
X103655310Y-43843773D01*
X103787773Y-43711310D01*
X103943533Y-43607235D01*
X103943534Y-43607234D01*
X104116605Y-43535546D01*
X104300333Y-43499000D01*
X104487667Y-43499000D01*
X104671395Y-43535546D01*
G37*
G36*
X100734395Y-43535546D02*
G01*
X100907466Y-43607234D01*
X100907467Y-43607235D01*
X101063227Y-43711310D01*
X101195690Y-43843773D01*
X101195691Y-43843775D01*
X101299766Y-43999534D01*
X101371454Y-44172605D01*
X101408000Y-44356333D01*
X101408000Y-44543667D01*
X101371454Y-44727395D01*
X101299766Y-44900466D01*
X101299765Y-44900467D01*
X101195690Y-45056227D01*
X101063227Y-45188690D01*
X100984818Y-45241081D01*
X100907466Y-45292766D01*
X100734395Y-45364454D01*
X100550667Y-45401000D01*
X100363333Y-45401000D01*
X100179605Y-45364454D01*
X100006534Y-45292766D01*
X99929182Y-45241081D01*
X99850773Y-45188690D01*
X99718310Y-45056227D01*
X99614235Y-44900467D01*
X99614234Y-44900466D01*
X99542546Y-44727395D01*
X99506000Y-44543667D01*
X99506000Y-44356333D01*
X99542546Y-44172605D01*
X99614234Y-43999534D01*
X99718309Y-43843775D01*
X99718310Y-43843773D01*
X99850773Y-43711310D01*
X100006533Y-43607235D01*
X100006534Y-43607234D01*
X100179605Y-43535546D01*
X100363333Y-43499000D01*
X100550667Y-43499000D01*
X100734395Y-43535546D01*
G37*
G36*
X126486228Y-43067703D02*
G01*
X126641100Y-43131853D01*
X126780481Y-43224985D01*
X126899015Y-43343519D01*
X126992147Y-43482900D01*
X127056297Y-43637772D01*
X127089000Y-43802184D01*
X127089000Y-43969816D01*
X127056297Y-44134228D01*
X126992147Y-44289100D01*
X126899015Y-44428481D01*
X126780481Y-44547015D01*
X126641100Y-44640147D01*
X126486228Y-44704297D01*
X126321816Y-44737000D01*
X126154184Y-44737000D01*
X125989772Y-44704297D01*
X125834900Y-44640147D01*
X125695519Y-44547015D01*
X125576985Y-44428481D01*
X125483853Y-44289100D01*
X125419703Y-44134228D01*
X125387000Y-43969816D01*
X125387000Y-43802184D01*
X125419703Y-43637772D01*
X125483853Y-43482900D01*
X125576985Y-43343519D01*
X125695519Y-43224985D01*
X125834900Y-43131853D01*
X125989772Y-43067703D01*
X126154184Y-43035000D01*
X126321816Y-43035000D01*
X126486228Y-43067703D01*
G37*
G36*
X104671395Y-40995546D02*
G01*
X104844466Y-41067234D01*
X104844467Y-41067235D01*
X105000227Y-41171310D01*
X105132690Y-41303773D01*
X105132691Y-41303775D01*
X105236766Y-41459534D01*
X105308454Y-41632605D01*
X105345000Y-41816333D01*
X105345000Y-42003667D01*
X105308454Y-42187395D01*
X105236766Y-42360466D01*
X105236765Y-42360467D01*
X105132690Y-42516227D01*
X105000227Y-42648690D01*
X104921818Y-42701081D01*
X104844466Y-42752766D01*
X104671395Y-42824454D01*
X104487667Y-42861000D01*
X104300333Y-42861000D01*
X104116605Y-42824454D01*
X103943534Y-42752766D01*
X103866182Y-42701081D01*
X103787773Y-42648690D01*
X103655310Y-42516227D01*
X103551235Y-42360467D01*
X103551234Y-42360466D01*
X103479546Y-42187395D01*
X103443000Y-42003667D01*
X103443000Y-41816333D01*
X103479546Y-41632605D01*
X103551234Y-41459534D01*
X103655309Y-41303775D01*
X103655310Y-41303773D01*
X103787773Y-41171310D01*
X103943533Y-41067235D01*
X103943534Y-41067234D01*
X104116605Y-40995546D01*
X104300333Y-40959000D01*
X104487667Y-40959000D01*
X104671395Y-40995546D01*
G37*
G36*
X100734395Y-40995546D02*
G01*
X100907466Y-41067234D01*
X100907467Y-41067235D01*
X101063227Y-41171310D01*
X101195690Y-41303773D01*
X101195691Y-41303775D01*
X101299766Y-41459534D01*
X101371454Y-41632605D01*
X101408000Y-41816333D01*
X101408000Y-42003667D01*
X101371454Y-42187395D01*
X101299766Y-42360466D01*
X101299765Y-42360467D01*
X101195690Y-42516227D01*
X101063227Y-42648690D01*
X100984818Y-42701081D01*
X100907466Y-42752766D01*
X100734395Y-42824454D01*
X100550667Y-42861000D01*
X100363333Y-42861000D01*
X100179605Y-42824454D01*
X100006534Y-42752766D01*
X99929182Y-42701081D01*
X99850773Y-42648690D01*
X99718310Y-42516227D01*
X99614235Y-42360467D01*
X99614234Y-42360466D01*
X99542546Y-42187395D01*
X99506000Y-42003667D01*
X99506000Y-41816333D01*
X99542546Y-41632605D01*
X99614234Y-41459534D01*
X99718309Y-41303775D01*
X99718310Y-41303773D01*
X99850773Y-41171310D01*
X100006533Y-41067235D01*
X100006534Y-41067234D01*
X100179605Y-40995546D01*
X100363333Y-40959000D01*
X100550667Y-40959000D01*
X100734395Y-40995546D01*
G37*
G36*
X127089000Y-41237000D02*
G01*
X125387000Y-41237000D01*
X125387000Y-39535000D01*
X127089000Y-39535000D01*
X127089000Y-41237000D01*
G37*
G36*
X104671395Y-38455546D02*
G01*
X104844466Y-38527234D01*
X104921818Y-38578919D01*
X105000227Y-38631310D01*
X105132690Y-38763773D01*
X105132691Y-38763775D01*
X105236766Y-38919534D01*
X105308454Y-39092605D01*
X105345000Y-39276333D01*
X105345000Y-39463667D01*
X105308454Y-39647395D01*
X105236766Y-39820466D01*
X105185081Y-39897818D01*
X105132690Y-39976227D01*
X105000227Y-40108690D01*
X104921818Y-40161081D01*
X104844466Y-40212766D01*
X104671395Y-40284454D01*
X104487667Y-40321000D01*
X104300333Y-40321000D01*
X104116605Y-40284454D01*
X103943534Y-40212766D01*
X103866182Y-40161081D01*
X103787773Y-40108690D01*
X103655310Y-39976227D01*
X103602919Y-39897818D01*
X103551234Y-39820466D01*
X103479546Y-39647395D01*
X103443000Y-39463667D01*
X103443000Y-39276333D01*
X103479546Y-39092605D01*
X103551234Y-38919534D01*
X103655309Y-38763775D01*
X103655310Y-38763773D01*
X103787773Y-38631310D01*
X103866182Y-38578919D01*
X103943534Y-38527234D01*
X104116605Y-38455546D01*
X104300333Y-38419000D01*
X104487667Y-38419000D01*
X104671395Y-38455546D01*
G37*
G36*
X100734395Y-38455546D02*
G01*
X100907466Y-38527234D01*
X100984818Y-38578919D01*
X101063227Y-38631310D01*
X101195690Y-38763773D01*
X101195691Y-38763775D01*
X101299766Y-38919534D01*
X101371454Y-39092605D01*
X101408000Y-39276333D01*
X101408000Y-39463667D01*
X101371454Y-39647395D01*
X101299766Y-39820466D01*
X101248081Y-39897818D01*
X101195690Y-39976227D01*
X101063227Y-40108690D01*
X100984818Y-40161081D01*
X100907466Y-40212766D01*
X100734395Y-40284454D01*
X100550667Y-40321000D01*
X100363333Y-40321000D01*
X100179605Y-40284454D01*
X100006534Y-40212766D01*
X99929182Y-40161081D01*
X99850773Y-40108690D01*
X99718310Y-39976227D01*
X99665919Y-39897818D01*
X99614234Y-39820466D01*
X99542546Y-39647395D01*
X99506000Y-39463667D01*
X99506000Y-39276333D01*
X99542546Y-39092605D01*
X99614234Y-38919534D01*
X99718309Y-38763775D01*
X99718310Y-38763773D01*
X99850773Y-38631310D01*
X99929182Y-38578919D01*
X100006534Y-38527234D01*
X100179605Y-38455546D01*
X100363333Y-38419000D01*
X100550667Y-38419000D01*
X100734395Y-38455546D01*
G37*
G36*
X111730549Y-37733116D02*
G01*
X111841734Y-37755232D01*
X112051203Y-37841997D01*
X112239720Y-37967960D01*
X112400040Y-38128280D01*
X112526003Y-38316797D01*
X112612768Y-38526266D01*
X112657000Y-38748636D01*
X112657000Y-38975364D01*
X112612768Y-39197734D01*
X112526003Y-39407203D01*
X112400040Y-39595720D01*
X112239720Y-39756040D01*
X112051203Y-39882003D01*
X111841734Y-39968768D01*
X111730549Y-39990884D01*
X111619365Y-40013000D01*
X111392635Y-40013000D01*
X111281451Y-39990884D01*
X111170266Y-39968768D01*
X110960797Y-39882003D01*
X110772280Y-39756040D01*
X110611960Y-39595720D01*
X110485997Y-39407203D01*
X110399232Y-39197734D01*
X110355000Y-38975364D01*
X110355000Y-38748636D01*
X110399232Y-38526266D01*
X110485997Y-38316797D01*
X110611960Y-38128280D01*
X110772280Y-37967960D01*
X110960797Y-37841997D01*
X111170266Y-37755232D01*
X111281451Y-37733116D01*
X111392635Y-37711000D01*
X111619365Y-37711000D01*
X111730549Y-37733116D01*
G37*
G36*
X116302549Y-37733116D02*
G01*
X116413734Y-37755232D01*
X116623203Y-37841997D01*
X116811720Y-37967960D01*
X116972040Y-38128280D01*
X117098003Y-38316797D01*
X117184768Y-38526266D01*
X117229000Y-38748636D01*
X117229000Y-38975364D01*
X117184768Y-39197734D01*
X117098003Y-39407203D01*
X116972040Y-39595720D01*
X116811720Y-39756040D01*
X116623203Y-39882003D01*
X116413734Y-39968768D01*
X116302549Y-39990884D01*
X116191365Y-40013000D01*
X115964635Y-40013000D01*
X115853451Y-39990884D01*
X115742266Y-39968768D01*
X115532797Y-39882003D01*
X115344280Y-39756040D01*
X115183960Y-39595720D01*
X115057997Y-39407203D01*
X114971232Y-39197734D01*
X114927000Y-38975364D01*
X114927000Y-38748636D01*
X114971232Y-38526266D01*
X115057997Y-38316797D01*
X115183960Y-38128280D01*
X115344280Y-37967960D01*
X115532797Y-37841997D01*
X115742266Y-37755232D01*
X115853451Y-37733116D01*
X115964635Y-37711000D01*
X116191365Y-37711000D01*
X116302549Y-37733116D01*
G37*
G36*
X145057395Y-38074546D02*
G01*
X145230466Y-38146234D01*
X145230467Y-38146235D01*
X145386227Y-38250310D01*
X145518690Y-38382773D01*
X145518691Y-38382775D01*
X145622766Y-38538534D01*
X145694454Y-38711605D01*
X145731000Y-38895333D01*
X145731000Y-39082667D01*
X145694454Y-39266395D01*
X145622766Y-39439466D01*
X145606595Y-39463667D01*
X145518690Y-39595227D01*
X145386227Y-39727690D01*
X145343798Y-39756040D01*
X145230466Y-39831766D01*
X145057395Y-39903454D01*
X144873667Y-39940000D01*
X144686333Y-39940000D01*
X144502605Y-39903454D01*
X144329534Y-39831766D01*
X144216202Y-39756040D01*
X144173773Y-39727690D01*
X144041310Y-39595227D01*
X143953405Y-39463667D01*
X143937234Y-39439466D01*
X143865546Y-39266395D01*
X143829000Y-39082667D01*
X143829000Y-38895333D01*
X143865546Y-38711605D01*
X143937234Y-38538534D01*
X144041309Y-38382775D01*
X144041310Y-38382773D01*
X144173773Y-38250310D01*
X144329533Y-38146235D01*
X144329534Y-38146234D01*
X144502605Y-38074546D01*
X144686333Y-38038000D01*
X144873667Y-38038000D01*
X145057395Y-38074546D01*
G37*
G36*
X135913395Y-38074546D02*
G01*
X136086466Y-38146234D01*
X136086467Y-38146235D01*
X136242227Y-38250310D01*
X136374690Y-38382773D01*
X136374691Y-38382775D01*
X136478766Y-38538534D01*
X136550454Y-38711605D01*
X136587000Y-38895333D01*
X136587000Y-39082667D01*
X136550454Y-39266395D01*
X136478766Y-39439466D01*
X136462595Y-39463667D01*
X136374690Y-39595227D01*
X136242227Y-39727690D01*
X136199798Y-39756040D01*
X136086466Y-39831766D01*
X135913395Y-39903454D01*
X135729667Y-39940000D01*
X135542333Y-39940000D01*
X135358605Y-39903454D01*
X135185534Y-39831766D01*
X135072202Y-39756040D01*
X135029773Y-39727690D01*
X134897310Y-39595227D01*
X134809405Y-39463667D01*
X134793234Y-39439466D01*
X134721546Y-39266395D01*
X134685000Y-39082667D01*
X134685000Y-38895333D01*
X134721546Y-38711605D01*
X134793234Y-38538534D01*
X134897309Y-38382775D01*
X134897310Y-38382773D01*
X135029773Y-38250310D01*
X135185533Y-38146235D01*
X135185534Y-38146234D01*
X135358605Y-38074546D01*
X135542333Y-38038000D01*
X135729667Y-38038000D01*
X135913395Y-38074546D01*
G37*
M02*
