G04 #@! TF.GenerationSoftware,KiCad,Pcbnew,(5.1.5)-3*
G04 #@! TF.CreationDate,2020-03-10T10:04:20+01:00*
G04 #@! TF.ProjectId,FPGA,46504741-2e6b-4696-9361-645f70636258,rev?*
G04 #@! TF.SameCoordinates,Original*
G04 #@! TF.FileFunction,Copper,L1,Top*
G04 #@! TF.FilePolarity,Positive*
%FSLAX46Y46*%
G04 Gerber Fmt 4.6, Leading zero omitted, Abs format (unit mm)*
G04 Created by KiCad (PCBNEW (5.1.5)-3) date 2020-03-10 10:04:20*
%MOMM*%
%LPD*%
G04 APERTURE LIST*
%ADD10C,1.700000*%
%ADD11O,1.800000X1.800000*%
%ADD12C,2.000000*%
%ADD13R,2.000000X2.000000*%
%ADD14C,2.200000*%
%ADD15C,1.600000*%
%ADD16R,1.600000X1.600000*%
%ADD17C,1.800000*%
G04 APERTURE END LIST*
D10*
X147421600Y-64235800D03*
X147421600Y-66775800D03*
X147421600Y-69316600D03*
X147421600Y-71856600D03*
X147421600Y-74396600D03*
X147421600Y-76935800D03*
X147421600Y-80822800D03*
X147421600Y-83362800D03*
X147421600Y-85902800D03*
X147421600Y-88442800D03*
X147421600Y-90982800D03*
X147421600Y-93522800D03*
X147421600Y-96062800D03*
X147421600Y-98602800D03*
X97637600Y-68834000D03*
X97637600Y-71374000D03*
X97637600Y-73914000D03*
X97637600Y-76403200D03*
X97637600Y-85902800D03*
X97637600Y-88392000D03*
X97637600Y-90932000D03*
X97637600Y-93522800D03*
X97637600Y-96012000D03*
X97637600Y-98602800D03*
D11*
X142240000Y-64262000D03*
X142240000Y-66802000D03*
X142240000Y-69342000D03*
X142240000Y-71882000D03*
X142240000Y-74422000D03*
X142240000Y-76962000D03*
D12*
X112776000Y-47762000D03*
D13*
X112776000Y-51562000D03*
D14*
X116078000Y-38862000D03*
X111506000Y-38862000D03*
D12*
X100736400Y-64033400D03*
X100736400Y-60452000D03*
D15*
X126238000Y-43886000D03*
D16*
X126238000Y-40386000D03*
D11*
X100457000Y-39370000D03*
X100457000Y-41910000D03*
X100457000Y-44450000D03*
X104394000Y-44450000D03*
X104394000Y-41910000D03*
X104394000Y-39370000D03*
D17*
X144780000Y-54102000D03*
X135636000Y-54102000D03*
X135636000Y-38989000D03*
X144780000Y-38989000D03*
D11*
X142240000Y-93472000D03*
X142240000Y-90932000D03*
X142240000Y-88392000D03*
X142240000Y-85852000D03*
X142240000Y-83312000D03*
X142240000Y-80772000D03*
X139700000Y-76962000D03*
X139700000Y-74422000D03*
X139700000Y-71882000D03*
X139700000Y-69342000D03*
X139700000Y-66802000D03*
X139700000Y-64262000D03*
X139700000Y-80772000D03*
X139700000Y-83312000D03*
X139700000Y-85852000D03*
X139700000Y-88392000D03*
X139700000Y-90932000D03*
X139700000Y-93472000D03*
X137160000Y-76962000D03*
X137160000Y-74422000D03*
X137160000Y-71882000D03*
X137160000Y-69342000D03*
X137160000Y-66802000D03*
X137160000Y-64262000D03*
X137160000Y-80772000D03*
X137160000Y-83312000D03*
X137160000Y-85852000D03*
X137160000Y-88392000D03*
X137160000Y-90932000D03*
X137160000Y-93472000D03*
X130810000Y-100584000D03*
X128270000Y-100584000D03*
X125730000Y-100584000D03*
X123190000Y-100584000D03*
X120650000Y-100584000D03*
X118110000Y-100584000D03*
M02*
