G04 #@! TF.GenerationSoftware,KiCad,Pcbnew,(5.1.5)-3*
G04 #@! TF.CreationDate,2020-03-10T10:04:20+01:00*
G04 #@! TF.ProjectId,FPGA,46504741-2e6b-4696-9361-645f70636258,rev?*
G04 #@! TF.SameCoordinates,Original*
G04 #@! TF.FileFunction,Copper,L2,Bot*
G04 #@! TF.FilePolarity,Positive*
%FSLAX46Y46*%
G04 Gerber Fmt 4.6, Leading zero omitted, Abs format (unit mm)*
G04 Created by KiCad (PCBNEW (5.1.5)-3) date 2020-03-10 10:04:20*
%MOMM*%
%LPD*%
G04 APERTURE LIST*
%ADD10C,1.700000*%
%ADD11O,1.800000X1.800000*%
%ADD12C,2.000000*%
%ADD13R,2.000000X2.000000*%
%ADD14C,2.200000*%
%ADD15C,1.600000*%
%ADD16R,1.600000X1.600000*%
%ADD17C,1.800000*%
%ADD18C,1.000000*%
%ADD19C,0.800000*%
%ADD20C,0.500000*%
%ADD21C,0.254000*%
G04 APERTURE END LIST*
D10*
X147421600Y-64235800D03*
X147421600Y-66775800D03*
X147421600Y-69316600D03*
X147421600Y-71856600D03*
X147421600Y-74396600D03*
X147421600Y-76935800D03*
X147421600Y-80822800D03*
X147421600Y-83362800D03*
X147421600Y-85902800D03*
X147421600Y-88442800D03*
X147421600Y-90982800D03*
X147421600Y-93522800D03*
X147421600Y-96062800D03*
X147421600Y-98602800D03*
X97637600Y-68834000D03*
X97637600Y-71374000D03*
X97637600Y-73914000D03*
X97637600Y-76403200D03*
X97637600Y-85902800D03*
X97637600Y-88392000D03*
X97637600Y-90932000D03*
X97637600Y-93522800D03*
X97637600Y-96012000D03*
X97637600Y-98602800D03*
D11*
X142240000Y-64262000D03*
X142240000Y-66802000D03*
X142240000Y-69342000D03*
X142240000Y-71882000D03*
X142240000Y-74422000D03*
X142240000Y-76962000D03*
D12*
X112776000Y-47762000D03*
D13*
X112776000Y-51562000D03*
D14*
X116078000Y-38862000D03*
X111506000Y-38862000D03*
D12*
X100736400Y-64033400D03*
X100736400Y-60452000D03*
D15*
X126238000Y-43886000D03*
D16*
X126238000Y-40386000D03*
D11*
X100457000Y-39370000D03*
X100457000Y-41910000D03*
X100457000Y-44450000D03*
X104394000Y-44450000D03*
X104394000Y-41910000D03*
X104394000Y-39370000D03*
D17*
X144780000Y-54102000D03*
X135636000Y-54102000D03*
X135636000Y-38989000D03*
X144780000Y-38989000D03*
D11*
X142240000Y-93472000D03*
X142240000Y-90932000D03*
X142240000Y-88392000D03*
X142240000Y-85852000D03*
X142240000Y-83312000D03*
X142240000Y-80772000D03*
X139700000Y-76962000D03*
X139700000Y-74422000D03*
X139700000Y-71882000D03*
X139700000Y-69342000D03*
X139700000Y-66802000D03*
X139700000Y-64262000D03*
X139700000Y-80772000D03*
X139700000Y-83312000D03*
X139700000Y-85852000D03*
X139700000Y-88392000D03*
X139700000Y-90932000D03*
X139700000Y-93472000D03*
X137160000Y-76962000D03*
X137160000Y-74422000D03*
X137160000Y-71882000D03*
X137160000Y-69342000D03*
X137160000Y-66802000D03*
X137160000Y-64262000D03*
X137160000Y-80772000D03*
X137160000Y-83312000D03*
X137160000Y-85852000D03*
X137160000Y-88392000D03*
X137160000Y-90932000D03*
X137160000Y-93472000D03*
X130810000Y-100584000D03*
X128270000Y-100584000D03*
X125730000Y-100584000D03*
X123190000Y-100584000D03*
X120650000Y-100584000D03*
X118110000Y-100584000D03*
D18*
X126238000Y-40386000D02*
X126238000Y-40132000D01*
X135509000Y-38862000D02*
X135636000Y-38989000D01*
X126238000Y-40386000D02*
X127762000Y-38862000D01*
X127762000Y-38862000D02*
X135509000Y-38862000D01*
X126238000Y-40386000D02*
X126238000Y-39116000D01*
X126238000Y-39116000D02*
X125984000Y-38862000D01*
X125984000Y-38862000D02*
X127762000Y-38862000D01*
X126238000Y-40386000D02*
X124714000Y-38862000D01*
X116078000Y-38862000D02*
X124714000Y-38862000D01*
X124714000Y-38862000D02*
X125984000Y-38862000D01*
D19*
X135636000Y-38989000D02*
X138303000Y-38989000D01*
X138303000Y-38989000D02*
X139700000Y-40386000D01*
X139700000Y-40386000D02*
X139700000Y-93472000D01*
X135636000Y-52832000D02*
X135636000Y-54102000D01*
X134366000Y-51562000D02*
X135636000Y-52832000D01*
X120650000Y-53594000D02*
X118618000Y-51562000D01*
X120650000Y-100584000D02*
X120650000Y-53594000D01*
X112776000Y-51562000D02*
X118618000Y-51562000D01*
X118618000Y-51562000D02*
X134366000Y-51562000D01*
X112776000Y-61976000D02*
X112776000Y-51562000D01*
X112776000Y-63246000D02*
X112776000Y-61976000D01*
X101736399Y-64008000D02*
X112014000Y-64008000D01*
X112014000Y-64008000D02*
X112776000Y-63246000D01*
X101710999Y-64033400D02*
X101736399Y-64008000D01*
X100736400Y-64033400D02*
X101710999Y-64033400D01*
D20*
X147395400Y-64262000D02*
X147421600Y-64235800D01*
X142240000Y-64262000D02*
X147395400Y-64262000D01*
X142266200Y-66775800D02*
X142240000Y-66802000D01*
X147421600Y-66775800D02*
X142266200Y-66775800D01*
X147396200Y-69342000D02*
X147421600Y-69316600D01*
X142240000Y-69342000D02*
X147396200Y-69342000D01*
X142265400Y-71856600D02*
X142240000Y-71882000D01*
X147421600Y-71856600D02*
X142265400Y-71856600D01*
X147396200Y-74422000D02*
X147421600Y-74396600D01*
X142240000Y-74422000D02*
X147396200Y-74422000D01*
X147395400Y-76962000D02*
X147421600Y-76935800D01*
X142240000Y-76962000D02*
X147395400Y-76962000D01*
X142290800Y-80822800D02*
X142240000Y-80772000D01*
X147421600Y-80822800D02*
X142290800Y-80822800D01*
X147370800Y-83312000D02*
X147421600Y-83362800D01*
X142240000Y-83312000D02*
X147370800Y-83312000D01*
X142290800Y-85902800D02*
X142240000Y-85852000D01*
X147421600Y-85902800D02*
X142290800Y-85902800D01*
X147370800Y-88392000D02*
X147421600Y-88442800D01*
X142240000Y-88392000D02*
X147370800Y-88392000D01*
X142290800Y-90982800D02*
X142240000Y-90932000D01*
X147421600Y-90982800D02*
X142290800Y-90982800D01*
X147370800Y-93472000D02*
X147421600Y-93522800D01*
X142240000Y-93472000D02*
X147370800Y-93472000D01*
X128270000Y-100584000D02*
X130556000Y-98298000D01*
X130556000Y-98298000D02*
X138430000Y-98298000D01*
X138430000Y-98298000D02*
X140716000Y-96012000D01*
X140766800Y-96062800D02*
X147421600Y-96062800D01*
X140716000Y-96012000D02*
X140766800Y-96062800D01*
X125730000Y-100584000D02*
X125730000Y-101600000D01*
X125730000Y-101600000D02*
X126238000Y-102108000D01*
X126238000Y-102108000D02*
X137414000Y-102108000D01*
X140919200Y-98602800D02*
X147421600Y-98602800D01*
X137414000Y-102108000D02*
X140919200Y-98602800D01*
D18*
X104394000Y-41910000D02*
X108458000Y-41910000D01*
X100584000Y-41910000D02*
X104394000Y-41910000D01*
X108458000Y-41910000D02*
X111506000Y-38862000D01*
D21*
G36*
X144463395Y-32482669D02*
G01*
X145395853Y-32693663D01*
X146286877Y-33040163D01*
X147116898Y-33514560D01*
X147867677Y-34106427D01*
X148522732Y-34802771D01*
X149067665Y-35588288D01*
X149490504Y-36445720D01*
X149781960Y-37356231D01*
X149937263Y-38309824D01*
X149962000Y-38876405D01*
X149962001Y-99281713D01*
X149942441Y-99481204D01*
X149893881Y-99642040D01*
X149815008Y-99790378D01*
X149708822Y-99920575D01*
X149579372Y-100027665D01*
X149431586Y-100107572D01*
X149271094Y-100157253D01*
X149073695Y-100178000D01*
X143096581Y-100178000D01*
X143067874Y-100180827D01*
X143057656Y-100180756D01*
X143048485Y-100181656D01*
X142728031Y-100215337D01*
X142669458Y-100227360D01*
X142610673Y-100238574D01*
X142601851Y-100241238D01*
X142294044Y-100336521D01*
X142238937Y-100359686D01*
X142183437Y-100382109D01*
X142175300Y-100386436D01*
X141891861Y-100539691D01*
X141842277Y-100573136D01*
X141792214Y-100605896D01*
X141785073Y-100611720D01*
X141536799Y-100817110D01*
X141494659Y-100859546D01*
X141451909Y-100901409D01*
X141446036Y-100908510D01*
X141242384Y-101158212D01*
X141209304Y-101208002D01*
X141175485Y-101257392D01*
X141171102Y-101265499D01*
X141019829Y-101550001D01*
X140997029Y-101605319D01*
X140973468Y-101660290D01*
X140970743Y-101669093D01*
X140877612Y-101977559D01*
X140865992Y-102036246D01*
X140853556Y-102094749D01*
X140852593Y-102103914D01*
X140845109Y-102180246D01*
X140822113Y-102288432D01*
X140821150Y-102297596D01*
X140791185Y-102603205D01*
X140721133Y-102835226D01*
X140607350Y-103049222D01*
X140454169Y-103237039D01*
X140267424Y-103391529D01*
X140054231Y-103506802D01*
X139822701Y-103578472D01*
X139551276Y-103607000D01*
X98965279Y-103607000D01*
X98346447Y-103546323D01*
X97782228Y-103375975D01*
X97261848Y-103099285D01*
X96805121Y-102726788D01*
X96429446Y-102272673D01*
X96149126Y-101754234D01*
X95974845Y-101191222D01*
X95910000Y-100574262D01*
X95910000Y-85756540D01*
X96152600Y-85756540D01*
X96152600Y-86049060D01*
X96209668Y-86335958D01*
X96321610Y-86606211D01*
X96484125Y-86849432D01*
X96690968Y-87056275D01*
X96827346Y-87147400D01*
X96690968Y-87238525D01*
X96484125Y-87445368D01*
X96321610Y-87688589D01*
X96209668Y-87958842D01*
X96152600Y-88245740D01*
X96152600Y-88538260D01*
X96209668Y-88825158D01*
X96321610Y-89095411D01*
X96484125Y-89338632D01*
X96690968Y-89545475D01*
X96865360Y-89662000D01*
X96690968Y-89778525D01*
X96484125Y-89985368D01*
X96321610Y-90228589D01*
X96209668Y-90498842D01*
X96152600Y-90785740D01*
X96152600Y-91078260D01*
X96209668Y-91365158D01*
X96321610Y-91635411D01*
X96484125Y-91878632D01*
X96690968Y-92085475D01*
X96903374Y-92227400D01*
X96690968Y-92369325D01*
X96484125Y-92576168D01*
X96321610Y-92819389D01*
X96209668Y-93089642D01*
X96152600Y-93376540D01*
X96152600Y-93669060D01*
X96209668Y-93955958D01*
X96321610Y-94226211D01*
X96484125Y-94469432D01*
X96690968Y-94676275D01*
X96827346Y-94767400D01*
X96690968Y-94858525D01*
X96484125Y-95065368D01*
X96321610Y-95308589D01*
X96209668Y-95578842D01*
X96152600Y-95865740D01*
X96152600Y-96158260D01*
X96209668Y-96445158D01*
X96321610Y-96715411D01*
X96484125Y-96958632D01*
X96690968Y-97165475D01*
X96903374Y-97307400D01*
X96690968Y-97449325D01*
X96484125Y-97656168D01*
X96321610Y-97899389D01*
X96209668Y-98169642D01*
X96152600Y-98456540D01*
X96152600Y-98749060D01*
X96209668Y-99035958D01*
X96321610Y-99306211D01*
X96484125Y-99549432D01*
X96690968Y-99756275D01*
X96934189Y-99918790D01*
X97204442Y-100030732D01*
X97491340Y-100087800D01*
X97783860Y-100087800D01*
X98070758Y-100030732D01*
X98341011Y-99918790D01*
X98584232Y-99756275D01*
X98791075Y-99549432D01*
X98953590Y-99306211D01*
X99065532Y-99035958D01*
X99122600Y-98749060D01*
X99122600Y-98456540D01*
X99065532Y-98169642D01*
X98953590Y-97899389D01*
X98791075Y-97656168D01*
X98584232Y-97449325D01*
X98371826Y-97307400D01*
X98584232Y-97165475D01*
X98791075Y-96958632D01*
X98953590Y-96715411D01*
X99065532Y-96445158D01*
X99122600Y-96158260D01*
X99122600Y-95865740D01*
X99065532Y-95578842D01*
X98953590Y-95308589D01*
X98791075Y-95065368D01*
X98584232Y-94858525D01*
X98447854Y-94767400D01*
X98584232Y-94676275D01*
X98791075Y-94469432D01*
X98953590Y-94226211D01*
X99065532Y-93955958D01*
X99122600Y-93669060D01*
X99122600Y-93376540D01*
X99065532Y-93089642D01*
X98953590Y-92819389D01*
X98791075Y-92576168D01*
X98584232Y-92369325D01*
X98371826Y-92227400D01*
X98584232Y-92085475D01*
X98791075Y-91878632D01*
X98953590Y-91635411D01*
X99065532Y-91365158D01*
X99122600Y-91078260D01*
X99122600Y-90785740D01*
X99065532Y-90498842D01*
X98953590Y-90228589D01*
X98791075Y-89985368D01*
X98584232Y-89778525D01*
X98409840Y-89662000D01*
X98584232Y-89545475D01*
X98791075Y-89338632D01*
X98953590Y-89095411D01*
X99065532Y-88825158D01*
X99122600Y-88538260D01*
X99122600Y-88245740D01*
X99065532Y-87958842D01*
X98953590Y-87688589D01*
X98791075Y-87445368D01*
X98584232Y-87238525D01*
X98447854Y-87147400D01*
X98584232Y-87056275D01*
X98791075Y-86849432D01*
X98953590Y-86606211D01*
X99065532Y-86335958D01*
X99122600Y-86049060D01*
X99122600Y-85756540D01*
X99065532Y-85469642D01*
X98953590Y-85199389D01*
X98791075Y-84956168D01*
X98584232Y-84749325D01*
X98341011Y-84586810D01*
X98070758Y-84474868D01*
X97783860Y-84417800D01*
X97491340Y-84417800D01*
X97204442Y-84474868D01*
X96934189Y-84586810D01*
X96690968Y-84749325D01*
X96484125Y-84956168D01*
X96321610Y-85199389D01*
X96209668Y-85469642D01*
X96152600Y-85756540D01*
X95910000Y-85756540D01*
X95910000Y-77431597D01*
X96788808Y-77431597D01*
X96866443Y-77680672D01*
X97130483Y-77806571D01*
X97414011Y-77878539D01*
X97706131Y-77893811D01*
X97995619Y-77851799D01*
X98271347Y-77754119D01*
X98408757Y-77680672D01*
X98486392Y-77431597D01*
X97637600Y-76582805D01*
X96788808Y-77431597D01*
X95910000Y-77431597D01*
X95910000Y-76471731D01*
X96146989Y-76471731D01*
X96189001Y-76761219D01*
X96286681Y-77036947D01*
X96360128Y-77174357D01*
X96609203Y-77251992D01*
X97457995Y-76403200D01*
X97817205Y-76403200D01*
X98665997Y-77251992D01*
X98915072Y-77174357D01*
X99040971Y-76910317D01*
X99112939Y-76626789D01*
X99128211Y-76334669D01*
X99086199Y-76045181D01*
X98988519Y-75769453D01*
X98915072Y-75632043D01*
X98665997Y-75554408D01*
X97817205Y-76403200D01*
X97457995Y-76403200D01*
X96609203Y-75554408D01*
X96360128Y-75632043D01*
X96234229Y-75896083D01*
X96162261Y-76179611D01*
X96146989Y-76471731D01*
X95910000Y-76471731D01*
X95910000Y-68687740D01*
X96152600Y-68687740D01*
X96152600Y-68980260D01*
X96209668Y-69267158D01*
X96321610Y-69537411D01*
X96484125Y-69780632D01*
X96690968Y-69987475D01*
X96865360Y-70104000D01*
X96690968Y-70220525D01*
X96484125Y-70427368D01*
X96321610Y-70670589D01*
X96209668Y-70940842D01*
X96152600Y-71227740D01*
X96152600Y-71520260D01*
X96209668Y-71807158D01*
X96321610Y-72077411D01*
X96484125Y-72320632D01*
X96690968Y-72527475D01*
X96865360Y-72644000D01*
X96690968Y-72760525D01*
X96484125Y-72967368D01*
X96321610Y-73210589D01*
X96209668Y-73480842D01*
X96152600Y-73767740D01*
X96152600Y-74060260D01*
X96209668Y-74347158D01*
X96321610Y-74617411D01*
X96484125Y-74860632D01*
X96690968Y-75067475D01*
X96851224Y-75174555D01*
X96788808Y-75374803D01*
X97637600Y-76223595D01*
X98486392Y-75374803D01*
X98423976Y-75174555D01*
X98584232Y-75067475D01*
X98791075Y-74860632D01*
X98953590Y-74617411D01*
X99065532Y-74347158D01*
X99122600Y-74060260D01*
X99122600Y-73767740D01*
X99065532Y-73480842D01*
X98953590Y-73210589D01*
X98791075Y-72967368D01*
X98584232Y-72760525D01*
X98409840Y-72644000D01*
X98584232Y-72527475D01*
X98791075Y-72320632D01*
X98953590Y-72077411D01*
X99065532Y-71807158D01*
X99122600Y-71520260D01*
X99122600Y-71227740D01*
X99065532Y-70940842D01*
X98953590Y-70670589D01*
X98791075Y-70427368D01*
X98584232Y-70220525D01*
X98409840Y-70104000D01*
X98584232Y-69987475D01*
X98791075Y-69780632D01*
X98953590Y-69537411D01*
X99065532Y-69267158D01*
X99122600Y-68980260D01*
X99122600Y-68687740D01*
X99065532Y-68400842D01*
X98953590Y-68130589D01*
X98791075Y-67887368D01*
X98584232Y-67680525D01*
X98341011Y-67518010D01*
X98070758Y-67406068D01*
X97783860Y-67349000D01*
X97491340Y-67349000D01*
X97204442Y-67406068D01*
X96934189Y-67518010D01*
X96690968Y-67680525D01*
X96484125Y-67887368D01*
X96321610Y-68130589D01*
X96209668Y-68400842D01*
X96152600Y-68687740D01*
X95910000Y-68687740D01*
X95910000Y-63872367D01*
X99101400Y-63872367D01*
X99101400Y-64194433D01*
X99164232Y-64510312D01*
X99287482Y-64807863D01*
X99466413Y-65075652D01*
X99694148Y-65303387D01*
X99961937Y-65482318D01*
X100259488Y-65605568D01*
X100575367Y-65668400D01*
X100897433Y-65668400D01*
X101213312Y-65605568D01*
X101510863Y-65482318D01*
X101778652Y-65303387D01*
X102006387Y-65075652D01*
X102028204Y-65043000D01*
X111963172Y-65043000D01*
X112014000Y-65048006D01*
X112064828Y-65043000D01*
X112064838Y-65043000D01*
X112216895Y-65028024D01*
X112411993Y-64968841D01*
X112591797Y-64872734D01*
X112749396Y-64743396D01*
X112781807Y-64703903D01*
X113471908Y-64013803D01*
X113511396Y-63981396D01*
X113600874Y-63872367D01*
X113640734Y-63823798D01*
X113736840Y-63643994D01*
X113736841Y-63643993D01*
X113796024Y-63448895D01*
X113811000Y-63296838D01*
X113811000Y-63296835D01*
X113816007Y-63246000D01*
X113811000Y-63195165D01*
X113811000Y-53196625D01*
X113900482Y-53187812D01*
X114020180Y-53151502D01*
X114130494Y-53092537D01*
X114227185Y-53013185D01*
X114306537Y-52916494D01*
X114365502Y-52806180D01*
X114401812Y-52686482D01*
X114410625Y-52597000D01*
X118189290Y-52597000D01*
X119615001Y-54022712D01*
X119615000Y-99448183D01*
X119457688Y-99605495D01*
X119380000Y-99721763D01*
X119302312Y-99605495D01*
X119088505Y-99391688D01*
X118837095Y-99223701D01*
X118557743Y-99107989D01*
X118261184Y-99049000D01*
X117958816Y-99049000D01*
X117662257Y-99107989D01*
X117382905Y-99223701D01*
X117131495Y-99391688D01*
X116917688Y-99605495D01*
X116749701Y-99856905D01*
X116633989Y-100136257D01*
X116575000Y-100432816D01*
X116575000Y-100735184D01*
X116633989Y-101031743D01*
X116749701Y-101311095D01*
X116917688Y-101562505D01*
X117131495Y-101776312D01*
X117382905Y-101944299D01*
X117662257Y-102060011D01*
X117958816Y-102119000D01*
X118261184Y-102119000D01*
X118557743Y-102060011D01*
X118837095Y-101944299D01*
X119088505Y-101776312D01*
X119302312Y-101562505D01*
X119380000Y-101446237D01*
X119457688Y-101562505D01*
X119671495Y-101776312D01*
X119922905Y-101944299D01*
X120202257Y-102060011D01*
X120498816Y-102119000D01*
X120801184Y-102119000D01*
X121097743Y-102060011D01*
X121377095Y-101944299D01*
X121628505Y-101776312D01*
X121842312Y-101562505D01*
X121922759Y-101442107D01*
X121952038Y-101491573D01*
X122152884Y-101715649D01*
X122393586Y-101896236D01*
X122664893Y-102026394D01*
X122825260Y-102075036D01*
X123063000Y-101954378D01*
X123063000Y-100711000D01*
X123043000Y-100711000D01*
X123043000Y-100457000D01*
X123063000Y-100457000D01*
X123063000Y-99213622D01*
X122825260Y-99092964D01*
X122664893Y-99141606D01*
X122393586Y-99271764D01*
X122152884Y-99452351D01*
X121952038Y-99676427D01*
X121922759Y-99725893D01*
X121842312Y-99605495D01*
X121685000Y-99448183D01*
X121685000Y-93836740D01*
X135668964Y-93836740D01*
X135717606Y-93997107D01*
X135847764Y-94268414D01*
X136028351Y-94509116D01*
X136252427Y-94709962D01*
X136511380Y-94863234D01*
X136795259Y-94963041D01*
X137033000Y-94842992D01*
X137033000Y-93599000D01*
X135789622Y-93599000D01*
X135668964Y-93836740D01*
X121685000Y-93836740D01*
X121685000Y-91296740D01*
X135668964Y-91296740D01*
X135717606Y-91457107D01*
X135847764Y-91728414D01*
X136028351Y-91969116D01*
X136252427Y-92169962D01*
X136306555Y-92202000D01*
X136252427Y-92234038D01*
X136028351Y-92434884D01*
X135847764Y-92675586D01*
X135717606Y-92946893D01*
X135668964Y-93107260D01*
X135789622Y-93345000D01*
X137033000Y-93345000D01*
X137033000Y-91059000D01*
X135789622Y-91059000D01*
X135668964Y-91296740D01*
X121685000Y-91296740D01*
X121685000Y-88756740D01*
X135668964Y-88756740D01*
X135717606Y-88917107D01*
X135847764Y-89188414D01*
X136028351Y-89429116D01*
X136252427Y-89629962D01*
X136306555Y-89662000D01*
X136252427Y-89694038D01*
X136028351Y-89894884D01*
X135847764Y-90135586D01*
X135717606Y-90406893D01*
X135668964Y-90567260D01*
X135789622Y-90805000D01*
X137033000Y-90805000D01*
X137033000Y-88519000D01*
X135789622Y-88519000D01*
X135668964Y-88756740D01*
X121685000Y-88756740D01*
X121685000Y-86216740D01*
X135668964Y-86216740D01*
X135717606Y-86377107D01*
X135847764Y-86648414D01*
X136028351Y-86889116D01*
X136252427Y-87089962D01*
X136306555Y-87122000D01*
X136252427Y-87154038D01*
X136028351Y-87354884D01*
X135847764Y-87595586D01*
X135717606Y-87866893D01*
X135668964Y-88027260D01*
X135789622Y-88265000D01*
X137033000Y-88265000D01*
X137033000Y-85979000D01*
X135789622Y-85979000D01*
X135668964Y-86216740D01*
X121685000Y-86216740D01*
X121685000Y-83676740D01*
X135668964Y-83676740D01*
X135717606Y-83837107D01*
X135847764Y-84108414D01*
X136028351Y-84349116D01*
X136252427Y-84549962D01*
X136306555Y-84582000D01*
X136252427Y-84614038D01*
X136028351Y-84814884D01*
X135847764Y-85055586D01*
X135717606Y-85326893D01*
X135668964Y-85487260D01*
X135789622Y-85725000D01*
X137033000Y-85725000D01*
X137033000Y-83439000D01*
X135789622Y-83439000D01*
X135668964Y-83676740D01*
X121685000Y-83676740D01*
X121685000Y-81136740D01*
X135668964Y-81136740D01*
X135717606Y-81297107D01*
X135847764Y-81568414D01*
X136028351Y-81809116D01*
X136252427Y-82009962D01*
X136306555Y-82042000D01*
X136252427Y-82074038D01*
X136028351Y-82274884D01*
X135847764Y-82515586D01*
X135717606Y-82786893D01*
X135668964Y-82947260D01*
X135789622Y-83185000D01*
X137033000Y-83185000D01*
X137033000Y-80899000D01*
X135789622Y-80899000D01*
X135668964Y-81136740D01*
X121685000Y-81136740D01*
X121685000Y-80407260D01*
X135668964Y-80407260D01*
X135789622Y-80645000D01*
X137033000Y-80645000D01*
X137033000Y-79401008D01*
X136795259Y-79280959D01*
X136511380Y-79380766D01*
X136252427Y-79534038D01*
X136028351Y-79734884D01*
X135847764Y-79975586D01*
X135717606Y-80246893D01*
X135668964Y-80407260D01*
X121685000Y-80407260D01*
X121685000Y-77326740D01*
X135668964Y-77326740D01*
X135717606Y-77487107D01*
X135847764Y-77758414D01*
X136028351Y-77999116D01*
X136252427Y-78199962D01*
X136511380Y-78353234D01*
X136795259Y-78453041D01*
X137033000Y-78332992D01*
X137033000Y-77089000D01*
X135789622Y-77089000D01*
X135668964Y-77326740D01*
X121685000Y-77326740D01*
X121685000Y-74786740D01*
X135668964Y-74786740D01*
X135717606Y-74947107D01*
X135847764Y-75218414D01*
X136028351Y-75459116D01*
X136252427Y-75659962D01*
X136306555Y-75692000D01*
X136252427Y-75724038D01*
X136028351Y-75924884D01*
X135847764Y-76165586D01*
X135717606Y-76436893D01*
X135668964Y-76597260D01*
X135789622Y-76835000D01*
X137033000Y-76835000D01*
X137033000Y-74549000D01*
X135789622Y-74549000D01*
X135668964Y-74786740D01*
X121685000Y-74786740D01*
X121685000Y-72246740D01*
X135668964Y-72246740D01*
X135717606Y-72407107D01*
X135847764Y-72678414D01*
X136028351Y-72919116D01*
X136252427Y-73119962D01*
X136306555Y-73152000D01*
X136252427Y-73184038D01*
X136028351Y-73384884D01*
X135847764Y-73625586D01*
X135717606Y-73896893D01*
X135668964Y-74057260D01*
X135789622Y-74295000D01*
X137033000Y-74295000D01*
X137033000Y-72009000D01*
X135789622Y-72009000D01*
X135668964Y-72246740D01*
X121685000Y-72246740D01*
X121685000Y-69706740D01*
X135668964Y-69706740D01*
X135717606Y-69867107D01*
X135847764Y-70138414D01*
X136028351Y-70379116D01*
X136252427Y-70579962D01*
X136306555Y-70612000D01*
X136252427Y-70644038D01*
X136028351Y-70844884D01*
X135847764Y-71085586D01*
X135717606Y-71356893D01*
X135668964Y-71517260D01*
X135789622Y-71755000D01*
X137033000Y-71755000D01*
X137033000Y-69469000D01*
X135789622Y-69469000D01*
X135668964Y-69706740D01*
X121685000Y-69706740D01*
X121685000Y-67166740D01*
X135668964Y-67166740D01*
X135717606Y-67327107D01*
X135847764Y-67598414D01*
X136028351Y-67839116D01*
X136252427Y-68039962D01*
X136306555Y-68072000D01*
X136252427Y-68104038D01*
X136028351Y-68304884D01*
X135847764Y-68545586D01*
X135717606Y-68816893D01*
X135668964Y-68977260D01*
X135789622Y-69215000D01*
X137033000Y-69215000D01*
X137033000Y-66929000D01*
X135789622Y-66929000D01*
X135668964Y-67166740D01*
X121685000Y-67166740D01*
X121685000Y-64626740D01*
X135668964Y-64626740D01*
X135717606Y-64787107D01*
X135847764Y-65058414D01*
X136028351Y-65299116D01*
X136252427Y-65499962D01*
X136306555Y-65532000D01*
X136252427Y-65564038D01*
X136028351Y-65764884D01*
X135847764Y-66005586D01*
X135717606Y-66276893D01*
X135668964Y-66437260D01*
X135789622Y-66675000D01*
X137033000Y-66675000D01*
X137033000Y-64389000D01*
X135789622Y-64389000D01*
X135668964Y-64626740D01*
X121685000Y-64626740D01*
X121685000Y-63897260D01*
X135668964Y-63897260D01*
X135789622Y-64135000D01*
X137033000Y-64135000D01*
X137033000Y-62891008D01*
X136795259Y-62770959D01*
X136511380Y-62870766D01*
X136252427Y-63024038D01*
X136028351Y-63224884D01*
X135847764Y-63465586D01*
X135717606Y-63736893D01*
X135668964Y-63897260D01*
X121685000Y-63897260D01*
X121685000Y-53644835D01*
X121690007Y-53594000D01*
X121675903Y-53450801D01*
X121670024Y-53391105D01*
X121610841Y-53196007D01*
X121524725Y-53034894D01*
X121514734Y-53016202D01*
X121417803Y-52898092D01*
X121385396Y-52858604D01*
X121345908Y-52826197D01*
X121116711Y-52597000D01*
X133937290Y-52597000D01*
X134453736Y-53113447D01*
X134443688Y-53123495D01*
X134275701Y-53374905D01*
X134159989Y-53654257D01*
X134101000Y-53950816D01*
X134101000Y-54253184D01*
X134159989Y-54549743D01*
X134275701Y-54829095D01*
X134443688Y-55080505D01*
X134657495Y-55294312D01*
X134908905Y-55462299D01*
X135188257Y-55578011D01*
X135484816Y-55637000D01*
X135787184Y-55637000D01*
X136083743Y-55578011D01*
X136363095Y-55462299D01*
X136614505Y-55294312D01*
X136828312Y-55080505D01*
X136996299Y-54829095D01*
X137112011Y-54549743D01*
X137171000Y-54253184D01*
X137171000Y-53950816D01*
X137112011Y-53654257D01*
X136996299Y-53374905D01*
X136828312Y-53123495D01*
X136671000Y-52966183D01*
X136671000Y-52882827D01*
X136676006Y-52831999D01*
X136671000Y-52781171D01*
X136671000Y-52781162D01*
X136656024Y-52629105D01*
X136596841Y-52434007D01*
X136502714Y-52257907D01*
X136500734Y-52254202D01*
X136403803Y-52136092D01*
X136371396Y-52096604D01*
X136331908Y-52064197D01*
X135133807Y-50866097D01*
X135101396Y-50826604D01*
X134943797Y-50697266D01*
X134763993Y-50601159D01*
X134568895Y-50541976D01*
X134416838Y-50527000D01*
X134416828Y-50527000D01*
X134366000Y-50521994D01*
X134315172Y-50527000D01*
X118668828Y-50527000D01*
X118618000Y-50521994D01*
X118567172Y-50527000D01*
X114410625Y-50527000D01*
X114401812Y-50437518D01*
X114365502Y-50317820D01*
X114306537Y-50207506D01*
X114227185Y-50110815D01*
X114130494Y-50031463D01*
X114020180Y-49972498D01*
X113900482Y-49936188D01*
X113776000Y-49923928D01*
X111776000Y-49923928D01*
X111651518Y-49936188D01*
X111531820Y-49972498D01*
X111421506Y-50031463D01*
X111324815Y-50110815D01*
X111245463Y-50207506D01*
X111186498Y-50317820D01*
X111150188Y-50437518D01*
X111137928Y-50562000D01*
X111137928Y-52562000D01*
X111150188Y-52686482D01*
X111186498Y-52806180D01*
X111245463Y-52916494D01*
X111324815Y-53013185D01*
X111421506Y-53092537D01*
X111531820Y-53151502D01*
X111651518Y-53187812D01*
X111741001Y-53196625D01*
X111741000Y-62026837D01*
X111741001Y-62026846D01*
X111741000Y-62817289D01*
X111585290Y-62973000D01*
X101988239Y-62973000D01*
X101778652Y-62763413D01*
X101510863Y-62584482D01*
X101213312Y-62461232D01*
X100897433Y-62398400D01*
X100575367Y-62398400D01*
X100259488Y-62461232D01*
X99961937Y-62584482D01*
X99694148Y-62763413D01*
X99466413Y-62991148D01*
X99287482Y-63258937D01*
X99164232Y-63556488D01*
X99101400Y-63872367D01*
X95910000Y-63872367D01*
X95910000Y-61587413D01*
X99780592Y-61587413D01*
X99876356Y-61851814D01*
X100165971Y-61992704D01*
X100477508Y-62074384D01*
X100798995Y-62093718D01*
X101118075Y-62049961D01*
X101422488Y-61944795D01*
X101596444Y-61851814D01*
X101692208Y-61587413D01*
X100736400Y-60631605D01*
X99780592Y-61587413D01*
X95910000Y-61587413D01*
X95910000Y-60514595D01*
X99094682Y-60514595D01*
X99138439Y-60833675D01*
X99243605Y-61138088D01*
X99336586Y-61312044D01*
X99600987Y-61407808D01*
X100556795Y-60452000D01*
X100916005Y-60452000D01*
X101871813Y-61407808D01*
X102136214Y-61312044D01*
X102277104Y-61022429D01*
X102358784Y-60710892D01*
X102378118Y-60389405D01*
X102334361Y-60070325D01*
X102229195Y-59765912D01*
X102136214Y-59591956D01*
X101871813Y-59496192D01*
X100916005Y-60452000D01*
X100556795Y-60452000D01*
X99600987Y-59496192D01*
X99336586Y-59591956D01*
X99195696Y-59881571D01*
X99114016Y-60193108D01*
X99094682Y-60514595D01*
X95910000Y-60514595D01*
X95910000Y-59316587D01*
X99780592Y-59316587D01*
X100736400Y-60272395D01*
X101692208Y-59316587D01*
X101596444Y-59052186D01*
X101306829Y-58911296D01*
X100995292Y-58829616D01*
X100673805Y-58810282D01*
X100354725Y-58854039D01*
X100050312Y-58959205D01*
X99876356Y-59052186D01*
X99780592Y-59316587D01*
X95910000Y-59316587D01*
X95910000Y-48897413D01*
X111820192Y-48897413D01*
X111915956Y-49161814D01*
X112205571Y-49302704D01*
X112517108Y-49384384D01*
X112838595Y-49403718D01*
X113157675Y-49359961D01*
X113462088Y-49254795D01*
X113636044Y-49161814D01*
X113731808Y-48897413D01*
X112776000Y-47941605D01*
X111820192Y-48897413D01*
X95910000Y-48897413D01*
X95910000Y-47824595D01*
X111134282Y-47824595D01*
X111178039Y-48143675D01*
X111283205Y-48448088D01*
X111376186Y-48622044D01*
X111640587Y-48717808D01*
X112596395Y-47762000D01*
X112955605Y-47762000D01*
X113911413Y-48717808D01*
X114175814Y-48622044D01*
X114316704Y-48332429D01*
X114398384Y-48020892D01*
X114417718Y-47699405D01*
X114373961Y-47380325D01*
X114268795Y-47075912D01*
X114175814Y-46901956D01*
X113911413Y-46806192D01*
X112955605Y-47762000D01*
X112596395Y-47762000D01*
X111640587Y-46806192D01*
X111376186Y-46901956D01*
X111235296Y-47191571D01*
X111153616Y-47503108D01*
X111134282Y-47824595D01*
X95910000Y-47824595D01*
X95910000Y-46626587D01*
X111820192Y-46626587D01*
X112776000Y-47582395D01*
X113731808Y-46626587D01*
X113636044Y-46362186D01*
X113346429Y-46221296D01*
X113034892Y-46139616D01*
X112713405Y-46120282D01*
X112394325Y-46164039D01*
X112089912Y-46269205D01*
X111915956Y-46362186D01*
X111820192Y-46626587D01*
X95910000Y-46626587D01*
X95910000Y-41758816D01*
X98922000Y-41758816D01*
X98922000Y-42061184D01*
X98980989Y-42357743D01*
X99096701Y-42637095D01*
X99264688Y-42888505D01*
X99478495Y-43102312D01*
X99594763Y-43180000D01*
X99478495Y-43257688D01*
X99264688Y-43471495D01*
X99096701Y-43722905D01*
X98980989Y-44002257D01*
X98922000Y-44298816D01*
X98922000Y-44601184D01*
X98980989Y-44897743D01*
X99096701Y-45177095D01*
X99264688Y-45428505D01*
X99478495Y-45642312D01*
X99729905Y-45810299D01*
X100009257Y-45926011D01*
X100305816Y-45985000D01*
X100608184Y-45985000D01*
X100904743Y-45926011D01*
X101184095Y-45810299D01*
X101435505Y-45642312D01*
X101649312Y-45428505D01*
X101817299Y-45177095D01*
X101933011Y-44897743D01*
X101992000Y-44601184D01*
X101992000Y-44298816D01*
X101933011Y-44002257D01*
X101817299Y-43722905D01*
X101649312Y-43471495D01*
X101435505Y-43257688D01*
X101319237Y-43180000D01*
X101435505Y-43102312D01*
X101492817Y-43045000D01*
X103358183Y-43045000D01*
X103415495Y-43102312D01*
X103531763Y-43180000D01*
X103415495Y-43257688D01*
X103201688Y-43471495D01*
X103033701Y-43722905D01*
X102917989Y-44002257D01*
X102859000Y-44298816D01*
X102859000Y-44601184D01*
X102917989Y-44897743D01*
X103033701Y-45177095D01*
X103201688Y-45428505D01*
X103415495Y-45642312D01*
X103666905Y-45810299D01*
X103946257Y-45926011D01*
X104242816Y-45985000D01*
X104545184Y-45985000D01*
X104841743Y-45926011D01*
X105121095Y-45810299D01*
X105372505Y-45642312D01*
X105586312Y-45428505D01*
X105754299Y-45177095D01*
X105870011Y-44897743D01*
X105873798Y-44878702D01*
X125424903Y-44878702D01*
X125496486Y-45122671D01*
X125751996Y-45243571D01*
X126026184Y-45312300D01*
X126308512Y-45326217D01*
X126588130Y-45284787D01*
X126854292Y-45189603D01*
X126979514Y-45122671D01*
X127051097Y-44878702D01*
X126238000Y-44065605D01*
X125424903Y-44878702D01*
X105873798Y-44878702D01*
X105929000Y-44601184D01*
X105929000Y-44298816D01*
X105870011Y-44002257D01*
X105851063Y-43956512D01*
X124797783Y-43956512D01*
X124839213Y-44236130D01*
X124934397Y-44502292D01*
X125001329Y-44627514D01*
X125245298Y-44699097D01*
X126058395Y-43886000D01*
X126417605Y-43886000D01*
X127230702Y-44699097D01*
X127474671Y-44627514D01*
X127595571Y-44372004D01*
X127664300Y-44097816D01*
X127678217Y-43815488D01*
X127636787Y-43535870D01*
X127541603Y-43269708D01*
X127474671Y-43144486D01*
X127230702Y-43072903D01*
X126417605Y-43886000D01*
X126058395Y-43886000D01*
X125245298Y-43072903D01*
X125001329Y-43144486D01*
X124880429Y-43399996D01*
X124811700Y-43674184D01*
X124797783Y-43956512D01*
X105851063Y-43956512D01*
X105754299Y-43722905D01*
X105586312Y-43471495D01*
X105372505Y-43257688D01*
X105256237Y-43180000D01*
X105372505Y-43102312D01*
X105429817Y-43045000D01*
X108402249Y-43045000D01*
X108458000Y-43050491D01*
X108513751Y-43045000D01*
X108513752Y-43045000D01*
X108680499Y-43028577D01*
X108894447Y-42963676D01*
X109026115Y-42893298D01*
X125424903Y-42893298D01*
X126238000Y-43706395D01*
X127051097Y-42893298D01*
X126979514Y-42649329D01*
X126724004Y-42528429D01*
X126449816Y-42459700D01*
X126167488Y-42445783D01*
X125887870Y-42487213D01*
X125621708Y-42582397D01*
X125496486Y-42649329D01*
X125424903Y-42893298D01*
X109026115Y-42893298D01*
X109091623Y-42858284D01*
X109264449Y-42716449D01*
X109299996Y-42673135D01*
X111376132Y-40597000D01*
X111676883Y-40597000D01*
X112012081Y-40530325D01*
X112327831Y-40399537D01*
X112611998Y-40209663D01*
X112853663Y-39967998D01*
X113043537Y-39683831D01*
X113174325Y-39368081D01*
X113241000Y-39032883D01*
X113241000Y-38691117D01*
X114343000Y-38691117D01*
X114343000Y-39032883D01*
X114409675Y-39368081D01*
X114540463Y-39683831D01*
X114730337Y-39967998D01*
X114972002Y-40209663D01*
X115256169Y-40399537D01*
X115571919Y-40530325D01*
X115907117Y-40597000D01*
X116248883Y-40597000D01*
X116584081Y-40530325D01*
X116899831Y-40399537D01*
X117183998Y-40209663D01*
X117396661Y-39997000D01*
X124243869Y-39997000D01*
X124799928Y-40553060D01*
X124799928Y-41186000D01*
X124812188Y-41310482D01*
X124848498Y-41430180D01*
X124907463Y-41540494D01*
X124986815Y-41637185D01*
X125083506Y-41716537D01*
X125193820Y-41775502D01*
X125313518Y-41811812D01*
X125438000Y-41824072D01*
X127038000Y-41824072D01*
X127162482Y-41811812D01*
X127282180Y-41775502D01*
X127392494Y-41716537D01*
X127489185Y-41637185D01*
X127568537Y-41540494D01*
X127627502Y-41430180D01*
X127663812Y-41310482D01*
X127676072Y-41186000D01*
X127676072Y-40553059D01*
X128232132Y-39997000D01*
X134473183Y-39997000D01*
X134657495Y-40181312D01*
X134908905Y-40349299D01*
X135188257Y-40465011D01*
X135484816Y-40524000D01*
X135787184Y-40524000D01*
X136083743Y-40465011D01*
X136363095Y-40349299D01*
X136614505Y-40181312D01*
X136771817Y-40024000D01*
X137874290Y-40024000D01*
X138665000Y-40814711D01*
X138665000Y-63126183D01*
X138507688Y-63283495D01*
X138426633Y-63404802D01*
X138291649Y-63224884D01*
X138067573Y-63024038D01*
X137808620Y-62870766D01*
X137524741Y-62770959D01*
X137287000Y-62891008D01*
X137287000Y-64135000D01*
X137307000Y-64135000D01*
X137307000Y-64389000D01*
X137287000Y-64389000D01*
X137287000Y-66675000D01*
X137307000Y-66675000D01*
X137307000Y-66929000D01*
X137287000Y-66929000D01*
X137287000Y-69215000D01*
X137307000Y-69215000D01*
X137307000Y-69469000D01*
X137287000Y-69469000D01*
X137287000Y-71755000D01*
X137307000Y-71755000D01*
X137307000Y-72009000D01*
X137287000Y-72009000D01*
X137287000Y-74295000D01*
X137307000Y-74295000D01*
X137307000Y-74549000D01*
X137287000Y-74549000D01*
X137287000Y-76835000D01*
X137307000Y-76835000D01*
X137307000Y-77089000D01*
X137287000Y-77089000D01*
X137287000Y-78332992D01*
X137524741Y-78453041D01*
X137808620Y-78353234D01*
X138067573Y-78199962D01*
X138291649Y-77999116D01*
X138426633Y-77819198D01*
X138507688Y-77940505D01*
X138665001Y-78097818D01*
X138665001Y-79636182D01*
X138507688Y-79793495D01*
X138426633Y-79914802D01*
X138291649Y-79734884D01*
X138067573Y-79534038D01*
X137808620Y-79380766D01*
X137524741Y-79280959D01*
X137287000Y-79401008D01*
X137287000Y-80645000D01*
X137307000Y-80645000D01*
X137307000Y-80899000D01*
X137287000Y-80899000D01*
X137287000Y-83185000D01*
X137307000Y-83185000D01*
X137307000Y-83439000D01*
X137287000Y-83439000D01*
X137287000Y-85725000D01*
X137307000Y-85725000D01*
X137307000Y-85979000D01*
X137287000Y-85979000D01*
X137287000Y-88265000D01*
X137307000Y-88265000D01*
X137307000Y-88519000D01*
X137287000Y-88519000D01*
X137287000Y-90805000D01*
X137307000Y-90805000D01*
X137307000Y-91059000D01*
X137287000Y-91059000D01*
X137287000Y-93345000D01*
X137307000Y-93345000D01*
X137307000Y-93599000D01*
X137287000Y-93599000D01*
X137287000Y-94842992D01*
X137524741Y-94963041D01*
X137808620Y-94863234D01*
X138067573Y-94709962D01*
X138291649Y-94509116D01*
X138426633Y-94329198D01*
X138507688Y-94450505D01*
X138721495Y-94664312D01*
X138972905Y-94832299D01*
X139252257Y-94948011D01*
X139548816Y-95007000D01*
X139851184Y-95007000D01*
X140147743Y-94948011D01*
X140427095Y-94832299D01*
X140678505Y-94664312D01*
X140892312Y-94450505D01*
X140970000Y-94334237D01*
X141047688Y-94450505D01*
X141261495Y-94664312D01*
X141512905Y-94832299D01*
X141792257Y-94948011D01*
X142088816Y-95007000D01*
X142391184Y-95007000D01*
X142687743Y-94948011D01*
X142967095Y-94832299D01*
X143218505Y-94664312D01*
X143432312Y-94450505D01*
X143494790Y-94357000D01*
X146193000Y-94357000D01*
X146268125Y-94469432D01*
X146474968Y-94676275D01*
X146649360Y-94792800D01*
X146474968Y-94909325D01*
X146268125Y-95116168D01*
X146226944Y-95177800D01*
X141014738Y-95177800D01*
X140889490Y-95139805D01*
X140716000Y-95122719D01*
X140715999Y-95122719D01*
X140698913Y-95124402D01*
X140542510Y-95139805D01*
X140426293Y-95175060D01*
X140375686Y-95190412D01*
X140221940Y-95272590D01*
X140120953Y-95355468D01*
X140120949Y-95355472D01*
X140087183Y-95383183D01*
X140059472Y-95416949D01*
X138063422Y-97413000D01*
X130599465Y-97413000D01*
X130555999Y-97408719D01*
X130512533Y-97413000D01*
X130512523Y-97413000D01*
X130382510Y-97425805D01*
X130215687Y-97476411D01*
X130061941Y-97558589D01*
X130061939Y-97558590D01*
X130061940Y-97558590D01*
X129960953Y-97641468D01*
X129960951Y-97641470D01*
X129927183Y-97669183D01*
X129899470Y-97702951D01*
X128531482Y-99070940D01*
X128421184Y-99049000D01*
X128118816Y-99049000D01*
X127822257Y-99107989D01*
X127542905Y-99223701D01*
X127291495Y-99391688D01*
X127077688Y-99605495D01*
X127000000Y-99721763D01*
X126922312Y-99605495D01*
X126708505Y-99391688D01*
X126457095Y-99223701D01*
X126177743Y-99107989D01*
X125881184Y-99049000D01*
X125578816Y-99049000D01*
X125282257Y-99107989D01*
X125002905Y-99223701D01*
X124751495Y-99391688D01*
X124537688Y-99605495D01*
X124457241Y-99725893D01*
X124427962Y-99676427D01*
X124227116Y-99452351D01*
X123986414Y-99271764D01*
X123715107Y-99141606D01*
X123554740Y-99092964D01*
X123317000Y-99213622D01*
X123317000Y-100457000D01*
X123337000Y-100457000D01*
X123337000Y-100711000D01*
X123317000Y-100711000D01*
X123317000Y-101954378D01*
X123554740Y-102075036D01*
X123715107Y-102026394D01*
X123986414Y-101896236D01*
X124227116Y-101715649D01*
X124427962Y-101491573D01*
X124457241Y-101442107D01*
X124537688Y-101562505D01*
X124751495Y-101776312D01*
X124885906Y-101866123D01*
X124908412Y-101940313D01*
X124990590Y-102094059D01*
X125073468Y-102195046D01*
X125073471Y-102195049D01*
X125101184Y-102228817D01*
X125134952Y-102256530D01*
X125581466Y-102703044D01*
X125609183Y-102736817D01*
X125743941Y-102847411D01*
X125897687Y-102929589D01*
X126064510Y-102980195D01*
X126194523Y-102993000D01*
X126194533Y-102993000D01*
X126237999Y-102997281D01*
X126281465Y-102993000D01*
X137370531Y-102993000D01*
X137414000Y-102997281D01*
X137457469Y-102993000D01*
X137457477Y-102993000D01*
X137587490Y-102980195D01*
X137754313Y-102929589D01*
X137908059Y-102847411D01*
X138042817Y-102736817D01*
X138070534Y-102703044D01*
X141285779Y-99487800D01*
X146226944Y-99487800D01*
X146268125Y-99549432D01*
X146474968Y-99756275D01*
X146718189Y-99918790D01*
X146988442Y-100030732D01*
X147275340Y-100087800D01*
X147567860Y-100087800D01*
X147854758Y-100030732D01*
X148125011Y-99918790D01*
X148368232Y-99756275D01*
X148575075Y-99549432D01*
X148737590Y-99306211D01*
X148849532Y-99035958D01*
X148906600Y-98749060D01*
X148906600Y-98456540D01*
X148849532Y-98169642D01*
X148737590Y-97899389D01*
X148575075Y-97656168D01*
X148368232Y-97449325D01*
X148193840Y-97332800D01*
X148368232Y-97216275D01*
X148575075Y-97009432D01*
X148737590Y-96766211D01*
X148849532Y-96495958D01*
X148906600Y-96209060D01*
X148906600Y-95916540D01*
X148849532Y-95629642D01*
X148737590Y-95359389D01*
X148575075Y-95116168D01*
X148368232Y-94909325D01*
X148193840Y-94792800D01*
X148368232Y-94676275D01*
X148575075Y-94469432D01*
X148737590Y-94226211D01*
X148849532Y-93955958D01*
X148906600Y-93669060D01*
X148906600Y-93376540D01*
X148849532Y-93089642D01*
X148737590Y-92819389D01*
X148575075Y-92576168D01*
X148368232Y-92369325D01*
X148193840Y-92252800D01*
X148368232Y-92136275D01*
X148575075Y-91929432D01*
X148737590Y-91686211D01*
X148849532Y-91415958D01*
X148906600Y-91129060D01*
X148906600Y-90836540D01*
X148849532Y-90549642D01*
X148737590Y-90279389D01*
X148575075Y-90036168D01*
X148368232Y-89829325D01*
X148193840Y-89712800D01*
X148368232Y-89596275D01*
X148575075Y-89389432D01*
X148737590Y-89146211D01*
X148849532Y-88875958D01*
X148906600Y-88589060D01*
X148906600Y-88296540D01*
X148849532Y-88009642D01*
X148737590Y-87739389D01*
X148575075Y-87496168D01*
X148368232Y-87289325D01*
X148193840Y-87172800D01*
X148368232Y-87056275D01*
X148575075Y-86849432D01*
X148737590Y-86606211D01*
X148849532Y-86335958D01*
X148906600Y-86049060D01*
X148906600Y-85756540D01*
X148849532Y-85469642D01*
X148737590Y-85199389D01*
X148575075Y-84956168D01*
X148368232Y-84749325D01*
X148193840Y-84632800D01*
X148368232Y-84516275D01*
X148575075Y-84309432D01*
X148737590Y-84066211D01*
X148849532Y-83795958D01*
X148906600Y-83509060D01*
X148906600Y-83216540D01*
X148849532Y-82929642D01*
X148737590Y-82659389D01*
X148575075Y-82416168D01*
X148368232Y-82209325D01*
X148193840Y-82092800D01*
X148368232Y-81976275D01*
X148575075Y-81769432D01*
X148737590Y-81526211D01*
X148849532Y-81255958D01*
X148906600Y-80969060D01*
X148906600Y-80676540D01*
X148849532Y-80389642D01*
X148737590Y-80119389D01*
X148575075Y-79876168D01*
X148368232Y-79669325D01*
X148125011Y-79506810D01*
X147854758Y-79394868D01*
X147567860Y-79337800D01*
X147275340Y-79337800D01*
X146988442Y-79394868D01*
X146718189Y-79506810D01*
X146474968Y-79669325D01*
X146268125Y-79876168D01*
X146226944Y-79937800D01*
X143528734Y-79937800D01*
X143432312Y-79793495D01*
X143218505Y-79579688D01*
X142967095Y-79411701D01*
X142687743Y-79295989D01*
X142391184Y-79237000D01*
X142088816Y-79237000D01*
X141792257Y-79295989D01*
X141512905Y-79411701D01*
X141261495Y-79579688D01*
X141047688Y-79793495D01*
X140970000Y-79909763D01*
X140892312Y-79793495D01*
X140735000Y-79636183D01*
X140735000Y-78097817D01*
X140892312Y-77940505D01*
X140970000Y-77824237D01*
X141047688Y-77940505D01*
X141261495Y-78154312D01*
X141512905Y-78322299D01*
X141792257Y-78438011D01*
X142088816Y-78497000D01*
X142391184Y-78497000D01*
X142687743Y-78438011D01*
X142967095Y-78322299D01*
X143218505Y-78154312D01*
X143432312Y-77940505D01*
X143494790Y-77847000D01*
X146244450Y-77847000D01*
X146268125Y-77882432D01*
X146474968Y-78089275D01*
X146718189Y-78251790D01*
X146988442Y-78363732D01*
X147275340Y-78420800D01*
X147567860Y-78420800D01*
X147854758Y-78363732D01*
X148125011Y-78251790D01*
X148368232Y-78089275D01*
X148575075Y-77882432D01*
X148737590Y-77639211D01*
X148849532Y-77368958D01*
X148906600Y-77082060D01*
X148906600Y-76789540D01*
X148849532Y-76502642D01*
X148737590Y-76232389D01*
X148575075Y-75989168D01*
X148368232Y-75782325D01*
X148194439Y-75666200D01*
X148368232Y-75550075D01*
X148575075Y-75343232D01*
X148737590Y-75100011D01*
X148849532Y-74829758D01*
X148906600Y-74542860D01*
X148906600Y-74250340D01*
X148849532Y-73963442D01*
X148737590Y-73693189D01*
X148575075Y-73449968D01*
X148368232Y-73243125D01*
X148193840Y-73126600D01*
X148368232Y-73010075D01*
X148575075Y-72803232D01*
X148737590Y-72560011D01*
X148849532Y-72289758D01*
X148906600Y-72002860D01*
X148906600Y-71710340D01*
X148849532Y-71423442D01*
X148737590Y-71153189D01*
X148575075Y-70909968D01*
X148368232Y-70703125D01*
X148193840Y-70586600D01*
X148368232Y-70470075D01*
X148575075Y-70263232D01*
X148737590Y-70020011D01*
X148849532Y-69749758D01*
X148906600Y-69462860D01*
X148906600Y-69170340D01*
X148849532Y-68883442D01*
X148737590Y-68613189D01*
X148575075Y-68369968D01*
X148368232Y-68163125D01*
X148193241Y-68046200D01*
X148368232Y-67929275D01*
X148575075Y-67722432D01*
X148737590Y-67479211D01*
X148849532Y-67208958D01*
X148906600Y-66922060D01*
X148906600Y-66629540D01*
X148849532Y-66342642D01*
X148737590Y-66072389D01*
X148575075Y-65829168D01*
X148368232Y-65622325D01*
X148193840Y-65505800D01*
X148368232Y-65389275D01*
X148575075Y-65182432D01*
X148737590Y-64939211D01*
X148849532Y-64668958D01*
X148906600Y-64382060D01*
X148906600Y-64089540D01*
X148849532Y-63802642D01*
X148737590Y-63532389D01*
X148575075Y-63289168D01*
X148368232Y-63082325D01*
X148125011Y-62919810D01*
X147854758Y-62807868D01*
X147567860Y-62750800D01*
X147275340Y-62750800D01*
X146988442Y-62807868D01*
X146718189Y-62919810D01*
X146474968Y-63082325D01*
X146268125Y-63289168D01*
X146209438Y-63377000D01*
X143494790Y-63377000D01*
X143432312Y-63283495D01*
X143218505Y-63069688D01*
X142967095Y-62901701D01*
X142687743Y-62785989D01*
X142391184Y-62727000D01*
X142088816Y-62727000D01*
X141792257Y-62785989D01*
X141512905Y-62901701D01*
X141261495Y-63069688D01*
X141047688Y-63283495D01*
X140970000Y-63399763D01*
X140892312Y-63283495D01*
X140735000Y-63126183D01*
X140735000Y-55166080D01*
X143895525Y-55166080D01*
X143979208Y-55420261D01*
X144251775Y-55551158D01*
X144544642Y-55626365D01*
X144846553Y-55642991D01*
X145145907Y-55600397D01*
X145431199Y-55500222D01*
X145580792Y-55420261D01*
X145664475Y-55166080D01*
X144780000Y-54281605D01*
X143895525Y-55166080D01*
X140735000Y-55166080D01*
X140735000Y-54168553D01*
X143239009Y-54168553D01*
X143281603Y-54467907D01*
X143381778Y-54753199D01*
X143461739Y-54902792D01*
X143715920Y-54986475D01*
X144600395Y-54102000D01*
X144959605Y-54102000D01*
X145844080Y-54986475D01*
X146098261Y-54902792D01*
X146229158Y-54630225D01*
X146304365Y-54337358D01*
X146320991Y-54035447D01*
X146278397Y-53736093D01*
X146178222Y-53450801D01*
X146098261Y-53301208D01*
X145844080Y-53217525D01*
X144959605Y-54102000D01*
X144600395Y-54102000D01*
X143715920Y-53217525D01*
X143461739Y-53301208D01*
X143330842Y-53573775D01*
X143255635Y-53866642D01*
X143239009Y-54168553D01*
X140735000Y-54168553D01*
X140735000Y-53037920D01*
X143895525Y-53037920D01*
X144780000Y-53922395D01*
X145664475Y-53037920D01*
X145580792Y-52783739D01*
X145308225Y-52652842D01*
X145015358Y-52577635D01*
X144713447Y-52561009D01*
X144414093Y-52603603D01*
X144128801Y-52703778D01*
X143979208Y-52783739D01*
X143895525Y-53037920D01*
X140735000Y-53037920D01*
X140735000Y-40436827D01*
X140740006Y-40385999D01*
X140735000Y-40335171D01*
X140735000Y-40335162D01*
X140720024Y-40183105D01*
X140680581Y-40053080D01*
X143895525Y-40053080D01*
X143979208Y-40307261D01*
X144251775Y-40438158D01*
X144544642Y-40513365D01*
X144846553Y-40529991D01*
X145145907Y-40487397D01*
X145431199Y-40387222D01*
X145580792Y-40307261D01*
X145664475Y-40053080D01*
X144780000Y-39168605D01*
X143895525Y-40053080D01*
X140680581Y-40053080D01*
X140660841Y-39988007D01*
X140576913Y-39830988D01*
X140564734Y-39808202D01*
X140467803Y-39690092D01*
X140435396Y-39650604D01*
X140395908Y-39618197D01*
X139833264Y-39055553D01*
X143239009Y-39055553D01*
X143281603Y-39354907D01*
X143381778Y-39640199D01*
X143461739Y-39789792D01*
X143715920Y-39873475D01*
X144600395Y-38989000D01*
X144959605Y-38989000D01*
X145844080Y-39873475D01*
X146098261Y-39789792D01*
X146229158Y-39517225D01*
X146304365Y-39224358D01*
X146320991Y-38922447D01*
X146278397Y-38623093D01*
X146178222Y-38337801D01*
X146098261Y-38188208D01*
X145844080Y-38104525D01*
X144959605Y-38989000D01*
X144600395Y-38989000D01*
X143715920Y-38104525D01*
X143461739Y-38188208D01*
X143330842Y-38460775D01*
X143255635Y-38753642D01*
X143239009Y-39055553D01*
X139833264Y-39055553D01*
X139070807Y-38293097D01*
X139038396Y-38253604D01*
X138880797Y-38124266D01*
X138700993Y-38028159D01*
X138505895Y-37968976D01*
X138353838Y-37954000D01*
X138353828Y-37954000D01*
X138303000Y-37948994D01*
X138252172Y-37954000D01*
X136771817Y-37954000D01*
X136742737Y-37924920D01*
X143895525Y-37924920D01*
X144780000Y-38809395D01*
X145664475Y-37924920D01*
X145580792Y-37670739D01*
X145308225Y-37539842D01*
X145015358Y-37464635D01*
X144713447Y-37448009D01*
X144414093Y-37490603D01*
X144128801Y-37590778D01*
X143979208Y-37670739D01*
X143895525Y-37924920D01*
X136742737Y-37924920D01*
X136614505Y-37796688D01*
X136363095Y-37628701D01*
X136083743Y-37512989D01*
X135787184Y-37454000D01*
X135484816Y-37454000D01*
X135188257Y-37512989D01*
X134908905Y-37628701D01*
X134761790Y-37727000D01*
X127817741Y-37727000D01*
X127761999Y-37721510D01*
X127706257Y-37727000D01*
X126039751Y-37727000D01*
X125984000Y-37721509D01*
X125928249Y-37727000D01*
X124769751Y-37727000D01*
X124714000Y-37721509D01*
X124658249Y-37727000D01*
X117396661Y-37727000D01*
X117183998Y-37514337D01*
X116899831Y-37324463D01*
X116584081Y-37193675D01*
X116248883Y-37127000D01*
X115907117Y-37127000D01*
X115571919Y-37193675D01*
X115256169Y-37324463D01*
X114972002Y-37514337D01*
X114730337Y-37756002D01*
X114540463Y-38040169D01*
X114409675Y-38355919D01*
X114343000Y-38691117D01*
X113241000Y-38691117D01*
X113174325Y-38355919D01*
X113043537Y-38040169D01*
X112853663Y-37756002D01*
X112611998Y-37514337D01*
X112327831Y-37324463D01*
X112012081Y-37193675D01*
X111676883Y-37127000D01*
X111335117Y-37127000D01*
X110999919Y-37193675D01*
X110684169Y-37324463D01*
X110400002Y-37514337D01*
X110158337Y-37756002D01*
X109968463Y-38040169D01*
X109837675Y-38355919D01*
X109771000Y-38691117D01*
X109771000Y-38991868D01*
X107987869Y-40775000D01*
X105429817Y-40775000D01*
X105372505Y-40717688D01*
X105252107Y-40637241D01*
X105301573Y-40607962D01*
X105525649Y-40407116D01*
X105706236Y-40166414D01*
X105836394Y-39895107D01*
X105885036Y-39734740D01*
X105764378Y-39497000D01*
X104521000Y-39497000D01*
X104521000Y-39517000D01*
X104267000Y-39517000D01*
X104267000Y-39497000D01*
X103023622Y-39497000D01*
X102902964Y-39734740D01*
X102951606Y-39895107D01*
X103081764Y-40166414D01*
X103262351Y-40407116D01*
X103486427Y-40607962D01*
X103535893Y-40637241D01*
X103415495Y-40717688D01*
X103358183Y-40775000D01*
X101492817Y-40775000D01*
X101435505Y-40717688D01*
X101315107Y-40637241D01*
X101364573Y-40607962D01*
X101588649Y-40407116D01*
X101769236Y-40166414D01*
X101899394Y-39895107D01*
X101948036Y-39734740D01*
X101827378Y-39497000D01*
X100584000Y-39497000D01*
X100584000Y-39517000D01*
X100330000Y-39517000D01*
X100330000Y-39497000D01*
X99086622Y-39497000D01*
X98965964Y-39734740D01*
X99014606Y-39895107D01*
X99144764Y-40166414D01*
X99325351Y-40407116D01*
X99549427Y-40607962D01*
X99598893Y-40637241D01*
X99478495Y-40717688D01*
X99264688Y-40931495D01*
X99096701Y-41182905D01*
X98980989Y-41462257D01*
X98922000Y-41758816D01*
X95910000Y-41758816D01*
X95910000Y-39005260D01*
X98965964Y-39005260D01*
X99086622Y-39243000D01*
X100330000Y-39243000D01*
X100330000Y-37999008D01*
X100584000Y-37999008D01*
X100584000Y-39243000D01*
X101827378Y-39243000D01*
X101948036Y-39005260D01*
X102902964Y-39005260D01*
X103023622Y-39243000D01*
X104267000Y-39243000D01*
X104267000Y-37999008D01*
X104521000Y-37999008D01*
X104521000Y-39243000D01*
X105764378Y-39243000D01*
X105885036Y-39005260D01*
X105836394Y-38844893D01*
X105706236Y-38573586D01*
X105525649Y-38332884D01*
X105301573Y-38132038D01*
X105042620Y-37978766D01*
X104758741Y-37878959D01*
X104521000Y-37999008D01*
X104267000Y-37999008D01*
X104029259Y-37878959D01*
X103745380Y-37978766D01*
X103486427Y-38132038D01*
X103262351Y-38332884D01*
X103081764Y-38573586D01*
X102951606Y-38844893D01*
X102902964Y-39005260D01*
X101948036Y-39005260D01*
X101899394Y-38844893D01*
X101769236Y-38573586D01*
X101588649Y-38332884D01*
X101364573Y-38132038D01*
X101105620Y-37978766D01*
X100821741Y-37878959D01*
X100584000Y-37999008D01*
X100330000Y-37999008D01*
X100092259Y-37878959D01*
X99808380Y-37978766D01*
X99549427Y-38132038D01*
X99325351Y-38332884D01*
X99144764Y-38573586D01*
X99014606Y-38844893D01*
X98965964Y-39005260D01*
X95910000Y-39005260D01*
X95910000Y-36479256D01*
X95980367Y-35713457D01*
X96180864Y-35002549D01*
X96507557Y-34340081D01*
X96949506Y-33748240D01*
X97491904Y-33246852D01*
X98116596Y-32852701D01*
X98802652Y-32578992D01*
X99539897Y-32432346D01*
X99966274Y-32410000D01*
X143485513Y-32410000D01*
X144463395Y-32482669D01*
G37*
X144463395Y-32482669D02*
X145395853Y-32693663D01*
X146286877Y-33040163D01*
X147116898Y-33514560D01*
X147867677Y-34106427D01*
X148522732Y-34802771D01*
X149067665Y-35588288D01*
X149490504Y-36445720D01*
X149781960Y-37356231D01*
X149937263Y-38309824D01*
X149962000Y-38876405D01*
X149962001Y-99281713D01*
X149942441Y-99481204D01*
X149893881Y-99642040D01*
X149815008Y-99790378D01*
X149708822Y-99920575D01*
X149579372Y-100027665D01*
X149431586Y-100107572D01*
X149271094Y-100157253D01*
X149073695Y-100178000D01*
X143096581Y-100178000D01*
X143067874Y-100180827D01*
X143057656Y-100180756D01*
X143048485Y-100181656D01*
X142728031Y-100215337D01*
X142669458Y-100227360D01*
X142610673Y-100238574D01*
X142601851Y-100241238D01*
X142294044Y-100336521D01*
X142238937Y-100359686D01*
X142183437Y-100382109D01*
X142175300Y-100386436D01*
X141891861Y-100539691D01*
X141842277Y-100573136D01*
X141792214Y-100605896D01*
X141785073Y-100611720D01*
X141536799Y-100817110D01*
X141494659Y-100859546D01*
X141451909Y-100901409D01*
X141446036Y-100908510D01*
X141242384Y-101158212D01*
X141209304Y-101208002D01*
X141175485Y-101257392D01*
X141171102Y-101265499D01*
X141019829Y-101550001D01*
X140997029Y-101605319D01*
X140973468Y-101660290D01*
X140970743Y-101669093D01*
X140877612Y-101977559D01*
X140865992Y-102036246D01*
X140853556Y-102094749D01*
X140852593Y-102103914D01*
X140845109Y-102180246D01*
X140822113Y-102288432D01*
X140821150Y-102297596D01*
X140791185Y-102603205D01*
X140721133Y-102835226D01*
X140607350Y-103049222D01*
X140454169Y-103237039D01*
X140267424Y-103391529D01*
X140054231Y-103506802D01*
X139822701Y-103578472D01*
X139551276Y-103607000D01*
X98965279Y-103607000D01*
X98346447Y-103546323D01*
X97782228Y-103375975D01*
X97261848Y-103099285D01*
X96805121Y-102726788D01*
X96429446Y-102272673D01*
X96149126Y-101754234D01*
X95974845Y-101191222D01*
X95910000Y-100574262D01*
X95910000Y-85756540D01*
X96152600Y-85756540D01*
X96152600Y-86049060D01*
X96209668Y-86335958D01*
X96321610Y-86606211D01*
X96484125Y-86849432D01*
X96690968Y-87056275D01*
X96827346Y-87147400D01*
X96690968Y-87238525D01*
X96484125Y-87445368D01*
X96321610Y-87688589D01*
X96209668Y-87958842D01*
X96152600Y-88245740D01*
X96152600Y-88538260D01*
X96209668Y-88825158D01*
X96321610Y-89095411D01*
X96484125Y-89338632D01*
X96690968Y-89545475D01*
X96865360Y-89662000D01*
X96690968Y-89778525D01*
X96484125Y-89985368D01*
X96321610Y-90228589D01*
X96209668Y-90498842D01*
X96152600Y-90785740D01*
X96152600Y-91078260D01*
X96209668Y-91365158D01*
X96321610Y-91635411D01*
X96484125Y-91878632D01*
X96690968Y-92085475D01*
X96903374Y-92227400D01*
X96690968Y-92369325D01*
X96484125Y-92576168D01*
X96321610Y-92819389D01*
X96209668Y-93089642D01*
X96152600Y-93376540D01*
X96152600Y-93669060D01*
X96209668Y-93955958D01*
X96321610Y-94226211D01*
X96484125Y-94469432D01*
X96690968Y-94676275D01*
X96827346Y-94767400D01*
X96690968Y-94858525D01*
X96484125Y-95065368D01*
X96321610Y-95308589D01*
X96209668Y-95578842D01*
X96152600Y-95865740D01*
X96152600Y-96158260D01*
X96209668Y-96445158D01*
X96321610Y-96715411D01*
X96484125Y-96958632D01*
X96690968Y-97165475D01*
X96903374Y-97307400D01*
X96690968Y-97449325D01*
X96484125Y-97656168D01*
X96321610Y-97899389D01*
X96209668Y-98169642D01*
X96152600Y-98456540D01*
X96152600Y-98749060D01*
X96209668Y-99035958D01*
X96321610Y-99306211D01*
X96484125Y-99549432D01*
X96690968Y-99756275D01*
X96934189Y-99918790D01*
X97204442Y-100030732D01*
X97491340Y-100087800D01*
X97783860Y-100087800D01*
X98070758Y-100030732D01*
X98341011Y-99918790D01*
X98584232Y-99756275D01*
X98791075Y-99549432D01*
X98953590Y-99306211D01*
X99065532Y-99035958D01*
X99122600Y-98749060D01*
X99122600Y-98456540D01*
X99065532Y-98169642D01*
X98953590Y-97899389D01*
X98791075Y-97656168D01*
X98584232Y-97449325D01*
X98371826Y-97307400D01*
X98584232Y-97165475D01*
X98791075Y-96958632D01*
X98953590Y-96715411D01*
X99065532Y-96445158D01*
X99122600Y-96158260D01*
X99122600Y-95865740D01*
X99065532Y-95578842D01*
X98953590Y-95308589D01*
X98791075Y-95065368D01*
X98584232Y-94858525D01*
X98447854Y-94767400D01*
X98584232Y-94676275D01*
X98791075Y-94469432D01*
X98953590Y-94226211D01*
X99065532Y-93955958D01*
X99122600Y-93669060D01*
X99122600Y-93376540D01*
X99065532Y-93089642D01*
X98953590Y-92819389D01*
X98791075Y-92576168D01*
X98584232Y-92369325D01*
X98371826Y-92227400D01*
X98584232Y-92085475D01*
X98791075Y-91878632D01*
X98953590Y-91635411D01*
X99065532Y-91365158D01*
X99122600Y-91078260D01*
X99122600Y-90785740D01*
X99065532Y-90498842D01*
X98953590Y-90228589D01*
X98791075Y-89985368D01*
X98584232Y-89778525D01*
X98409840Y-89662000D01*
X98584232Y-89545475D01*
X98791075Y-89338632D01*
X98953590Y-89095411D01*
X99065532Y-88825158D01*
X99122600Y-88538260D01*
X99122600Y-88245740D01*
X99065532Y-87958842D01*
X98953590Y-87688589D01*
X98791075Y-87445368D01*
X98584232Y-87238525D01*
X98447854Y-87147400D01*
X98584232Y-87056275D01*
X98791075Y-86849432D01*
X98953590Y-86606211D01*
X99065532Y-86335958D01*
X99122600Y-86049060D01*
X99122600Y-85756540D01*
X99065532Y-85469642D01*
X98953590Y-85199389D01*
X98791075Y-84956168D01*
X98584232Y-84749325D01*
X98341011Y-84586810D01*
X98070758Y-84474868D01*
X97783860Y-84417800D01*
X97491340Y-84417800D01*
X97204442Y-84474868D01*
X96934189Y-84586810D01*
X96690968Y-84749325D01*
X96484125Y-84956168D01*
X96321610Y-85199389D01*
X96209668Y-85469642D01*
X96152600Y-85756540D01*
X95910000Y-85756540D01*
X95910000Y-77431597D01*
X96788808Y-77431597D01*
X96866443Y-77680672D01*
X97130483Y-77806571D01*
X97414011Y-77878539D01*
X97706131Y-77893811D01*
X97995619Y-77851799D01*
X98271347Y-77754119D01*
X98408757Y-77680672D01*
X98486392Y-77431597D01*
X97637600Y-76582805D01*
X96788808Y-77431597D01*
X95910000Y-77431597D01*
X95910000Y-76471731D01*
X96146989Y-76471731D01*
X96189001Y-76761219D01*
X96286681Y-77036947D01*
X96360128Y-77174357D01*
X96609203Y-77251992D01*
X97457995Y-76403200D01*
X97817205Y-76403200D01*
X98665997Y-77251992D01*
X98915072Y-77174357D01*
X99040971Y-76910317D01*
X99112939Y-76626789D01*
X99128211Y-76334669D01*
X99086199Y-76045181D01*
X98988519Y-75769453D01*
X98915072Y-75632043D01*
X98665997Y-75554408D01*
X97817205Y-76403200D01*
X97457995Y-76403200D01*
X96609203Y-75554408D01*
X96360128Y-75632043D01*
X96234229Y-75896083D01*
X96162261Y-76179611D01*
X96146989Y-76471731D01*
X95910000Y-76471731D01*
X95910000Y-68687740D01*
X96152600Y-68687740D01*
X96152600Y-68980260D01*
X96209668Y-69267158D01*
X96321610Y-69537411D01*
X96484125Y-69780632D01*
X96690968Y-69987475D01*
X96865360Y-70104000D01*
X96690968Y-70220525D01*
X96484125Y-70427368D01*
X96321610Y-70670589D01*
X96209668Y-70940842D01*
X96152600Y-71227740D01*
X96152600Y-71520260D01*
X96209668Y-71807158D01*
X96321610Y-72077411D01*
X96484125Y-72320632D01*
X96690968Y-72527475D01*
X96865360Y-72644000D01*
X96690968Y-72760525D01*
X96484125Y-72967368D01*
X96321610Y-73210589D01*
X96209668Y-73480842D01*
X96152600Y-73767740D01*
X96152600Y-74060260D01*
X96209668Y-74347158D01*
X96321610Y-74617411D01*
X96484125Y-74860632D01*
X96690968Y-75067475D01*
X96851224Y-75174555D01*
X96788808Y-75374803D01*
X97637600Y-76223595D01*
X98486392Y-75374803D01*
X98423976Y-75174555D01*
X98584232Y-75067475D01*
X98791075Y-74860632D01*
X98953590Y-74617411D01*
X99065532Y-74347158D01*
X99122600Y-74060260D01*
X99122600Y-73767740D01*
X99065532Y-73480842D01*
X98953590Y-73210589D01*
X98791075Y-72967368D01*
X98584232Y-72760525D01*
X98409840Y-72644000D01*
X98584232Y-72527475D01*
X98791075Y-72320632D01*
X98953590Y-72077411D01*
X99065532Y-71807158D01*
X99122600Y-71520260D01*
X99122600Y-71227740D01*
X99065532Y-70940842D01*
X98953590Y-70670589D01*
X98791075Y-70427368D01*
X98584232Y-70220525D01*
X98409840Y-70104000D01*
X98584232Y-69987475D01*
X98791075Y-69780632D01*
X98953590Y-69537411D01*
X99065532Y-69267158D01*
X99122600Y-68980260D01*
X99122600Y-68687740D01*
X99065532Y-68400842D01*
X98953590Y-68130589D01*
X98791075Y-67887368D01*
X98584232Y-67680525D01*
X98341011Y-67518010D01*
X98070758Y-67406068D01*
X97783860Y-67349000D01*
X97491340Y-67349000D01*
X97204442Y-67406068D01*
X96934189Y-67518010D01*
X96690968Y-67680525D01*
X96484125Y-67887368D01*
X96321610Y-68130589D01*
X96209668Y-68400842D01*
X96152600Y-68687740D01*
X95910000Y-68687740D01*
X95910000Y-63872367D01*
X99101400Y-63872367D01*
X99101400Y-64194433D01*
X99164232Y-64510312D01*
X99287482Y-64807863D01*
X99466413Y-65075652D01*
X99694148Y-65303387D01*
X99961937Y-65482318D01*
X100259488Y-65605568D01*
X100575367Y-65668400D01*
X100897433Y-65668400D01*
X101213312Y-65605568D01*
X101510863Y-65482318D01*
X101778652Y-65303387D01*
X102006387Y-65075652D01*
X102028204Y-65043000D01*
X111963172Y-65043000D01*
X112014000Y-65048006D01*
X112064828Y-65043000D01*
X112064838Y-65043000D01*
X112216895Y-65028024D01*
X112411993Y-64968841D01*
X112591797Y-64872734D01*
X112749396Y-64743396D01*
X112781807Y-64703903D01*
X113471908Y-64013803D01*
X113511396Y-63981396D01*
X113600874Y-63872367D01*
X113640734Y-63823798D01*
X113736840Y-63643994D01*
X113736841Y-63643993D01*
X113796024Y-63448895D01*
X113811000Y-63296838D01*
X113811000Y-63296835D01*
X113816007Y-63246000D01*
X113811000Y-63195165D01*
X113811000Y-53196625D01*
X113900482Y-53187812D01*
X114020180Y-53151502D01*
X114130494Y-53092537D01*
X114227185Y-53013185D01*
X114306537Y-52916494D01*
X114365502Y-52806180D01*
X114401812Y-52686482D01*
X114410625Y-52597000D01*
X118189290Y-52597000D01*
X119615001Y-54022712D01*
X119615000Y-99448183D01*
X119457688Y-99605495D01*
X119380000Y-99721763D01*
X119302312Y-99605495D01*
X119088505Y-99391688D01*
X118837095Y-99223701D01*
X118557743Y-99107989D01*
X118261184Y-99049000D01*
X117958816Y-99049000D01*
X117662257Y-99107989D01*
X117382905Y-99223701D01*
X117131495Y-99391688D01*
X116917688Y-99605495D01*
X116749701Y-99856905D01*
X116633989Y-100136257D01*
X116575000Y-100432816D01*
X116575000Y-100735184D01*
X116633989Y-101031743D01*
X116749701Y-101311095D01*
X116917688Y-101562505D01*
X117131495Y-101776312D01*
X117382905Y-101944299D01*
X117662257Y-102060011D01*
X117958816Y-102119000D01*
X118261184Y-102119000D01*
X118557743Y-102060011D01*
X118837095Y-101944299D01*
X119088505Y-101776312D01*
X119302312Y-101562505D01*
X119380000Y-101446237D01*
X119457688Y-101562505D01*
X119671495Y-101776312D01*
X119922905Y-101944299D01*
X120202257Y-102060011D01*
X120498816Y-102119000D01*
X120801184Y-102119000D01*
X121097743Y-102060011D01*
X121377095Y-101944299D01*
X121628505Y-101776312D01*
X121842312Y-101562505D01*
X121922759Y-101442107D01*
X121952038Y-101491573D01*
X122152884Y-101715649D01*
X122393586Y-101896236D01*
X122664893Y-102026394D01*
X122825260Y-102075036D01*
X123063000Y-101954378D01*
X123063000Y-100711000D01*
X123043000Y-100711000D01*
X123043000Y-100457000D01*
X123063000Y-100457000D01*
X123063000Y-99213622D01*
X122825260Y-99092964D01*
X122664893Y-99141606D01*
X122393586Y-99271764D01*
X122152884Y-99452351D01*
X121952038Y-99676427D01*
X121922759Y-99725893D01*
X121842312Y-99605495D01*
X121685000Y-99448183D01*
X121685000Y-93836740D01*
X135668964Y-93836740D01*
X135717606Y-93997107D01*
X135847764Y-94268414D01*
X136028351Y-94509116D01*
X136252427Y-94709962D01*
X136511380Y-94863234D01*
X136795259Y-94963041D01*
X137033000Y-94842992D01*
X137033000Y-93599000D01*
X135789622Y-93599000D01*
X135668964Y-93836740D01*
X121685000Y-93836740D01*
X121685000Y-91296740D01*
X135668964Y-91296740D01*
X135717606Y-91457107D01*
X135847764Y-91728414D01*
X136028351Y-91969116D01*
X136252427Y-92169962D01*
X136306555Y-92202000D01*
X136252427Y-92234038D01*
X136028351Y-92434884D01*
X135847764Y-92675586D01*
X135717606Y-92946893D01*
X135668964Y-93107260D01*
X135789622Y-93345000D01*
X137033000Y-93345000D01*
X137033000Y-91059000D01*
X135789622Y-91059000D01*
X135668964Y-91296740D01*
X121685000Y-91296740D01*
X121685000Y-88756740D01*
X135668964Y-88756740D01*
X135717606Y-88917107D01*
X135847764Y-89188414D01*
X136028351Y-89429116D01*
X136252427Y-89629962D01*
X136306555Y-89662000D01*
X136252427Y-89694038D01*
X136028351Y-89894884D01*
X135847764Y-90135586D01*
X135717606Y-90406893D01*
X135668964Y-90567260D01*
X135789622Y-90805000D01*
X137033000Y-90805000D01*
X137033000Y-88519000D01*
X135789622Y-88519000D01*
X135668964Y-88756740D01*
X121685000Y-88756740D01*
X121685000Y-86216740D01*
X135668964Y-86216740D01*
X135717606Y-86377107D01*
X135847764Y-86648414D01*
X136028351Y-86889116D01*
X136252427Y-87089962D01*
X136306555Y-87122000D01*
X136252427Y-87154038D01*
X136028351Y-87354884D01*
X135847764Y-87595586D01*
X135717606Y-87866893D01*
X135668964Y-88027260D01*
X135789622Y-88265000D01*
X137033000Y-88265000D01*
X137033000Y-85979000D01*
X135789622Y-85979000D01*
X135668964Y-86216740D01*
X121685000Y-86216740D01*
X121685000Y-83676740D01*
X135668964Y-83676740D01*
X135717606Y-83837107D01*
X135847764Y-84108414D01*
X136028351Y-84349116D01*
X136252427Y-84549962D01*
X136306555Y-84582000D01*
X136252427Y-84614038D01*
X136028351Y-84814884D01*
X135847764Y-85055586D01*
X135717606Y-85326893D01*
X135668964Y-85487260D01*
X135789622Y-85725000D01*
X137033000Y-85725000D01*
X137033000Y-83439000D01*
X135789622Y-83439000D01*
X135668964Y-83676740D01*
X121685000Y-83676740D01*
X121685000Y-81136740D01*
X135668964Y-81136740D01*
X135717606Y-81297107D01*
X135847764Y-81568414D01*
X136028351Y-81809116D01*
X136252427Y-82009962D01*
X136306555Y-82042000D01*
X136252427Y-82074038D01*
X136028351Y-82274884D01*
X135847764Y-82515586D01*
X135717606Y-82786893D01*
X135668964Y-82947260D01*
X135789622Y-83185000D01*
X137033000Y-83185000D01*
X137033000Y-80899000D01*
X135789622Y-80899000D01*
X135668964Y-81136740D01*
X121685000Y-81136740D01*
X121685000Y-80407260D01*
X135668964Y-80407260D01*
X135789622Y-80645000D01*
X137033000Y-80645000D01*
X137033000Y-79401008D01*
X136795259Y-79280959D01*
X136511380Y-79380766D01*
X136252427Y-79534038D01*
X136028351Y-79734884D01*
X135847764Y-79975586D01*
X135717606Y-80246893D01*
X135668964Y-80407260D01*
X121685000Y-80407260D01*
X121685000Y-77326740D01*
X135668964Y-77326740D01*
X135717606Y-77487107D01*
X135847764Y-77758414D01*
X136028351Y-77999116D01*
X136252427Y-78199962D01*
X136511380Y-78353234D01*
X136795259Y-78453041D01*
X137033000Y-78332992D01*
X137033000Y-77089000D01*
X135789622Y-77089000D01*
X135668964Y-77326740D01*
X121685000Y-77326740D01*
X121685000Y-74786740D01*
X135668964Y-74786740D01*
X135717606Y-74947107D01*
X135847764Y-75218414D01*
X136028351Y-75459116D01*
X136252427Y-75659962D01*
X136306555Y-75692000D01*
X136252427Y-75724038D01*
X136028351Y-75924884D01*
X135847764Y-76165586D01*
X135717606Y-76436893D01*
X135668964Y-76597260D01*
X135789622Y-76835000D01*
X137033000Y-76835000D01*
X137033000Y-74549000D01*
X135789622Y-74549000D01*
X135668964Y-74786740D01*
X121685000Y-74786740D01*
X121685000Y-72246740D01*
X135668964Y-72246740D01*
X135717606Y-72407107D01*
X135847764Y-72678414D01*
X136028351Y-72919116D01*
X136252427Y-73119962D01*
X136306555Y-73152000D01*
X136252427Y-73184038D01*
X136028351Y-73384884D01*
X135847764Y-73625586D01*
X135717606Y-73896893D01*
X135668964Y-74057260D01*
X135789622Y-74295000D01*
X137033000Y-74295000D01*
X137033000Y-72009000D01*
X135789622Y-72009000D01*
X135668964Y-72246740D01*
X121685000Y-72246740D01*
X121685000Y-69706740D01*
X135668964Y-69706740D01*
X135717606Y-69867107D01*
X135847764Y-70138414D01*
X136028351Y-70379116D01*
X136252427Y-70579962D01*
X136306555Y-70612000D01*
X136252427Y-70644038D01*
X136028351Y-70844884D01*
X135847764Y-71085586D01*
X135717606Y-71356893D01*
X135668964Y-71517260D01*
X135789622Y-71755000D01*
X137033000Y-71755000D01*
X137033000Y-69469000D01*
X135789622Y-69469000D01*
X135668964Y-69706740D01*
X121685000Y-69706740D01*
X121685000Y-67166740D01*
X135668964Y-67166740D01*
X135717606Y-67327107D01*
X135847764Y-67598414D01*
X136028351Y-67839116D01*
X136252427Y-68039962D01*
X136306555Y-68072000D01*
X136252427Y-68104038D01*
X136028351Y-68304884D01*
X135847764Y-68545586D01*
X135717606Y-68816893D01*
X135668964Y-68977260D01*
X135789622Y-69215000D01*
X137033000Y-69215000D01*
X137033000Y-66929000D01*
X135789622Y-66929000D01*
X135668964Y-67166740D01*
X121685000Y-67166740D01*
X121685000Y-64626740D01*
X135668964Y-64626740D01*
X135717606Y-64787107D01*
X135847764Y-65058414D01*
X136028351Y-65299116D01*
X136252427Y-65499962D01*
X136306555Y-65532000D01*
X136252427Y-65564038D01*
X136028351Y-65764884D01*
X135847764Y-66005586D01*
X135717606Y-66276893D01*
X135668964Y-66437260D01*
X135789622Y-66675000D01*
X137033000Y-66675000D01*
X137033000Y-64389000D01*
X135789622Y-64389000D01*
X135668964Y-64626740D01*
X121685000Y-64626740D01*
X121685000Y-63897260D01*
X135668964Y-63897260D01*
X135789622Y-64135000D01*
X137033000Y-64135000D01*
X137033000Y-62891008D01*
X136795259Y-62770959D01*
X136511380Y-62870766D01*
X136252427Y-63024038D01*
X136028351Y-63224884D01*
X135847764Y-63465586D01*
X135717606Y-63736893D01*
X135668964Y-63897260D01*
X121685000Y-63897260D01*
X121685000Y-53644835D01*
X121690007Y-53594000D01*
X121675903Y-53450801D01*
X121670024Y-53391105D01*
X121610841Y-53196007D01*
X121524725Y-53034894D01*
X121514734Y-53016202D01*
X121417803Y-52898092D01*
X121385396Y-52858604D01*
X121345908Y-52826197D01*
X121116711Y-52597000D01*
X133937290Y-52597000D01*
X134453736Y-53113447D01*
X134443688Y-53123495D01*
X134275701Y-53374905D01*
X134159989Y-53654257D01*
X134101000Y-53950816D01*
X134101000Y-54253184D01*
X134159989Y-54549743D01*
X134275701Y-54829095D01*
X134443688Y-55080505D01*
X134657495Y-55294312D01*
X134908905Y-55462299D01*
X135188257Y-55578011D01*
X135484816Y-55637000D01*
X135787184Y-55637000D01*
X136083743Y-55578011D01*
X136363095Y-55462299D01*
X136614505Y-55294312D01*
X136828312Y-55080505D01*
X136996299Y-54829095D01*
X137112011Y-54549743D01*
X137171000Y-54253184D01*
X137171000Y-53950816D01*
X137112011Y-53654257D01*
X136996299Y-53374905D01*
X136828312Y-53123495D01*
X136671000Y-52966183D01*
X136671000Y-52882827D01*
X136676006Y-52831999D01*
X136671000Y-52781171D01*
X136671000Y-52781162D01*
X136656024Y-52629105D01*
X136596841Y-52434007D01*
X136502714Y-52257907D01*
X136500734Y-52254202D01*
X136403803Y-52136092D01*
X136371396Y-52096604D01*
X136331908Y-52064197D01*
X135133807Y-50866097D01*
X135101396Y-50826604D01*
X134943797Y-50697266D01*
X134763993Y-50601159D01*
X134568895Y-50541976D01*
X134416838Y-50527000D01*
X134416828Y-50527000D01*
X134366000Y-50521994D01*
X134315172Y-50527000D01*
X118668828Y-50527000D01*
X118618000Y-50521994D01*
X118567172Y-50527000D01*
X114410625Y-50527000D01*
X114401812Y-50437518D01*
X114365502Y-50317820D01*
X114306537Y-50207506D01*
X114227185Y-50110815D01*
X114130494Y-50031463D01*
X114020180Y-49972498D01*
X113900482Y-49936188D01*
X113776000Y-49923928D01*
X111776000Y-49923928D01*
X111651518Y-49936188D01*
X111531820Y-49972498D01*
X111421506Y-50031463D01*
X111324815Y-50110815D01*
X111245463Y-50207506D01*
X111186498Y-50317820D01*
X111150188Y-50437518D01*
X111137928Y-50562000D01*
X111137928Y-52562000D01*
X111150188Y-52686482D01*
X111186498Y-52806180D01*
X111245463Y-52916494D01*
X111324815Y-53013185D01*
X111421506Y-53092537D01*
X111531820Y-53151502D01*
X111651518Y-53187812D01*
X111741001Y-53196625D01*
X111741000Y-62026837D01*
X111741001Y-62026846D01*
X111741000Y-62817289D01*
X111585290Y-62973000D01*
X101988239Y-62973000D01*
X101778652Y-62763413D01*
X101510863Y-62584482D01*
X101213312Y-62461232D01*
X100897433Y-62398400D01*
X100575367Y-62398400D01*
X100259488Y-62461232D01*
X99961937Y-62584482D01*
X99694148Y-62763413D01*
X99466413Y-62991148D01*
X99287482Y-63258937D01*
X99164232Y-63556488D01*
X99101400Y-63872367D01*
X95910000Y-63872367D01*
X95910000Y-61587413D01*
X99780592Y-61587413D01*
X99876356Y-61851814D01*
X100165971Y-61992704D01*
X100477508Y-62074384D01*
X100798995Y-62093718D01*
X101118075Y-62049961D01*
X101422488Y-61944795D01*
X101596444Y-61851814D01*
X101692208Y-61587413D01*
X100736400Y-60631605D01*
X99780592Y-61587413D01*
X95910000Y-61587413D01*
X95910000Y-60514595D01*
X99094682Y-60514595D01*
X99138439Y-60833675D01*
X99243605Y-61138088D01*
X99336586Y-61312044D01*
X99600987Y-61407808D01*
X100556795Y-60452000D01*
X100916005Y-60452000D01*
X101871813Y-61407808D01*
X102136214Y-61312044D01*
X102277104Y-61022429D01*
X102358784Y-60710892D01*
X102378118Y-60389405D01*
X102334361Y-60070325D01*
X102229195Y-59765912D01*
X102136214Y-59591956D01*
X101871813Y-59496192D01*
X100916005Y-60452000D01*
X100556795Y-60452000D01*
X99600987Y-59496192D01*
X99336586Y-59591956D01*
X99195696Y-59881571D01*
X99114016Y-60193108D01*
X99094682Y-60514595D01*
X95910000Y-60514595D01*
X95910000Y-59316587D01*
X99780592Y-59316587D01*
X100736400Y-60272395D01*
X101692208Y-59316587D01*
X101596444Y-59052186D01*
X101306829Y-58911296D01*
X100995292Y-58829616D01*
X100673805Y-58810282D01*
X100354725Y-58854039D01*
X100050312Y-58959205D01*
X99876356Y-59052186D01*
X99780592Y-59316587D01*
X95910000Y-59316587D01*
X95910000Y-48897413D01*
X111820192Y-48897413D01*
X111915956Y-49161814D01*
X112205571Y-49302704D01*
X112517108Y-49384384D01*
X112838595Y-49403718D01*
X113157675Y-49359961D01*
X113462088Y-49254795D01*
X113636044Y-49161814D01*
X113731808Y-48897413D01*
X112776000Y-47941605D01*
X111820192Y-48897413D01*
X95910000Y-48897413D01*
X95910000Y-47824595D01*
X111134282Y-47824595D01*
X111178039Y-48143675D01*
X111283205Y-48448088D01*
X111376186Y-48622044D01*
X111640587Y-48717808D01*
X112596395Y-47762000D01*
X112955605Y-47762000D01*
X113911413Y-48717808D01*
X114175814Y-48622044D01*
X114316704Y-48332429D01*
X114398384Y-48020892D01*
X114417718Y-47699405D01*
X114373961Y-47380325D01*
X114268795Y-47075912D01*
X114175814Y-46901956D01*
X113911413Y-46806192D01*
X112955605Y-47762000D01*
X112596395Y-47762000D01*
X111640587Y-46806192D01*
X111376186Y-46901956D01*
X111235296Y-47191571D01*
X111153616Y-47503108D01*
X111134282Y-47824595D01*
X95910000Y-47824595D01*
X95910000Y-46626587D01*
X111820192Y-46626587D01*
X112776000Y-47582395D01*
X113731808Y-46626587D01*
X113636044Y-46362186D01*
X113346429Y-46221296D01*
X113034892Y-46139616D01*
X112713405Y-46120282D01*
X112394325Y-46164039D01*
X112089912Y-46269205D01*
X111915956Y-46362186D01*
X111820192Y-46626587D01*
X95910000Y-46626587D01*
X95910000Y-41758816D01*
X98922000Y-41758816D01*
X98922000Y-42061184D01*
X98980989Y-42357743D01*
X99096701Y-42637095D01*
X99264688Y-42888505D01*
X99478495Y-43102312D01*
X99594763Y-43180000D01*
X99478495Y-43257688D01*
X99264688Y-43471495D01*
X99096701Y-43722905D01*
X98980989Y-44002257D01*
X98922000Y-44298816D01*
X98922000Y-44601184D01*
X98980989Y-44897743D01*
X99096701Y-45177095D01*
X99264688Y-45428505D01*
X99478495Y-45642312D01*
X99729905Y-45810299D01*
X100009257Y-45926011D01*
X100305816Y-45985000D01*
X100608184Y-45985000D01*
X100904743Y-45926011D01*
X101184095Y-45810299D01*
X101435505Y-45642312D01*
X101649312Y-45428505D01*
X101817299Y-45177095D01*
X101933011Y-44897743D01*
X101992000Y-44601184D01*
X101992000Y-44298816D01*
X101933011Y-44002257D01*
X101817299Y-43722905D01*
X101649312Y-43471495D01*
X101435505Y-43257688D01*
X101319237Y-43180000D01*
X101435505Y-43102312D01*
X101492817Y-43045000D01*
X103358183Y-43045000D01*
X103415495Y-43102312D01*
X103531763Y-43180000D01*
X103415495Y-43257688D01*
X103201688Y-43471495D01*
X103033701Y-43722905D01*
X102917989Y-44002257D01*
X102859000Y-44298816D01*
X102859000Y-44601184D01*
X102917989Y-44897743D01*
X103033701Y-45177095D01*
X103201688Y-45428505D01*
X103415495Y-45642312D01*
X103666905Y-45810299D01*
X103946257Y-45926011D01*
X104242816Y-45985000D01*
X104545184Y-45985000D01*
X104841743Y-45926011D01*
X105121095Y-45810299D01*
X105372505Y-45642312D01*
X105586312Y-45428505D01*
X105754299Y-45177095D01*
X105870011Y-44897743D01*
X105873798Y-44878702D01*
X125424903Y-44878702D01*
X125496486Y-45122671D01*
X125751996Y-45243571D01*
X126026184Y-45312300D01*
X126308512Y-45326217D01*
X126588130Y-45284787D01*
X126854292Y-45189603D01*
X126979514Y-45122671D01*
X127051097Y-44878702D01*
X126238000Y-44065605D01*
X125424903Y-44878702D01*
X105873798Y-44878702D01*
X105929000Y-44601184D01*
X105929000Y-44298816D01*
X105870011Y-44002257D01*
X105851063Y-43956512D01*
X124797783Y-43956512D01*
X124839213Y-44236130D01*
X124934397Y-44502292D01*
X125001329Y-44627514D01*
X125245298Y-44699097D01*
X126058395Y-43886000D01*
X126417605Y-43886000D01*
X127230702Y-44699097D01*
X127474671Y-44627514D01*
X127595571Y-44372004D01*
X127664300Y-44097816D01*
X127678217Y-43815488D01*
X127636787Y-43535870D01*
X127541603Y-43269708D01*
X127474671Y-43144486D01*
X127230702Y-43072903D01*
X126417605Y-43886000D01*
X126058395Y-43886000D01*
X125245298Y-43072903D01*
X125001329Y-43144486D01*
X124880429Y-43399996D01*
X124811700Y-43674184D01*
X124797783Y-43956512D01*
X105851063Y-43956512D01*
X105754299Y-43722905D01*
X105586312Y-43471495D01*
X105372505Y-43257688D01*
X105256237Y-43180000D01*
X105372505Y-43102312D01*
X105429817Y-43045000D01*
X108402249Y-43045000D01*
X108458000Y-43050491D01*
X108513751Y-43045000D01*
X108513752Y-43045000D01*
X108680499Y-43028577D01*
X108894447Y-42963676D01*
X109026115Y-42893298D01*
X125424903Y-42893298D01*
X126238000Y-43706395D01*
X127051097Y-42893298D01*
X126979514Y-42649329D01*
X126724004Y-42528429D01*
X126449816Y-42459700D01*
X126167488Y-42445783D01*
X125887870Y-42487213D01*
X125621708Y-42582397D01*
X125496486Y-42649329D01*
X125424903Y-42893298D01*
X109026115Y-42893298D01*
X109091623Y-42858284D01*
X109264449Y-42716449D01*
X109299996Y-42673135D01*
X111376132Y-40597000D01*
X111676883Y-40597000D01*
X112012081Y-40530325D01*
X112327831Y-40399537D01*
X112611998Y-40209663D01*
X112853663Y-39967998D01*
X113043537Y-39683831D01*
X113174325Y-39368081D01*
X113241000Y-39032883D01*
X113241000Y-38691117D01*
X114343000Y-38691117D01*
X114343000Y-39032883D01*
X114409675Y-39368081D01*
X114540463Y-39683831D01*
X114730337Y-39967998D01*
X114972002Y-40209663D01*
X115256169Y-40399537D01*
X115571919Y-40530325D01*
X115907117Y-40597000D01*
X116248883Y-40597000D01*
X116584081Y-40530325D01*
X116899831Y-40399537D01*
X117183998Y-40209663D01*
X117396661Y-39997000D01*
X124243869Y-39997000D01*
X124799928Y-40553060D01*
X124799928Y-41186000D01*
X124812188Y-41310482D01*
X124848498Y-41430180D01*
X124907463Y-41540494D01*
X124986815Y-41637185D01*
X125083506Y-41716537D01*
X125193820Y-41775502D01*
X125313518Y-41811812D01*
X125438000Y-41824072D01*
X127038000Y-41824072D01*
X127162482Y-41811812D01*
X127282180Y-41775502D01*
X127392494Y-41716537D01*
X127489185Y-41637185D01*
X127568537Y-41540494D01*
X127627502Y-41430180D01*
X127663812Y-41310482D01*
X127676072Y-41186000D01*
X127676072Y-40553059D01*
X128232132Y-39997000D01*
X134473183Y-39997000D01*
X134657495Y-40181312D01*
X134908905Y-40349299D01*
X135188257Y-40465011D01*
X135484816Y-40524000D01*
X135787184Y-40524000D01*
X136083743Y-40465011D01*
X136363095Y-40349299D01*
X136614505Y-40181312D01*
X136771817Y-40024000D01*
X137874290Y-40024000D01*
X138665000Y-40814711D01*
X138665000Y-63126183D01*
X138507688Y-63283495D01*
X138426633Y-63404802D01*
X138291649Y-63224884D01*
X138067573Y-63024038D01*
X137808620Y-62870766D01*
X137524741Y-62770959D01*
X137287000Y-62891008D01*
X137287000Y-64135000D01*
X137307000Y-64135000D01*
X137307000Y-64389000D01*
X137287000Y-64389000D01*
X137287000Y-66675000D01*
X137307000Y-66675000D01*
X137307000Y-66929000D01*
X137287000Y-66929000D01*
X137287000Y-69215000D01*
X137307000Y-69215000D01*
X137307000Y-69469000D01*
X137287000Y-69469000D01*
X137287000Y-71755000D01*
X137307000Y-71755000D01*
X137307000Y-72009000D01*
X137287000Y-72009000D01*
X137287000Y-74295000D01*
X137307000Y-74295000D01*
X137307000Y-74549000D01*
X137287000Y-74549000D01*
X137287000Y-76835000D01*
X137307000Y-76835000D01*
X137307000Y-77089000D01*
X137287000Y-77089000D01*
X137287000Y-78332992D01*
X137524741Y-78453041D01*
X137808620Y-78353234D01*
X138067573Y-78199962D01*
X138291649Y-77999116D01*
X138426633Y-77819198D01*
X138507688Y-77940505D01*
X138665001Y-78097818D01*
X138665001Y-79636182D01*
X138507688Y-79793495D01*
X138426633Y-79914802D01*
X138291649Y-79734884D01*
X138067573Y-79534038D01*
X137808620Y-79380766D01*
X137524741Y-79280959D01*
X137287000Y-79401008D01*
X137287000Y-80645000D01*
X137307000Y-80645000D01*
X137307000Y-80899000D01*
X137287000Y-80899000D01*
X137287000Y-83185000D01*
X137307000Y-83185000D01*
X137307000Y-83439000D01*
X137287000Y-83439000D01*
X137287000Y-85725000D01*
X137307000Y-85725000D01*
X137307000Y-85979000D01*
X137287000Y-85979000D01*
X137287000Y-88265000D01*
X137307000Y-88265000D01*
X137307000Y-88519000D01*
X137287000Y-88519000D01*
X137287000Y-90805000D01*
X137307000Y-90805000D01*
X137307000Y-91059000D01*
X137287000Y-91059000D01*
X137287000Y-93345000D01*
X137307000Y-93345000D01*
X137307000Y-93599000D01*
X137287000Y-93599000D01*
X137287000Y-94842992D01*
X137524741Y-94963041D01*
X137808620Y-94863234D01*
X138067573Y-94709962D01*
X138291649Y-94509116D01*
X138426633Y-94329198D01*
X138507688Y-94450505D01*
X138721495Y-94664312D01*
X138972905Y-94832299D01*
X139252257Y-94948011D01*
X139548816Y-95007000D01*
X139851184Y-95007000D01*
X140147743Y-94948011D01*
X140427095Y-94832299D01*
X140678505Y-94664312D01*
X140892312Y-94450505D01*
X140970000Y-94334237D01*
X141047688Y-94450505D01*
X141261495Y-94664312D01*
X141512905Y-94832299D01*
X141792257Y-94948011D01*
X142088816Y-95007000D01*
X142391184Y-95007000D01*
X142687743Y-94948011D01*
X142967095Y-94832299D01*
X143218505Y-94664312D01*
X143432312Y-94450505D01*
X143494790Y-94357000D01*
X146193000Y-94357000D01*
X146268125Y-94469432D01*
X146474968Y-94676275D01*
X146649360Y-94792800D01*
X146474968Y-94909325D01*
X146268125Y-95116168D01*
X146226944Y-95177800D01*
X141014738Y-95177800D01*
X140889490Y-95139805D01*
X140716000Y-95122719D01*
X140715999Y-95122719D01*
X140698913Y-95124402D01*
X140542510Y-95139805D01*
X140426293Y-95175060D01*
X140375686Y-95190412D01*
X140221940Y-95272590D01*
X140120953Y-95355468D01*
X140120949Y-95355472D01*
X140087183Y-95383183D01*
X140059472Y-95416949D01*
X138063422Y-97413000D01*
X130599465Y-97413000D01*
X130555999Y-97408719D01*
X130512533Y-97413000D01*
X130512523Y-97413000D01*
X130382510Y-97425805D01*
X130215687Y-97476411D01*
X130061941Y-97558589D01*
X130061939Y-97558590D01*
X130061940Y-97558590D01*
X129960953Y-97641468D01*
X129960951Y-97641470D01*
X129927183Y-97669183D01*
X129899470Y-97702951D01*
X128531482Y-99070940D01*
X128421184Y-99049000D01*
X128118816Y-99049000D01*
X127822257Y-99107989D01*
X127542905Y-99223701D01*
X127291495Y-99391688D01*
X127077688Y-99605495D01*
X127000000Y-99721763D01*
X126922312Y-99605495D01*
X126708505Y-99391688D01*
X126457095Y-99223701D01*
X126177743Y-99107989D01*
X125881184Y-99049000D01*
X125578816Y-99049000D01*
X125282257Y-99107989D01*
X125002905Y-99223701D01*
X124751495Y-99391688D01*
X124537688Y-99605495D01*
X124457241Y-99725893D01*
X124427962Y-99676427D01*
X124227116Y-99452351D01*
X123986414Y-99271764D01*
X123715107Y-99141606D01*
X123554740Y-99092964D01*
X123317000Y-99213622D01*
X123317000Y-100457000D01*
X123337000Y-100457000D01*
X123337000Y-100711000D01*
X123317000Y-100711000D01*
X123317000Y-101954378D01*
X123554740Y-102075036D01*
X123715107Y-102026394D01*
X123986414Y-101896236D01*
X124227116Y-101715649D01*
X124427962Y-101491573D01*
X124457241Y-101442107D01*
X124537688Y-101562505D01*
X124751495Y-101776312D01*
X124885906Y-101866123D01*
X124908412Y-101940313D01*
X124990590Y-102094059D01*
X125073468Y-102195046D01*
X125073471Y-102195049D01*
X125101184Y-102228817D01*
X125134952Y-102256530D01*
X125581466Y-102703044D01*
X125609183Y-102736817D01*
X125743941Y-102847411D01*
X125897687Y-102929589D01*
X126064510Y-102980195D01*
X126194523Y-102993000D01*
X126194533Y-102993000D01*
X126237999Y-102997281D01*
X126281465Y-102993000D01*
X137370531Y-102993000D01*
X137414000Y-102997281D01*
X137457469Y-102993000D01*
X137457477Y-102993000D01*
X137587490Y-102980195D01*
X137754313Y-102929589D01*
X137908059Y-102847411D01*
X138042817Y-102736817D01*
X138070534Y-102703044D01*
X141285779Y-99487800D01*
X146226944Y-99487800D01*
X146268125Y-99549432D01*
X146474968Y-99756275D01*
X146718189Y-99918790D01*
X146988442Y-100030732D01*
X147275340Y-100087800D01*
X147567860Y-100087800D01*
X147854758Y-100030732D01*
X148125011Y-99918790D01*
X148368232Y-99756275D01*
X148575075Y-99549432D01*
X148737590Y-99306211D01*
X148849532Y-99035958D01*
X148906600Y-98749060D01*
X148906600Y-98456540D01*
X148849532Y-98169642D01*
X148737590Y-97899389D01*
X148575075Y-97656168D01*
X148368232Y-97449325D01*
X148193840Y-97332800D01*
X148368232Y-97216275D01*
X148575075Y-97009432D01*
X148737590Y-96766211D01*
X148849532Y-96495958D01*
X148906600Y-96209060D01*
X148906600Y-95916540D01*
X148849532Y-95629642D01*
X148737590Y-95359389D01*
X148575075Y-95116168D01*
X148368232Y-94909325D01*
X148193840Y-94792800D01*
X148368232Y-94676275D01*
X148575075Y-94469432D01*
X148737590Y-94226211D01*
X148849532Y-93955958D01*
X148906600Y-93669060D01*
X148906600Y-93376540D01*
X148849532Y-93089642D01*
X148737590Y-92819389D01*
X148575075Y-92576168D01*
X148368232Y-92369325D01*
X148193840Y-92252800D01*
X148368232Y-92136275D01*
X148575075Y-91929432D01*
X148737590Y-91686211D01*
X148849532Y-91415958D01*
X148906600Y-91129060D01*
X148906600Y-90836540D01*
X148849532Y-90549642D01*
X148737590Y-90279389D01*
X148575075Y-90036168D01*
X148368232Y-89829325D01*
X148193840Y-89712800D01*
X148368232Y-89596275D01*
X148575075Y-89389432D01*
X148737590Y-89146211D01*
X148849532Y-88875958D01*
X148906600Y-88589060D01*
X148906600Y-88296540D01*
X148849532Y-88009642D01*
X148737590Y-87739389D01*
X148575075Y-87496168D01*
X148368232Y-87289325D01*
X148193840Y-87172800D01*
X148368232Y-87056275D01*
X148575075Y-86849432D01*
X148737590Y-86606211D01*
X148849532Y-86335958D01*
X148906600Y-86049060D01*
X148906600Y-85756540D01*
X148849532Y-85469642D01*
X148737590Y-85199389D01*
X148575075Y-84956168D01*
X148368232Y-84749325D01*
X148193840Y-84632800D01*
X148368232Y-84516275D01*
X148575075Y-84309432D01*
X148737590Y-84066211D01*
X148849532Y-83795958D01*
X148906600Y-83509060D01*
X148906600Y-83216540D01*
X148849532Y-82929642D01*
X148737590Y-82659389D01*
X148575075Y-82416168D01*
X148368232Y-82209325D01*
X148193840Y-82092800D01*
X148368232Y-81976275D01*
X148575075Y-81769432D01*
X148737590Y-81526211D01*
X148849532Y-81255958D01*
X148906600Y-80969060D01*
X148906600Y-80676540D01*
X148849532Y-80389642D01*
X148737590Y-80119389D01*
X148575075Y-79876168D01*
X148368232Y-79669325D01*
X148125011Y-79506810D01*
X147854758Y-79394868D01*
X147567860Y-79337800D01*
X147275340Y-79337800D01*
X146988442Y-79394868D01*
X146718189Y-79506810D01*
X146474968Y-79669325D01*
X146268125Y-79876168D01*
X146226944Y-79937800D01*
X143528734Y-79937800D01*
X143432312Y-79793495D01*
X143218505Y-79579688D01*
X142967095Y-79411701D01*
X142687743Y-79295989D01*
X142391184Y-79237000D01*
X142088816Y-79237000D01*
X141792257Y-79295989D01*
X141512905Y-79411701D01*
X141261495Y-79579688D01*
X141047688Y-79793495D01*
X140970000Y-79909763D01*
X140892312Y-79793495D01*
X140735000Y-79636183D01*
X140735000Y-78097817D01*
X140892312Y-77940505D01*
X140970000Y-77824237D01*
X141047688Y-77940505D01*
X141261495Y-78154312D01*
X141512905Y-78322299D01*
X141792257Y-78438011D01*
X142088816Y-78497000D01*
X142391184Y-78497000D01*
X142687743Y-78438011D01*
X142967095Y-78322299D01*
X143218505Y-78154312D01*
X143432312Y-77940505D01*
X143494790Y-77847000D01*
X146244450Y-77847000D01*
X146268125Y-77882432D01*
X146474968Y-78089275D01*
X146718189Y-78251790D01*
X146988442Y-78363732D01*
X147275340Y-78420800D01*
X147567860Y-78420800D01*
X147854758Y-78363732D01*
X148125011Y-78251790D01*
X148368232Y-78089275D01*
X148575075Y-77882432D01*
X148737590Y-77639211D01*
X148849532Y-77368958D01*
X148906600Y-77082060D01*
X148906600Y-76789540D01*
X148849532Y-76502642D01*
X148737590Y-76232389D01*
X148575075Y-75989168D01*
X148368232Y-75782325D01*
X148194439Y-75666200D01*
X148368232Y-75550075D01*
X148575075Y-75343232D01*
X148737590Y-75100011D01*
X148849532Y-74829758D01*
X148906600Y-74542860D01*
X148906600Y-74250340D01*
X148849532Y-73963442D01*
X148737590Y-73693189D01*
X148575075Y-73449968D01*
X148368232Y-73243125D01*
X148193840Y-73126600D01*
X148368232Y-73010075D01*
X148575075Y-72803232D01*
X148737590Y-72560011D01*
X148849532Y-72289758D01*
X148906600Y-72002860D01*
X148906600Y-71710340D01*
X148849532Y-71423442D01*
X148737590Y-71153189D01*
X148575075Y-70909968D01*
X148368232Y-70703125D01*
X148193840Y-70586600D01*
X148368232Y-70470075D01*
X148575075Y-70263232D01*
X148737590Y-70020011D01*
X148849532Y-69749758D01*
X148906600Y-69462860D01*
X148906600Y-69170340D01*
X148849532Y-68883442D01*
X148737590Y-68613189D01*
X148575075Y-68369968D01*
X148368232Y-68163125D01*
X148193241Y-68046200D01*
X148368232Y-67929275D01*
X148575075Y-67722432D01*
X148737590Y-67479211D01*
X148849532Y-67208958D01*
X148906600Y-66922060D01*
X148906600Y-66629540D01*
X148849532Y-66342642D01*
X148737590Y-66072389D01*
X148575075Y-65829168D01*
X148368232Y-65622325D01*
X148193840Y-65505800D01*
X148368232Y-65389275D01*
X148575075Y-65182432D01*
X148737590Y-64939211D01*
X148849532Y-64668958D01*
X148906600Y-64382060D01*
X148906600Y-64089540D01*
X148849532Y-63802642D01*
X148737590Y-63532389D01*
X148575075Y-63289168D01*
X148368232Y-63082325D01*
X148125011Y-62919810D01*
X147854758Y-62807868D01*
X147567860Y-62750800D01*
X147275340Y-62750800D01*
X146988442Y-62807868D01*
X146718189Y-62919810D01*
X146474968Y-63082325D01*
X146268125Y-63289168D01*
X146209438Y-63377000D01*
X143494790Y-63377000D01*
X143432312Y-63283495D01*
X143218505Y-63069688D01*
X142967095Y-62901701D01*
X142687743Y-62785989D01*
X142391184Y-62727000D01*
X142088816Y-62727000D01*
X141792257Y-62785989D01*
X141512905Y-62901701D01*
X141261495Y-63069688D01*
X141047688Y-63283495D01*
X140970000Y-63399763D01*
X140892312Y-63283495D01*
X140735000Y-63126183D01*
X140735000Y-55166080D01*
X143895525Y-55166080D01*
X143979208Y-55420261D01*
X144251775Y-55551158D01*
X144544642Y-55626365D01*
X144846553Y-55642991D01*
X145145907Y-55600397D01*
X145431199Y-55500222D01*
X145580792Y-55420261D01*
X145664475Y-55166080D01*
X144780000Y-54281605D01*
X143895525Y-55166080D01*
X140735000Y-55166080D01*
X140735000Y-54168553D01*
X143239009Y-54168553D01*
X143281603Y-54467907D01*
X143381778Y-54753199D01*
X143461739Y-54902792D01*
X143715920Y-54986475D01*
X144600395Y-54102000D01*
X144959605Y-54102000D01*
X145844080Y-54986475D01*
X146098261Y-54902792D01*
X146229158Y-54630225D01*
X146304365Y-54337358D01*
X146320991Y-54035447D01*
X146278397Y-53736093D01*
X146178222Y-53450801D01*
X146098261Y-53301208D01*
X145844080Y-53217525D01*
X144959605Y-54102000D01*
X144600395Y-54102000D01*
X143715920Y-53217525D01*
X143461739Y-53301208D01*
X143330842Y-53573775D01*
X143255635Y-53866642D01*
X143239009Y-54168553D01*
X140735000Y-54168553D01*
X140735000Y-53037920D01*
X143895525Y-53037920D01*
X144780000Y-53922395D01*
X145664475Y-53037920D01*
X145580792Y-52783739D01*
X145308225Y-52652842D01*
X145015358Y-52577635D01*
X144713447Y-52561009D01*
X144414093Y-52603603D01*
X144128801Y-52703778D01*
X143979208Y-52783739D01*
X143895525Y-53037920D01*
X140735000Y-53037920D01*
X140735000Y-40436827D01*
X140740006Y-40385999D01*
X140735000Y-40335171D01*
X140735000Y-40335162D01*
X140720024Y-40183105D01*
X140680581Y-40053080D01*
X143895525Y-40053080D01*
X143979208Y-40307261D01*
X144251775Y-40438158D01*
X144544642Y-40513365D01*
X144846553Y-40529991D01*
X145145907Y-40487397D01*
X145431199Y-40387222D01*
X145580792Y-40307261D01*
X145664475Y-40053080D01*
X144780000Y-39168605D01*
X143895525Y-40053080D01*
X140680581Y-40053080D01*
X140660841Y-39988007D01*
X140576913Y-39830988D01*
X140564734Y-39808202D01*
X140467803Y-39690092D01*
X140435396Y-39650604D01*
X140395908Y-39618197D01*
X139833264Y-39055553D01*
X143239009Y-39055553D01*
X143281603Y-39354907D01*
X143381778Y-39640199D01*
X143461739Y-39789792D01*
X143715920Y-39873475D01*
X144600395Y-38989000D01*
X144959605Y-38989000D01*
X145844080Y-39873475D01*
X146098261Y-39789792D01*
X146229158Y-39517225D01*
X146304365Y-39224358D01*
X146320991Y-38922447D01*
X146278397Y-38623093D01*
X146178222Y-38337801D01*
X146098261Y-38188208D01*
X145844080Y-38104525D01*
X144959605Y-38989000D01*
X144600395Y-38989000D01*
X143715920Y-38104525D01*
X143461739Y-38188208D01*
X143330842Y-38460775D01*
X143255635Y-38753642D01*
X143239009Y-39055553D01*
X139833264Y-39055553D01*
X139070807Y-38293097D01*
X139038396Y-38253604D01*
X138880797Y-38124266D01*
X138700993Y-38028159D01*
X138505895Y-37968976D01*
X138353838Y-37954000D01*
X138353828Y-37954000D01*
X138303000Y-37948994D01*
X138252172Y-37954000D01*
X136771817Y-37954000D01*
X136742737Y-37924920D01*
X143895525Y-37924920D01*
X144780000Y-38809395D01*
X145664475Y-37924920D01*
X145580792Y-37670739D01*
X145308225Y-37539842D01*
X145015358Y-37464635D01*
X144713447Y-37448009D01*
X144414093Y-37490603D01*
X144128801Y-37590778D01*
X143979208Y-37670739D01*
X143895525Y-37924920D01*
X136742737Y-37924920D01*
X136614505Y-37796688D01*
X136363095Y-37628701D01*
X136083743Y-37512989D01*
X135787184Y-37454000D01*
X135484816Y-37454000D01*
X135188257Y-37512989D01*
X134908905Y-37628701D01*
X134761790Y-37727000D01*
X127817741Y-37727000D01*
X127761999Y-37721510D01*
X127706257Y-37727000D01*
X126039751Y-37727000D01*
X125984000Y-37721509D01*
X125928249Y-37727000D01*
X124769751Y-37727000D01*
X124714000Y-37721509D01*
X124658249Y-37727000D01*
X117396661Y-37727000D01*
X117183998Y-37514337D01*
X116899831Y-37324463D01*
X116584081Y-37193675D01*
X116248883Y-37127000D01*
X115907117Y-37127000D01*
X115571919Y-37193675D01*
X115256169Y-37324463D01*
X114972002Y-37514337D01*
X114730337Y-37756002D01*
X114540463Y-38040169D01*
X114409675Y-38355919D01*
X114343000Y-38691117D01*
X113241000Y-38691117D01*
X113174325Y-38355919D01*
X113043537Y-38040169D01*
X112853663Y-37756002D01*
X112611998Y-37514337D01*
X112327831Y-37324463D01*
X112012081Y-37193675D01*
X111676883Y-37127000D01*
X111335117Y-37127000D01*
X110999919Y-37193675D01*
X110684169Y-37324463D01*
X110400002Y-37514337D01*
X110158337Y-37756002D01*
X109968463Y-38040169D01*
X109837675Y-38355919D01*
X109771000Y-38691117D01*
X109771000Y-38991868D01*
X107987869Y-40775000D01*
X105429817Y-40775000D01*
X105372505Y-40717688D01*
X105252107Y-40637241D01*
X105301573Y-40607962D01*
X105525649Y-40407116D01*
X105706236Y-40166414D01*
X105836394Y-39895107D01*
X105885036Y-39734740D01*
X105764378Y-39497000D01*
X104521000Y-39497000D01*
X104521000Y-39517000D01*
X104267000Y-39517000D01*
X104267000Y-39497000D01*
X103023622Y-39497000D01*
X102902964Y-39734740D01*
X102951606Y-39895107D01*
X103081764Y-40166414D01*
X103262351Y-40407116D01*
X103486427Y-40607962D01*
X103535893Y-40637241D01*
X103415495Y-40717688D01*
X103358183Y-40775000D01*
X101492817Y-40775000D01*
X101435505Y-40717688D01*
X101315107Y-40637241D01*
X101364573Y-40607962D01*
X101588649Y-40407116D01*
X101769236Y-40166414D01*
X101899394Y-39895107D01*
X101948036Y-39734740D01*
X101827378Y-39497000D01*
X100584000Y-39497000D01*
X100584000Y-39517000D01*
X100330000Y-39517000D01*
X100330000Y-39497000D01*
X99086622Y-39497000D01*
X98965964Y-39734740D01*
X99014606Y-39895107D01*
X99144764Y-40166414D01*
X99325351Y-40407116D01*
X99549427Y-40607962D01*
X99598893Y-40637241D01*
X99478495Y-40717688D01*
X99264688Y-40931495D01*
X99096701Y-41182905D01*
X98980989Y-41462257D01*
X98922000Y-41758816D01*
X95910000Y-41758816D01*
X95910000Y-39005260D01*
X98965964Y-39005260D01*
X99086622Y-39243000D01*
X100330000Y-39243000D01*
X100330000Y-37999008D01*
X100584000Y-37999008D01*
X100584000Y-39243000D01*
X101827378Y-39243000D01*
X101948036Y-39005260D01*
X102902964Y-39005260D01*
X103023622Y-39243000D01*
X104267000Y-39243000D01*
X104267000Y-37999008D01*
X104521000Y-37999008D01*
X104521000Y-39243000D01*
X105764378Y-39243000D01*
X105885036Y-39005260D01*
X105836394Y-38844893D01*
X105706236Y-38573586D01*
X105525649Y-38332884D01*
X105301573Y-38132038D01*
X105042620Y-37978766D01*
X104758741Y-37878959D01*
X104521000Y-37999008D01*
X104267000Y-37999008D01*
X104029259Y-37878959D01*
X103745380Y-37978766D01*
X103486427Y-38132038D01*
X103262351Y-38332884D01*
X103081764Y-38573586D01*
X102951606Y-38844893D01*
X102902964Y-39005260D01*
X101948036Y-39005260D01*
X101899394Y-38844893D01*
X101769236Y-38573586D01*
X101588649Y-38332884D01*
X101364573Y-38132038D01*
X101105620Y-37978766D01*
X100821741Y-37878959D01*
X100584000Y-37999008D01*
X100330000Y-37999008D01*
X100092259Y-37878959D01*
X99808380Y-37978766D01*
X99549427Y-38132038D01*
X99325351Y-38332884D01*
X99144764Y-38573586D01*
X99014606Y-38844893D01*
X98965964Y-39005260D01*
X95910000Y-39005260D01*
X95910000Y-36479256D01*
X95980367Y-35713457D01*
X96180864Y-35002549D01*
X96507557Y-34340081D01*
X96949506Y-33748240D01*
X97491904Y-33246852D01*
X98116596Y-32852701D01*
X98802652Y-32578992D01*
X99539897Y-32432346D01*
X99966274Y-32410000D01*
X143485513Y-32410000D01*
X144463395Y-32482669D01*
M02*
