M48
; DRILL file {KiCad (5.1.5)-3} date 10/03/2020 10:04:22
; FORMAT={-:-/ absolute / inch / decimal}
; #@! TF.CreationDate,2020-03-10T10:04:22+01:00
; #@! TF.GenerationSoftware,Kicad,Pcbnew,(5.1.5)-3
; #@! TF.FileFunction,Plated,1,2,PTH
FMAT,2
INCH
T1C0.0315
T2C0.0394
T3C0.0433
T4C0.0472
%
G90
G05
T1
X5.6Y-3.18
X5.6Y-3.28
X5.6Y-3.38
X5.6Y-3.48
X5.6Y-3.58
X5.6Y-3.68
X4.11Y-1.55
X4.11Y-1.65
X4.11Y-1.75
X4.97Y-1.59
X4.97Y-1.7278
X5.4Y-3.18
X5.4Y-3.28
X5.4Y-3.38
X5.4Y-3.48
X5.4Y-3.58
X5.4Y-3.68
X5.34Y-1.535
X5.34Y-2.13
X5.7Y-1.535
X5.7Y-2.13
X5.6Y-2.53
X5.6Y-2.63
X5.6Y-2.73
X5.6Y-2.83
X5.6Y-2.93
X5.6Y-3.03
X3.955Y-1.55
X3.955Y-1.65
X3.955Y-1.75
X5.5Y-3.18
X5.5Y-3.28
X5.5Y-3.38
X5.5Y-3.48
X5.5Y-3.58
X5.5Y-3.68
X3.844Y-2.71
X3.844Y-2.81
X3.844Y-2.91
X3.844Y-3.008
X3.844Y-3.382
X3.844Y-3.48
X3.844Y-3.58
X3.844Y-3.682
X3.844Y-3.78
X3.844Y-3.882
X5.804Y-2.529
X5.804Y-2.629
X5.804Y-2.729
X5.804Y-2.829
X5.804Y-2.929
X5.804Y-3.029
X5.804Y-3.182
X5.804Y-3.282
X5.804Y-3.382
X5.804Y-3.482
X5.804Y-3.582
X5.804Y-3.682
X5.804Y-3.782
X5.804Y-3.882
X5.4Y-2.53
X5.4Y-2.63
X5.4Y-2.73
X5.4Y-2.83
X5.4Y-2.93
X5.4Y-3.03
X4.65Y-3.96
X4.75Y-3.96
X4.85Y-3.96
X4.95Y-3.96
X5.05Y-3.96
X5.15Y-3.96
X5.5Y-2.53
X5.5Y-2.63
X5.5Y-2.73
X5.5Y-2.83
X5.5Y-2.93
X5.5Y-3.03
T2
X4.44Y-1.8804
X4.44Y-2.03
T3
X4.39Y-1.53
T4
X4.57Y-1.53
X3.966Y-2.38
X3.966Y-2.521
T0
M30
