M48
; DRILL file {KiCad (5.1.4)-1} date 13/05/2020 10:23:32
; FORMAT={-:-/ absolute / inch / decimal}
; #@! TF.CreationDate,2020-05-13T10:23:32+02:00
; #@! TF.GenerationSoftware,Kicad,Pcbnew,(5.1.4)-1
FMAT,2
INCH
T1C0.0197
T2C0.0300
T3C0.0315
T4C0.0394
T5C0.0591
T6C0.1260
%
G90
G05
T1
X2.6005Y-5.39
X2.6282Y-5.3232
X2.6282Y-5.4568
X2.695Y-5.2955
X2.695Y-5.4845
X2.7618Y-5.3232
X2.7618Y-5.4568
X2.7895Y-5.39
X3.9705Y-4.015
X3.9982Y-3.9482
X3.9982Y-4.0818
X4.065Y-3.9205
X4.065Y-4.1095
X4.1318Y-3.9482
X4.1318Y-4.0818
X4.1595Y-4.015
X3.9705Y-5.39
X3.9982Y-5.3232
X3.9982Y-5.4568
X4.065Y-5.2955
X4.065Y-5.4845
X4.1318Y-5.3232
X4.1318Y-5.4568
X4.1595Y-5.39
X2.6005Y-4.015
X2.6282Y-3.9482
X2.6282Y-4.0818
X2.695Y-3.9205
X2.695Y-4.1095
X2.7618Y-3.9482
X2.7618Y-4.0818
X2.7895Y-4.015
T2
X3.2152Y-4.1
X3.2152Y-4.7
X3.575Y-4.7
X3.5752Y-4.1
X3.1Y-4.05
X3.1Y-4.15
X3.1Y-4.25
X3.1Y-4.35
X3.1Y-4.45
X3.1Y-4.55
X3.1Y-4.65
X3.1Y-4.75
X3.1Y-4.85
X3.1Y-4.95
X3.1Y-5.05
X3.1Y-5.15
X3.1Y-5.25
X3.1Y-5.35
X3.7Y-4.05
X3.7Y-4.15
X3.7Y-4.25
X3.7Y-4.35
X3.7Y-4.45
X3.7Y-4.55
X3.7Y-4.65
X3.7Y-4.75
X3.7Y-4.85
X3.7Y-4.95
X3.7Y-5.05
X3.7Y-5.15
X3.7Y-5.25
X3.7Y-5.35
T3
X2.8Y-5.1
X2.9496Y-5.1
T4
X2.9Y-4.35
X2.9Y-4.45
X2.9Y-4.55
X2.9Y-4.65
X2.9Y-4.75
X2.9Y-4.85
X3.9Y-4.35
X3.9Y-4.45
X3.9Y-4.55
X3.9Y-4.65
X3.9Y-4.75
X3.9Y-4.85
X3.85Y-5.1
X4.0469Y-5.1
X3.15Y-5.5
X3.25Y-5.5
X3.35Y-5.5
X3.45Y-5.5
X3.55Y-5.5
X3.65Y-5.5
X4.0Y-4.35
X4.0Y-4.45
X4.0Y-4.55
X4.0Y-4.65
X4.0Y-4.75
X4.0Y-4.85
X3.8Y-4.35
X3.8Y-4.45
X3.8Y-4.55
X3.8Y-4.65
X3.8Y-4.75
X3.8Y-4.85
X3.25Y-4.8
X3.25Y-4.9
X3.35Y-4.8
X3.35Y-4.9
X3.45Y-4.8
X3.45Y-4.9
X3.55Y-4.8
X3.55Y-4.9
X2.875Y-3.875
X2.875Y-3.975
X2.875Y-4.075
X3.0Y-4.35
X3.0Y-4.45
X3.0Y-4.55
X3.0Y-4.65
X3.0Y-4.75
X3.0Y-4.85
X2.8Y-4.35
X2.8Y-4.45
X2.8Y-4.55
X2.8Y-4.65
X2.8Y-4.75
X2.8Y-4.85
X3.0Y-3.875
X3.0Y-3.975
X3.0Y-4.075
T5
X3.85Y-3.875
X3.65Y-3.875
T6
X2.695Y-5.39
X4.065Y-4.015
X4.065Y-5.39
X2.695Y-4.015
T0
M30
