G04 #@! TF.GenerationSoftware,KiCad,Pcbnew,(5.1.4)-1*
G04 #@! TF.CreationDate,2020-05-13T10:23:39+02:00*
G04 #@! TF.ProjectId,Pacifista_TinyFPGA,50616369-6669-4737-9461-5f54696e7946,rev?*
G04 #@! TF.SameCoordinates,Original*
G04 #@! TF.FileFunction,Legend,Bot*
G04 #@! TF.FilePolarity,Positive*
%FSLAX46Y46*%
G04 Gerber Fmt 4.6, Leading zero omitted, Abs format (unit mm)*
G04 Created by KiCad (PCBNEW (5.1.4)-1) date 2020-05-13 10:23:39*
%MOMM*%
%LPD*%
G04 APERTURE LIST*
%ADD10C,0.125000*%
%ADD11C,0.150000*%
%ADD12C,0.010000*%
%ADD13C,0.120000*%
G04 APERTURE END LIST*
D10*
X88375904Y-129103380D02*
X88947333Y-129103380D01*
X88661619Y-129103380D02*
X88661619Y-128103380D01*
X88756857Y-128246238D01*
X88852095Y-128341476D01*
X88947333Y-128389095D01*
X87518761Y-128436714D02*
X87518761Y-129103380D01*
X87756857Y-128055761D02*
X87994952Y-128770047D01*
X87375904Y-128770047D01*
X86994952Y-128722428D02*
X86233047Y-128722428D01*
X85233047Y-129103380D02*
X85804476Y-129103380D01*
X85518761Y-129103380D02*
X85518761Y-128103380D01*
X85614000Y-128246238D01*
X85709238Y-128341476D01*
X85804476Y-128389095D01*
X84328285Y-128103380D02*
X84804476Y-128103380D01*
X84852095Y-128579571D01*
X84804476Y-128531952D01*
X84709238Y-128484333D01*
X84471142Y-128484333D01*
X84375904Y-128531952D01*
X84328285Y-128579571D01*
X84280666Y-128674809D01*
X84280666Y-128912904D01*
X84328285Y-129008142D01*
X84375904Y-129055761D01*
X84471142Y-129103380D01*
X84709238Y-129103380D01*
X84804476Y-129055761D01*
X84852095Y-129008142D01*
X90510809Y-127055571D02*
X90177476Y-127055571D01*
X90034619Y-127579380D02*
X90510809Y-127579380D01*
X90510809Y-126579380D01*
X90034619Y-126579380D01*
X89653666Y-127531761D02*
X89510809Y-127579380D01*
X89272714Y-127579380D01*
X89177476Y-127531761D01*
X89129857Y-127484142D01*
X89082238Y-127388904D01*
X89082238Y-127293666D01*
X89129857Y-127198428D01*
X89177476Y-127150809D01*
X89272714Y-127103190D01*
X89463190Y-127055571D01*
X89558428Y-127007952D01*
X89606047Y-126960333D01*
X89653666Y-126865095D01*
X89653666Y-126769857D01*
X89606047Y-126674619D01*
X89558428Y-126627000D01*
X89463190Y-126579380D01*
X89225095Y-126579380D01*
X89082238Y-126627000D01*
X88653666Y-127579380D02*
X88653666Y-126579380D01*
X88272714Y-126579380D01*
X88177476Y-126627000D01*
X88129857Y-126674619D01*
X88082238Y-126769857D01*
X88082238Y-126912714D01*
X88129857Y-127007952D01*
X88177476Y-127055571D01*
X88272714Y-127103190D01*
X88653666Y-127103190D01*
X86320333Y-127579380D02*
X86653666Y-127103190D01*
X86891761Y-127579380D02*
X86891761Y-126579380D01*
X86510809Y-126579380D01*
X86415571Y-126627000D01*
X86367952Y-126674619D01*
X86320333Y-126769857D01*
X86320333Y-126912714D01*
X86367952Y-127007952D01*
X86415571Y-127055571D01*
X86510809Y-127103190D01*
X86891761Y-127103190D01*
X85987000Y-126579380D02*
X85320333Y-127579380D01*
X85320333Y-126579380D02*
X85987000Y-127579380D01*
X84939380Y-127198428D02*
X84177476Y-127198428D01*
X83844142Y-126579380D02*
X83272714Y-126579380D01*
X83558428Y-127579380D02*
X83558428Y-126579380D01*
X83034619Y-126579380D02*
X82367952Y-127579380D01*
X82367952Y-126579380D02*
X83034619Y-127579380D01*
X88439523Y-137739380D02*
X89010952Y-137739380D01*
X88725238Y-137739380D02*
X88725238Y-136739380D01*
X88820476Y-136882238D01*
X88915714Y-136977476D01*
X89010952Y-137025095D01*
X88010952Y-137358428D02*
X87249047Y-137358428D01*
X86820476Y-136834619D02*
X86772857Y-136787000D01*
X86677619Y-136739380D01*
X86439523Y-136739380D01*
X86344285Y-136787000D01*
X86296666Y-136834619D01*
X86249047Y-136929857D01*
X86249047Y-137025095D01*
X86296666Y-137167952D01*
X86868095Y-137739380D01*
X86249047Y-137739380D01*
X90772857Y-135691571D02*
X90630000Y-135739190D01*
X90582380Y-135786809D01*
X90534761Y-135882047D01*
X90534761Y-136024904D01*
X90582380Y-136120142D01*
X90630000Y-136167761D01*
X90725238Y-136215380D01*
X91106190Y-136215380D01*
X91106190Y-135215380D01*
X90772857Y-135215380D01*
X90677619Y-135263000D01*
X90630000Y-135310619D01*
X90582380Y-135405857D01*
X90582380Y-135501095D01*
X90630000Y-135596333D01*
X90677619Y-135643952D01*
X90772857Y-135691571D01*
X91106190Y-135691571D01*
X90249047Y-135215380D02*
X89677619Y-135215380D01*
X89963333Y-136215380D02*
X89963333Y-135215380D01*
X88010952Y-136215380D02*
X88344285Y-135739190D01*
X88582380Y-136215380D02*
X88582380Y-135215380D01*
X88201428Y-135215380D01*
X88106190Y-135263000D01*
X88058571Y-135310619D01*
X88010952Y-135405857D01*
X88010952Y-135548714D01*
X88058571Y-135643952D01*
X88106190Y-135691571D01*
X88201428Y-135739190D01*
X88582380Y-135739190D01*
X87677619Y-135215380D02*
X87010952Y-136215380D01*
X87010952Y-135215380D02*
X87677619Y-136215380D01*
X86630000Y-135834428D02*
X85868095Y-135834428D01*
X85534761Y-135215380D02*
X84963333Y-135215380D01*
X85249047Y-136215380D02*
X85249047Y-135215380D01*
X84725238Y-135215380D02*
X84058571Y-136215380D01*
X84058571Y-135215380D02*
X84725238Y-136215380D01*
D11*
X68098142Y-105253000D02*
X67198142Y-105253000D01*
X67198142Y-105595857D01*
X67241000Y-105681571D01*
X67283857Y-105724428D01*
X67369571Y-105767285D01*
X67498142Y-105767285D01*
X67583857Y-105724428D01*
X67626714Y-105681571D01*
X67669571Y-105595857D01*
X67669571Y-105253000D01*
X68098142Y-106538714D02*
X67626714Y-106538714D01*
X67541000Y-106495857D01*
X67498142Y-106410142D01*
X67498142Y-106238714D01*
X67541000Y-106153000D01*
X68055285Y-106538714D02*
X68098142Y-106453000D01*
X68098142Y-106238714D01*
X68055285Y-106153000D01*
X67969571Y-106110142D01*
X67883857Y-106110142D01*
X67798142Y-106153000D01*
X67755285Y-106238714D01*
X67755285Y-106453000D01*
X67712428Y-106538714D01*
X68055285Y-107353000D02*
X68098142Y-107267285D01*
X68098142Y-107095857D01*
X68055285Y-107010142D01*
X68012428Y-106967285D01*
X67926714Y-106924428D01*
X67669571Y-106924428D01*
X67583857Y-106967285D01*
X67541000Y-107010142D01*
X67498142Y-107095857D01*
X67498142Y-107267285D01*
X67541000Y-107353000D01*
X68098142Y-107738714D02*
X67498142Y-107738714D01*
X67198142Y-107738714D02*
X67241000Y-107695857D01*
X67283857Y-107738714D01*
X67241000Y-107781571D01*
X67198142Y-107738714D01*
X67283857Y-107738714D01*
X67498142Y-108038714D02*
X67498142Y-108381571D01*
X68098142Y-108167285D02*
X67326714Y-108167285D01*
X67241000Y-108210142D01*
X67198142Y-108295857D01*
X67198142Y-108381571D01*
X68098142Y-108681571D02*
X67498142Y-108681571D01*
X67198142Y-108681571D02*
X67241000Y-108638714D01*
X67283857Y-108681571D01*
X67241000Y-108724428D01*
X67198142Y-108681571D01*
X67283857Y-108681571D01*
X68055285Y-109067285D02*
X68098142Y-109153000D01*
X68098142Y-109324428D01*
X68055285Y-109410142D01*
X67969571Y-109453000D01*
X67926714Y-109453000D01*
X67841000Y-109410142D01*
X67798142Y-109324428D01*
X67798142Y-109195857D01*
X67755285Y-109110142D01*
X67669571Y-109067285D01*
X67626714Y-109067285D01*
X67541000Y-109110142D01*
X67498142Y-109195857D01*
X67498142Y-109324428D01*
X67541000Y-109410142D01*
X67498142Y-109710142D02*
X67498142Y-110053000D01*
X67198142Y-109838714D02*
X67969571Y-109838714D01*
X68055285Y-109881571D01*
X68098142Y-109967285D01*
X68098142Y-110053000D01*
X68098142Y-110738714D02*
X67626714Y-110738714D01*
X67541000Y-110695857D01*
X67498142Y-110610142D01*
X67498142Y-110438714D01*
X67541000Y-110353000D01*
X68055285Y-110738714D02*
X68098142Y-110653000D01*
X68098142Y-110438714D01*
X68055285Y-110353000D01*
X67969571Y-110310142D01*
X67883857Y-110310142D01*
X67798142Y-110353000D01*
X67755285Y-110438714D01*
X67755285Y-110653000D01*
X67712428Y-110738714D01*
X67198142Y-111724428D02*
X67198142Y-112238714D01*
X68098142Y-111981571D02*
X67198142Y-111981571D01*
X68098142Y-112538714D02*
X67498142Y-112538714D01*
X67198142Y-112538714D02*
X67241000Y-112495857D01*
X67283857Y-112538714D01*
X67241000Y-112581571D01*
X67198142Y-112538714D01*
X67283857Y-112538714D01*
X67498142Y-112967285D02*
X68098142Y-112967285D01*
X67583857Y-112967285D02*
X67541000Y-113010142D01*
X67498142Y-113095857D01*
X67498142Y-113224428D01*
X67541000Y-113310142D01*
X67626714Y-113353000D01*
X68098142Y-113353000D01*
X67498142Y-113695857D02*
X68098142Y-113910142D01*
X67498142Y-114124428D02*
X68098142Y-113910142D01*
X68312428Y-113824428D01*
X68355285Y-113781571D01*
X68398142Y-113695857D01*
X67626714Y-114767285D02*
X67626714Y-114467285D01*
X68098142Y-114467285D02*
X67198142Y-114467285D01*
X67198142Y-114895857D01*
X68098142Y-115238714D02*
X67198142Y-115238714D01*
X67198142Y-115581571D01*
X67241000Y-115667285D01*
X67283857Y-115710142D01*
X67369571Y-115753000D01*
X67498142Y-115753000D01*
X67583857Y-115710142D01*
X67626714Y-115667285D01*
X67669571Y-115581571D01*
X67669571Y-115238714D01*
X67241000Y-116610142D02*
X67198142Y-116524428D01*
X67198142Y-116395857D01*
X67241000Y-116267285D01*
X67326714Y-116181571D01*
X67412428Y-116138714D01*
X67583857Y-116095857D01*
X67712428Y-116095857D01*
X67883857Y-116138714D01*
X67969571Y-116181571D01*
X68055285Y-116267285D01*
X68098142Y-116395857D01*
X68098142Y-116481571D01*
X68055285Y-116610142D01*
X68012428Y-116653000D01*
X67712428Y-116653000D01*
X67712428Y-116481571D01*
X67841000Y-116995857D02*
X67841000Y-117424428D01*
X68098142Y-116910142D02*
X67198142Y-117210142D01*
X68098142Y-117510142D01*
X67198142Y-118367285D02*
X68098142Y-118667285D01*
X67198142Y-118967285D01*
X67198142Y-119438714D02*
X67198142Y-119524428D01*
X67241000Y-119610142D01*
X67283857Y-119653000D01*
X67369571Y-119695857D01*
X67541000Y-119738714D01*
X67755285Y-119738714D01*
X67926714Y-119695857D01*
X68012428Y-119653000D01*
X68055285Y-119610142D01*
X68098142Y-119524428D01*
X68098142Y-119438714D01*
X68055285Y-119353000D01*
X68012428Y-119310142D01*
X67926714Y-119267285D01*
X67755285Y-119224428D01*
X67541000Y-119224428D01*
X67369571Y-119267285D01*
X67283857Y-119310142D01*
X67241000Y-119353000D01*
X67198142Y-119438714D01*
X68098142Y-120595857D02*
X68098142Y-120081571D01*
X68098142Y-120338714D02*
X67198142Y-120338714D01*
X67326714Y-120253000D01*
X67412428Y-120167285D01*
X67455285Y-120081571D01*
X66447142Y-105260142D02*
X65547142Y-105260142D01*
X66447142Y-105645857D02*
X65975714Y-105645857D01*
X65890000Y-105603000D01*
X65847142Y-105517285D01*
X65847142Y-105388714D01*
X65890000Y-105303000D01*
X65932857Y-105260142D01*
X65847142Y-105945857D02*
X65847142Y-106288714D01*
X65547142Y-106074428D02*
X66318571Y-106074428D01*
X66404285Y-106117285D01*
X66447142Y-106203000D01*
X66447142Y-106288714D01*
X65847142Y-106460142D02*
X65847142Y-106803000D01*
X65547142Y-106588714D02*
X66318571Y-106588714D01*
X66404285Y-106631571D01*
X66447142Y-106717285D01*
X66447142Y-106803000D01*
X65847142Y-107102999D02*
X66747142Y-107102999D01*
X65890000Y-107102999D02*
X65847142Y-107188714D01*
X65847142Y-107360142D01*
X65890000Y-107445857D01*
X65932857Y-107488714D01*
X66018571Y-107531571D01*
X66275714Y-107531571D01*
X66361428Y-107488714D01*
X66404285Y-107445857D01*
X66447142Y-107360142D01*
X66447142Y-107188714D01*
X66404285Y-107102999D01*
X66404285Y-107874428D02*
X66447142Y-107960142D01*
X66447142Y-108131571D01*
X66404285Y-108217285D01*
X66318571Y-108260142D01*
X66275714Y-108260142D01*
X66190000Y-108217285D01*
X66147142Y-108131571D01*
X66147142Y-108002999D01*
X66104285Y-107917285D01*
X66018571Y-107874428D01*
X65975714Y-107874428D01*
X65890000Y-107917285D01*
X65847142Y-108002999D01*
X65847142Y-108131571D01*
X65890000Y-108217285D01*
X66361428Y-108645857D02*
X66404285Y-108688714D01*
X66447142Y-108645857D01*
X66404285Y-108602999D01*
X66361428Y-108645857D01*
X66447142Y-108645857D01*
X65890000Y-108645857D02*
X65932857Y-108688714D01*
X65975714Y-108645857D01*
X65932857Y-108602999D01*
X65890000Y-108645857D01*
X65975714Y-108645857D01*
X65504285Y-109717285D02*
X66661428Y-108945857D01*
X65504285Y-110660142D02*
X66661428Y-109888714D01*
X65847142Y-111345857D02*
X66575714Y-111345857D01*
X66661428Y-111302999D01*
X66704285Y-111260142D01*
X66747142Y-111174428D01*
X66747142Y-111045857D01*
X66704285Y-110960142D01*
X66404285Y-111345857D02*
X66447142Y-111260142D01*
X66447142Y-111088714D01*
X66404285Y-111002999D01*
X66361428Y-110960142D01*
X66275714Y-110917285D01*
X66018571Y-110917285D01*
X65932857Y-110960142D01*
X65890000Y-111002999D01*
X65847142Y-111088714D01*
X65847142Y-111260142D01*
X65890000Y-111345857D01*
X66447142Y-111774428D02*
X65847142Y-111774428D01*
X65547142Y-111774428D02*
X65590000Y-111731571D01*
X65632857Y-111774428D01*
X65590000Y-111817285D01*
X65547142Y-111774428D01*
X65632857Y-111774428D01*
X65847142Y-112074428D02*
X65847142Y-112417285D01*
X65547142Y-112202999D02*
X66318571Y-112202999D01*
X66404285Y-112245857D01*
X66447142Y-112331571D01*
X66447142Y-112417285D01*
X66447142Y-112717285D02*
X65547142Y-112717285D01*
X66447142Y-113102999D02*
X65975714Y-113102999D01*
X65890000Y-113060142D01*
X65847142Y-112974428D01*
X65847142Y-112845857D01*
X65890000Y-112760142D01*
X65932857Y-112717285D01*
X65847142Y-113917285D02*
X66447142Y-113917285D01*
X65847142Y-113531571D02*
X66318571Y-113531571D01*
X66404285Y-113574428D01*
X66447142Y-113660142D01*
X66447142Y-113788714D01*
X66404285Y-113874428D01*
X66361428Y-113917285D01*
X66447142Y-114345857D02*
X65547142Y-114345857D01*
X65890000Y-114345857D02*
X65847142Y-114431571D01*
X65847142Y-114602999D01*
X65890000Y-114688714D01*
X65932857Y-114731571D01*
X66018571Y-114774428D01*
X66275714Y-114774428D01*
X66361428Y-114731571D01*
X66404285Y-114688714D01*
X66447142Y-114602999D01*
X66447142Y-114431571D01*
X66404285Y-114345857D01*
X66361428Y-115160142D02*
X66404285Y-115202999D01*
X66447142Y-115160142D01*
X66404285Y-115117285D01*
X66361428Y-115160142D01*
X66447142Y-115160142D01*
X66404285Y-115974428D02*
X66447142Y-115888714D01*
X66447142Y-115717285D01*
X66404285Y-115631571D01*
X66361428Y-115588714D01*
X66275714Y-115545857D01*
X66018571Y-115545857D01*
X65932857Y-115588714D01*
X65890000Y-115631571D01*
X65847142Y-115717285D01*
X65847142Y-115888714D01*
X65890000Y-115974428D01*
X66447142Y-116488714D02*
X66404285Y-116402999D01*
X66361428Y-116360142D01*
X66275714Y-116317285D01*
X66018571Y-116317285D01*
X65932857Y-116360142D01*
X65890000Y-116402999D01*
X65847142Y-116488714D01*
X65847142Y-116617285D01*
X65890000Y-116702999D01*
X65932857Y-116745857D01*
X66018571Y-116788714D01*
X66275714Y-116788714D01*
X66361428Y-116745857D01*
X66404285Y-116702999D01*
X66447142Y-116617285D01*
X66447142Y-116488714D01*
X66447142Y-117174428D02*
X65847142Y-117174428D01*
X65932857Y-117174428D02*
X65890000Y-117217285D01*
X65847142Y-117302999D01*
X65847142Y-117431571D01*
X65890000Y-117517285D01*
X65975714Y-117560142D01*
X66447142Y-117560142D01*
X65975714Y-117560142D02*
X65890000Y-117602999D01*
X65847142Y-117688714D01*
X65847142Y-117817285D01*
X65890000Y-117902999D01*
X65975714Y-117945857D01*
X66447142Y-117945857D01*
X65504285Y-119017285D02*
X66661428Y-118245857D01*
X66447142Y-119317285D02*
X65847142Y-119317285D01*
X65547142Y-119317285D02*
X65590000Y-119274428D01*
X65632857Y-119317285D01*
X65590000Y-119360142D01*
X65547142Y-119317285D01*
X65632857Y-119317285D01*
X66447142Y-119874428D02*
X66404285Y-119788714D01*
X66361428Y-119745857D01*
X66275714Y-119702999D01*
X66018571Y-119702999D01*
X65932857Y-119745857D01*
X65890000Y-119788714D01*
X65847142Y-119874428D01*
X65847142Y-120002999D01*
X65890000Y-120088714D01*
X65932857Y-120131571D01*
X66018571Y-120174428D01*
X66275714Y-120174428D01*
X66361428Y-120131571D01*
X66404285Y-120088714D01*
X66447142Y-120002999D01*
X66447142Y-119874428D01*
X65847142Y-120560142D02*
X66447142Y-120560142D01*
X65932857Y-120560142D02*
X65890000Y-120602999D01*
X65847142Y-120688714D01*
X65847142Y-120817285D01*
X65890000Y-120902999D01*
X65975714Y-120945857D01*
X66447142Y-120945857D01*
X66447142Y-121374428D02*
X65547142Y-121374428D01*
X66447142Y-121760142D02*
X65975714Y-121760142D01*
X65890000Y-121717285D01*
X65847142Y-121631571D01*
X65847142Y-121502999D01*
X65890000Y-121417285D01*
X65932857Y-121374428D01*
X66404285Y-122145857D02*
X66447142Y-122231571D01*
X66447142Y-122402999D01*
X66404285Y-122488714D01*
X66318571Y-122531571D01*
X66275714Y-122531571D01*
X66190000Y-122488714D01*
X66147142Y-122402999D01*
X66147142Y-122274428D01*
X66104285Y-122188714D01*
X66018571Y-122145857D01*
X65975714Y-122145857D01*
X65890000Y-122188714D01*
X65847142Y-122274428D01*
X65847142Y-122402999D01*
X65890000Y-122488714D01*
X65975714Y-123217285D02*
X65975714Y-122917285D01*
X66447142Y-122917285D02*
X65547142Y-122917285D01*
X65547142Y-123345857D01*
X66447142Y-123688714D02*
X65547142Y-123688714D01*
X65547142Y-124031571D01*
X65590000Y-124117285D01*
X65632857Y-124160142D01*
X65718571Y-124202999D01*
X65847142Y-124202999D01*
X65932857Y-124160142D01*
X65975714Y-124117285D01*
X66018571Y-124031571D01*
X66018571Y-123688714D01*
X65504285Y-125231571D02*
X66661428Y-124460142D01*
X66447142Y-125531571D02*
X65547142Y-125531571D01*
X65547142Y-125874428D01*
X65590000Y-125960142D01*
X65632857Y-126002999D01*
X65718571Y-126045857D01*
X65847142Y-126045857D01*
X65932857Y-126002999D01*
X65975714Y-125960142D01*
X66018571Y-125874428D01*
X66018571Y-125531571D01*
X66447142Y-126817285D02*
X65975714Y-126817285D01*
X65890000Y-126774428D01*
X65847142Y-126688714D01*
X65847142Y-126517285D01*
X65890000Y-126431571D01*
X66404285Y-126817285D02*
X66447142Y-126731571D01*
X66447142Y-126517285D01*
X66404285Y-126431571D01*
X66318571Y-126388714D01*
X66232857Y-126388714D01*
X66147142Y-126431571D01*
X66104285Y-126517285D01*
X66104285Y-126731571D01*
X66061428Y-126817285D01*
X66404285Y-127631571D02*
X66447142Y-127545857D01*
X66447142Y-127374428D01*
X66404285Y-127288714D01*
X66361428Y-127245857D01*
X66275714Y-127202999D01*
X66018571Y-127202999D01*
X65932857Y-127245857D01*
X65890000Y-127288714D01*
X65847142Y-127374428D01*
X65847142Y-127545857D01*
X65890000Y-127631571D01*
X66447142Y-128017285D02*
X65847142Y-128017285D01*
X65547142Y-128017285D02*
X65590000Y-127974428D01*
X65632857Y-128017285D01*
X65590000Y-128060142D01*
X65547142Y-128017285D01*
X65632857Y-128017285D01*
X65847142Y-128317285D02*
X65847142Y-128660142D01*
X66447142Y-128445857D02*
X65675714Y-128445857D01*
X65590000Y-128488714D01*
X65547142Y-128574428D01*
X65547142Y-128660142D01*
X66447142Y-128960142D02*
X65847142Y-128960142D01*
X65547142Y-128960142D02*
X65590000Y-128917285D01*
X65632857Y-128960142D01*
X65590000Y-129002999D01*
X65547142Y-128960142D01*
X65632857Y-128960142D01*
X66404285Y-129345857D02*
X66447142Y-129431571D01*
X66447142Y-129602999D01*
X66404285Y-129688714D01*
X66318571Y-129731571D01*
X66275714Y-129731571D01*
X66190000Y-129688714D01*
X66147142Y-129602999D01*
X66147142Y-129474428D01*
X66104285Y-129388714D01*
X66018571Y-129345857D01*
X65975714Y-129345857D01*
X65890000Y-129388714D01*
X65847142Y-129474428D01*
X65847142Y-129602999D01*
X65890000Y-129688714D01*
X65847142Y-129988714D02*
X65847142Y-130331571D01*
X65547142Y-130117285D02*
X66318571Y-130117285D01*
X66404285Y-130160142D01*
X66447142Y-130245857D01*
X66447142Y-130331571D01*
X66447142Y-131017285D02*
X65975714Y-131017285D01*
X65890000Y-130974428D01*
X65847142Y-130888714D01*
X65847142Y-130717285D01*
X65890000Y-130631571D01*
X66404285Y-131017285D02*
X66447142Y-130931571D01*
X66447142Y-130717285D01*
X66404285Y-130631571D01*
X66318571Y-130588714D01*
X66232857Y-130588714D01*
X66147142Y-130631571D01*
X66104285Y-130717285D01*
X66104285Y-130931571D01*
X66061428Y-131017285D01*
X65975714Y-131745857D02*
X66018571Y-131874428D01*
X66061428Y-131917285D01*
X66147142Y-131960142D01*
X66275714Y-131960142D01*
X66361428Y-131917285D01*
X66404285Y-131874428D01*
X66447142Y-131788714D01*
X66447142Y-131445857D01*
X65547142Y-131445857D01*
X65547142Y-131745857D01*
X65590000Y-131831571D01*
X65632857Y-131874428D01*
X65718571Y-131917285D01*
X65804285Y-131917285D01*
X65890000Y-131874428D01*
X65932857Y-131831571D01*
X65975714Y-131745857D01*
X65975714Y-131445857D01*
X66447142Y-132474428D02*
X66404285Y-132388714D01*
X66361428Y-132345857D01*
X66275714Y-132302999D01*
X66018571Y-132302999D01*
X65932857Y-132345857D01*
X65890000Y-132388714D01*
X65847142Y-132474428D01*
X65847142Y-132602999D01*
X65890000Y-132688714D01*
X65932857Y-132731571D01*
X66018571Y-132774428D01*
X66275714Y-132774428D01*
X66361428Y-132731571D01*
X66404285Y-132688714D01*
X66447142Y-132602999D01*
X66447142Y-132474428D01*
X65847142Y-133031571D02*
X65847142Y-133374428D01*
X65547142Y-133160142D02*
X66318571Y-133160142D01*
X66404285Y-133202999D01*
X66447142Y-133288714D01*
X66447142Y-133374428D01*
D12*
G36*
X97413883Y-140327296D02*
G01*
X97411161Y-140336004D01*
X97404738Y-140359642D01*
X97394999Y-140396708D01*
X97382329Y-140445699D01*
X97367115Y-140505112D01*
X97349740Y-140573446D01*
X97330592Y-140649196D01*
X97310054Y-140730861D01*
X97297325Y-140781677D01*
X97184634Y-141232191D01*
X96752834Y-141233503D01*
X96668004Y-141233732D01*
X96587621Y-141233891D01*
X96513410Y-141233981D01*
X96447096Y-141234004D01*
X96390405Y-141233959D01*
X96345060Y-141233847D01*
X96312787Y-141233669D01*
X96295311Y-141233425D01*
X96293517Y-141233358D01*
X96274815Y-141234246D01*
X96266085Y-141238364D01*
X96266001Y-141238910D01*
X96272563Y-141247464D01*
X96289999Y-141262735D01*
X96314929Y-141282297D01*
X96343978Y-141303720D01*
X96373766Y-141324576D01*
X96400916Y-141342438D01*
X96422051Y-141354877D01*
X96433706Y-141359467D01*
X96445250Y-141365286D01*
X96452352Y-141372269D01*
X96462969Y-141381428D01*
X96483911Y-141396951D01*
X96511845Y-141416600D01*
X96543436Y-141438139D01*
X96575351Y-141459333D01*
X96604255Y-141477943D01*
X96626815Y-141491734D01*
X96639696Y-141498470D01*
X96640959Y-141498787D01*
X96651545Y-141505082D01*
X96653659Y-141507633D01*
X96663204Y-141515984D01*
X96683331Y-141530775D01*
X96710674Y-141549781D01*
X96741869Y-141570773D01*
X96773549Y-141591525D01*
X96802347Y-141609811D01*
X96824899Y-141623402D01*
X96837839Y-141630074D01*
X96839219Y-141630400D01*
X96849965Y-141636043D01*
X96865452Y-141649805D01*
X96867134Y-141651567D01*
X96882688Y-141665911D01*
X96894093Y-141672658D01*
X96894819Y-141672733D01*
X96906511Y-141677253D01*
X96924377Y-141688237D01*
X96925850Y-141689275D01*
X96949081Y-141705816D01*
X96739666Y-142127425D01*
X96690531Y-142226341D01*
X96648394Y-142311175D01*
X96612729Y-142383014D01*
X96583010Y-142442945D01*
X96558711Y-142492056D01*
X96539305Y-142531435D01*
X96524267Y-142562168D01*
X96513069Y-142585343D01*
X96505187Y-142602048D01*
X96500094Y-142613370D01*
X96497264Y-142620396D01*
X96496171Y-142624213D01*
X96496288Y-142625910D01*
X96497089Y-142626573D01*
X96497889Y-142627111D01*
X96500945Y-142627791D01*
X96507652Y-142626340D01*
X96519055Y-142622260D01*
X96536199Y-142615052D01*
X96560130Y-142604216D01*
X96591893Y-142589255D01*
X96632535Y-142569669D01*
X96683099Y-142544960D01*
X96744633Y-142514629D01*
X96818181Y-142478178D01*
X96904788Y-142435106D01*
X97003230Y-142386050D01*
X97080758Y-142347422D01*
X97153654Y-142311163D01*
X97220527Y-142277962D01*
X97279987Y-142248506D01*
X97330641Y-142223484D01*
X97371099Y-142203582D01*
X97399968Y-142189489D01*
X97415858Y-142181893D01*
X97418567Y-142180733D01*
X97425030Y-142186560D01*
X97442388Y-142203345D01*
X97469590Y-142230046D01*
X97505586Y-142265620D01*
X97549325Y-142309025D01*
X97599756Y-142359217D01*
X97655828Y-142415153D01*
X97716490Y-142475792D01*
X97777537Y-142536929D01*
X97886436Y-142645859D01*
X97983643Y-142742624D01*
X98069204Y-142827266D01*
X98143162Y-142899826D01*
X98205561Y-142960348D01*
X98256445Y-143008872D01*
X98295859Y-143045443D01*
X98323846Y-143070102D01*
X98340449Y-143082890D01*
X98345714Y-143083852D01*
X98345337Y-143082433D01*
X98339112Y-143064544D01*
X98330647Y-143038073D01*
X98326097Y-143023167D01*
X98318725Y-142999438D01*
X98306956Y-142962679D01*
X98291295Y-142914402D01*
X98272246Y-142856117D01*
X98250311Y-142789338D01*
X98225995Y-142715576D01*
X98199801Y-142636344D01*
X98172233Y-142553154D01*
X98143796Y-142467518D01*
X98114991Y-142380948D01*
X98086325Y-142294956D01*
X98058299Y-142211055D01*
X98031418Y-142130756D01*
X98006186Y-142055572D01*
X97983106Y-141987014D01*
X97962682Y-141926596D01*
X97945418Y-141875829D01*
X97931817Y-141836224D01*
X97922383Y-141809296D01*
X97917621Y-141796555D01*
X97917216Y-141795760D01*
X97910178Y-141783322D01*
X97909624Y-141780614D01*
X97906329Y-141755847D01*
X97900232Y-141733112D01*
X97893113Y-141718060D01*
X97888978Y-141715067D01*
X97890056Y-141710851D01*
X97904112Y-141698074D01*
X97931400Y-141676536D01*
X97972176Y-141646038D01*
X98022773Y-141609233D01*
X98001667Y-141609233D01*
X97997434Y-141613467D01*
X97993200Y-141609233D01*
X97997434Y-141605000D01*
X98001667Y-141609233D01*
X98022773Y-141609233D01*
X98026693Y-141606382D01*
X98046117Y-141592418D01*
X98074443Y-141571235D01*
X98096623Y-141553001D01*
X98109611Y-141540310D01*
X98111734Y-141536576D01*
X98116381Y-141531127D01*
X98118536Y-141532004D01*
X98128087Y-141529191D01*
X98145086Y-141517398D01*
X98157107Y-141507104D01*
X98176510Y-141490439D01*
X98191102Y-141479908D01*
X98195559Y-141478000D01*
X98205525Y-141472325D01*
X98218372Y-141460052D01*
X98234254Y-141445749D01*
X98258606Y-141427368D01*
X98279133Y-141413474D01*
X98302226Y-141397788D01*
X98334839Y-141374474D01*
X98373146Y-141346320D01*
X98413318Y-141316116D01*
X98425858Y-141306538D01*
X98462541Y-141278549D01*
X98495315Y-141253816D01*
X98518327Y-141236700D01*
X97205800Y-141236700D01*
X97201567Y-141240933D01*
X97197334Y-141236700D01*
X97201567Y-141232466D01*
X97205800Y-141236700D01*
X98518327Y-141236700D01*
X98521439Y-141234386D01*
X98538175Y-141222307D01*
X98541993Y-141219766D01*
X98553588Y-141211475D01*
X98575397Y-141194765D01*
X98604506Y-141171906D01*
X98637997Y-141145173D01*
X98645036Y-141139503D01*
X98678487Y-141112518D01*
X98707514Y-141089104D01*
X98729399Y-141071451D01*
X98741430Y-141061749D01*
X98742501Y-141060887D01*
X98754386Y-141051902D01*
X98773667Y-141037841D01*
X98780129Y-141033200D01*
X98794729Y-141021721D01*
X98798764Y-141015067D01*
X98790951Y-141013154D01*
X98770007Y-141015894D01*
X98734648Y-141023201D01*
X98711078Y-141028559D01*
X98671225Y-141037138D01*
X98630819Y-141044803D01*
X98597810Y-141050058D01*
X98594334Y-141050504D01*
X98577169Y-141053242D01*
X98545145Y-141058986D01*
X98500000Y-141067401D01*
X98443476Y-141078152D01*
X98377313Y-141090906D01*
X98303251Y-141105329D01*
X98223032Y-141121085D01*
X98138394Y-141137841D01*
X98104264Y-141144635D01*
X98020092Y-141161355D01*
X97941044Y-141176940D01*
X97868652Y-141191097D01*
X97804450Y-141203531D01*
X97749971Y-141213949D01*
X97706748Y-141222055D01*
X97676313Y-141227556D01*
X97660200Y-141230158D01*
X97657998Y-141230287D01*
X97655484Y-141221788D01*
X97649263Y-141198367D01*
X97639720Y-141161530D01*
X97627240Y-141112786D01*
X97612205Y-141053645D01*
X97595001Y-140985614D01*
X97576011Y-140910202D01*
X97555619Y-140828917D01*
X97544226Y-140783379D01*
X97523120Y-140699348D01*
X97503045Y-140620224D01*
X97484405Y-140547539D01*
X97467602Y-140482827D01*
X97453039Y-140427619D01*
X97441118Y-140383449D01*
X97432243Y-140351849D01*
X97426815Y-140334353D01*
X97425482Y-140331331D01*
X97415989Y-140326418D01*
X97413883Y-140327296D01*
X97413883Y-140327296D01*
G37*
X97413883Y-140327296D02*
X97411161Y-140336004D01*
X97404738Y-140359642D01*
X97394999Y-140396708D01*
X97382329Y-140445699D01*
X97367115Y-140505112D01*
X97349740Y-140573446D01*
X97330592Y-140649196D01*
X97310054Y-140730861D01*
X97297325Y-140781677D01*
X97184634Y-141232191D01*
X96752834Y-141233503D01*
X96668004Y-141233732D01*
X96587621Y-141233891D01*
X96513410Y-141233981D01*
X96447096Y-141234004D01*
X96390405Y-141233959D01*
X96345060Y-141233847D01*
X96312787Y-141233669D01*
X96295311Y-141233425D01*
X96293517Y-141233358D01*
X96274815Y-141234246D01*
X96266085Y-141238364D01*
X96266001Y-141238910D01*
X96272563Y-141247464D01*
X96289999Y-141262735D01*
X96314929Y-141282297D01*
X96343978Y-141303720D01*
X96373766Y-141324576D01*
X96400916Y-141342438D01*
X96422051Y-141354877D01*
X96433706Y-141359467D01*
X96445250Y-141365286D01*
X96452352Y-141372269D01*
X96462969Y-141381428D01*
X96483911Y-141396951D01*
X96511845Y-141416600D01*
X96543436Y-141438139D01*
X96575351Y-141459333D01*
X96604255Y-141477943D01*
X96626815Y-141491734D01*
X96639696Y-141498470D01*
X96640959Y-141498787D01*
X96651545Y-141505082D01*
X96653659Y-141507633D01*
X96663204Y-141515984D01*
X96683331Y-141530775D01*
X96710674Y-141549781D01*
X96741869Y-141570773D01*
X96773549Y-141591525D01*
X96802347Y-141609811D01*
X96824899Y-141623402D01*
X96837839Y-141630074D01*
X96839219Y-141630400D01*
X96849965Y-141636043D01*
X96865452Y-141649805D01*
X96867134Y-141651567D01*
X96882688Y-141665911D01*
X96894093Y-141672658D01*
X96894819Y-141672733D01*
X96906511Y-141677253D01*
X96924377Y-141688237D01*
X96925850Y-141689275D01*
X96949081Y-141705816D01*
X96739666Y-142127425D01*
X96690531Y-142226341D01*
X96648394Y-142311175D01*
X96612729Y-142383014D01*
X96583010Y-142442945D01*
X96558711Y-142492056D01*
X96539305Y-142531435D01*
X96524267Y-142562168D01*
X96513069Y-142585343D01*
X96505187Y-142602048D01*
X96500094Y-142613370D01*
X96497264Y-142620396D01*
X96496171Y-142624213D01*
X96496288Y-142625910D01*
X96497089Y-142626573D01*
X96497889Y-142627111D01*
X96500945Y-142627791D01*
X96507652Y-142626340D01*
X96519055Y-142622260D01*
X96536199Y-142615052D01*
X96560130Y-142604216D01*
X96591893Y-142589255D01*
X96632535Y-142569669D01*
X96683099Y-142544960D01*
X96744633Y-142514629D01*
X96818181Y-142478178D01*
X96904788Y-142435106D01*
X97003230Y-142386050D01*
X97080758Y-142347422D01*
X97153654Y-142311163D01*
X97220527Y-142277962D01*
X97279987Y-142248506D01*
X97330641Y-142223484D01*
X97371099Y-142203582D01*
X97399968Y-142189489D01*
X97415858Y-142181893D01*
X97418567Y-142180733D01*
X97425030Y-142186560D01*
X97442388Y-142203345D01*
X97469590Y-142230046D01*
X97505586Y-142265620D01*
X97549325Y-142309025D01*
X97599756Y-142359217D01*
X97655828Y-142415153D01*
X97716490Y-142475792D01*
X97777537Y-142536929D01*
X97886436Y-142645859D01*
X97983643Y-142742624D01*
X98069204Y-142827266D01*
X98143162Y-142899826D01*
X98205561Y-142960348D01*
X98256445Y-143008872D01*
X98295859Y-143045443D01*
X98323846Y-143070102D01*
X98340449Y-143082890D01*
X98345714Y-143083852D01*
X98345337Y-143082433D01*
X98339112Y-143064544D01*
X98330647Y-143038073D01*
X98326097Y-143023167D01*
X98318725Y-142999438D01*
X98306956Y-142962679D01*
X98291295Y-142914402D01*
X98272246Y-142856117D01*
X98250311Y-142789338D01*
X98225995Y-142715576D01*
X98199801Y-142636344D01*
X98172233Y-142553154D01*
X98143796Y-142467518D01*
X98114991Y-142380948D01*
X98086325Y-142294956D01*
X98058299Y-142211055D01*
X98031418Y-142130756D01*
X98006186Y-142055572D01*
X97983106Y-141987014D01*
X97962682Y-141926596D01*
X97945418Y-141875829D01*
X97931817Y-141836224D01*
X97922383Y-141809296D01*
X97917621Y-141796555D01*
X97917216Y-141795760D01*
X97910178Y-141783322D01*
X97909624Y-141780614D01*
X97906329Y-141755847D01*
X97900232Y-141733112D01*
X97893113Y-141718060D01*
X97888978Y-141715067D01*
X97890056Y-141710851D01*
X97904112Y-141698074D01*
X97931400Y-141676536D01*
X97972176Y-141646038D01*
X98022773Y-141609233D01*
X98001667Y-141609233D01*
X97997434Y-141613467D01*
X97993200Y-141609233D01*
X97997434Y-141605000D01*
X98001667Y-141609233D01*
X98022773Y-141609233D01*
X98026693Y-141606382D01*
X98046117Y-141592418D01*
X98074443Y-141571235D01*
X98096623Y-141553001D01*
X98109611Y-141540310D01*
X98111734Y-141536576D01*
X98116381Y-141531127D01*
X98118536Y-141532004D01*
X98128087Y-141529191D01*
X98145086Y-141517398D01*
X98157107Y-141507104D01*
X98176510Y-141490439D01*
X98191102Y-141479908D01*
X98195559Y-141478000D01*
X98205525Y-141472325D01*
X98218372Y-141460052D01*
X98234254Y-141445749D01*
X98258606Y-141427368D01*
X98279133Y-141413474D01*
X98302226Y-141397788D01*
X98334839Y-141374474D01*
X98373146Y-141346320D01*
X98413318Y-141316116D01*
X98425858Y-141306538D01*
X98462541Y-141278549D01*
X98495315Y-141253816D01*
X98518327Y-141236700D01*
X97205800Y-141236700D01*
X97201567Y-141240933D01*
X97197334Y-141236700D01*
X97201567Y-141232466D01*
X97205800Y-141236700D01*
X98518327Y-141236700D01*
X98521439Y-141234386D01*
X98538175Y-141222307D01*
X98541993Y-141219766D01*
X98553588Y-141211475D01*
X98575397Y-141194765D01*
X98604506Y-141171906D01*
X98637997Y-141145173D01*
X98645036Y-141139503D01*
X98678487Y-141112518D01*
X98707514Y-141089104D01*
X98729399Y-141071451D01*
X98741430Y-141061749D01*
X98742501Y-141060887D01*
X98754386Y-141051902D01*
X98773667Y-141037841D01*
X98780129Y-141033200D01*
X98794729Y-141021721D01*
X98798764Y-141015067D01*
X98790951Y-141013154D01*
X98770007Y-141015894D01*
X98734648Y-141023201D01*
X98711078Y-141028559D01*
X98671225Y-141037138D01*
X98630819Y-141044803D01*
X98597810Y-141050058D01*
X98594334Y-141050504D01*
X98577169Y-141053242D01*
X98545145Y-141058986D01*
X98500000Y-141067401D01*
X98443476Y-141078152D01*
X98377313Y-141090906D01*
X98303251Y-141105329D01*
X98223032Y-141121085D01*
X98138394Y-141137841D01*
X98104264Y-141144635D01*
X98020092Y-141161355D01*
X97941044Y-141176940D01*
X97868652Y-141191097D01*
X97804450Y-141203531D01*
X97749971Y-141213949D01*
X97706748Y-141222055D01*
X97676313Y-141227556D01*
X97660200Y-141230158D01*
X97657998Y-141230287D01*
X97655484Y-141221788D01*
X97649263Y-141198367D01*
X97639720Y-141161530D01*
X97627240Y-141112786D01*
X97612205Y-141053645D01*
X97595001Y-140985614D01*
X97576011Y-140910202D01*
X97555619Y-140828917D01*
X97544226Y-140783379D01*
X97523120Y-140699348D01*
X97503045Y-140620224D01*
X97484405Y-140547539D01*
X97467602Y-140482827D01*
X97453039Y-140427619D01*
X97441118Y-140383449D01*
X97432243Y-140351849D01*
X97426815Y-140334353D01*
X97425482Y-140331331D01*
X97415989Y-140326418D01*
X97413883Y-140327296D01*
G36*
X95940507Y-141308656D02*
G01*
X95884194Y-141311990D01*
X95832431Y-141318200D01*
X95792407Y-141326577D01*
X95742785Y-141341848D01*
X95704278Y-141357889D01*
X95671244Y-141377917D01*
X95638043Y-141405149D01*
X95613114Y-141428811D01*
X95574207Y-141472209D01*
X95547955Y-141515577D01*
X95531677Y-141564541D01*
X95523442Y-141617009D01*
X95518515Y-141664746D01*
X95640269Y-141662390D01*
X95688008Y-141661325D01*
X95721436Y-141660017D01*
X95743171Y-141658060D01*
X95755836Y-141655049D01*
X95762050Y-141650575D01*
X95764434Y-141644232D01*
X95764622Y-141643100D01*
X95776307Y-141599267D01*
X95795605Y-141562764D01*
X95820053Y-141538183D01*
X95821343Y-141537364D01*
X95872430Y-141513392D01*
X95927884Y-141500296D01*
X95983375Y-141498308D01*
X96034570Y-141507662D01*
X96070291Y-141523950D01*
X96099149Y-141544539D01*
X96115624Y-141564348D01*
X96123044Y-141588920D01*
X96124679Y-141614543D01*
X96123696Y-141642502D01*
X96118093Y-141660437D01*
X96105482Y-141675109D01*
X96102293Y-141677916D01*
X96083215Y-141690076D01*
X96052181Y-141703633D01*
X96008085Y-141718963D01*
X95949816Y-141736445D01*
X95876268Y-141756454D01*
X95855367Y-141761895D01*
X95765621Y-141787245D01*
X95691381Y-141813475D01*
X95631225Y-141841791D01*
X95583730Y-141873394D01*
X95547470Y-141909488D01*
X95521025Y-141951278D01*
X95502969Y-141999967D01*
X95491879Y-142056758D01*
X95490211Y-142070666D01*
X95490137Y-142111099D01*
X95496392Y-142159343D01*
X95507577Y-142208141D01*
X95522295Y-142250236D01*
X95526495Y-142259123D01*
X95554839Y-142299531D01*
X95596539Y-142338677D01*
X95648053Y-142374236D01*
X95705838Y-142403884D01*
X95766351Y-142425297D01*
X95787634Y-142430440D01*
X95835659Y-142437428D01*
X95893954Y-142441209D01*
X95956427Y-142441792D01*
X96016988Y-142439184D01*
X96069543Y-142433393D01*
X96087623Y-142430044D01*
X96163057Y-142406594D01*
X96231027Y-142371479D01*
X96289849Y-142326413D01*
X96337837Y-142273112D01*
X96373304Y-142213291D01*
X96394566Y-142148664D01*
X96399522Y-142112721D01*
X96403742Y-142053733D01*
X96166323Y-142053733D01*
X96160645Y-142091601D01*
X96152227Y-142121242D01*
X96137183Y-142154022D01*
X96127933Y-142169302D01*
X96095224Y-142204424D01*
X96051435Y-142228980D01*
X95995534Y-142243381D01*
X95930959Y-142248030D01*
X95865796Y-142244031D01*
X95812540Y-142230608D01*
X95768550Y-142207007D01*
X95757309Y-142198284D01*
X95740426Y-142182577D01*
X95731797Y-142167591D01*
X95728702Y-142146641D01*
X95728367Y-142127184D01*
X95730903Y-142097266D01*
X95739579Y-142071890D01*
X95755999Y-142050013D01*
X95781767Y-142030591D01*
X95818486Y-142012582D01*
X95867762Y-141994944D01*
X95931196Y-141976635D01*
X95978821Y-141964368D01*
X96070574Y-141939344D01*
X96146822Y-141913655D01*
X96208994Y-141886529D01*
X96258520Y-141857193D01*
X96296829Y-141824872D01*
X96325348Y-141788794D01*
X96335185Y-141771490D01*
X96352071Y-141723755D01*
X96360573Y-141667015D01*
X96360720Y-141606961D01*
X96352540Y-141549283D01*
X96336062Y-141499673D01*
X96333789Y-141495041D01*
X96297292Y-141441437D01*
X96246683Y-141394330D01*
X96184015Y-141355179D01*
X96111342Y-141325444D01*
X96083967Y-141317543D01*
X96045671Y-141311269D01*
X95996092Y-141308362D01*
X95940507Y-141308656D01*
X95940507Y-141308656D01*
G37*
X95940507Y-141308656D02*
X95884194Y-141311990D01*
X95832431Y-141318200D01*
X95792407Y-141326577D01*
X95742785Y-141341848D01*
X95704278Y-141357889D01*
X95671244Y-141377917D01*
X95638043Y-141405149D01*
X95613114Y-141428811D01*
X95574207Y-141472209D01*
X95547955Y-141515577D01*
X95531677Y-141564541D01*
X95523442Y-141617009D01*
X95518515Y-141664746D01*
X95640269Y-141662390D01*
X95688008Y-141661325D01*
X95721436Y-141660017D01*
X95743171Y-141658060D01*
X95755836Y-141655049D01*
X95762050Y-141650575D01*
X95764434Y-141644232D01*
X95764622Y-141643100D01*
X95776307Y-141599267D01*
X95795605Y-141562764D01*
X95820053Y-141538183D01*
X95821343Y-141537364D01*
X95872430Y-141513392D01*
X95927884Y-141500296D01*
X95983375Y-141498308D01*
X96034570Y-141507662D01*
X96070291Y-141523950D01*
X96099149Y-141544539D01*
X96115624Y-141564348D01*
X96123044Y-141588920D01*
X96124679Y-141614543D01*
X96123696Y-141642502D01*
X96118093Y-141660437D01*
X96105482Y-141675109D01*
X96102293Y-141677916D01*
X96083215Y-141690076D01*
X96052181Y-141703633D01*
X96008085Y-141718963D01*
X95949816Y-141736445D01*
X95876268Y-141756454D01*
X95855367Y-141761895D01*
X95765621Y-141787245D01*
X95691381Y-141813475D01*
X95631225Y-141841791D01*
X95583730Y-141873394D01*
X95547470Y-141909488D01*
X95521025Y-141951278D01*
X95502969Y-141999967D01*
X95491879Y-142056758D01*
X95490211Y-142070666D01*
X95490137Y-142111099D01*
X95496392Y-142159343D01*
X95507577Y-142208141D01*
X95522295Y-142250236D01*
X95526495Y-142259123D01*
X95554839Y-142299531D01*
X95596539Y-142338677D01*
X95648053Y-142374236D01*
X95705838Y-142403884D01*
X95766351Y-142425297D01*
X95787634Y-142430440D01*
X95835659Y-142437428D01*
X95893954Y-142441209D01*
X95956427Y-142441792D01*
X96016988Y-142439184D01*
X96069543Y-142433393D01*
X96087623Y-142430044D01*
X96163057Y-142406594D01*
X96231027Y-142371479D01*
X96289849Y-142326413D01*
X96337837Y-142273112D01*
X96373304Y-142213291D01*
X96394566Y-142148664D01*
X96399522Y-142112721D01*
X96403742Y-142053733D01*
X96166323Y-142053733D01*
X96160645Y-142091601D01*
X96152227Y-142121242D01*
X96137183Y-142154022D01*
X96127933Y-142169302D01*
X96095224Y-142204424D01*
X96051435Y-142228980D01*
X95995534Y-142243381D01*
X95930959Y-142248030D01*
X95865796Y-142244031D01*
X95812540Y-142230608D01*
X95768550Y-142207007D01*
X95757309Y-142198284D01*
X95740426Y-142182577D01*
X95731797Y-142167591D01*
X95728702Y-142146641D01*
X95728367Y-142127184D01*
X95730903Y-142097266D01*
X95739579Y-142071890D01*
X95755999Y-142050013D01*
X95781767Y-142030591D01*
X95818486Y-142012582D01*
X95867762Y-141994944D01*
X95931196Y-141976635D01*
X95978821Y-141964368D01*
X96070574Y-141939344D01*
X96146822Y-141913655D01*
X96208994Y-141886529D01*
X96258520Y-141857193D01*
X96296829Y-141824872D01*
X96325348Y-141788794D01*
X96335185Y-141771490D01*
X96352071Y-141723755D01*
X96360573Y-141667015D01*
X96360720Y-141606961D01*
X96352540Y-141549283D01*
X96336062Y-141499673D01*
X96333789Y-141495041D01*
X96297292Y-141441437D01*
X96246683Y-141394330D01*
X96184015Y-141355179D01*
X96111342Y-141325444D01*
X96083967Y-141317543D01*
X96045671Y-141311269D01*
X95996092Y-141308362D01*
X95940507Y-141308656D01*
G36*
X93556804Y-141621799D02*
G01*
X93492136Y-141644737D01*
X93433380Y-141681394D01*
X93395231Y-141714989D01*
X93345476Y-141775989D01*
X93308999Y-141846973D01*
X93286171Y-141926961D01*
X93277364Y-142014973D01*
X93277267Y-142025655D01*
X93277267Y-142079133D01*
X93838231Y-142079133D01*
X93832535Y-142114757D01*
X93817036Y-142171445D01*
X93790551Y-142215307D01*
X93752779Y-142246652D01*
X93703418Y-142265791D01*
X93681850Y-142269886D01*
X93624012Y-142270883D01*
X93571851Y-142255978D01*
X93524666Y-142224937D01*
X93512289Y-142213362D01*
X93471194Y-142172266D01*
X93382697Y-142172266D01*
X93339696Y-142172591D01*
X93311960Y-142175007D01*
X93297825Y-142181682D01*
X93295621Y-142194782D01*
X93303684Y-142216473D01*
X93320345Y-142248922D01*
X93321717Y-142251515D01*
X93363654Y-142315244D01*
X93415063Y-142365250D01*
X93476743Y-142402101D01*
X93549488Y-142426367D01*
X93573174Y-142431204D01*
X93616042Y-142438099D01*
X93648474Y-142441114D01*
X93676444Y-142440548D01*
X93700600Y-142437564D01*
X93788349Y-142417600D01*
X93863000Y-142387200D01*
X93925052Y-142346026D01*
X93975003Y-142293736D01*
X94013351Y-142229990D01*
X94017345Y-142221217D01*
X94042523Y-142145616D01*
X94054782Y-142065057D01*
X94054276Y-141983285D01*
X94042350Y-141911235D01*
X93835428Y-141911235D01*
X93834647Y-141921403D01*
X93826754Y-141928202D01*
X93809898Y-141932306D01*
X93782233Y-141934391D01*
X93741909Y-141935133D01*
X93687078Y-141935207D01*
X93666734Y-141935200D01*
X93609073Y-141935106D01*
X93566180Y-141934692D01*
X93535888Y-141933765D01*
X93516033Y-141932129D01*
X93504448Y-141929587D01*
X93498968Y-141925946D01*
X93497427Y-141921009D01*
X93497400Y-141919929D01*
X93501039Y-141904184D01*
X93510406Y-141879840D01*
X93519073Y-141861168D01*
X93536372Y-141831855D01*
X93556672Y-141812014D01*
X93584235Y-141796005D01*
X93633509Y-141778311D01*
X93680881Y-141776489D01*
X93730052Y-141790502D01*
X93738700Y-141794383D01*
X93774734Y-141814161D01*
X93799189Y-141835981D01*
X93817153Y-141864890D01*
X93823044Y-141878088D01*
X93830944Y-141897022D01*
X93835428Y-141911235D01*
X94042350Y-141911235D01*
X94041159Y-141904044D01*
X94015587Y-141831078D01*
X93999983Y-141801160D01*
X93955669Y-141741084D01*
X93899793Y-141690188D01*
X93835535Y-141650537D01*
X93766077Y-141624197D01*
X93712299Y-141614401D01*
X93629490Y-141611909D01*
X93556804Y-141621799D01*
X93556804Y-141621799D01*
G37*
X93556804Y-141621799D02*
X93492136Y-141644737D01*
X93433380Y-141681394D01*
X93395231Y-141714989D01*
X93345476Y-141775989D01*
X93308999Y-141846973D01*
X93286171Y-141926961D01*
X93277364Y-142014973D01*
X93277267Y-142025655D01*
X93277267Y-142079133D01*
X93838231Y-142079133D01*
X93832535Y-142114757D01*
X93817036Y-142171445D01*
X93790551Y-142215307D01*
X93752779Y-142246652D01*
X93703418Y-142265791D01*
X93681850Y-142269886D01*
X93624012Y-142270883D01*
X93571851Y-142255978D01*
X93524666Y-142224937D01*
X93512289Y-142213362D01*
X93471194Y-142172266D01*
X93382697Y-142172266D01*
X93339696Y-142172591D01*
X93311960Y-142175007D01*
X93297825Y-142181682D01*
X93295621Y-142194782D01*
X93303684Y-142216473D01*
X93320345Y-142248922D01*
X93321717Y-142251515D01*
X93363654Y-142315244D01*
X93415063Y-142365250D01*
X93476743Y-142402101D01*
X93549488Y-142426367D01*
X93573174Y-142431204D01*
X93616042Y-142438099D01*
X93648474Y-142441114D01*
X93676444Y-142440548D01*
X93700600Y-142437564D01*
X93788349Y-142417600D01*
X93863000Y-142387200D01*
X93925052Y-142346026D01*
X93975003Y-142293736D01*
X94013351Y-142229990D01*
X94017345Y-142221217D01*
X94042523Y-142145616D01*
X94054782Y-142065057D01*
X94054276Y-141983285D01*
X94042350Y-141911235D01*
X93835428Y-141911235D01*
X93834647Y-141921403D01*
X93826754Y-141928202D01*
X93809898Y-141932306D01*
X93782233Y-141934391D01*
X93741909Y-141935133D01*
X93687078Y-141935207D01*
X93666734Y-141935200D01*
X93609073Y-141935106D01*
X93566180Y-141934692D01*
X93535888Y-141933765D01*
X93516033Y-141932129D01*
X93504448Y-141929587D01*
X93498968Y-141925946D01*
X93497427Y-141921009D01*
X93497400Y-141919929D01*
X93501039Y-141904184D01*
X93510406Y-141879840D01*
X93519073Y-141861168D01*
X93536372Y-141831855D01*
X93556672Y-141812014D01*
X93584235Y-141796005D01*
X93633509Y-141778311D01*
X93680881Y-141776489D01*
X93730052Y-141790502D01*
X93738700Y-141794383D01*
X93774734Y-141814161D01*
X93799189Y-141835981D01*
X93817153Y-141864890D01*
X93823044Y-141878088D01*
X93830944Y-141897022D01*
X93835428Y-141911235D01*
X94042350Y-141911235D01*
X94041159Y-141904044D01*
X94015587Y-141831078D01*
X93999983Y-141801160D01*
X93955669Y-141741084D01*
X93899793Y-141690188D01*
X93835535Y-141650537D01*
X93766077Y-141624197D01*
X93712299Y-141614401D01*
X93629490Y-141611909D01*
X93556804Y-141621799D01*
G36*
X98637487Y-141612346D02*
G01*
X98547680Y-141617031D01*
X98471965Y-141630840D01*
X98410113Y-141653857D01*
X98361895Y-141686169D01*
X98327083Y-141727864D01*
X98325742Y-141730108D01*
X98302234Y-141770100D01*
X98297995Y-142070666D01*
X98296566Y-142158578D01*
X98294959Y-142230633D01*
X98293123Y-142287907D01*
X98291009Y-142331476D01*
X98288566Y-142362416D01*
X98285746Y-142381804D01*
X98283179Y-142389727D01*
X98275106Y-142405543D01*
X98272600Y-142413010D01*
X98280541Y-142414799D01*
X98302257Y-142416284D01*
X98334592Y-142417327D01*
X98374390Y-142417789D01*
X98381761Y-142417800D01*
X98428814Y-142417574D01*
X98461536Y-142416210D01*
X98482529Y-142412678D01*
X98494394Y-142405949D01*
X98499734Y-142394994D01*
X98501150Y-142378783D01*
X98501200Y-142370541D01*
X98502907Y-142354948D01*
X98506025Y-142350066D01*
X98515106Y-142354490D01*
X98533429Y-142365891D01*
X98549635Y-142376752D01*
X98606425Y-142407581D01*
X98670799Y-142426425D01*
X98745290Y-142433955D01*
X98766538Y-142434143D01*
X98806746Y-142432501D01*
X98845631Y-142428649D01*
X98876450Y-142423319D01*
X98883384Y-142421459D01*
X98923783Y-142402571D01*
X98962953Y-142373143D01*
X98996105Y-142337627D01*
X99018451Y-142300474D01*
X99021139Y-142293425D01*
X99030652Y-142250333D01*
X99034164Y-142199652D01*
X99033863Y-142194074D01*
X98814279Y-142194074D01*
X98809168Y-142231901D01*
X98792060Y-142259157D01*
X98760872Y-142278918D01*
X98755196Y-142281288D01*
X98724159Y-142288240D01*
X98684921Y-142289815D01*
X98645273Y-142286204D01*
X98613422Y-142277777D01*
X98573442Y-142255129D01*
X98545142Y-142224439D01*
X98527430Y-142183696D01*
X98519211Y-142130891D01*
X98518320Y-142102849D01*
X98518134Y-142037664D01*
X98545650Y-142048985D01*
X98572157Y-142057533D01*
X98603638Y-142064633D01*
X98611267Y-142065878D01*
X98677632Y-142077259D01*
X98728733Y-142090289D01*
X98766228Y-142106015D01*
X98791777Y-142125485D01*
X98807038Y-142149747D01*
X98813669Y-142179847D01*
X98814279Y-142194074D01*
X99033863Y-142194074D01*
X99031464Y-142149707D01*
X99025523Y-142118751D01*
X99004416Y-142073957D01*
X98968037Y-142035981D01*
X98916693Y-142005010D01*
X98850693Y-141981230D01*
X98771467Y-141964992D01*
X98708432Y-141955656D01*
X98659829Y-141948047D01*
X98623311Y-141941625D01*
X98596527Y-141935849D01*
X98577131Y-141930178D01*
X98562773Y-141924072D01*
X98551105Y-141916989D01*
X98545667Y-141913005D01*
X98527325Y-141896095D01*
X98519529Y-141877841D01*
X98518134Y-141856220D01*
X98524941Y-141816535D01*
X98545315Y-141786942D01*
X98579188Y-141767491D01*
X98626489Y-141758236D01*
X98649367Y-141757400D01*
X98702535Y-141762666D01*
X98742891Y-141778684D01*
X98770971Y-141805784D01*
X98786755Y-141842067D01*
X98794352Y-141871700D01*
X98901776Y-141874069D01*
X99009200Y-141876439D01*
X99009200Y-141851028D01*
X99004903Y-141826414D01*
X98993781Y-141793987D01*
X98978488Y-141759968D01*
X98961679Y-141730573D01*
X98952637Y-141718501D01*
X98912982Y-141683217D01*
X98859572Y-141653422D01*
X98811054Y-141634622D01*
X98779655Y-141624805D01*
X98751842Y-141618321D01*
X98722523Y-141614519D01*
X98686606Y-141612744D01*
X98639000Y-141612343D01*
X98637487Y-141612346D01*
X98637487Y-141612346D01*
G37*
X98637487Y-141612346D02*
X98547680Y-141617031D01*
X98471965Y-141630840D01*
X98410113Y-141653857D01*
X98361895Y-141686169D01*
X98327083Y-141727864D01*
X98325742Y-141730108D01*
X98302234Y-141770100D01*
X98297995Y-142070666D01*
X98296566Y-142158578D01*
X98294959Y-142230633D01*
X98293123Y-142287907D01*
X98291009Y-142331476D01*
X98288566Y-142362416D01*
X98285746Y-142381804D01*
X98283179Y-142389727D01*
X98275106Y-142405543D01*
X98272600Y-142413010D01*
X98280541Y-142414799D01*
X98302257Y-142416284D01*
X98334592Y-142417327D01*
X98374390Y-142417789D01*
X98381761Y-142417800D01*
X98428814Y-142417574D01*
X98461536Y-142416210D01*
X98482529Y-142412678D01*
X98494394Y-142405949D01*
X98499734Y-142394994D01*
X98501150Y-142378783D01*
X98501200Y-142370541D01*
X98502907Y-142354948D01*
X98506025Y-142350066D01*
X98515106Y-142354490D01*
X98533429Y-142365891D01*
X98549635Y-142376752D01*
X98606425Y-142407581D01*
X98670799Y-142426425D01*
X98745290Y-142433955D01*
X98766538Y-142434143D01*
X98806746Y-142432501D01*
X98845631Y-142428649D01*
X98876450Y-142423319D01*
X98883384Y-142421459D01*
X98923783Y-142402571D01*
X98962953Y-142373143D01*
X98996105Y-142337627D01*
X99018451Y-142300474D01*
X99021139Y-142293425D01*
X99030652Y-142250333D01*
X99034164Y-142199652D01*
X99033863Y-142194074D01*
X98814279Y-142194074D01*
X98809168Y-142231901D01*
X98792060Y-142259157D01*
X98760872Y-142278918D01*
X98755196Y-142281288D01*
X98724159Y-142288240D01*
X98684921Y-142289815D01*
X98645273Y-142286204D01*
X98613422Y-142277777D01*
X98573442Y-142255129D01*
X98545142Y-142224439D01*
X98527430Y-142183696D01*
X98519211Y-142130891D01*
X98518320Y-142102849D01*
X98518134Y-142037664D01*
X98545650Y-142048985D01*
X98572157Y-142057533D01*
X98603638Y-142064633D01*
X98611267Y-142065878D01*
X98677632Y-142077259D01*
X98728733Y-142090289D01*
X98766228Y-142106015D01*
X98791777Y-142125485D01*
X98807038Y-142149747D01*
X98813669Y-142179847D01*
X98814279Y-142194074D01*
X99033863Y-142194074D01*
X99031464Y-142149707D01*
X99025523Y-142118751D01*
X99004416Y-142073957D01*
X98968037Y-142035981D01*
X98916693Y-142005010D01*
X98850693Y-141981230D01*
X98771467Y-141964992D01*
X98708432Y-141955656D01*
X98659829Y-141948047D01*
X98623311Y-141941625D01*
X98596527Y-141935849D01*
X98577131Y-141930178D01*
X98562773Y-141924072D01*
X98551105Y-141916989D01*
X98545667Y-141913005D01*
X98527325Y-141896095D01*
X98519529Y-141877841D01*
X98518134Y-141856220D01*
X98524941Y-141816535D01*
X98545315Y-141786942D01*
X98579188Y-141767491D01*
X98626489Y-141758236D01*
X98649367Y-141757400D01*
X98702535Y-141762666D01*
X98742891Y-141778684D01*
X98770971Y-141805784D01*
X98786755Y-141842067D01*
X98794352Y-141871700D01*
X98901776Y-141874069D01*
X99009200Y-141876439D01*
X99009200Y-141851028D01*
X99004903Y-141826414D01*
X98993781Y-141793987D01*
X98978488Y-141759968D01*
X98961679Y-141730573D01*
X98952637Y-141718501D01*
X98912982Y-141683217D01*
X98859572Y-141653422D01*
X98811054Y-141634622D01*
X98779655Y-141624805D01*
X98751842Y-141618321D01*
X98722523Y-141614519D01*
X98686606Y-141612744D01*
X98639000Y-141612343D01*
X98637487Y-141612346D01*
G36*
X94990444Y-141614235D02*
G01*
X94922595Y-141625195D01*
X94862157Y-141642410D01*
X94812300Y-141665216D01*
X94781470Y-141687686D01*
X94766153Y-141702798D01*
X94753908Y-141717651D01*
X94744390Y-141734289D01*
X94737249Y-141754755D01*
X94732139Y-141781090D01*
X94728713Y-141815337D01*
X94726622Y-141859538D01*
X94725521Y-141915737D01*
X94725061Y-141985975D01*
X94724976Y-142019866D01*
X94724466Y-142109751D01*
X94723240Y-142184595D01*
X94721192Y-142246281D01*
X94718216Y-142296692D01*
X94714206Y-142337708D01*
X94709056Y-142371213D01*
X94703810Y-142394777D01*
X94697701Y-142418320D01*
X94806634Y-142415943D01*
X94915567Y-142413567D01*
X94933101Y-142340875D01*
X94952524Y-142361550D01*
X94970507Y-142375913D01*
X94997846Y-142392576D01*
X95024191Y-142405837D01*
X95049848Y-142416542D01*
X95073556Y-142423679D01*
X95100223Y-142428109D01*
X95134756Y-142430693D01*
X95173800Y-142432075D01*
X95223310Y-142432648D01*
X95260365Y-142431030D01*
X95289343Y-142426847D01*
X95313500Y-142420114D01*
X95356499Y-142397891D01*
X95397116Y-142363619D01*
X95430262Y-142321963D01*
X95440677Y-142303500D01*
X95450645Y-142276864D01*
X95455930Y-142244290D01*
X95457434Y-142201900D01*
X95456869Y-142195129D01*
X95241502Y-142195129D01*
X95234378Y-142227677D01*
X95215869Y-142257191D01*
X95190138Y-142277767D01*
X95180473Y-142281681D01*
X95142197Y-142287969D01*
X95097220Y-142287534D01*
X95053131Y-142280981D01*
X95017522Y-142268916D01*
X95016995Y-142268647D01*
X94984425Y-142245071D01*
X94961172Y-142211731D01*
X94946277Y-142166660D01*
X94938794Y-142108080D01*
X94934338Y-142036663D01*
X94963053Y-142048626D01*
X94989435Y-142057150D01*
X95021877Y-142064461D01*
X95034100Y-142066435D01*
X95080429Y-142074349D01*
X95125125Y-142084655D01*
X95163568Y-142096099D01*
X95191138Y-142107426D01*
X95196478Y-142110535D01*
X95221556Y-142135847D01*
X95237694Y-142169757D01*
X95241502Y-142195129D01*
X95456869Y-142195129D01*
X95452359Y-142141158D01*
X95436393Y-142091867D01*
X95408426Y-142051655D01*
X95373252Y-142022062D01*
X95341961Y-142003339D01*
X95307344Y-141988424D01*
X95266067Y-141976360D01*
X95214799Y-141966189D01*
X95150208Y-141956954D01*
X95144119Y-141956197D01*
X95080094Y-141947491D01*
X95030988Y-141938616D01*
X94994800Y-141928755D01*
X94969529Y-141917090D01*
X94953174Y-141902804D01*
X94943732Y-141885081D01*
X94940677Y-141873133D01*
X94941015Y-141834910D01*
X94955142Y-141800900D01*
X94980845Y-141775469D01*
X94993537Y-141768815D01*
X95025166Y-141760789D01*
X95064248Y-141758137D01*
X95104856Y-141760501D01*
X95141062Y-141767524D01*
X95166938Y-141778846D01*
X95167603Y-141779330D01*
X95186827Y-141799210D01*
X95203821Y-141825877D01*
X95214470Y-141852189D01*
X95216134Y-141863520D01*
X95218773Y-141868700D01*
X95228332Y-141872255D01*
X95247272Y-141874460D01*
X95278057Y-141875594D01*
X95323147Y-141875932D01*
X95326584Y-141875933D01*
X95437034Y-141875933D01*
X95431449Y-141844183D01*
X95412420Y-141779843D01*
X95379854Y-141725560D01*
X95333954Y-141681491D01*
X95274920Y-141647793D01*
X95202955Y-141624624D01*
X95135700Y-141613721D01*
X95062536Y-141610190D01*
X94990444Y-141614235D01*
X94990444Y-141614235D01*
G37*
X94990444Y-141614235D02*
X94922595Y-141625195D01*
X94862157Y-141642410D01*
X94812300Y-141665216D01*
X94781470Y-141687686D01*
X94766153Y-141702798D01*
X94753908Y-141717651D01*
X94744390Y-141734289D01*
X94737249Y-141754755D01*
X94732139Y-141781090D01*
X94728713Y-141815337D01*
X94726622Y-141859538D01*
X94725521Y-141915737D01*
X94725061Y-141985975D01*
X94724976Y-142019866D01*
X94724466Y-142109751D01*
X94723240Y-142184595D01*
X94721192Y-142246281D01*
X94718216Y-142296692D01*
X94714206Y-142337708D01*
X94709056Y-142371213D01*
X94703810Y-142394777D01*
X94697701Y-142418320D01*
X94806634Y-142415943D01*
X94915567Y-142413567D01*
X94933101Y-142340875D01*
X94952524Y-142361550D01*
X94970507Y-142375913D01*
X94997846Y-142392576D01*
X95024191Y-142405837D01*
X95049848Y-142416542D01*
X95073556Y-142423679D01*
X95100223Y-142428109D01*
X95134756Y-142430693D01*
X95173800Y-142432075D01*
X95223310Y-142432648D01*
X95260365Y-142431030D01*
X95289343Y-142426847D01*
X95313500Y-142420114D01*
X95356499Y-142397891D01*
X95397116Y-142363619D01*
X95430262Y-142321963D01*
X95440677Y-142303500D01*
X95450645Y-142276864D01*
X95455930Y-142244290D01*
X95457434Y-142201900D01*
X95456869Y-142195129D01*
X95241502Y-142195129D01*
X95234378Y-142227677D01*
X95215869Y-142257191D01*
X95190138Y-142277767D01*
X95180473Y-142281681D01*
X95142197Y-142287969D01*
X95097220Y-142287534D01*
X95053131Y-142280981D01*
X95017522Y-142268916D01*
X95016995Y-142268647D01*
X94984425Y-142245071D01*
X94961172Y-142211731D01*
X94946277Y-142166660D01*
X94938794Y-142108080D01*
X94934338Y-142036663D01*
X94963053Y-142048626D01*
X94989435Y-142057150D01*
X95021877Y-142064461D01*
X95034100Y-142066435D01*
X95080429Y-142074349D01*
X95125125Y-142084655D01*
X95163568Y-142096099D01*
X95191138Y-142107426D01*
X95196478Y-142110535D01*
X95221556Y-142135847D01*
X95237694Y-142169757D01*
X95241502Y-142195129D01*
X95456869Y-142195129D01*
X95452359Y-142141158D01*
X95436393Y-142091867D01*
X95408426Y-142051655D01*
X95373252Y-142022062D01*
X95341961Y-142003339D01*
X95307344Y-141988424D01*
X95266067Y-141976360D01*
X95214799Y-141966189D01*
X95150208Y-141956954D01*
X95144119Y-141956197D01*
X95080094Y-141947491D01*
X95030988Y-141938616D01*
X94994800Y-141928755D01*
X94969529Y-141917090D01*
X94953174Y-141902804D01*
X94943732Y-141885081D01*
X94940677Y-141873133D01*
X94941015Y-141834910D01*
X94955142Y-141800900D01*
X94980845Y-141775469D01*
X94993537Y-141768815D01*
X95025166Y-141760789D01*
X95064248Y-141758137D01*
X95104856Y-141760501D01*
X95141062Y-141767524D01*
X95166938Y-141778846D01*
X95167603Y-141779330D01*
X95186827Y-141799210D01*
X95203821Y-141825877D01*
X95214470Y-141852189D01*
X95216134Y-141863520D01*
X95218773Y-141868700D01*
X95228332Y-141872255D01*
X95247272Y-141874460D01*
X95278057Y-141875594D01*
X95323147Y-141875932D01*
X95326584Y-141875933D01*
X95437034Y-141875933D01*
X95431449Y-141844183D01*
X95412420Y-141779843D01*
X95379854Y-141725560D01*
X95333954Y-141681491D01*
X95274920Y-141647793D01*
X95202955Y-141624624D01*
X95135700Y-141613721D01*
X95062536Y-141610190D01*
X94990444Y-141614235D01*
G36*
X99453122Y-141334245D02*
G01*
X99420342Y-141334995D01*
X99399362Y-141336637D01*
X99387615Y-141339490D01*
X99382536Y-141343876D01*
X99381546Y-141348883D01*
X99381472Y-141360057D01*
X99381329Y-141386486D01*
X99381127Y-141426490D01*
X99380873Y-141478392D01*
X99380575Y-141540512D01*
X99380242Y-141611171D01*
X99379881Y-141688692D01*
X99379501Y-141771396D01*
X99379430Y-141787033D01*
X99377501Y-142210366D01*
X99214517Y-142212666D01*
X99051534Y-142214965D01*
X99051534Y-142417800D01*
X99618800Y-142417800D01*
X99618800Y-141334066D01*
X99500267Y-141334066D01*
X99453122Y-141334245D01*
X99453122Y-141334245D01*
G37*
X99453122Y-141334245D02*
X99420342Y-141334995D01*
X99399362Y-141336637D01*
X99387615Y-141339490D01*
X99382536Y-141343876D01*
X99381546Y-141348883D01*
X99381472Y-141360057D01*
X99381329Y-141386486D01*
X99381127Y-141426490D01*
X99380873Y-141478392D01*
X99380575Y-141540512D01*
X99380242Y-141611171D01*
X99379881Y-141688692D01*
X99379501Y-141771396D01*
X99379430Y-141787033D01*
X99377501Y-142210366D01*
X99214517Y-142212666D01*
X99051534Y-142214965D01*
X99051534Y-142417800D01*
X99618800Y-142417800D01*
X99618800Y-141334066D01*
X99500267Y-141334066D01*
X99453122Y-141334245D01*
G36*
X94523984Y-141335930D02*
G01*
X94416034Y-141338300D01*
X94416034Y-142413567D01*
X94518092Y-142415930D01*
X94558097Y-142416384D01*
X94591764Y-142415874D01*
X94615577Y-142414516D01*
X94626019Y-142412425D01*
X94626042Y-142412403D01*
X94627071Y-142403124D01*
X94628043Y-142378358D01*
X94628942Y-142339548D01*
X94629753Y-142288139D01*
X94630459Y-142225577D01*
X94631046Y-142153307D01*
X94631496Y-142072772D01*
X94631796Y-141985419D01*
X94631929Y-141892692D01*
X94631934Y-141870036D01*
X94631934Y-141333561D01*
X94523984Y-141335930D01*
X94523984Y-141335930D01*
G37*
X94523984Y-141335930D02*
X94416034Y-141338300D01*
X94416034Y-142413567D01*
X94518092Y-142415930D01*
X94558097Y-142416384D01*
X94591764Y-142415874D01*
X94615577Y-142414516D01*
X94626019Y-142412425D01*
X94626042Y-142412403D01*
X94627071Y-142403124D01*
X94628043Y-142378358D01*
X94628942Y-142339548D01*
X94629753Y-142288139D01*
X94630459Y-142225577D01*
X94631046Y-142153307D01*
X94631496Y-142072772D01*
X94631796Y-141985419D01*
X94631929Y-141892692D01*
X94631934Y-141870036D01*
X94631934Y-141333561D01*
X94523984Y-141335930D01*
G36*
X94116505Y-141334067D02*
G01*
X94111400Y-141370050D01*
X94110515Y-141384925D01*
X94109762Y-141415121D01*
X94109147Y-141459024D01*
X94108679Y-141515022D01*
X94108366Y-141581503D01*
X94108215Y-141656853D01*
X94108234Y-141739459D01*
X94108432Y-141827711D01*
X94108764Y-141909800D01*
X94111234Y-142413567D01*
X94219184Y-142415936D01*
X94327134Y-142418306D01*
X94327134Y-141334066D01*
X94221819Y-141334066D01*
X94116505Y-141334067D01*
X94116505Y-141334067D01*
G37*
X94116505Y-141334067D02*
X94111400Y-141370050D01*
X94110515Y-141384925D01*
X94109762Y-141415121D01*
X94109147Y-141459024D01*
X94108679Y-141515022D01*
X94108366Y-141581503D01*
X94108215Y-141656853D01*
X94108234Y-141739459D01*
X94108432Y-141827711D01*
X94108764Y-141909800D01*
X94111234Y-142413567D01*
X94219184Y-142415936D01*
X94327134Y-142418306D01*
X94327134Y-141334066D01*
X94221819Y-141334066D01*
X94116505Y-141334067D01*
G36*
X77730421Y-140402729D02*
G01*
X77692591Y-140406679D01*
X77653254Y-140412365D01*
X77614599Y-140419516D01*
X77581679Y-140427117D01*
X77504824Y-140451220D01*
X77429906Y-140483133D01*
X77357521Y-140522306D01*
X77288262Y-140568189D01*
X77222725Y-140620233D01*
X77161503Y-140677887D01*
X77105190Y-140740602D01*
X77054382Y-140807829D01*
X77009673Y-140879018D01*
X76971656Y-140953618D01*
X76946902Y-141014177D01*
X76923026Y-141090869D01*
X76905687Y-141171506D01*
X76894885Y-141254814D01*
X76890616Y-141339521D01*
X76892881Y-141424356D01*
X76901676Y-141508045D01*
X76917001Y-141589317D01*
X76938854Y-141666899D01*
X76947759Y-141692177D01*
X76981727Y-141771566D01*
X77023450Y-141848098D01*
X77072511Y-141921146D01*
X77128499Y-141990084D01*
X77180543Y-142044324D01*
X77247273Y-142104062D01*
X77315564Y-142155612D01*
X77385887Y-142199183D01*
X77458712Y-142234984D01*
X77534509Y-142263223D01*
X77613746Y-142284109D01*
X77696896Y-142297850D01*
X77765155Y-142303763D01*
X77780396Y-142304292D01*
X77792049Y-142304126D01*
X77797801Y-142303305D01*
X77797963Y-142303188D01*
X77798174Y-142298804D01*
X77798379Y-142286334D01*
X77798578Y-142266156D01*
X77798770Y-142238651D01*
X77798954Y-142204197D01*
X77799129Y-142163174D01*
X77799295Y-142115963D01*
X77799449Y-142062941D01*
X77799592Y-142004490D01*
X77799722Y-141940989D01*
X77799839Y-141872817D01*
X77799942Y-141800354D01*
X77800029Y-141723979D01*
X77800101Y-141644073D01*
X77800155Y-141561014D01*
X77800191Y-141475183D01*
X77800209Y-141386958D01*
X77800210Y-141351262D01*
X77800208Y-141245460D01*
X77800200Y-141147800D01*
X77800182Y-141057956D01*
X77800154Y-140975604D01*
X77800111Y-140900418D01*
X77800052Y-140832074D01*
X77799974Y-140770246D01*
X77799875Y-140714610D01*
X77799751Y-140664840D01*
X77799601Y-140620612D01*
X77799422Y-140581600D01*
X77799212Y-140547479D01*
X77798967Y-140517924D01*
X77798686Y-140492611D01*
X77798365Y-140471214D01*
X77798003Y-140453408D01*
X77797596Y-140438869D01*
X77797142Y-140427270D01*
X77796640Y-140418288D01*
X77796085Y-140411596D01*
X77795476Y-140406871D01*
X77794810Y-140403786D01*
X77794084Y-140402018D01*
X77793296Y-140401240D01*
X77792802Y-140401115D01*
X77764555Y-140400785D01*
X77730421Y-140402729D01*
X77730421Y-140402729D01*
G37*
X77730421Y-140402729D02*
X77692591Y-140406679D01*
X77653254Y-140412365D01*
X77614599Y-140419516D01*
X77581679Y-140427117D01*
X77504824Y-140451220D01*
X77429906Y-140483133D01*
X77357521Y-140522306D01*
X77288262Y-140568189D01*
X77222725Y-140620233D01*
X77161503Y-140677887D01*
X77105190Y-140740602D01*
X77054382Y-140807829D01*
X77009673Y-140879018D01*
X76971656Y-140953618D01*
X76946902Y-141014177D01*
X76923026Y-141090869D01*
X76905687Y-141171506D01*
X76894885Y-141254814D01*
X76890616Y-141339521D01*
X76892881Y-141424356D01*
X76901676Y-141508045D01*
X76917001Y-141589317D01*
X76938854Y-141666899D01*
X76947759Y-141692177D01*
X76981727Y-141771566D01*
X77023450Y-141848098D01*
X77072511Y-141921146D01*
X77128499Y-141990084D01*
X77180543Y-142044324D01*
X77247273Y-142104062D01*
X77315564Y-142155612D01*
X77385887Y-142199183D01*
X77458712Y-142234984D01*
X77534509Y-142263223D01*
X77613746Y-142284109D01*
X77696896Y-142297850D01*
X77765155Y-142303763D01*
X77780396Y-142304292D01*
X77792049Y-142304126D01*
X77797801Y-142303305D01*
X77797963Y-142303188D01*
X77798174Y-142298804D01*
X77798379Y-142286334D01*
X77798578Y-142266156D01*
X77798770Y-142238651D01*
X77798954Y-142204197D01*
X77799129Y-142163174D01*
X77799295Y-142115963D01*
X77799449Y-142062941D01*
X77799592Y-142004490D01*
X77799722Y-141940989D01*
X77799839Y-141872817D01*
X77799942Y-141800354D01*
X77800029Y-141723979D01*
X77800101Y-141644073D01*
X77800155Y-141561014D01*
X77800191Y-141475183D01*
X77800209Y-141386958D01*
X77800210Y-141351262D01*
X77800208Y-141245460D01*
X77800200Y-141147800D01*
X77800182Y-141057956D01*
X77800154Y-140975604D01*
X77800111Y-140900418D01*
X77800052Y-140832074D01*
X77799974Y-140770246D01*
X77799875Y-140714610D01*
X77799751Y-140664840D01*
X77799601Y-140620612D01*
X77799422Y-140581600D01*
X77799212Y-140547479D01*
X77798967Y-140517924D01*
X77798686Y-140492611D01*
X77798365Y-140471214D01*
X77798003Y-140453408D01*
X77797596Y-140438869D01*
X77797142Y-140427270D01*
X77796640Y-140418288D01*
X77796085Y-140411596D01*
X77795476Y-140406871D01*
X77794810Y-140403786D01*
X77794084Y-140402018D01*
X77793296Y-140401240D01*
X77792802Y-140401115D01*
X77764555Y-140400785D01*
X77730421Y-140402729D01*
G36*
X74976567Y-141869583D02*
G01*
X74978684Y-141871700D01*
X74980801Y-141869583D01*
X74978684Y-141867467D01*
X74976567Y-141869583D01*
X74976567Y-141869583D01*
G37*
X74976567Y-141869583D02*
X74978684Y-141871700D01*
X74980801Y-141869583D01*
X74978684Y-141867467D01*
X74976567Y-141869583D01*
G36*
X75061234Y-141776450D02*
G01*
X75063351Y-141778567D01*
X75065467Y-141776450D01*
X75063351Y-141774333D01*
X75061234Y-141776450D01*
X75061234Y-141776450D01*
G37*
X75061234Y-141776450D02*
X75063351Y-141778567D01*
X75065467Y-141776450D01*
X75063351Y-141774333D01*
X75061234Y-141776450D01*
G36*
X77254485Y-138428879D02*
G01*
X77193456Y-138428918D01*
X77135364Y-138428981D01*
X77080740Y-138429067D01*
X77030111Y-138429173D01*
X76984006Y-138429298D01*
X76942954Y-138429440D01*
X76907483Y-138429598D01*
X76878121Y-138429769D01*
X76855398Y-138429953D01*
X76839841Y-138430146D01*
X76831979Y-138430349D01*
X76831092Y-138430444D01*
X76832695Y-138434854D01*
X76836813Y-138444499D01*
X76840466Y-138452669D01*
X76846490Y-138472614D01*
X76849547Y-138497338D01*
X76849590Y-138523672D01*
X76846569Y-138548446D01*
X76842176Y-138564332D01*
X76826217Y-138595155D01*
X76803953Y-138620908D01*
X76776347Y-138640655D01*
X76753299Y-138650766D01*
X76735459Y-138654719D01*
X76711800Y-138657054D01*
X76684819Y-138657753D01*
X76657013Y-138656797D01*
X76630877Y-138654168D01*
X76617036Y-138651780D01*
X76606860Y-138649642D01*
X76589384Y-138645955D01*
X76565590Y-138640925D01*
X76536460Y-138634761D01*
X76502976Y-138627670D01*
X76466120Y-138619861D01*
X76426873Y-138611542D01*
X76393767Y-138604520D01*
X76354493Y-138596248D01*
X76317786Y-138588631D01*
X76284467Y-138581830D01*
X76255359Y-138576009D01*
X76231285Y-138571330D01*
X76213068Y-138567956D01*
X76201529Y-138566048D01*
X76197507Y-138565740D01*
X76196170Y-138570240D01*
X76193277Y-138582188D01*
X76189015Y-138600745D01*
X76183570Y-138625073D01*
X76177127Y-138654334D01*
X76169875Y-138687690D01*
X76161997Y-138724303D01*
X76155311Y-138755654D01*
X76130359Y-138873114D01*
X76107081Y-138982692D01*
X76085391Y-139084786D01*
X76065206Y-139179796D01*
X76046439Y-139268120D01*
X76029006Y-139350159D01*
X76012823Y-139426310D01*
X75997805Y-139496974D01*
X75983866Y-139562549D01*
X75970923Y-139623435D01*
X75958889Y-139680031D01*
X75947680Y-139732736D01*
X75937212Y-139781949D01*
X75931471Y-139808932D01*
X75921118Y-139857599D01*
X75910320Y-139908370D01*
X75899388Y-139959777D01*
X75888635Y-140010355D01*
X75878372Y-140058634D01*
X75868912Y-140103149D01*
X75860566Y-140142431D01*
X75853647Y-140175014D01*
X75853176Y-140177232D01*
X75845892Y-140211534D01*
X75837212Y-140252402D01*
X75827500Y-140298119D01*
X75817120Y-140346970D01*
X75806438Y-140397239D01*
X75795817Y-140447210D01*
X75785622Y-140495168D01*
X75781215Y-140515899D01*
X75770979Y-140564049D01*
X75759850Y-140616409D01*
X75748250Y-140671001D01*
X75736598Y-140725844D01*
X75725315Y-140778960D01*
X75714821Y-140828368D01*
X75705538Y-140872088D01*
X75702967Y-140884199D01*
X75694133Y-140925806D01*
X75684905Y-140969249D01*
X75675649Y-141012806D01*
X75666730Y-141054757D01*
X75658515Y-141093379D01*
X75651370Y-141126951D01*
X75646269Y-141150899D01*
X75640435Y-141178287D01*
X75633203Y-141212282D01*
X75624926Y-141251211D01*
X75615961Y-141293396D01*
X75606664Y-141337165D01*
X75597392Y-141380841D01*
X75588694Y-141421832D01*
X75578846Y-141468236D01*
X75567808Y-141520214D01*
X75556106Y-141575295D01*
X75544264Y-141631010D01*
X75532806Y-141684889D01*
X75522259Y-141734463D01*
X75516491Y-141761557D01*
X75506650Y-141807778D01*
X75495588Y-141859745D01*
X75483844Y-141914922D01*
X75471957Y-141970774D01*
X75460469Y-142024766D01*
X75449917Y-142074363D01*
X75444866Y-142098107D01*
X75435606Y-142141641D01*
X75425622Y-142188577D01*
X75415346Y-142236882D01*
X75405211Y-142284523D01*
X75395650Y-142329466D01*
X75387094Y-142369679D01*
X75381621Y-142395401D01*
X75374912Y-142427223D01*
X75368903Y-142456298D01*
X75363791Y-142481619D01*
X75359777Y-142502175D01*
X75357059Y-142516957D01*
X75355836Y-142524956D01*
X75355838Y-142526090D01*
X75360173Y-142527267D01*
X75372030Y-142530046D01*
X75390650Y-142534259D01*
X75415275Y-142539737D01*
X75445147Y-142546315D01*
X75479506Y-142553825D01*
X75517596Y-142562099D01*
X75558657Y-142570970D01*
X75583062Y-142576221D01*
X75637531Y-142587979D01*
X75684402Y-142598254D01*
X75724374Y-142607252D01*
X75758145Y-142615183D01*
X75786413Y-142622253D01*
X75809876Y-142628670D01*
X75829234Y-142634642D01*
X75845183Y-142640377D01*
X75858423Y-142646082D01*
X75869651Y-142651966D01*
X75879566Y-142658235D01*
X75888867Y-142665097D01*
X75893016Y-142668417D01*
X75914866Y-142691345D01*
X75931627Y-142719486D01*
X75942035Y-142750501D01*
X75944131Y-142763133D01*
X75947132Y-142788984D01*
X76873071Y-142789144D01*
X76961019Y-142789146D01*
X77046725Y-142789123D01*
X77129806Y-142789075D01*
X77209876Y-142789004D01*
X77286550Y-142788911D01*
X77359443Y-142788797D01*
X77428172Y-142788663D01*
X77492350Y-142788510D01*
X77551593Y-142788340D01*
X77605516Y-142788153D01*
X77653735Y-142787951D01*
X77695864Y-142787735D01*
X77731519Y-142787505D01*
X77760315Y-142787263D01*
X77781868Y-142787011D01*
X77795791Y-142786749D01*
X77801701Y-142786478D01*
X77801884Y-142786429D01*
X77802566Y-142781658D01*
X77803191Y-142769423D01*
X77803737Y-142750726D01*
X77804187Y-142726570D01*
X77804519Y-142697956D01*
X77804714Y-142665887D01*
X77804758Y-142640794D01*
X77804758Y-142498034D01*
X77752900Y-142495008D01*
X77656521Y-142485372D01*
X77563303Y-142467894D01*
X77473237Y-142442568D01*
X77386314Y-142409390D01*
X77302527Y-142368355D01*
X77221867Y-142319459D01*
X77144326Y-142262697D01*
X77069894Y-142198064D01*
X76998564Y-142125557D01*
X76930327Y-142045169D01*
X76924225Y-142037403D01*
X76896709Y-142002162D01*
X76895611Y-142208356D01*
X76894514Y-142414549D01*
X76627015Y-142413547D01*
X76570149Y-142413321D01*
X76521093Y-142413070D01*
X76479192Y-142412745D01*
X76443788Y-142412299D01*
X76414226Y-142411687D01*
X76389849Y-142410859D01*
X76370000Y-142409771D01*
X76354024Y-142408374D01*
X76341264Y-142406621D01*
X76331064Y-142404466D01*
X76322768Y-142401860D01*
X76315718Y-142398758D01*
X76309260Y-142395112D01*
X76302736Y-142390875D01*
X76301760Y-142390219D01*
X76282883Y-142372839D01*
X76269729Y-142351076D01*
X76262373Y-142326593D01*
X76260889Y-142301053D01*
X76265350Y-142276118D01*
X76275831Y-142253453D01*
X76292404Y-142234720D01*
X76294768Y-142232844D01*
X76302861Y-142226826D01*
X76310492Y-142221840D01*
X76318527Y-142217779D01*
X76327829Y-142214541D01*
X76339262Y-142212018D01*
X76353690Y-142210109D01*
X76371978Y-142208706D01*
X76394989Y-142207706D01*
X76423588Y-142207005D01*
X76458639Y-142206497D01*
X76501005Y-142206077D01*
X76516827Y-142205939D01*
X76687278Y-142204476D01*
X76686160Y-140842663D01*
X76685042Y-139480849D01*
X76515708Y-139478530D01*
X76471061Y-139477890D01*
X76434013Y-139477239D01*
X76403700Y-139476476D01*
X76379255Y-139475501D01*
X76359813Y-139474214D01*
X76344508Y-139472515D01*
X76332473Y-139470302D01*
X76322844Y-139467476D01*
X76314753Y-139463937D01*
X76307335Y-139459583D01*
X76299725Y-139454316D01*
X76298389Y-139453351D01*
X76279828Y-139435834D01*
X76268018Y-139414579D01*
X76262445Y-139388478D01*
X76261834Y-139375015D01*
X76265129Y-139345683D01*
X76275317Y-139321218D01*
X76292448Y-139301562D01*
X76316571Y-139286654D01*
X76341973Y-139277835D01*
X76348284Y-139276467D01*
X76356287Y-139275298D01*
X76366637Y-139274314D01*
X76379993Y-139273500D01*
X76397010Y-139272840D01*
X76418348Y-139272320D01*
X76444661Y-139271926D01*
X76476609Y-139271642D01*
X76514847Y-139271453D01*
X76560034Y-139271344D01*
X76612825Y-139271301D01*
X76630885Y-139271299D01*
X76894567Y-139271299D01*
X76895638Y-139968368D01*
X76896709Y-140665438D01*
X76928205Y-140625593D01*
X76951195Y-140598172D01*
X76979420Y-140567154D01*
X77011344Y-140534033D01*
X77045433Y-140500299D01*
X77080154Y-140467443D01*
X77113972Y-140436958D01*
X77145352Y-140410334D01*
X77167642Y-140392839D01*
X77245843Y-140338572D01*
X77324695Y-140292491D01*
X77404951Y-140254318D01*
X77487369Y-140223774D01*
X77572702Y-140200579D01*
X77661707Y-140184455D01*
X77755138Y-140175122D01*
X77757134Y-140174998D01*
X77804758Y-140172073D01*
X77804758Y-138428866D01*
X77317925Y-138428866D01*
X77254485Y-138428879D01*
X77254485Y-138428879D01*
G37*
X77254485Y-138428879D02*
X77193456Y-138428918D01*
X77135364Y-138428981D01*
X77080740Y-138429067D01*
X77030111Y-138429173D01*
X76984006Y-138429298D01*
X76942954Y-138429440D01*
X76907483Y-138429598D01*
X76878121Y-138429769D01*
X76855398Y-138429953D01*
X76839841Y-138430146D01*
X76831979Y-138430349D01*
X76831092Y-138430444D01*
X76832695Y-138434854D01*
X76836813Y-138444499D01*
X76840466Y-138452669D01*
X76846490Y-138472614D01*
X76849547Y-138497338D01*
X76849590Y-138523672D01*
X76846569Y-138548446D01*
X76842176Y-138564332D01*
X76826217Y-138595155D01*
X76803953Y-138620908D01*
X76776347Y-138640655D01*
X76753299Y-138650766D01*
X76735459Y-138654719D01*
X76711800Y-138657054D01*
X76684819Y-138657753D01*
X76657013Y-138656797D01*
X76630877Y-138654168D01*
X76617036Y-138651780D01*
X76606860Y-138649642D01*
X76589384Y-138645955D01*
X76565590Y-138640925D01*
X76536460Y-138634761D01*
X76502976Y-138627670D01*
X76466120Y-138619861D01*
X76426873Y-138611542D01*
X76393767Y-138604520D01*
X76354493Y-138596248D01*
X76317786Y-138588631D01*
X76284467Y-138581830D01*
X76255359Y-138576009D01*
X76231285Y-138571330D01*
X76213068Y-138567956D01*
X76201529Y-138566048D01*
X76197507Y-138565740D01*
X76196170Y-138570240D01*
X76193277Y-138582188D01*
X76189015Y-138600745D01*
X76183570Y-138625073D01*
X76177127Y-138654334D01*
X76169875Y-138687690D01*
X76161997Y-138724303D01*
X76155311Y-138755654D01*
X76130359Y-138873114D01*
X76107081Y-138982692D01*
X76085391Y-139084786D01*
X76065206Y-139179796D01*
X76046439Y-139268120D01*
X76029006Y-139350159D01*
X76012823Y-139426310D01*
X75997805Y-139496974D01*
X75983866Y-139562549D01*
X75970923Y-139623435D01*
X75958889Y-139680031D01*
X75947680Y-139732736D01*
X75937212Y-139781949D01*
X75931471Y-139808932D01*
X75921118Y-139857599D01*
X75910320Y-139908370D01*
X75899388Y-139959777D01*
X75888635Y-140010355D01*
X75878372Y-140058634D01*
X75868912Y-140103149D01*
X75860566Y-140142431D01*
X75853647Y-140175014D01*
X75853176Y-140177232D01*
X75845892Y-140211534D01*
X75837212Y-140252402D01*
X75827500Y-140298119D01*
X75817120Y-140346970D01*
X75806438Y-140397239D01*
X75795817Y-140447210D01*
X75785622Y-140495168D01*
X75781215Y-140515899D01*
X75770979Y-140564049D01*
X75759850Y-140616409D01*
X75748250Y-140671001D01*
X75736598Y-140725844D01*
X75725315Y-140778960D01*
X75714821Y-140828368D01*
X75705538Y-140872088D01*
X75702967Y-140884199D01*
X75694133Y-140925806D01*
X75684905Y-140969249D01*
X75675649Y-141012806D01*
X75666730Y-141054757D01*
X75658515Y-141093379D01*
X75651370Y-141126951D01*
X75646269Y-141150899D01*
X75640435Y-141178287D01*
X75633203Y-141212282D01*
X75624926Y-141251211D01*
X75615961Y-141293396D01*
X75606664Y-141337165D01*
X75597392Y-141380841D01*
X75588694Y-141421832D01*
X75578846Y-141468236D01*
X75567808Y-141520214D01*
X75556106Y-141575295D01*
X75544264Y-141631010D01*
X75532806Y-141684889D01*
X75522259Y-141734463D01*
X75516491Y-141761557D01*
X75506650Y-141807778D01*
X75495588Y-141859745D01*
X75483844Y-141914922D01*
X75471957Y-141970774D01*
X75460469Y-142024766D01*
X75449917Y-142074363D01*
X75444866Y-142098107D01*
X75435606Y-142141641D01*
X75425622Y-142188577D01*
X75415346Y-142236882D01*
X75405211Y-142284523D01*
X75395650Y-142329466D01*
X75387094Y-142369679D01*
X75381621Y-142395401D01*
X75374912Y-142427223D01*
X75368903Y-142456298D01*
X75363791Y-142481619D01*
X75359777Y-142502175D01*
X75357059Y-142516957D01*
X75355836Y-142524956D01*
X75355838Y-142526090D01*
X75360173Y-142527267D01*
X75372030Y-142530046D01*
X75390650Y-142534259D01*
X75415275Y-142539737D01*
X75445147Y-142546315D01*
X75479506Y-142553825D01*
X75517596Y-142562099D01*
X75558657Y-142570970D01*
X75583062Y-142576221D01*
X75637531Y-142587979D01*
X75684402Y-142598254D01*
X75724374Y-142607252D01*
X75758145Y-142615183D01*
X75786413Y-142622253D01*
X75809876Y-142628670D01*
X75829234Y-142634642D01*
X75845183Y-142640377D01*
X75858423Y-142646082D01*
X75869651Y-142651966D01*
X75879566Y-142658235D01*
X75888867Y-142665097D01*
X75893016Y-142668417D01*
X75914866Y-142691345D01*
X75931627Y-142719486D01*
X75942035Y-142750501D01*
X75944131Y-142763133D01*
X75947132Y-142788984D01*
X76873071Y-142789144D01*
X76961019Y-142789146D01*
X77046725Y-142789123D01*
X77129806Y-142789075D01*
X77209876Y-142789004D01*
X77286550Y-142788911D01*
X77359443Y-142788797D01*
X77428172Y-142788663D01*
X77492350Y-142788510D01*
X77551593Y-142788340D01*
X77605516Y-142788153D01*
X77653735Y-142787951D01*
X77695864Y-142787735D01*
X77731519Y-142787505D01*
X77760315Y-142787263D01*
X77781868Y-142787011D01*
X77795791Y-142786749D01*
X77801701Y-142786478D01*
X77801884Y-142786429D01*
X77802566Y-142781658D01*
X77803191Y-142769423D01*
X77803737Y-142750726D01*
X77804187Y-142726570D01*
X77804519Y-142697956D01*
X77804714Y-142665887D01*
X77804758Y-142640794D01*
X77804758Y-142498034D01*
X77752900Y-142495008D01*
X77656521Y-142485372D01*
X77563303Y-142467894D01*
X77473237Y-142442568D01*
X77386314Y-142409390D01*
X77302527Y-142368355D01*
X77221867Y-142319459D01*
X77144326Y-142262697D01*
X77069894Y-142198064D01*
X76998564Y-142125557D01*
X76930327Y-142045169D01*
X76924225Y-142037403D01*
X76896709Y-142002162D01*
X76895611Y-142208356D01*
X76894514Y-142414549D01*
X76627015Y-142413547D01*
X76570149Y-142413321D01*
X76521093Y-142413070D01*
X76479192Y-142412745D01*
X76443788Y-142412299D01*
X76414226Y-142411687D01*
X76389849Y-142410859D01*
X76370000Y-142409771D01*
X76354024Y-142408374D01*
X76341264Y-142406621D01*
X76331064Y-142404466D01*
X76322768Y-142401860D01*
X76315718Y-142398758D01*
X76309260Y-142395112D01*
X76302736Y-142390875D01*
X76301760Y-142390219D01*
X76282883Y-142372839D01*
X76269729Y-142351076D01*
X76262373Y-142326593D01*
X76260889Y-142301053D01*
X76265350Y-142276118D01*
X76275831Y-142253453D01*
X76292404Y-142234720D01*
X76294768Y-142232844D01*
X76302861Y-142226826D01*
X76310492Y-142221840D01*
X76318527Y-142217779D01*
X76327829Y-142214541D01*
X76339262Y-142212018D01*
X76353690Y-142210109D01*
X76371978Y-142208706D01*
X76394989Y-142207706D01*
X76423588Y-142207005D01*
X76458639Y-142206497D01*
X76501005Y-142206077D01*
X76516827Y-142205939D01*
X76687278Y-142204476D01*
X76686160Y-140842663D01*
X76685042Y-139480849D01*
X76515708Y-139478530D01*
X76471061Y-139477890D01*
X76434013Y-139477239D01*
X76403700Y-139476476D01*
X76379255Y-139475501D01*
X76359813Y-139474214D01*
X76344508Y-139472515D01*
X76332473Y-139470302D01*
X76322844Y-139467476D01*
X76314753Y-139463937D01*
X76307335Y-139459583D01*
X76299725Y-139454316D01*
X76298389Y-139453351D01*
X76279828Y-139435834D01*
X76268018Y-139414579D01*
X76262445Y-139388478D01*
X76261834Y-139375015D01*
X76265129Y-139345683D01*
X76275317Y-139321218D01*
X76292448Y-139301562D01*
X76316571Y-139286654D01*
X76341973Y-139277835D01*
X76348284Y-139276467D01*
X76356287Y-139275298D01*
X76366637Y-139274314D01*
X76379993Y-139273500D01*
X76397010Y-139272840D01*
X76418348Y-139272320D01*
X76444661Y-139271926D01*
X76476609Y-139271642D01*
X76514847Y-139271453D01*
X76560034Y-139271344D01*
X76612825Y-139271301D01*
X76630885Y-139271299D01*
X76894567Y-139271299D01*
X76895638Y-139968368D01*
X76896709Y-140665438D01*
X76928205Y-140625593D01*
X76951195Y-140598172D01*
X76979420Y-140567154D01*
X77011344Y-140534033D01*
X77045433Y-140500299D01*
X77080154Y-140467443D01*
X77113972Y-140436958D01*
X77145352Y-140410334D01*
X77167642Y-140392839D01*
X77245843Y-140338572D01*
X77324695Y-140292491D01*
X77404951Y-140254318D01*
X77487369Y-140223774D01*
X77572702Y-140200579D01*
X77661707Y-140184455D01*
X77755138Y-140175122D01*
X77757134Y-140174998D01*
X77804758Y-140172073D01*
X77804758Y-138428866D01*
X77317925Y-138428866D01*
X77254485Y-138428879D01*
G36*
X87961681Y-98173500D02*
G01*
X87940674Y-98192763D01*
X87928954Y-98214501D01*
X87931682Y-98233748D01*
X87933915Y-98236376D01*
X87948194Y-98237700D01*
X87972771Y-98221911D01*
X87987838Y-98208790D01*
X88011702Y-98185568D01*
X88020406Y-98172189D01*
X88015959Y-98164602D01*
X88010915Y-98162268D01*
X87986815Y-98161680D01*
X87961681Y-98173500D01*
X87961681Y-98173500D01*
G37*
X87961681Y-98173500D02*
X87940674Y-98192763D01*
X87928954Y-98214501D01*
X87931682Y-98233748D01*
X87933915Y-98236376D01*
X87948194Y-98237700D01*
X87972771Y-98221911D01*
X87987838Y-98208790D01*
X88011702Y-98185568D01*
X88020406Y-98172189D01*
X88015959Y-98164602D01*
X88010915Y-98162268D01*
X87986815Y-98161680D01*
X87961681Y-98173500D01*
G36*
X88398936Y-98414274D02*
G01*
X88394770Y-98441499D01*
X88394761Y-98443406D01*
X88399045Y-98470325D01*
X88409214Y-98485461D01*
X88421244Y-98485233D01*
X88428759Y-98473656D01*
X88433010Y-98446833D01*
X88428179Y-98421713D01*
X88416461Y-98406862D01*
X88411326Y-98405674D01*
X88398936Y-98414274D01*
X88398936Y-98414274D01*
G37*
X88398936Y-98414274D02*
X88394770Y-98441499D01*
X88394761Y-98443406D01*
X88399045Y-98470325D01*
X88409214Y-98485461D01*
X88421244Y-98485233D01*
X88428759Y-98473656D01*
X88433010Y-98446833D01*
X88428179Y-98421713D01*
X88416461Y-98406862D01*
X88411326Y-98405674D01*
X88398936Y-98414274D01*
G36*
X88489345Y-98417270D02*
G01*
X88483822Y-98433930D01*
X88482721Y-98463048D01*
X88485244Y-98497709D01*
X88490592Y-98530998D01*
X88497963Y-98556001D01*
X88506519Y-98565804D01*
X88519918Y-98556380D01*
X88528420Y-98537596D01*
X88532315Y-98504344D01*
X88529466Y-98470207D01*
X88521511Y-98440231D01*
X88510089Y-98419459D01*
X88496838Y-98412937D01*
X88489345Y-98417270D01*
X88489345Y-98417270D01*
G37*
X88489345Y-98417270D02*
X88483822Y-98433930D01*
X88482721Y-98463048D01*
X88485244Y-98497709D01*
X88490592Y-98530998D01*
X88497963Y-98556001D01*
X88506519Y-98565804D01*
X88519918Y-98556380D01*
X88528420Y-98537596D01*
X88532315Y-98504344D01*
X88529466Y-98470207D01*
X88521511Y-98440231D01*
X88510089Y-98419459D01*
X88496838Y-98412937D01*
X88489345Y-98417270D01*
G36*
X88581168Y-98419062D02*
G01*
X88579374Y-98439503D01*
X88582993Y-98476311D01*
X88587987Y-98510364D01*
X88596702Y-98560536D01*
X88604745Y-98591005D01*
X88613334Y-98604074D01*
X88623685Y-98602048D01*
X88632002Y-98593646D01*
X88637661Y-98574154D01*
X88637763Y-98541464D01*
X88633415Y-98502416D01*
X88625726Y-98463850D01*
X88615804Y-98432607D01*
X88604760Y-98415527D01*
X88602981Y-98414573D01*
X88588871Y-98411812D01*
X88581168Y-98419062D01*
X88581168Y-98419062D01*
G37*
X88581168Y-98419062D02*
X88579374Y-98439503D01*
X88582993Y-98476311D01*
X88587987Y-98510364D01*
X88596702Y-98560536D01*
X88604745Y-98591005D01*
X88613334Y-98604074D01*
X88623685Y-98602048D01*
X88632002Y-98593646D01*
X88637661Y-98574154D01*
X88637763Y-98541464D01*
X88633415Y-98502416D01*
X88625726Y-98463850D01*
X88615804Y-98432607D01*
X88604760Y-98415527D01*
X88602981Y-98414573D01*
X88588871Y-98411812D01*
X88581168Y-98419062D01*
G36*
X84552766Y-98127719D02*
G01*
X84504821Y-98135516D01*
X84474320Y-98145874D01*
X84456694Y-98163170D01*
X84447377Y-98191782D01*
X84442018Y-98233849D01*
X84436665Y-98276999D01*
X84429679Y-98303971D01*
X84418937Y-98320664D01*
X84407554Y-98329720D01*
X84391600Y-98338544D01*
X84376589Y-98339848D01*
X84356072Y-98332396D01*
X84323599Y-98314952D01*
X84320062Y-98312958D01*
X84286002Y-98294957D01*
X84258372Y-98282541D01*
X84244880Y-98278674D01*
X84230084Y-98286080D01*
X84205929Y-98305371D01*
X84181255Y-98328796D01*
X84132064Y-98378918D01*
X84152386Y-98414383D01*
X84171832Y-98448064D01*
X84190287Y-98479660D01*
X84190460Y-98479953D01*
X84202110Y-98510567D01*
X84197460Y-98540692D01*
X84189994Y-98556818D01*
X84177935Y-98567223D01*
X84155943Y-98574342D01*
X84118679Y-98580609D01*
X84106047Y-98582370D01*
X84059837Y-98589916D01*
X84030759Y-98600201D01*
X84013936Y-98617858D01*
X84004496Y-98647518D01*
X83998812Y-98684284D01*
X83991307Y-98740856D01*
X84057557Y-98774298D01*
X84104415Y-98802364D01*
X84129863Y-98829268D01*
X84134415Y-98856504D01*
X84118590Y-98885564D01*
X84101844Y-98902460D01*
X84070394Y-98929175D01*
X84039246Y-98953691D01*
X84032933Y-98958314D01*
X84001399Y-98980868D01*
X84021579Y-99035619D01*
X84034868Y-99068829D01*
X84046726Y-99093731D01*
X84051660Y-99101413D01*
X84066973Y-99106904D01*
X84097822Y-99110858D01*
X84137665Y-99112453D01*
X84139540Y-99112456D01*
X84181268Y-99113179D01*
X84207280Y-99116603D01*
X84223929Y-99124616D01*
X84237570Y-99139103D01*
X84239993Y-99142274D01*
X84262466Y-99172091D01*
X84238635Y-99234365D01*
X84225759Y-99271084D01*
X84217106Y-99301637D01*
X84214804Y-99315871D01*
X84223241Y-99333049D01*
X84244386Y-99354542D01*
X84271993Y-99375802D01*
X84299814Y-99392280D01*
X84321602Y-99399428D01*
X84327974Y-99398274D01*
X84344117Y-99386942D01*
X84370124Y-99366987D01*
X84387116Y-99353433D01*
X84416136Y-99332517D01*
X84440665Y-99319239D01*
X84450096Y-99316761D01*
X84476693Y-99321801D01*
X84503100Y-99333928D01*
X84520922Y-99348651D01*
X84524022Y-99356299D01*
X84516358Y-99366965D01*
X84494561Y-99391106D01*
X84460422Y-99426894D01*
X84415731Y-99472498D01*
X84362281Y-99526090D01*
X84301862Y-99585840D01*
X84241998Y-99644349D01*
X84159989Y-99724532D01*
X84093442Y-99790668D01*
X84041532Y-99843630D01*
X84003435Y-99884289D01*
X83978327Y-99913520D01*
X83965383Y-99932196D01*
X83963150Y-99939723D01*
X83975095Y-99957383D01*
X84004678Y-99980402D01*
X84038109Y-100000531D01*
X84072295Y-100018719D01*
X84099629Y-100030266D01*
X84127037Y-100036675D01*
X84161449Y-100039452D01*
X84209790Y-100040102D01*
X84220326Y-100040109D01*
X84263129Y-100039684D01*
X84300355Y-100037506D01*
X84334079Y-100032214D01*
X84366373Y-100022451D01*
X84399309Y-100006858D01*
X84434961Y-99984076D01*
X84475401Y-99952748D01*
X84522703Y-99911513D01*
X84578938Y-99859014D01*
X84646179Y-99793892D01*
X84726500Y-99714788D01*
X84745826Y-99695677D01*
X84810871Y-99631725D01*
X84871037Y-99573320D01*
X84924527Y-99522152D01*
X84969542Y-99479906D01*
X85004285Y-99448272D01*
X85026958Y-99428937D01*
X85035718Y-99423529D01*
X85037632Y-99436075D01*
X85039361Y-99467812D01*
X85040836Y-99515844D01*
X85041990Y-99577276D01*
X85042755Y-99649211D01*
X85043062Y-99728755D01*
X85043065Y-99737602D01*
X85043352Y-99817599D01*
X85044160Y-99890126D01*
X85045415Y-99952324D01*
X85047040Y-100001336D01*
X85048958Y-100034304D01*
X85051094Y-100048368D01*
X85051348Y-100048643D01*
X85066376Y-100049413D01*
X85094629Y-100046322D01*
X85108826Y-100043963D01*
X85192580Y-100017739D01*
X85268665Y-99972356D01*
X85334027Y-99910254D01*
X85385609Y-99833874D01*
X85394685Y-99815652D01*
X85424065Y-99752978D01*
X85424065Y-98968891D01*
X85023911Y-98963370D01*
X84623756Y-98957848D01*
X84582171Y-98916251D01*
X84557568Y-98889379D01*
X84545205Y-98866239D01*
X84540958Y-98836716D01*
X84540587Y-98814283D01*
X84542145Y-98777002D01*
X84549570Y-98751623D01*
X84566982Y-98728032D01*
X84582150Y-98712314D01*
X84623712Y-98670717D01*
X84869280Y-98664338D01*
X84951408Y-98662010D01*
X85014942Y-98659602D01*
X85063375Y-98656765D01*
X85100198Y-98653147D01*
X85128903Y-98648398D01*
X85152982Y-98642169D01*
X85175926Y-98634108D01*
X85177814Y-98633375D01*
X85244752Y-98597755D01*
X85305694Y-98547549D01*
X85357181Y-98487168D01*
X85395752Y-98421022D01*
X85417951Y-98353525D01*
X85421761Y-98322239D01*
X85424065Y-98273152D01*
X85048587Y-98267117D01*
X84959883Y-98265628D01*
X84878501Y-98264143D01*
X84806997Y-98262716D01*
X84747931Y-98261404D01*
X84703863Y-98260262D01*
X84677349Y-98259348D01*
X84670507Y-98258834D01*
X84664614Y-98248612D01*
X84651621Y-98223914D01*
X84634303Y-98190021D01*
X84633758Y-98188942D01*
X84599611Y-98121298D01*
X84552766Y-98127719D01*
X84552766Y-98127719D01*
G37*
X84552766Y-98127719D02*
X84504821Y-98135516D01*
X84474320Y-98145874D01*
X84456694Y-98163170D01*
X84447377Y-98191782D01*
X84442018Y-98233849D01*
X84436665Y-98276999D01*
X84429679Y-98303971D01*
X84418937Y-98320664D01*
X84407554Y-98329720D01*
X84391600Y-98338544D01*
X84376589Y-98339848D01*
X84356072Y-98332396D01*
X84323599Y-98314952D01*
X84320062Y-98312958D01*
X84286002Y-98294957D01*
X84258372Y-98282541D01*
X84244880Y-98278674D01*
X84230084Y-98286080D01*
X84205929Y-98305371D01*
X84181255Y-98328796D01*
X84132064Y-98378918D01*
X84152386Y-98414383D01*
X84171832Y-98448064D01*
X84190287Y-98479660D01*
X84190460Y-98479953D01*
X84202110Y-98510567D01*
X84197460Y-98540692D01*
X84189994Y-98556818D01*
X84177935Y-98567223D01*
X84155943Y-98574342D01*
X84118679Y-98580609D01*
X84106047Y-98582370D01*
X84059837Y-98589916D01*
X84030759Y-98600201D01*
X84013936Y-98617858D01*
X84004496Y-98647518D01*
X83998812Y-98684284D01*
X83991307Y-98740856D01*
X84057557Y-98774298D01*
X84104415Y-98802364D01*
X84129863Y-98829268D01*
X84134415Y-98856504D01*
X84118590Y-98885564D01*
X84101844Y-98902460D01*
X84070394Y-98929175D01*
X84039246Y-98953691D01*
X84032933Y-98958314D01*
X84001399Y-98980868D01*
X84021579Y-99035619D01*
X84034868Y-99068829D01*
X84046726Y-99093731D01*
X84051660Y-99101413D01*
X84066973Y-99106904D01*
X84097822Y-99110858D01*
X84137665Y-99112453D01*
X84139540Y-99112456D01*
X84181268Y-99113179D01*
X84207280Y-99116603D01*
X84223929Y-99124616D01*
X84237570Y-99139103D01*
X84239993Y-99142274D01*
X84262466Y-99172091D01*
X84238635Y-99234365D01*
X84225759Y-99271084D01*
X84217106Y-99301637D01*
X84214804Y-99315871D01*
X84223241Y-99333049D01*
X84244386Y-99354542D01*
X84271993Y-99375802D01*
X84299814Y-99392280D01*
X84321602Y-99399428D01*
X84327974Y-99398274D01*
X84344117Y-99386942D01*
X84370124Y-99366987D01*
X84387116Y-99353433D01*
X84416136Y-99332517D01*
X84440665Y-99319239D01*
X84450096Y-99316761D01*
X84476693Y-99321801D01*
X84503100Y-99333928D01*
X84520922Y-99348651D01*
X84524022Y-99356299D01*
X84516358Y-99366965D01*
X84494561Y-99391106D01*
X84460422Y-99426894D01*
X84415731Y-99472498D01*
X84362281Y-99526090D01*
X84301862Y-99585840D01*
X84241998Y-99644349D01*
X84159989Y-99724532D01*
X84093442Y-99790668D01*
X84041532Y-99843630D01*
X84003435Y-99884289D01*
X83978327Y-99913520D01*
X83965383Y-99932196D01*
X83963150Y-99939723D01*
X83975095Y-99957383D01*
X84004678Y-99980402D01*
X84038109Y-100000531D01*
X84072295Y-100018719D01*
X84099629Y-100030266D01*
X84127037Y-100036675D01*
X84161449Y-100039452D01*
X84209790Y-100040102D01*
X84220326Y-100040109D01*
X84263129Y-100039684D01*
X84300355Y-100037506D01*
X84334079Y-100032214D01*
X84366373Y-100022451D01*
X84399309Y-100006858D01*
X84434961Y-99984076D01*
X84475401Y-99952748D01*
X84522703Y-99911513D01*
X84578938Y-99859014D01*
X84646179Y-99793892D01*
X84726500Y-99714788D01*
X84745826Y-99695677D01*
X84810871Y-99631725D01*
X84871037Y-99573320D01*
X84924527Y-99522152D01*
X84969542Y-99479906D01*
X85004285Y-99448272D01*
X85026958Y-99428937D01*
X85035718Y-99423529D01*
X85037632Y-99436075D01*
X85039361Y-99467812D01*
X85040836Y-99515844D01*
X85041990Y-99577276D01*
X85042755Y-99649211D01*
X85043062Y-99728755D01*
X85043065Y-99737602D01*
X85043352Y-99817599D01*
X85044160Y-99890126D01*
X85045415Y-99952324D01*
X85047040Y-100001336D01*
X85048958Y-100034304D01*
X85051094Y-100048368D01*
X85051348Y-100048643D01*
X85066376Y-100049413D01*
X85094629Y-100046322D01*
X85108826Y-100043963D01*
X85192580Y-100017739D01*
X85268665Y-99972356D01*
X85334027Y-99910254D01*
X85385609Y-99833874D01*
X85394685Y-99815652D01*
X85424065Y-99752978D01*
X85424065Y-98968891D01*
X85023911Y-98963370D01*
X84623756Y-98957848D01*
X84582171Y-98916251D01*
X84557568Y-98889379D01*
X84545205Y-98866239D01*
X84540958Y-98836716D01*
X84540587Y-98814283D01*
X84542145Y-98777002D01*
X84549570Y-98751623D01*
X84566982Y-98728032D01*
X84582150Y-98712314D01*
X84623712Y-98670717D01*
X84869280Y-98664338D01*
X84951408Y-98662010D01*
X85014942Y-98659602D01*
X85063375Y-98656765D01*
X85100198Y-98653147D01*
X85128903Y-98648398D01*
X85152982Y-98642169D01*
X85175926Y-98634108D01*
X85177814Y-98633375D01*
X85244752Y-98597755D01*
X85305694Y-98547549D01*
X85357181Y-98487168D01*
X85395752Y-98421022D01*
X85417951Y-98353525D01*
X85421761Y-98322239D01*
X85424065Y-98273152D01*
X85048587Y-98267117D01*
X84959883Y-98265628D01*
X84878501Y-98264143D01*
X84806997Y-98262716D01*
X84747931Y-98261404D01*
X84703863Y-98260262D01*
X84677349Y-98259348D01*
X84670507Y-98258834D01*
X84664614Y-98248612D01*
X84651621Y-98223914D01*
X84634303Y-98190021D01*
X84633758Y-98188942D01*
X84599611Y-98121298D01*
X84552766Y-98127719D01*
G36*
X86219154Y-98269800D02*
G01*
X86134788Y-98270870D01*
X86062775Y-98272627D01*
X86006234Y-98275015D01*
X85968287Y-98277973D01*
X85965196Y-98278355D01*
X85860249Y-98302345D01*
X85765917Y-98343985D01*
X85683436Y-98400997D01*
X85614047Y-98471105D01*
X85558986Y-98552032D01*
X85519491Y-98641500D01*
X85496802Y-98737232D01*
X85492157Y-98836952D01*
X85506792Y-98938382D01*
X85541948Y-99039245D01*
X85546351Y-99048615D01*
X85602594Y-99140791D01*
X85675237Y-99219052D01*
X85762173Y-99281276D01*
X85794022Y-99298116D01*
X85841909Y-99319296D01*
X85889716Y-99335328D01*
X85941564Y-99346848D01*
X86001572Y-99354495D01*
X86073859Y-99358904D01*
X86162546Y-99360713D01*
X86199712Y-99360851D01*
X86379011Y-99360935D01*
X86381930Y-99705127D01*
X86383160Y-99809014D01*
X86384924Y-99895821D01*
X86387180Y-99964513D01*
X86389885Y-100014056D01*
X86392999Y-100043416D01*
X86395891Y-100051722D01*
X86412783Y-100051212D01*
X86442176Y-100047087D01*
X86455176Y-100044709D01*
X86540282Y-100017291D01*
X86615854Y-99971513D01*
X86679394Y-99909953D01*
X86728406Y-99835186D01*
X86760390Y-99749791D01*
X86766006Y-99724047D01*
X86768960Y-99696122D01*
X86771365Y-99648938D01*
X86773164Y-99585320D01*
X86774300Y-99508090D01*
X86774717Y-99420073D01*
X86774355Y-99324091D01*
X86774291Y-99316160D01*
X86771370Y-98968891D01*
X86373804Y-98963370D01*
X86261203Y-98961599D01*
X86168976Y-98959661D01*
X86095408Y-98957473D01*
X86038788Y-98954955D01*
X85997401Y-98952025D01*
X85969535Y-98948602D01*
X85953476Y-98944606D01*
X85950800Y-98943339D01*
X85915158Y-98911219D01*
X85892305Y-98866489D01*
X85883660Y-98815475D01*
X85890642Y-98764502D01*
X85904009Y-98734753D01*
X85917806Y-98714246D01*
X85933061Y-98698340D01*
X85952696Y-98686380D01*
X85979632Y-98677709D01*
X86016792Y-98671670D01*
X86067095Y-98667607D01*
X86133464Y-98664862D01*
X86218819Y-98662779D01*
X86224725Y-98662659D01*
X86312638Y-98660522D01*
X86382039Y-98657633D01*
X86436501Y-98653288D01*
X86479599Y-98646782D01*
X86514906Y-98637410D01*
X86545997Y-98624469D01*
X86576446Y-98607253D01*
X86606393Y-98587426D01*
X86668688Y-98532160D01*
X86718702Y-98462786D01*
X86753108Y-98384979D01*
X86768033Y-98311804D01*
X86771370Y-98273152D01*
X86412457Y-98269960D01*
X86312750Y-98269477D01*
X86219154Y-98269800D01*
X86219154Y-98269800D01*
G37*
X86219154Y-98269800D02*
X86134788Y-98270870D01*
X86062775Y-98272627D01*
X86006234Y-98275015D01*
X85968287Y-98277973D01*
X85965196Y-98278355D01*
X85860249Y-98302345D01*
X85765917Y-98343985D01*
X85683436Y-98400997D01*
X85614047Y-98471105D01*
X85558986Y-98552032D01*
X85519491Y-98641500D01*
X85496802Y-98737232D01*
X85492157Y-98836952D01*
X85506792Y-98938382D01*
X85541948Y-99039245D01*
X85546351Y-99048615D01*
X85602594Y-99140791D01*
X85675237Y-99219052D01*
X85762173Y-99281276D01*
X85794022Y-99298116D01*
X85841909Y-99319296D01*
X85889716Y-99335328D01*
X85941564Y-99346848D01*
X86001572Y-99354495D01*
X86073859Y-99358904D01*
X86162546Y-99360713D01*
X86199712Y-99360851D01*
X86379011Y-99360935D01*
X86381930Y-99705127D01*
X86383160Y-99809014D01*
X86384924Y-99895821D01*
X86387180Y-99964513D01*
X86389885Y-100014056D01*
X86392999Y-100043416D01*
X86395891Y-100051722D01*
X86412783Y-100051212D01*
X86442176Y-100047087D01*
X86455176Y-100044709D01*
X86540282Y-100017291D01*
X86615854Y-99971513D01*
X86679394Y-99909953D01*
X86728406Y-99835186D01*
X86760390Y-99749791D01*
X86766006Y-99724047D01*
X86768960Y-99696122D01*
X86771365Y-99648938D01*
X86773164Y-99585320D01*
X86774300Y-99508090D01*
X86774717Y-99420073D01*
X86774355Y-99324091D01*
X86774291Y-99316160D01*
X86771370Y-98968891D01*
X86373804Y-98963370D01*
X86261203Y-98961599D01*
X86168976Y-98959661D01*
X86095408Y-98957473D01*
X86038788Y-98954955D01*
X85997401Y-98952025D01*
X85969535Y-98948602D01*
X85953476Y-98944606D01*
X85950800Y-98943339D01*
X85915158Y-98911219D01*
X85892305Y-98866489D01*
X85883660Y-98815475D01*
X85890642Y-98764502D01*
X85904009Y-98734753D01*
X85917806Y-98714246D01*
X85933061Y-98698340D01*
X85952696Y-98686380D01*
X85979632Y-98677709D01*
X86016792Y-98671670D01*
X86067095Y-98667607D01*
X86133464Y-98664862D01*
X86218819Y-98662779D01*
X86224725Y-98662659D01*
X86312638Y-98660522D01*
X86382039Y-98657633D01*
X86436501Y-98653288D01*
X86479599Y-98646782D01*
X86514906Y-98637410D01*
X86545997Y-98624469D01*
X86576446Y-98607253D01*
X86606393Y-98587426D01*
X86668688Y-98532160D01*
X86718702Y-98462786D01*
X86753108Y-98384979D01*
X86768033Y-98311804D01*
X86771370Y-98273152D01*
X86412457Y-98269960D01*
X86312750Y-98269477D01*
X86219154Y-98269800D01*
G36*
X87950184Y-97945877D02*
G01*
X87831433Y-97967678D01*
X87717618Y-98008385D01*
X87611284Y-98067730D01*
X87514977Y-98145446D01*
X87511652Y-98148659D01*
X87477841Y-98180671D01*
X87449574Y-98205840D01*
X87430734Y-98220793D01*
X87425581Y-98223456D01*
X87413088Y-98218204D01*
X87385444Y-98203844D01*
X87346536Y-98182471D01*
X87300249Y-98156179D01*
X87292448Y-98151674D01*
X87230255Y-98117063D01*
X87183065Y-98094551D01*
X87147924Y-98083374D01*
X87121882Y-98082767D01*
X87101986Y-98091964D01*
X87093342Y-98100087D01*
X87078561Y-98129326D01*
X87076036Y-98163756D01*
X87083517Y-98186488D01*
X87095665Y-98196631D01*
X87123082Y-98215273D01*
X87161897Y-98239898D01*
X87208235Y-98267988D01*
X87215870Y-98272507D01*
X87262146Y-98300498D01*
X87300599Y-98325074D01*
X87327668Y-98343861D01*
X87339789Y-98354481D01*
X87340109Y-98355356D01*
X87331271Y-98365487D01*
X87308313Y-98382135D01*
X87282130Y-98398206D01*
X87176984Y-98470982D01*
X87082781Y-98561218D01*
X87001561Y-98666162D01*
X86935365Y-98783060D01*
X86886233Y-98909159D01*
X86875533Y-98946804D01*
X86858763Y-99038281D01*
X86851823Y-99140570D01*
X86854715Y-99244705D01*
X86867438Y-99341720D01*
X86875533Y-99377500D01*
X86920528Y-99508590D01*
X86983174Y-99628579D01*
X87061635Y-99736194D01*
X87154072Y-99830164D01*
X87258647Y-99909218D01*
X87373522Y-99972085D01*
X87496858Y-100017492D01*
X87626819Y-100044168D01*
X87761566Y-100050842D01*
X87840614Y-100045114D01*
X87975787Y-100018588D01*
X88102363Y-99972752D01*
X88218846Y-99909212D01*
X88323735Y-99829572D01*
X88415531Y-99735440D01*
X88492735Y-99628420D01*
X88553849Y-99510119D01*
X88597373Y-99382143D01*
X88621808Y-99246096D01*
X88625144Y-99204765D01*
X88628882Y-99162725D01*
X88229109Y-99162725D01*
X88228824Y-99218239D01*
X88227151Y-99257980D01*
X88222865Y-99288261D01*
X88214740Y-99315397D01*
X88201548Y-99345699D01*
X88188289Y-99372890D01*
X88131047Y-99465529D01*
X88058943Y-99541835D01*
X87971920Y-99601856D01*
X87886905Y-99639850D01*
X87850911Y-99650033D01*
X87809924Y-99655550D01*
X87757358Y-99657055D01*
X87720103Y-99656379D01*
X87666766Y-99654219D01*
X87627860Y-99650229D01*
X87595728Y-99642671D01*
X87562713Y-99629809D01*
X87526173Y-99612390D01*
X87438774Y-99557392D01*
X87362522Y-99485727D01*
X87301537Y-99401580D01*
X87281745Y-99364111D01*
X87266298Y-99330156D01*
X87256126Y-99302027D01*
X87250132Y-99273470D01*
X87247222Y-99238234D01*
X87246299Y-99190068D01*
X87246239Y-99161579D01*
X87246522Y-99106080D01*
X87248192Y-99066348D01*
X87252478Y-99036064D01*
X87260612Y-99008909D01*
X87273823Y-98978563D01*
X87287222Y-98951084D01*
X87342385Y-98863340D01*
X87414143Y-98786943D01*
X87498424Y-98725906D01*
X87535715Y-98706223D01*
X87569670Y-98690776D01*
X87597799Y-98680604D01*
X87626356Y-98674611D01*
X87661592Y-98671700D01*
X87709758Y-98670777D01*
X87738247Y-98670717D01*
X87793746Y-98671000D01*
X87833478Y-98672670D01*
X87863762Y-98676956D01*
X87890917Y-98685090D01*
X87921264Y-98698301D01*
X87948742Y-98711700D01*
X88036486Y-98766863D01*
X88112883Y-98838621D01*
X88173920Y-98922902D01*
X88193603Y-98960193D01*
X88209050Y-98994148D01*
X88219222Y-99022277D01*
X88225215Y-99050834D01*
X88228126Y-99086070D01*
X88229049Y-99134236D01*
X88229109Y-99162725D01*
X88628882Y-99162725D01*
X88628924Y-99162259D01*
X88634306Y-99129175D01*
X88640316Y-99110935D01*
X88642294Y-99109090D01*
X88655615Y-99112911D01*
X88684235Y-99126080D01*
X88724428Y-99146729D01*
X88772467Y-99172991D01*
X88792584Y-99184387D01*
X88846800Y-99215225D01*
X88885393Y-99236303D01*
X88911868Y-99248909D01*
X88929728Y-99254328D01*
X88942477Y-99253846D01*
X88953618Y-99248752D01*
X88958832Y-99245435D01*
X88983432Y-99221846D01*
X88997670Y-99198071D01*
X89002010Y-99176658D01*
X88999001Y-99165443D01*
X88950484Y-99165443D01*
X88947339Y-99190219D01*
X88932354Y-99208327D01*
X88911950Y-99212559D01*
X88909274Y-99211729D01*
X88897325Y-99205347D01*
X88867625Y-99188706D01*
X88821554Y-99162596D01*
X88760486Y-99127804D01*
X88685798Y-99085120D01*
X88598868Y-99035331D01*
X88501072Y-98979227D01*
X88393786Y-98917595D01*
X88278387Y-98851225D01*
X88156251Y-98780905D01*
X88028756Y-98707422D01*
X88019283Y-98701959D01*
X87891251Y-98628035D01*
X87768403Y-98556929D01*
X87652128Y-98489456D01*
X87543813Y-98426429D01*
X87444848Y-98368661D01*
X87356620Y-98316966D01*
X87280519Y-98272159D01*
X87217932Y-98235051D01*
X87170248Y-98206458D01*
X87138855Y-98187192D01*
X87125143Y-98178068D01*
X87124914Y-98177862D01*
X87110327Y-98158585D01*
X87113172Y-98140900D01*
X87115054Y-98137716D01*
X87132089Y-98120349D01*
X87142510Y-98115549D01*
X87155013Y-98120365D01*
X87184856Y-98135467D01*
X87230419Y-98159915D01*
X87290081Y-98192767D01*
X87362222Y-98233082D01*
X87445222Y-98279919D01*
X87537459Y-98332338D01*
X87637314Y-98389398D01*
X87743166Y-98450156D01*
X87853395Y-98513674D01*
X87966381Y-98579008D01*
X88080502Y-98645220D01*
X88194139Y-98711367D01*
X88305671Y-98776508D01*
X88413477Y-98839703D01*
X88515938Y-98900010D01*
X88611433Y-98956489D01*
X88698341Y-99008199D01*
X88775042Y-99054199D01*
X88839916Y-99093547D01*
X88891342Y-99125302D01*
X88927700Y-99148525D01*
X88947369Y-99162273D01*
X88950484Y-99165443D01*
X88999001Y-99165443D01*
X88996488Y-99156079D01*
X88978994Y-99134222D01*
X88947415Y-99108972D01*
X88899642Y-99078216D01*
X88847544Y-99047770D01*
X88795653Y-99016885D01*
X88756976Y-98991109D01*
X88733843Y-98972100D01*
X88728110Y-98962681D01*
X88732997Y-98943073D01*
X88742882Y-98912473D01*
X88747595Y-98899249D01*
X88776055Y-98790564D01*
X88784328Y-98678392D01*
X88782586Y-98660314D01*
X88731039Y-98660314D01*
X88728907Y-98692077D01*
X88722861Y-98708243D01*
X88720025Y-98709370D01*
X88708376Y-98704017D01*
X88679556Y-98688687D01*
X88635509Y-98664469D01*
X88578176Y-98632454D01*
X88509502Y-98593732D01*
X88431428Y-98549392D01*
X88345898Y-98500525D01*
X88264482Y-98453766D01*
X88173842Y-98401507D01*
X88088951Y-98352413D01*
X88011755Y-98307622D01*
X87944199Y-98268268D01*
X87888231Y-98235489D01*
X87845798Y-98210420D01*
X87818845Y-98194199D01*
X87809457Y-98188126D01*
X87808818Y-98175067D01*
X87825765Y-98156513D01*
X87857287Y-98134952D01*
X87900376Y-98112872D01*
X87900565Y-98112787D01*
X87929803Y-98095541D01*
X87945336Y-98078180D01*
X87945529Y-98064406D01*
X87928745Y-98057920D01*
X87924865Y-98057804D01*
X87893583Y-98064207D01*
X87857701Y-98080702D01*
X87823222Y-98103221D01*
X87796144Y-98127695D01*
X87782469Y-98150055D01*
X87781848Y-98154780D01*
X87778452Y-98164333D01*
X87766253Y-98163859D01*
X87742232Y-98152362D01*
X87703526Y-98128944D01*
X87656653Y-98099355D01*
X87683359Y-98078993D01*
X87715431Y-98060246D01*
X87762785Y-98039567D01*
X87819033Y-98019293D01*
X87877786Y-98001761D01*
X87924326Y-97990876D01*
X88035182Y-97979919D01*
X88145897Y-97989255D01*
X88253967Y-98017217D01*
X88356888Y-98062137D01*
X88452158Y-98122348D01*
X88537272Y-98196182D01*
X88609727Y-98281973D01*
X88667019Y-98378054D01*
X88706645Y-98482756D01*
X88715127Y-98517534D01*
X88724032Y-98568434D01*
X88729375Y-98617563D01*
X88731039Y-98660314D01*
X88782586Y-98660314D01*
X88773437Y-98565406D01*
X88744408Y-98454279D01*
X88698263Y-98347687D01*
X88636026Y-98248302D01*
X88558720Y-98158799D01*
X88467370Y-98081851D01*
X88423643Y-98053056D01*
X88310600Y-97996570D01*
X88192313Y-97960056D01*
X88071325Y-97943247D01*
X87950184Y-97945877D01*
X87950184Y-97945877D01*
G37*
X87950184Y-97945877D02*
X87831433Y-97967678D01*
X87717618Y-98008385D01*
X87611284Y-98067730D01*
X87514977Y-98145446D01*
X87511652Y-98148659D01*
X87477841Y-98180671D01*
X87449574Y-98205840D01*
X87430734Y-98220793D01*
X87425581Y-98223456D01*
X87413088Y-98218204D01*
X87385444Y-98203844D01*
X87346536Y-98182471D01*
X87300249Y-98156179D01*
X87292448Y-98151674D01*
X87230255Y-98117063D01*
X87183065Y-98094551D01*
X87147924Y-98083374D01*
X87121882Y-98082767D01*
X87101986Y-98091964D01*
X87093342Y-98100087D01*
X87078561Y-98129326D01*
X87076036Y-98163756D01*
X87083517Y-98186488D01*
X87095665Y-98196631D01*
X87123082Y-98215273D01*
X87161897Y-98239898D01*
X87208235Y-98267988D01*
X87215870Y-98272507D01*
X87262146Y-98300498D01*
X87300599Y-98325074D01*
X87327668Y-98343861D01*
X87339789Y-98354481D01*
X87340109Y-98355356D01*
X87331271Y-98365487D01*
X87308313Y-98382135D01*
X87282130Y-98398206D01*
X87176984Y-98470982D01*
X87082781Y-98561218D01*
X87001561Y-98666162D01*
X86935365Y-98783060D01*
X86886233Y-98909159D01*
X86875533Y-98946804D01*
X86858763Y-99038281D01*
X86851823Y-99140570D01*
X86854715Y-99244705D01*
X86867438Y-99341720D01*
X86875533Y-99377500D01*
X86920528Y-99508590D01*
X86983174Y-99628579D01*
X87061635Y-99736194D01*
X87154072Y-99830164D01*
X87258647Y-99909218D01*
X87373522Y-99972085D01*
X87496858Y-100017492D01*
X87626819Y-100044168D01*
X87761566Y-100050842D01*
X87840614Y-100045114D01*
X87975787Y-100018588D01*
X88102363Y-99972752D01*
X88218846Y-99909212D01*
X88323735Y-99829572D01*
X88415531Y-99735440D01*
X88492735Y-99628420D01*
X88553849Y-99510119D01*
X88597373Y-99382143D01*
X88621808Y-99246096D01*
X88625144Y-99204765D01*
X88628882Y-99162725D01*
X88229109Y-99162725D01*
X88228824Y-99218239D01*
X88227151Y-99257980D01*
X88222865Y-99288261D01*
X88214740Y-99315397D01*
X88201548Y-99345699D01*
X88188289Y-99372890D01*
X88131047Y-99465529D01*
X88058943Y-99541835D01*
X87971920Y-99601856D01*
X87886905Y-99639850D01*
X87850911Y-99650033D01*
X87809924Y-99655550D01*
X87757358Y-99657055D01*
X87720103Y-99656379D01*
X87666766Y-99654219D01*
X87627860Y-99650229D01*
X87595728Y-99642671D01*
X87562713Y-99629809D01*
X87526173Y-99612390D01*
X87438774Y-99557392D01*
X87362522Y-99485727D01*
X87301537Y-99401580D01*
X87281745Y-99364111D01*
X87266298Y-99330156D01*
X87256126Y-99302027D01*
X87250132Y-99273470D01*
X87247222Y-99238234D01*
X87246299Y-99190068D01*
X87246239Y-99161579D01*
X87246522Y-99106080D01*
X87248192Y-99066348D01*
X87252478Y-99036064D01*
X87260612Y-99008909D01*
X87273823Y-98978563D01*
X87287222Y-98951084D01*
X87342385Y-98863340D01*
X87414143Y-98786943D01*
X87498424Y-98725906D01*
X87535715Y-98706223D01*
X87569670Y-98690776D01*
X87597799Y-98680604D01*
X87626356Y-98674611D01*
X87661592Y-98671700D01*
X87709758Y-98670777D01*
X87738247Y-98670717D01*
X87793746Y-98671000D01*
X87833478Y-98672670D01*
X87863762Y-98676956D01*
X87890917Y-98685090D01*
X87921264Y-98698301D01*
X87948742Y-98711700D01*
X88036486Y-98766863D01*
X88112883Y-98838621D01*
X88173920Y-98922902D01*
X88193603Y-98960193D01*
X88209050Y-98994148D01*
X88219222Y-99022277D01*
X88225215Y-99050834D01*
X88228126Y-99086070D01*
X88229049Y-99134236D01*
X88229109Y-99162725D01*
X88628882Y-99162725D01*
X88628924Y-99162259D01*
X88634306Y-99129175D01*
X88640316Y-99110935D01*
X88642294Y-99109090D01*
X88655615Y-99112911D01*
X88684235Y-99126080D01*
X88724428Y-99146729D01*
X88772467Y-99172991D01*
X88792584Y-99184387D01*
X88846800Y-99215225D01*
X88885393Y-99236303D01*
X88911868Y-99248909D01*
X88929728Y-99254328D01*
X88942477Y-99253846D01*
X88953618Y-99248752D01*
X88958832Y-99245435D01*
X88983432Y-99221846D01*
X88997670Y-99198071D01*
X89002010Y-99176658D01*
X88999001Y-99165443D01*
X88950484Y-99165443D01*
X88947339Y-99190219D01*
X88932354Y-99208327D01*
X88911950Y-99212559D01*
X88909274Y-99211729D01*
X88897325Y-99205347D01*
X88867625Y-99188706D01*
X88821554Y-99162596D01*
X88760486Y-99127804D01*
X88685798Y-99085120D01*
X88598868Y-99035331D01*
X88501072Y-98979227D01*
X88393786Y-98917595D01*
X88278387Y-98851225D01*
X88156251Y-98780905D01*
X88028756Y-98707422D01*
X88019283Y-98701959D01*
X87891251Y-98628035D01*
X87768403Y-98556929D01*
X87652128Y-98489456D01*
X87543813Y-98426429D01*
X87444848Y-98368661D01*
X87356620Y-98316966D01*
X87280519Y-98272159D01*
X87217932Y-98235051D01*
X87170248Y-98206458D01*
X87138855Y-98187192D01*
X87125143Y-98178068D01*
X87124914Y-98177862D01*
X87110327Y-98158585D01*
X87113172Y-98140900D01*
X87115054Y-98137716D01*
X87132089Y-98120349D01*
X87142510Y-98115549D01*
X87155013Y-98120365D01*
X87184856Y-98135467D01*
X87230419Y-98159915D01*
X87290081Y-98192767D01*
X87362222Y-98233082D01*
X87445222Y-98279919D01*
X87537459Y-98332338D01*
X87637314Y-98389398D01*
X87743166Y-98450156D01*
X87853395Y-98513674D01*
X87966381Y-98579008D01*
X88080502Y-98645220D01*
X88194139Y-98711367D01*
X88305671Y-98776508D01*
X88413477Y-98839703D01*
X88515938Y-98900010D01*
X88611433Y-98956489D01*
X88698341Y-99008199D01*
X88775042Y-99054199D01*
X88839916Y-99093547D01*
X88891342Y-99125302D01*
X88927700Y-99148525D01*
X88947369Y-99162273D01*
X88950484Y-99165443D01*
X88999001Y-99165443D01*
X88996488Y-99156079D01*
X88978994Y-99134222D01*
X88947415Y-99108972D01*
X88899642Y-99078216D01*
X88847544Y-99047770D01*
X88795653Y-99016885D01*
X88756976Y-98991109D01*
X88733843Y-98972100D01*
X88728110Y-98962681D01*
X88732997Y-98943073D01*
X88742882Y-98912473D01*
X88747595Y-98899249D01*
X88776055Y-98790564D01*
X88784328Y-98678392D01*
X88782586Y-98660314D01*
X88731039Y-98660314D01*
X88728907Y-98692077D01*
X88722861Y-98708243D01*
X88720025Y-98709370D01*
X88708376Y-98704017D01*
X88679556Y-98688687D01*
X88635509Y-98664469D01*
X88578176Y-98632454D01*
X88509502Y-98593732D01*
X88431428Y-98549392D01*
X88345898Y-98500525D01*
X88264482Y-98453766D01*
X88173842Y-98401507D01*
X88088951Y-98352413D01*
X88011755Y-98307622D01*
X87944199Y-98268268D01*
X87888231Y-98235489D01*
X87845798Y-98210420D01*
X87818845Y-98194199D01*
X87809457Y-98188126D01*
X87808818Y-98175067D01*
X87825765Y-98156513D01*
X87857287Y-98134952D01*
X87900376Y-98112872D01*
X87900565Y-98112787D01*
X87929803Y-98095541D01*
X87945336Y-98078180D01*
X87945529Y-98064406D01*
X87928745Y-98057920D01*
X87924865Y-98057804D01*
X87893583Y-98064207D01*
X87857701Y-98080702D01*
X87823222Y-98103221D01*
X87796144Y-98127695D01*
X87782469Y-98150055D01*
X87781848Y-98154780D01*
X87778452Y-98164333D01*
X87766253Y-98163859D01*
X87742232Y-98152362D01*
X87703526Y-98128944D01*
X87656653Y-98099355D01*
X87683359Y-98078993D01*
X87715431Y-98060246D01*
X87762785Y-98039567D01*
X87819033Y-98019293D01*
X87877786Y-98001761D01*
X87924326Y-97990876D01*
X88035182Y-97979919D01*
X88145897Y-97989255D01*
X88253967Y-98017217D01*
X88356888Y-98062137D01*
X88452158Y-98122348D01*
X88537272Y-98196182D01*
X88609727Y-98281973D01*
X88667019Y-98378054D01*
X88706645Y-98482756D01*
X88715127Y-98517534D01*
X88724032Y-98568434D01*
X88729375Y-98617563D01*
X88731039Y-98660314D01*
X88782586Y-98660314D01*
X88773437Y-98565406D01*
X88744408Y-98454279D01*
X88698263Y-98347687D01*
X88636026Y-98248302D01*
X88558720Y-98158799D01*
X88467370Y-98081851D01*
X88423643Y-98053056D01*
X88310600Y-97996570D01*
X88192313Y-97960056D01*
X88071325Y-97943247D01*
X87950184Y-97945877D01*
G36*
X83596370Y-101834674D02*
G01*
X89250630Y-101834674D01*
X89250630Y-99001480D01*
X89146792Y-99001480D01*
X89139727Y-99163238D01*
X89120495Y-99333315D01*
X89089791Y-99507150D01*
X89048312Y-99680184D01*
X88996752Y-99847857D01*
X88983426Y-99885500D01*
X88889014Y-100115011D01*
X88777026Y-100333184D01*
X88648350Y-100538897D01*
X88503872Y-100731029D01*
X88344480Y-100908456D01*
X88171062Y-101070058D01*
X87984504Y-101214710D01*
X87874746Y-101287817D01*
X87662669Y-101408703D01*
X87439098Y-101512368D01*
X87207099Y-101597747D01*
X86969740Y-101663780D01*
X86730087Y-101709403D01*
X86616761Y-101723573D01*
X86535341Y-101728861D01*
X86439194Y-101729999D01*
X86335240Y-101727215D01*
X86230400Y-101720737D01*
X86131597Y-101710791D01*
X86100211Y-101706603D01*
X86011237Y-101691408D01*
X85909464Y-101670027D01*
X85802132Y-101644276D01*
X85696481Y-101615973D01*
X85599752Y-101586934D01*
X85533780Y-101564440D01*
X85464689Y-101536975D01*
X85382515Y-101500897D01*
X85292878Y-101458971D01*
X85201394Y-101413961D01*
X85113682Y-101368630D01*
X85035359Y-101325743D01*
X84972255Y-101288195D01*
X84816307Y-101180715D01*
X84664181Y-101058942D01*
X84520439Y-100927056D01*
X84389644Y-100789238D01*
X84278850Y-100653022D01*
X84133495Y-100440096D01*
X84008963Y-100219822D01*
X83905186Y-99992020D01*
X83822094Y-99756511D01*
X83759619Y-99513116D01*
X83717693Y-99261654D01*
X83706005Y-99151446D01*
X83700208Y-99002564D01*
X83707273Y-98840805D01*
X83726505Y-98670729D01*
X83757209Y-98496894D01*
X83798688Y-98323860D01*
X83850248Y-98156186D01*
X83863574Y-98118543D01*
X83958549Y-97887702D01*
X84071165Y-97668549D01*
X84200628Y-97462088D01*
X84346142Y-97269324D01*
X84506914Y-97091264D01*
X84682148Y-96928912D01*
X84871051Y-96783273D01*
X84972255Y-96715848D01*
X85035640Y-96678141D01*
X85114010Y-96635238D01*
X85201748Y-96589904D01*
X85293236Y-96544900D01*
X85382855Y-96502992D01*
X85464988Y-96466943D01*
X85533780Y-96439603D01*
X85619524Y-96410847D01*
X85720181Y-96381422D01*
X85828712Y-96353090D01*
X85938078Y-96327618D01*
X86041241Y-96306770D01*
X86108761Y-96295458D01*
X86218822Y-96283330D01*
X86342124Y-96276885D01*
X86470565Y-96276122D01*
X86596043Y-96281042D01*
X86710454Y-96291644D01*
X86738239Y-96295458D01*
X86832399Y-96311803D01*
X86937915Y-96334064D01*
X87047748Y-96360476D01*
X87154859Y-96389273D01*
X87252210Y-96418693D01*
X87313220Y-96439603D01*
X87382312Y-96467069D01*
X87464485Y-96503146D01*
X87554123Y-96545072D01*
X87645606Y-96590082D01*
X87733318Y-96635413D01*
X87811641Y-96678301D01*
X87874746Y-96715848D01*
X88030693Y-96823328D01*
X88182819Y-96945101D01*
X88326561Y-97076987D01*
X88457356Y-97214805D01*
X88568150Y-97351022D01*
X88713505Y-97563948D01*
X88838037Y-97784222D01*
X88941815Y-98012023D01*
X89024906Y-98247532D01*
X89087381Y-98490928D01*
X89129307Y-98742390D01*
X89140995Y-98852598D01*
X89146792Y-99001480D01*
X89250630Y-99001480D01*
X89250630Y-96169370D01*
X83596370Y-96169370D01*
X83596370Y-101834674D01*
X83596370Y-101834674D01*
G37*
X83596370Y-101834674D02*
X89250630Y-101834674D01*
X89250630Y-99001480D01*
X89146792Y-99001480D01*
X89139727Y-99163238D01*
X89120495Y-99333315D01*
X89089791Y-99507150D01*
X89048312Y-99680184D01*
X88996752Y-99847857D01*
X88983426Y-99885500D01*
X88889014Y-100115011D01*
X88777026Y-100333184D01*
X88648350Y-100538897D01*
X88503872Y-100731029D01*
X88344480Y-100908456D01*
X88171062Y-101070058D01*
X87984504Y-101214710D01*
X87874746Y-101287817D01*
X87662669Y-101408703D01*
X87439098Y-101512368D01*
X87207099Y-101597747D01*
X86969740Y-101663780D01*
X86730087Y-101709403D01*
X86616761Y-101723573D01*
X86535341Y-101728861D01*
X86439194Y-101729999D01*
X86335240Y-101727215D01*
X86230400Y-101720737D01*
X86131597Y-101710791D01*
X86100211Y-101706603D01*
X86011237Y-101691408D01*
X85909464Y-101670027D01*
X85802132Y-101644276D01*
X85696481Y-101615973D01*
X85599752Y-101586934D01*
X85533780Y-101564440D01*
X85464689Y-101536975D01*
X85382515Y-101500897D01*
X85292878Y-101458971D01*
X85201394Y-101413961D01*
X85113682Y-101368630D01*
X85035359Y-101325743D01*
X84972255Y-101288195D01*
X84816307Y-101180715D01*
X84664181Y-101058942D01*
X84520439Y-100927056D01*
X84389644Y-100789238D01*
X84278850Y-100653022D01*
X84133495Y-100440096D01*
X84008963Y-100219822D01*
X83905186Y-99992020D01*
X83822094Y-99756511D01*
X83759619Y-99513116D01*
X83717693Y-99261654D01*
X83706005Y-99151446D01*
X83700208Y-99002564D01*
X83707273Y-98840805D01*
X83726505Y-98670729D01*
X83757209Y-98496894D01*
X83798688Y-98323860D01*
X83850248Y-98156186D01*
X83863574Y-98118543D01*
X83958549Y-97887702D01*
X84071165Y-97668549D01*
X84200628Y-97462088D01*
X84346142Y-97269324D01*
X84506914Y-97091264D01*
X84682148Y-96928912D01*
X84871051Y-96783273D01*
X84972255Y-96715848D01*
X85035640Y-96678141D01*
X85114010Y-96635238D01*
X85201748Y-96589904D01*
X85293236Y-96544900D01*
X85382855Y-96502992D01*
X85464988Y-96466943D01*
X85533780Y-96439603D01*
X85619524Y-96410847D01*
X85720181Y-96381422D01*
X85828712Y-96353090D01*
X85938078Y-96327618D01*
X86041241Y-96306770D01*
X86108761Y-96295458D01*
X86218822Y-96283330D01*
X86342124Y-96276885D01*
X86470565Y-96276122D01*
X86596043Y-96281042D01*
X86710454Y-96291644D01*
X86738239Y-96295458D01*
X86832399Y-96311803D01*
X86937915Y-96334064D01*
X87047748Y-96360476D01*
X87154859Y-96389273D01*
X87252210Y-96418693D01*
X87313220Y-96439603D01*
X87382312Y-96467069D01*
X87464485Y-96503146D01*
X87554123Y-96545072D01*
X87645606Y-96590082D01*
X87733318Y-96635413D01*
X87811641Y-96678301D01*
X87874746Y-96715848D01*
X88030693Y-96823328D01*
X88182819Y-96945101D01*
X88326561Y-97076987D01*
X88457356Y-97214805D01*
X88568150Y-97351022D01*
X88713505Y-97563948D01*
X88838037Y-97784222D01*
X88941815Y-98012023D01*
X89024906Y-98247532D01*
X89087381Y-98490928D01*
X89129307Y-98742390D01*
X89140995Y-98852598D01*
X89146792Y-99001480D01*
X89250630Y-99001480D01*
X89250630Y-96169370D01*
X83596370Y-96169370D01*
X83596370Y-101834674D01*
D13*
X91500000Y-125790000D02*
X91500000Y-124460000D01*
X90170000Y-125790000D02*
X91500000Y-125790000D01*
X91500000Y-123190000D02*
X91500000Y-120590000D01*
X88900000Y-123190000D02*
X91500000Y-123190000D01*
X88900000Y-125790000D02*
X88900000Y-123190000D01*
X91500000Y-120590000D02*
X81220000Y-120590000D01*
X88900000Y-125790000D02*
X81220000Y-125790000D01*
X81220000Y-125790000D02*
X81220000Y-120590000D01*
X86962064Y-117835000D02*
X85757936Y-117835000D01*
X86962064Y-119655000D02*
X85757936Y-119655000D01*
X82950000Y-111120000D02*
X84210000Y-111120000D01*
X89770000Y-111120000D02*
X88510000Y-111120000D01*
X82950000Y-114880000D02*
X82950000Y-111120000D01*
X89770000Y-117130000D02*
X89770000Y-111120000D01*
D11*
X80097380Y-122428095D02*
X80906904Y-122428095D01*
X81002142Y-122475714D01*
X81049761Y-122523333D01*
X81097380Y-122618571D01*
X81097380Y-122809047D01*
X81049761Y-122904285D01*
X81002142Y-122951904D01*
X80906904Y-122999523D01*
X80097380Y-122999523D01*
X80097380Y-123380476D02*
X80097380Y-123999523D01*
X80478333Y-123666190D01*
X80478333Y-123809047D01*
X80525952Y-123904285D01*
X80573571Y-123951904D01*
X80668809Y-123999523D01*
X80906904Y-123999523D01*
X81002142Y-123951904D01*
X81049761Y-123904285D01*
X81097380Y-123809047D01*
X81097380Y-123523333D01*
X81049761Y-123428095D01*
X81002142Y-123380476D01*
X83326266Y-119095780D02*
X83659600Y-118619590D01*
X83897695Y-119095780D02*
X83897695Y-118095780D01*
X83516742Y-118095780D01*
X83421504Y-118143400D01*
X83373885Y-118191019D01*
X83326266Y-118286257D01*
X83326266Y-118429114D01*
X83373885Y-118524352D01*
X83421504Y-118571971D01*
X83516742Y-118619590D01*
X83897695Y-118619590D01*
X82373885Y-119095780D02*
X82945314Y-119095780D01*
X82659600Y-119095780D02*
X82659600Y-118095780D01*
X82754838Y-118238638D01*
X82850076Y-118333876D01*
X82945314Y-118381495D01*
X87248904Y-112736380D02*
X87248904Y-113545904D01*
X87201285Y-113641142D01*
X87153666Y-113688761D01*
X87058428Y-113736380D01*
X86867952Y-113736380D01*
X86772714Y-113688761D01*
X86725095Y-113641142D01*
X86677476Y-113545904D01*
X86677476Y-112736380D01*
X86248904Y-112831619D02*
X86201285Y-112784000D01*
X86106047Y-112736380D01*
X85867952Y-112736380D01*
X85772714Y-112784000D01*
X85725095Y-112831619D01*
X85677476Y-112926857D01*
X85677476Y-113022095D01*
X85725095Y-113164952D01*
X86296523Y-113736380D01*
X85677476Y-113736380D01*
M02*
