G04 #@! TF.GenerationSoftware,KiCad,Pcbnew,(5.1.4)-1*
G04 #@! TF.CreationDate,2020-05-13T10:23:39+02:00*
G04 #@! TF.ProjectId,Pacifista_TinyFPGA,50616369-6669-4737-9461-5f54696e7946,rev?*
G04 #@! TF.SameCoordinates,Original*
G04 #@! TF.FileFunction,Legend,Top*
G04 #@! TF.FilePolarity,Positive*
%FSLAX46Y46*%
G04 Gerber Fmt 4.6, Leading zero omitted, Abs format (unit mm)*
G04 Created by KiCad (PCBNEW (5.1.4)-1) date 2020-05-13 10:23:39*
%MOMM*%
%LPD*%
G04 APERTURE LIST*
%ADD10C,0.200000*%
%ADD11C,0.125000*%
%ADD12C,0.250000*%
%ADD13C,0.120000*%
%ADD14C,0.150000*%
%ADD15C,0.170000*%
G04 APERTURE END LIST*
D10*
X105537000Y-108458000D02*
X106299000Y-108966000D01*
X66548000Y-108966000D02*
X66548000Y-124460000D01*
X67310000Y-108458000D02*
X66548000Y-108966000D01*
X103505000Y-124460000D02*
X102743000Y-124968000D01*
X68707000Y-108458000D02*
X67945000Y-108966000D01*
X67945000Y-108966000D02*
X67945000Y-124460000D01*
X106299000Y-108966000D02*
X106299000Y-124460000D01*
X104140000Y-108458000D02*
X104902000Y-108966000D01*
X104902000Y-108966000D02*
X104902000Y-124460000D01*
X102743000Y-108458000D02*
X103505000Y-108966000D01*
X103505000Y-108966000D02*
X103505000Y-124460000D01*
D11*
X105672000Y-107695904D02*
X105624380Y-107791142D01*
X105624380Y-107934000D01*
X105672000Y-108076857D01*
X105767238Y-108172095D01*
X105862476Y-108219714D01*
X106052952Y-108267333D01*
X106195809Y-108267333D01*
X106386285Y-108219714D01*
X106481523Y-108172095D01*
X106576761Y-108076857D01*
X106624380Y-107934000D01*
X106624380Y-107838761D01*
X106576761Y-107695904D01*
X106529142Y-107648285D01*
X106195809Y-107648285D01*
X106195809Y-107838761D01*
X106624380Y-107219714D02*
X105624380Y-107219714D01*
X106624380Y-106648285D01*
X105624380Y-106648285D01*
X106624380Y-106172095D02*
X105624380Y-106172095D01*
X105624380Y-105934000D01*
X105672000Y-105791142D01*
X105767238Y-105695904D01*
X105862476Y-105648285D01*
X106052952Y-105600666D01*
X106195809Y-105600666D01*
X106386285Y-105648285D01*
X106481523Y-105695904D01*
X106576761Y-105791142D01*
X106624380Y-105934000D01*
X106624380Y-106172095D01*
X68159380Y-115331904D02*
X68159380Y-115808095D01*
X68635571Y-115855714D01*
X68587952Y-115808095D01*
X68540333Y-115712857D01*
X68540333Y-115474761D01*
X68587952Y-115379523D01*
X68635571Y-115331904D01*
X68730809Y-115284285D01*
X68968904Y-115284285D01*
X69064142Y-115331904D01*
X69111761Y-115379523D01*
X69159380Y-115474761D01*
X69159380Y-115712857D01*
X69111761Y-115808095D01*
X69064142Y-115855714D01*
X68492714Y-112839523D02*
X69159380Y-112839523D01*
X68111761Y-113077619D02*
X68826047Y-113315714D01*
X68826047Y-112696666D01*
X68159380Y-110823333D02*
X68159380Y-110204285D01*
X68540333Y-110537619D01*
X68540333Y-110394761D01*
X68587952Y-110299523D01*
X68635571Y-110251904D01*
X68730809Y-110204285D01*
X68968904Y-110204285D01*
X69064142Y-110251904D01*
X69111761Y-110299523D01*
X69159380Y-110394761D01*
X69159380Y-110680476D01*
X69111761Y-110775714D01*
X69064142Y-110823333D01*
D12*
X78128952Y-100766571D02*
X78271809Y-100814190D01*
X78319428Y-100861809D01*
X78367047Y-100957047D01*
X78367047Y-101099904D01*
X78319428Y-101195142D01*
X78271809Y-101242761D01*
X78176571Y-101290380D01*
X77795619Y-101290380D01*
X77795619Y-100290380D01*
X78128952Y-100290380D01*
X78224190Y-100338000D01*
X78271809Y-100385619D01*
X78319428Y-100480857D01*
X78319428Y-100576095D01*
X78271809Y-100671333D01*
X78224190Y-100718952D01*
X78128952Y-100766571D01*
X77795619Y-100766571D01*
X78748000Y-101004666D02*
X79224190Y-101004666D01*
X78652761Y-101290380D02*
X78986095Y-100290380D01*
X79319428Y-101290380D01*
X79509904Y-100290380D02*
X80081333Y-100290380D01*
X79795619Y-101290380D02*
X79795619Y-100290380D01*
X80271809Y-100290380D02*
X80843238Y-100290380D01*
X80557523Y-101290380D02*
X80557523Y-100290380D01*
X78486095Y-98052000D02*
X78390857Y-98004380D01*
X78248000Y-98004380D01*
X78105142Y-98052000D01*
X78009904Y-98147238D01*
X77962285Y-98242476D01*
X77914666Y-98432952D01*
X77914666Y-98575809D01*
X77962285Y-98766285D01*
X78009904Y-98861523D01*
X78105142Y-98956761D01*
X78248000Y-99004380D01*
X78343238Y-99004380D01*
X78486095Y-98956761D01*
X78533714Y-98909142D01*
X78533714Y-98575809D01*
X78343238Y-98575809D01*
X78962285Y-99004380D02*
X78962285Y-98004380D01*
X79533714Y-99004380D01*
X79533714Y-98004380D01*
X80009904Y-99004380D02*
X80009904Y-98004380D01*
X80248000Y-98004380D01*
X80390857Y-98052000D01*
X80486095Y-98147238D01*
X80533714Y-98242476D01*
X80581333Y-98432952D01*
X80581333Y-98575809D01*
X80533714Y-98766285D01*
X80486095Y-98861523D01*
X80390857Y-98956761D01*
X80248000Y-99004380D01*
X80009904Y-99004380D01*
D11*
X70000761Y-108235714D02*
X70048380Y-108092857D01*
X70048380Y-107854761D01*
X70000761Y-107759523D01*
X69953142Y-107711904D01*
X69857904Y-107664285D01*
X69762666Y-107664285D01*
X69667428Y-107711904D01*
X69619809Y-107759523D01*
X69572190Y-107854761D01*
X69524571Y-108045238D01*
X69476952Y-108140476D01*
X69429333Y-108188095D01*
X69334095Y-108235714D01*
X69238857Y-108235714D01*
X69143619Y-108188095D01*
X69096000Y-108140476D01*
X69048380Y-108045238D01*
X69048380Y-107807142D01*
X69096000Y-107664285D01*
X66302000Y-107695904D02*
X66254380Y-107791142D01*
X66254380Y-107934000D01*
X66302000Y-108076857D01*
X66397238Y-108172095D01*
X66492476Y-108219714D01*
X66682952Y-108267333D01*
X66825809Y-108267333D01*
X67016285Y-108219714D01*
X67111523Y-108172095D01*
X67206761Y-108076857D01*
X67254380Y-107934000D01*
X67254380Y-107838761D01*
X67206761Y-107695904D01*
X67159142Y-107648285D01*
X66825809Y-107648285D01*
X66825809Y-107838761D01*
X67254380Y-107219714D02*
X66254380Y-107219714D01*
X67254380Y-106648285D01*
X66254380Y-106648285D01*
X67254380Y-106172095D02*
X66254380Y-106172095D01*
X66254380Y-105934000D01*
X66302000Y-105791142D01*
X66397238Y-105695904D01*
X66492476Y-105648285D01*
X66682952Y-105600666D01*
X66825809Y-105600666D01*
X67016285Y-105648285D01*
X67111523Y-105695904D01*
X67206761Y-105791142D01*
X67254380Y-105934000D01*
X67254380Y-106172095D01*
X68159380Y-120983333D02*
X68159380Y-120316666D01*
X69159380Y-120745238D01*
X103814619Y-118871904D02*
X103767000Y-118824285D01*
X103719380Y-118729047D01*
X103719380Y-118490952D01*
X103767000Y-118395714D01*
X103814619Y-118348095D01*
X103909857Y-118300476D01*
X104005095Y-118300476D01*
X104147952Y-118348095D01*
X104719380Y-118919523D01*
X104719380Y-118300476D01*
X104719380Y-117348095D02*
X104719380Y-117919523D01*
X104719380Y-117633809D02*
X103719380Y-117633809D01*
X103862238Y-117729047D01*
X103957476Y-117824285D01*
X104005095Y-117919523D01*
X103814619Y-113791904D02*
X103767000Y-113744285D01*
X103719380Y-113649047D01*
X103719380Y-113410952D01*
X103767000Y-113315714D01*
X103814619Y-113268095D01*
X103909857Y-113220476D01*
X104005095Y-113220476D01*
X104147952Y-113268095D01*
X104719380Y-113839523D01*
X104719380Y-113220476D01*
X103719380Y-112887142D02*
X103719380Y-112268095D01*
X104100333Y-112601428D01*
X104100333Y-112458571D01*
X104147952Y-112363333D01*
X104195571Y-112315714D01*
X104290809Y-112268095D01*
X104528904Y-112268095D01*
X104624142Y-112315714D01*
X104671761Y-112363333D01*
X104719380Y-112458571D01*
X104719380Y-112744285D01*
X104671761Y-112839523D01*
X104624142Y-112887142D01*
X103782761Y-108235714D02*
X103830380Y-108092857D01*
X103830380Y-107854761D01*
X103782761Y-107759523D01*
X103735142Y-107711904D01*
X103639904Y-107664285D01*
X103544666Y-107664285D01*
X103449428Y-107711904D01*
X103401809Y-107759523D01*
X103354190Y-107854761D01*
X103306571Y-108045238D01*
X103258952Y-108140476D01*
X103211333Y-108188095D01*
X103116095Y-108235714D01*
X103020857Y-108235714D01*
X102925619Y-108188095D01*
X102878000Y-108140476D01*
X102830380Y-108045238D01*
X102830380Y-107807142D01*
X102878000Y-107664285D01*
X103814619Y-121411904D02*
X103767000Y-121364285D01*
X103719380Y-121269047D01*
X103719380Y-121030952D01*
X103767000Y-120935714D01*
X103814619Y-120888095D01*
X103909857Y-120840476D01*
X104005095Y-120840476D01*
X104147952Y-120888095D01*
X104719380Y-121459523D01*
X104719380Y-120840476D01*
X103719380Y-120221428D02*
X103719380Y-120126190D01*
X103767000Y-120030952D01*
X103814619Y-119983333D01*
X103909857Y-119935714D01*
X104100333Y-119888095D01*
X104338428Y-119888095D01*
X104528904Y-119935714D01*
X104624142Y-119983333D01*
X104671761Y-120030952D01*
X104719380Y-120126190D01*
X104719380Y-120221428D01*
X104671761Y-120316666D01*
X104624142Y-120364285D01*
X104528904Y-120411904D01*
X104338428Y-120459523D01*
X104100333Y-120459523D01*
X103909857Y-120411904D01*
X103814619Y-120364285D01*
X103767000Y-120316666D01*
X103719380Y-120221428D01*
X104703571Y-107886380D02*
X104751190Y-107743523D01*
X104798809Y-107695904D01*
X104894047Y-107648285D01*
X105036904Y-107648285D01*
X105132142Y-107695904D01*
X105179761Y-107743523D01*
X105227380Y-107838761D01*
X105227380Y-108219714D01*
X104227380Y-108219714D01*
X104227380Y-107886380D01*
X104275000Y-107791142D01*
X104322619Y-107743523D01*
X104417857Y-107695904D01*
X104513095Y-107695904D01*
X104608333Y-107743523D01*
X104655952Y-107791142D01*
X104703571Y-107886380D01*
X104703571Y-108219714D01*
X105227380Y-106791142D02*
X104703571Y-106791142D01*
X104608333Y-106838761D01*
X104560714Y-106934000D01*
X104560714Y-107124476D01*
X104608333Y-107219714D01*
X105179761Y-106791142D02*
X105227380Y-106886380D01*
X105227380Y-107124476D01*
X105179761Y-107219714D01*
X105084523Y-107267333D01*
X104989285Y-107267333D01*
X104894047Y-107219714D01*
X104846428Y-107124476D01*
X104846428Y-106886380D01*
X104798809Y-106791142D01*
X104560714Y-106457809D02*
X104560714Y-106076857D01*
X104227380Y-106314952D02*
X105084523Y-106314952D01*
X105179761Y-106267333D01*
X105227380Y-106172095D01*
X105227380Y-106076857D01*
X104560714Y-105886380D02*
X104560714Y-105505428D01*
X104227380Y-105743523D02*
X105084523Y-105743523D01*
X105179761Y-105695904D01*
X105227380Y-105600666D01*
X105227380Y-105505428D01*
X103814619Y-111251904D02*
X103767000Y-111204285D01*
X103719380Y-111109047D01*
X103719380Y-110870952D01*
X103767000Y-110775714D01*
X103814619Y-110728095D01*
X103909857Y-110680476D01*
X104005095Y-110680476D01*
X104147952Y-110728095D01*
X104719380Y-111299523D01*
X104719380Y-110680476D01*
X104052714Y-109823333D02*
X104719380Y-109823333D01*
X103671761Y-110061428D02*
X104386047Y-110299523D01*
X104386047Y-109680476D01*
X68159380Y-117919523D02*
X68159380Y-118110000D01*
X68207000Y-118205238D01*
X68254619Y-118252857D01*
X68397476Y-118348095D01*
X68587952Y-118395714D01*
X68968904Y-118395714D01*
X69064142Y-118348095D01*
X69111761Y-118300476D01*
X69159380Y-118205238D01*
X69159380Y-118014761D01*
X69111761Y-117919523D01*
X69064142Y-117871904D01*
X68968904Y-117824285D01*
X68730809Y-117824285D01*
X68635571Y-117871904D01*
X68587952Y-117919523D01*
X68540333Y-118014761D01*
X68540333Y-118205238D01*
X68587952Y-118300476D01*
X68635571Y-118348095D01*
X68730809Y-118395714D01*
X104719380Y-123380476D02*
X104719380Y-123951904D01*
X104719380Y-123666190D02*
X103719380Y-123666190D01*
X103862238Y-123761428D01*
X103957476Y-123856666D01*
X104005095Y-123951904D01*
X104719380Y-122904285D02*
X104719380Y-122713809D01*
X104671761Y-122618571D01*
X104624142Y-122570952D01*
X104481285Y-122475714D01*
X104290809Y-122428095D01*
X103909857Y-122428095D01*
X103814619Y-122475714D01*
X103767000Y-122523333D01*
X103719380Y-122618571D01*
X103719380Y-122809047D01*
X103767000Y-122904285D01*
X103814619Y-122951904D01*
X103909857Y-122999523D01*
X104147952Y-122999523D01*
X104243190Y-122951904D01*
X104290809Y-122904285D01*
X104338428Y-122809047D01*
X104338428Y-122618571D01*
X104290809Y-122523333D01*
X104243190Y-122475714D01*
X104147952Y-122428095D01*
X68127571Y-107886380D02*
X68175190Y-107743523D01*
X68222809Y-107695904D01*
X68318047Y-107648285D01*
X68460904Y-107648285D01*
X68556142Y-107695904D01*
X68603761Y-107743523D01*
X68651380Y-107838761D01*
X68651380Y-108219714D01*
X67651380Y-108219714D01*
X67651380Y-107886380D01*
X67699000Y-107791142D01*
X67746619Y-107743523D01*
X67841857Y-107695904D01*
X67937095Y-107695904D01*
X68032333Y-107743523D01*
X68079952Y-107791142D01*
X68127571Y-107886380D01*
X68127571Y-108219714D01*
X68651380Y-106791142D02*
X68127571Y-106791142D01*
X68032333Y-106838761D01*
X67984714Y-106934000D01*
X67984714Y-107124476D01*
X68032333Y-107219714D01*
X68603761Y-106791142D02*
X68651380Y-106886380D01*
X68651380Y-107124476D01*
X68603761Y-107219714D01*
X68508523Y-107267333D01*
X68413285Y-107267333D01*
X68318047Y-107219714D01*
X68270428Y-107124476D01*
X68270428Y-106886380D01*
X68222809Y-106791142D01*
X67984714Y-106457809D02*
X67984714Y-106076857D01*
X67651380Y-106314952D02*
X68508523Y-106314952D01*
X68603761Y-106267333D01*
X68651380Y-106172095D01*
X68651380Y-106076857D01*
X67984714Y-105886380D02*
X67984714Y-105505428D01*
X67651380Y-105743523D02*
X68508523Y-105743523D01*
X68603761Y-105695904D01*
X68651380Y-105600666D01*
X68651380Y-105505428D01*
X103814619Y-116331904D02*
X103767000Y-116284285D01*
X103719380Y-116189047D01*
X103719380Y-115950952D01*
X103767000Y-115855714D01*
X103814619Y-115808095D01*
X103909857Y-115760476D01*
X104005095Y-115760476D01*
X104147952Y-115808095D01*
X104719380Y-116379523D01*
X104719380Y-115760476D01*
X103814619Y-115379523D02*
X103767000Y-115331904D01*
X103719380Y-115236666D01*
X103719380Y-114998571D01*
X103767000Y-114903333D01*
X103814619Y-114855714D01*
X103909857Y-114808095D01*
X104005095Y-114808095D01*
X104147952Y-114855714D01*
X104719380Y-115427142D01*
X104719380Y-114808095D01*
X68587952Y-123285238D02*
X68540333Y-123380476D01*
X68492714Y-123428095D01*
X68397476Y-123475714D01*
X68349857Y-123475714D01*
X68254619Y-123428095D01*
X68207000Y-123380476D01*
X68159380Y-123285238D01*
X68159380Y-123094761D01*
X68207000Y-122999523D01*
X68254619Y-122951904D01*
X68349857Y-122904285D01*
X68397476Y-122904285D01*
X68492714Y-122951904D01*
X68540333Y-122999523D01*
X68587952Y-123094761D01*
X68587952Y-123285238D01*
X68635571Y-123380476D01*
X68683190Y-123428095D01*
X68778428Y-123475714D01*
X68968904Y-123475714D01*
X69064142Y-123428095D01*
X69111761Y-123380476D01*
X69159380Y-123285238D01*
X69159380Y-123094761D01*
X69111761Y-122999523D01*
X69064142Y-122951904D01*
X68968904Y-122904285D01*
X68778428Y-122904285D01*
X68683190Y-122951904D01*
X68635571Y-122999523D01*
X68587952Y-123094761D01*
D10*
X69342000Y-124460000D02*
X69342000Y-124714000D01*
X69342000Y-108966000D02*
X69342000Y-124460000D01*
X69342000Y-124714000D02*
X70104000Y-125222000D01*
X70104000Y-108458000D02*
X69342000Y-108966000D01*
D13*
X96520000Y-124520000D02*
X95190000Y-124520000D01*
X95190000Y-124520000D02*
X95190000Y-123190000D01*
X95190000Y-121920000D02*
X95190000Y-109160000D01*
X97850000Y-109160000D02*
X95190000Y-109160000D01*
X97850000Y-121920000D02*
X97850000Y-109160000D01*
X97850000Y-121920000D02*
X95190000Y-121920000D01*
X105410000Y-129540000D02*
G75*
G03X105410000Y-129540000I-5120000J0D01*
G01*
X100290000Y-124460000D02*
X100290000Y-134620000D01*
X100330000Y-124460000D02*
X100330000Y-134620000D01*
X100370000Y-124460000D02*
X100370000Y-134620000D01*
X100410000Y-124461000D02*
X100410000Y-134619000D01*
X100450000Y-124462000D02*
X100450000Y-134618000D01*
X100490000Y-124463000D02*
X100490000Y-134617000D01*
X100530000Y-124465000D02*
X100530000Y-134615000D01*
X100570000Y-124467000D02*
X100570000Y-134613000D01*
X100610000Y-124470000D02*
X100610000Y-134610000D01*
X100650000Y-124472000D02*
X100650000Y-134608000D01*
X100690000Y-124475000D02*
X100690000Y-134605000D01*
X100730000Y-124478000D02*
X100730000Y-134602000D01*
X100770000Y-124482000D02*
X100770000Y-134598000D01*
X100810000Y-124486000D02*
X100810000Y-134594000D01*
X100850000Y-124490000D02*
X100850000Y-134590000D01*
X100890000Y-124495000D02*
X100890000Y-134585000D01*
X100930000Y-124500000D02*
X100930000Y-134580000D01*
X100970000Y-124505000D02*
X100970000Y-134575000D01*
X101011000Y-124510000D02*
X101011000Y-134570000D01*
X101051000Y-124516000D02*
X101051000Y-134564000D01*
X101091000Y-124522000D02*
X101091000Y-134558000D01*
X101131000Y-124529000D02*
X101131000Y-134551000D01*
X101171000Y-124536000D02*
X101171000Y-134544000D01*
X101211000Y-124543000D02*
X101211000Y-134537000D01*
X101251000Y-124550000D02*
X101251000Y-134530000D01*
X101291000Y-124558000D02*
X101291000Y-134522000D01*
X101331000Y-124566000D02*
X101331000Y-134514000D01*
X101371000Y-124575000D02*
X101371000Y-134505000D01*
X101411000Y-124584000D02*
X101411000Y-134496000D01*
X101451000Y-124593000D02*
X101451000Y-134487000D01*
X101491000Y-124602000D02*
X101491000Y-134478000D01*
X101531000Y-124612000D02*
X101531000Y-134468000D01*
X101571000Y-124622000D02*
X101571000Y-128299000D01*
X101571000Y-130781000D02*
X101571000Y-134458000D01*
X101611000Y-124633000D02*
X101611000Y-128299000D01*
X101611000Y-130781000D02*
X101611000Y-134447000D01*
X101651000Y-124643000D02*
X101651000Y-128299000D01*
X101651000Y-130781000D02*
X101651000Y-134437000D01*
X101691000Y-124655000D02*
X101691000Y-128299000D01*
X101691000Y-130781000D02*
X101691000Y-134425000D01*
X101731000Y-124666000D02*
X101731000Y-128299000D01*
X101731000Y-130781000D02*
X101731000Y-134414000D01*
X101771000Y-124678000D02*
X101771000Y-128299000D01*
X101771000Y-130781000D02*
X101771000Y-134402000D01*
X101811000Y-124690000D02*
X101811000Y-128299000D01*
X101811000Y-130781000D02*
X101811000Y-134390000D01*
X101851000Y-124703000D02*
X101851000Y-128299000D01*
X101851000Y-130781000D02*
X101851000Y-134377000D01*
X101891000Y-124716000D02*
X101891000Y-128299000D01*
X101891000Y-130781000D02*
X101891000Y-134364000D01*
X101931000Y-124729000D02*
X101931000Y-128299000D01*
X101931000Y-130781000D02*
X101931000Y-134351000D01*
X101971000Y-124743000D02*
X101971000Y-128299000D01*
X101971000Y-130781000D02*
X101971000Y-134337000D01*
X102011000Y-124757000D02*
X102011000Y-128299000D01*
X102011000Y-130781000D02*
X102011000Y-134323000D01*
X102051000Y-124772000D02*
X102051000Y-128299000D01*
X102051000Y-130781000D02*
X102051000Y-134308000D01*
X102091000Y-124786000D02*
X102091000Y-128299000D01*
X102091000Y-130781000D02*
X102091000Y-134294000D01*
X102131000Y-124802000D02*
X102131000Y-128299000D01*
X102131000Y-130781000D02*
X102131000Y-134278000D01*
X102171000Y-124817000D02*
X102171000Y-128299000D01*
X102171000Y-130781000D02*
X102171000Y-134263000D01*
X102211000Y-124833000D02*
X102211000Y-128299000D01*
X102211000Y-130781000D02*
X102211000Y-134247000D01*
X102251000Y-124850000D02*
X102251000Y-128299000D01*
X102251000Y-130781000D02*
X102251000Y-134230000D01*
X102291000Y-124866000D02*
X102291000Y-128299000D01*
X102291000Y-130781000D02*
X102291000Y-134214000D01*
X102331000Y-124883000D02*
X102331000Y-128299000D01*
X102331000Y-130781000D02*
X102331000Y-134197000D01*
X102371000Y-124901000D02*
X102371000Y-128299000D01*
X102371000Y-130781000D02*
X102371000Y-134179000D01*
X102411000Y-124919000D02*
X102411000Y-128299000D01*
X102411000Y-130781000D02*
X102411000Y-134161000D01*
X102451000Y-124937000D02*
X102451000Y-128299000D01*
X102451000Y-130781000D02*
X102451000Y-134143000D01*
X102491000Y-124956000D02*
X102491000Y-128299000D01*
X102491000Y-130781000D02*
X102491000Y-134124000D01*
X102531000Y-124976000D02*
X102531000Y-128299000D01*
X102531000Y-130781000D02*
X102531000Y-134104000D01*
X102571000Y-124995000D02*
X102571000Y-128299000D01*
X102571000Y-130781000D02*
X102571000Y-134085000D01*
X102611000Y-125015000D02*
X102611000Y-128299000D01*
X102611000Y-130781000D02*
X102611000Y-134065000D01*
X102651000Y-125036000D02*
X102651000Y-128299000D01*
X102651000Y-130781000D02*
X102651000Y-134044000D01*
X102691000Y-125057000D02*
X102691000Y-128299000D01*
X102691000Y-130781000D02*
X102691000Y-134023000D01*
X102731000Y-125078000D02*
X102731000Y-128299000D01*
X102731000Y-130781000D02*
X102731000Y-134002000D01*
X102771000Y-125100000D02*
X102771000Y-128299000D01*
X102771000Y-130781000D02*
X102771000Y-133980000D01*
X102811000Y-125123000D02*
X102811000Y-128299000D01*
X102811000Y-130781000D02*
X102811000Y-133957000D01*
X102851000Y-125145000D02*
X102851000Y-128299000D01*
X102851000Y-130781000D02*
X102851000Y-133935000D01*
X102891000Y-125169000D02*
X102891000Y-128299000D01*
X102891000Y-130781000D02*
X102891000Y-133911000D01*
X102931000Y-125193000D02*
X102931000Y-128299000D01*
X102931000Y-130781000D02*
X102931000Y-133887000D01*
X102971000Y-125217000D02*
X102971000Y-128299000D01*
X102971000Y-130781000D02*
X102971000Y-133863000D01*
X103011000Y-125242000D02*
X103011000Y-128299000D01*
X103011000Y-130781000D02*
X103011000Y-133838000D01*
X103051000Y-125267000D02*
X103051000Y-128299000D01*
X103051000Y-130781000D02*
X103051000Y-133813000D01*
X103091000Y-125293000D02*
X103091000Y-128299000D01*
X103091000Y-130781000D02*
X103091000Y-133787000D01*
X103131000Y-125319000D02*
X103131000Y-128299000D01*
X103131000Y-130781000D02*
X103131000Y-133761000D01*
X103171000Y-125346000D02*
X103171000Y-128299000D01*
X103171000Y-130781000D02*
X103171000Y-133734000D01*
X103211000Y-125374000D02*
X103211000Y-128299000D01*
X103211000Y-130781000D02*
X103211000Y-133706000D01*
X103251000Y-125402000D02*
X103251000Y-128299000D01*
X103251000Y-130781000D02*
X103251000Y-133678000D01*
X103291000Y-125430000D02*
X103291000Y-128299000D01*
X103291000Y-130781000D02*
X103291000Y-133650000D01*
X103331000Y-125460000D02*
X103331000Y-128299000D01*
X103331000Y-130781000D02*
X103331000Y-133620000D01*
X103371000Y-125490000D02*
X103371000Y-128299000D01*
X103371000Y-130781000D02*
X103371000Y-133590000D01*
X103411000Y-125520000D02*
X103411000Y-128299000D01*
X103411000Y-130781000D02*
X103411000Y-133560000D01*
X103451000Y-125551000D02*
X103451000Y-128299000D01*
X103451000Y-130781000D02*
X103451000Y-133529000D01*
X103491000Y-125583000D02*
X103491000Y-128299000D01*
X103491000Y-130781000D02*
X103491000Y-133497000D01*
X103531000Y-125615000D02*
X103531000Y-128299000D01*
X103531000Y-130781000D02*
X103531000Y-133465000D01*
X103571000Y-125648000D02*
X103571000Y-128299000D01*
X103571000Y-130781000D02*
X103571000Y-133432000D01*
X103611000Y-125682000D02*
X103611000Y-128299000D01*
X103611000Y-130781000D02*
X103611000Y-133398000D01*
X103651000Y-125716000D02*
X103651000Y-128299000D01*
X103651000Y-130781000D02*
X103651000Y-133364000D01*
X103691000Y-125751000D02*
X103691000Y-128299000D01*
X103691000Y-130781000D02*
X103691000Y-133329000D01*
X103731000Y-125787000D02*
X103731000Y-128299000D01*
X103731000Y-130781000D02*
X103731000Y-133293000D01*
X103771000Y-125824000D02*
X103771000Y-128299000D01*
X103771000Y-130781000D02*
X103771000Y-133256000D01*
X103811000Y-125861000D02*
X103811000Y-128299000D01*
X103811000Y-130781000D02*
X103811000Y-133219000D01*
X103851000Y-125900000D02*
X103851000Y-128299000D01*
X103851000Y-130781000D02*
X103851000Y-133180000D01*
X103891000Y-125939000D02*
X103891000Y-128299000D01*
X103891000Y-130781000D02*
X103891000Y-133141000D01*
X103931000Y-125979000D02*
X103931000Y-128299000D01*
X103931000Y-130781000D02*
X103931000Y-133101000D01*
X103971000Y-126020000D02*
X103971000Y-128299000D01*
X103971000Y-130781000D02*
X103971000Y-133060000D01*
X104011000Y-126062000D02*
X104011000Y-128299000D01*
X104011000Y-130781000D02*
X104011000Y-133018000D01*
X104051000Y-126104000D02*
X104051000Y-132976000D01*
X104091000Y-126148000D02*
X104091000Y-132932000D01*
X104131000Y-126193000D02*
X104131000Y-132887000D01*
X104171000Y-126239000D02*
X104171000Y-132841000D01*
X104211000Y-126286000D02*
X104211000Y-132794000D01*
X104251000Y-126334000D02*
X104251000Y-132746000D01*
X104291000Y-126384000D02*
X104291000Y-132696000D01*
X104331000Y-126434000D02*
X104331000Y-132646000D01*
X104371000Y-126486000D02*
X104371000Y-132594000D01*
X104411000Y-126540000D02*
X104411000Y-132540000D01*
X104451000Y-126595000D02*
X104451000Y-132485000D01*
X104491000Y-126651000D02*
X104491000Y-132429000D01*
X104531000Y-126710000D02*
X104531000Y-132370000D01*
X104571000Y-126770000D02*
X104571000Y-132310000D01*
X104611000Y-126831000D02*
X104611000Y-132249000D01*
X104651000Y-126895000D02*
X104651000Y-132185000D01*
X104691000Y-126961000D02*
X104691000Y-132119000D01*
X104731000Y-127030000D02*
X104731000Y-132050000D01*
X104771000Y-127101000D02*
X104771000Y-131979000D01*
X104811000Y-127175000D02*
X104811000Y-131905000D01*
X104851000Y-127251000D02*
X104851000Y-131829000D01*
X104891000Y-127331000D02*
X104891000Y-131749000D01*
X104931000Y-127415000D02*
X104931000Y-131665000D01*
X104971000Y-127503000D02*
X104971000Y-131577000D01*
X105011000Y-127596000D02*
X105011000Y-131484000D01*
X105051000Y-127694000D02*
X105051000Y-131386000D01*
X105091000Y-127798000D02*
X105091000Y-131282000D01*
X105131000Y-127910000D02*
X105131000Y-131170000D01*
X105171000Y-128030000D02*
X105171000Y-131050000D01*
X105211000Y-128162000D02*
X105211000Y-130918000D01*
X105251000Y-128310000D02*
X105251000Y-130770000D01*
X105291000Y-128478000D02*
X105291000Y-130602000D01*
X105331000Y-128678000D02*
X105331000Y-130402000D01*
X105371000Y-128941000D02*
X105371000Y-130139000D01*
X94810354Y-126665000D02*
X95810354Y-126665000D01*
X95310354Y-126165000D02*
X95310354Y-127165000D01*
X100390000Y-109160000D02*
X97730000Y-109160000D01*
X100390000Y-121920000D02*
X100390000Y-109160000D01*
X97730000Y-121920000D02*
X97730000Y-109160000D01*
X100390000Y-121920000D02*
X97730000Y-121920000D01*
X100390000Y-123190000D02*
X100390000Y-124520000D01*
X100390000Y-124520000D02*
X99060000Y-124520000D01*
X102930000Y-124520000D02*
X101600000Y-124520000D01*
X102930000Y-123190000D02*
X102930000Y-124520000D01*
X102930000Y-121920000D02*
X100270000Y-121920000D01*
X100270000Y-121920000D02*
X100270000Y-109160000D01*
X102930000Y-121920000D02*
X102930000Y-109160000D01*
X102930000Y-109160000D02*
X100270000Y-109160000D01*
X69790000Y-124520000D02*
X72450000Y-124520000D01*
X69790000Y-111760000D02*
X69790000Y-124520000D01*
X72450000Y-111760000D02*
X72450000Y-124520000D01*
X69790000Y-111760000D02*
X72450000Y-111760000D01*
X69790000Y-110490000D02*
X69790000Y-109160000D01*
X69790000Y-109160000D02*
X71120000Y-109160000D01*
X71695000Y-97095000D02*
X73025000Y-97095000D01*
X71695000Y-98425000D02*
X71695000Y-97095000D01*
X71695000Y-99695000D02*
X74355000Y-99695000D01*
X74355000Y-99695000D02*
X74355000Y-104835000D01*
X71695000Y-99695000D02*
X71695000Y-104835000D01*
X71695000Y-104835000D02*
X74355000Y-104835000D01*
X77140000Y-129540000D02*
G75*
G03X77140000Y-129540000I-4120000J0D01*
G01*
X73020000Y-133620000D02*
X73020000Y-125460000D01*
X72980000Y-133620000D02*
X72980000Y-125460000D01*
X72940000Y-133620000D02*
X72940000Y-125460000D01*
X72900000Y-133619000D02*
X72900000Y-125461000D01*
X72860000Y-133617000D02*
X72860000Y-125463000D01*
X72820000Y-133616000D02*
X72820000Y-125464000D01*
X72780000Y-133614000D02*
X72780000Y-125466000D01*
X72740000Y-133611000D02*
X72740000Y-125469000D01*
X72700000Y-133608000D02*
X72700000Y-125472000D01*
X72660000Y-133605000D02*
X72660000Y-125475000D01*
X72620000Y-133601000D02*
X72620000Y-125479000D01*
X72580000Y-133597000D02*
X72580000Y-125483000D01*
X72540000Y-133592000D02*
X72540000Y-125488000D01*
X72500000Y-133588000D02*
X72500000Y-125492000D01*
X72460000Y-133582000D02*
X72460000Y-125498000D01*
X72420000Y-133577000D02*
X72420000Y-125503000D01*
X72380000Y-133570000D02*
X72380000Y-125510000D01*
X72340000Y-133564000D02*
X72340000Y-125516000D01*
X72299000Y-133557000D02*
X72299000Y-125523000D01*
X72259000Y-133550000D02*
X72259000Y-125530000D01*
X72219000Y-133542000D02*
X72219000Y-125538000D01*
X72179000Y-133534000D02*
X72179000Y-125546000D01*
X72139000Y-133525000D02*
X72139000Y-130580000D01*
X72139000Y-128500000D02*
X72139000Y-125555000D01*
X72099000Y-133516000D02*
X72099000Y-130580000D01*
X72099000Y-128500000D02*
X72099000Y-125564000D01*
X72059000Y-133507000D02*
X72059000Y-130580000D01*
X72059000Y-128500000D02*
X72059000Y-125573000D01*
X72019000Y-133497000D02*
X72019000Y-130580000D01*
X72019000Y-128500000D02*
X72019000Y-125583000D01*
X71979000Y-133487000D02*
X71979000Y-130580000D01*
X71979000Y-128500000D02*
X71979000Y-125593000D01*
X71939000Y-133476000D02*
X71939000Y-130580000D01*
X71939000Y-128500000D02*
X71939000Y-125604000D01*
X71899000Y-133465000D02*
X71899000Y-130580000D01*
X71899000Y-128500000D02*
X71899000Y-125615000D01*
X71859000Y-133454000D02*
X71859000Y-130580000D01*
X71859000Y-128500000D02*
X71859000Y-125626000D01*
X71819000Y-133442000D02*
X71819000Y-130580000D01*
X71819000Y-128500000D02*
X71819000Y-125638000D01*
X71779000Y-133429000D02*
X71779000Y-130580000D01*
X71779000Y-128500000D02*
X71779000Y-125651000D01*
X71739000Y-133417000D02*
X71739000Y-130580000D01*
X71739000Y-128500000D02*
X71739000Y-125663000D01*
X71699000Y-133403000D02*
X71699000Y-130580000D01*
X71699000Y-128500000D02*
X71699000Y-125677000D01*
X71659000Y-133390000D02*
X71659000Y-130580000D01*
X71659000Y-128500000D02*
X71659000Y-125690000D01*
X71619000Y-133375000D02*
X71619000Y-130580000D01*
X71619000Y-128500000D02*
X71619000Y-125705000D01*
X71579000Y-133361000D02*
X71579000Y-130580000D01*
X71579000Y-128500000D02*
X71579000Y-125719000D01*
X71539000Y-133345000D02*
X71539000Y-130580000D01*
X71539000Y-128500000D02*
X71539000Y-125735000D01*
X71499000Y-133330000D02*
X71499000Y-130580000D01*
X71499000Y-128500000D02*
X71499000Y-125750000D01*
X71459000Y-133314000D02*
X71459000Y-130580000D01*
X71459000Y-128500000D02*
X71459000Y-125766000D01*
X71419000Y-133297000D02*
X71419000Y-130580000D01*
X71419000Y-128500000D02*
X71419000Y-125783000D01*
X71379000Y-133280000D02*
X71379000Y-130580000D01*
X71379000Y-128500000D02*
X71379000Y-125800000D01*
X71339000Y-133262000D02*
X71339000Y-130580000D01*
X71339000Y-128500000D02*
X71339000Y-125818000D01*
X71299000Y-133244000D02*
X71299000Y-130580000D01*
X71299000Y-128500000D02*
X71299000Y-125836000D01*
X71259000Y-133226000D02*
X71259000Y-130580000D01*
X71259000Y-128500000D02*
X71259000Y-125854000D01*
X71219000Y-133206000D02*
X71219000Y-130580000D01*
X71219000Y-128500000D02*
X71219000Y-125874000D01*
X71179000Y-133187000D02*
X71179000Y-130580000D01*
X71179000Y-128500000D02*
X71179000Y-125893000D01*
X71139000Y-133167000D02*
X71139000Y-130580000D01*
X71139000Y-128500000D02*
X71139000Y-125913000D01*
X71099000Y-133146000D02*
X71099000Y-130580000D01*
X71099000Y-128500000D02*
X71099000Y-125934000D01*
X71059000Y-133124000D02*
X71059000Y-130580000D01*
X71059000Y-128500000D02*
X71059000Y-125956000D01*
X71019000Y-133102000D02*
X71019000Y-130580000D01*
X71019000Y-128500000D02*
X71019000Y-125978000D01*
X70979000Y-133080000D02*
X70979000Y-130580000D01*
X70979000Y-128500000D02*
X70979000Y-126000000D01*
X70939000Y-133057000D02*
X70939000Y-130580000D01*
X70939000Y-128500000D02*
X70939000Y-126023000D01*
X70899000Y-133033000D02*
X70899000Y-130580000D01*
X70899000Y-128500000D02*
X70899000Y-126047000D01*
X70859000Y-133009000D02*
X70859000Y-130580000D01*
X70859000Y-128500000D02*
X70859000Y-126071000D01*
X70819000Y-132984000D02*
X70819000Y-130580000D01*
X70819000Y-128500000D02*
X70819000Y-126096000D01*
X70779000Y-132958000D02*
X70779000Y-130580000D01*
X70779000Y-128500000D02*
X70779000Y-126122000D01*
X70739000Y-132932000D02*
X70739000Y-130580000D01*
X70739000Y-128500000D02*
X70739000Y-126148000D01*
X70699000Y-132905000D02*
X70699000Y-130580000D01*
X70699000Y-128500000D02*
X70699000Y-126175000D01*
X70659000Y-132878000D02*
X70659000Y-130580000D01*
X70659000Y-128500000D02*
X70659000Y-126202000D01*
X70619000Y-132849000D02*
X70619000Y-130580000D01*
X70619000Y-128500000D02*
X70619000Y-126231000D01*
X70579000Y-132820000D02*
X70579000Y-130580000D01*
X70579000Y-128500000D02*
X70579000Y-126260000D01*
X70539000Y-132790000D02*
X70539000Y-130580000D01*
X70539000Y-128500000D02*
X70539000Y-126290000D01*
X70499000Y-132760000D02*
X70499000Y-130580000D01*
X70499000Y-128500000D02*
X70499000Y-126320000D01*
X70459000Y-132729000D02*
X70459000Y-130580000D01*
X70459000Y-128500000D02*
X70459000Y-126351000D01*
X70419000Y-132696000D02*
X70419000Y-130580000D01*
X70419000Y-128500000D02*
X70419000Y-126384000D01*
X70379000Y-132664000D02*
X70379000Y-130580000D01*
X70379000Y-128500000D02*
X70379000Y-126416000D01*
X70339000Y-132630000D02*
X70339000Y-130580000D01*
X70339000Y-128500000D02*
X70339000Y-126450000D01*
X70299000Y-132595000D02*
X70299000Y-130580000D01*
X70299000Y-128500000D02*
X70299000Y-126485000D01*
X70259000Y-132559000D02*
X70259000Y-130580000D01*
X70259000Y-128500000D02*
X70259000Y-126521000D01*
X70219000Y-132523000D02*
X70219000Y-130580000D01*
X70219000Y-128500000D02*
X70219000Y-126557000D01*
X70179000Y-132485000D02*
X70179000Y-130580000D01*
X70179000Y-128500000D02*
X70179000Y-126595000D01*
X70139000Y-132447000D02*
X70139000Y-130580000D01*
X70139000Y-128500000D02*
X70139000Y-126633000D01*
X70099000Y-132407000D02*
X70099000Y-130580000D01*
X70099000Y-128500000D02*
X70099000Y-126673000D01*
X70059000Y-132366000D02*
X70059000Y-126714000D01*
X70019000Y-132324000D02*
X70019000Y-126756000D01*
X69979000Y-132281000D02*
X69979000Y-126799000D01*
X69939000Y-132237000D02*
X69939000Y-126843000D01*
X69899000Y-132191000D02*
X69899000Y-126889000D01*
X69859000Y-132144000D02*
X69859000Y-126936000D01*
X69819000Y-132096000D02*
X69819000Y-126984000D01*
X69779000Y-132045000D02*
X69779000Y-127035000D01*
X69739000Y-131994000D02*
X69739000Y-127086000D01*
X69699000Y-131940000D02*
X69699000Y-127140000D01*
X69659000Y-131885000D02*
X69659000Y-127195000D01*
X69619000Y-131827000D02*
X69619000Y-127253000D01*
X69579000Y-131768000D02*
X69579000Y-127312000D01*
X69539000Y-131706000D02*
X69539000Y-127374000D01*
X69499000Y-131642000D02*
X69499000Y-127438000D01*
X69459000Y-131574000D02*
X69459000Y-127506000D01*
X69419000Y-131504000D02*
X69419000Y-127576000D01*
X69379000Y-131430000D02*
X69379000Y-127650000D01*
X69339000Y-131353000D02*
X69339000Y-127727000D01*
X69299000Y-131271000D02*
X69299000Y-127809000D01*
X69259000Y-131185000D02*
X69259000Y-127895000D01*
X69219000Y-131092000D02*
X69219000Y-127988000D01*
X69179000Y-130993000D02*
X69179000Y-128087000D01*
X69139000Y-130886000D02*
X69139000Y-128194000D01*
X69099000Y-130769000D02*
X69099000Y-128311000D01*
X69059000Y-130638000D02*
X69059000Y-128442000D01*
X69019000Y-130488000D02*
X69019000Y-128592000D01*
X68979000Y-130308000D02*
X68979000Y-128772000D01*
X68939000Y-130073000D02*
X68939000Y-129007000D01*
X77429698Y-131855000D02*
X76629698Y-131855000D01*
X77029698Y-132255000D02*
X77029698Y-131455000D01*
X72330000Y-109160000D02*
X73660000Y-109160000D01*
X72330000Y-110490000D02*
X72330000Y-109160000D01*
X72330000Y-111760000D02*
X74990000Y-111760000D01*
X74990000Y-111760000D02*
X74990000Y-124520000D01*
X72330000Y-111760000D02*
X72330000Y-124520000D01*
X72330000Y-124520000D02*
X74990000Y-124520000D01*
X74870000Y-124520000D02*
X77530000Y-124520000D01*
X74870000Y-111760000D02*
X74870000Y-124520000D01*
X77530000Y-111760000D02*
X77530000Y-124520000D01*
X74870000Y-111760000D02*
X77530000Y-111760000D01*
X74870000Y-110490000D02*
X74870000Y-109160000D01*
X74870000Y-109160000D02*
X76200000Y-109160000D01*
X74870000Y-97095000D02*
X76200000Y-97095000D01*
X74870000Y-98425000D02*
X74870000Y-97095000D01*
X74870000Y-99695000D02*
X77530000Y-99695000D01*
X77530000Y-99695000D02*
X77530000Y-104835000D01*
X74870000Y-99695000D02*
X74870000Y-104835000D01*
X74870000Y-104835000D02*
X77530000Y-104835000D01*
D14*
X89285000Y-104140000D02*
X82935000Y-104140000D01*
X90555000Y-105410000D02*
X90555000Y-118110000D01*
X89285000Y-119380000D02*
X82935000Y-119380000D01*
X81665000Y-105410000D02*
X81665000Y-118110000D01*
X82935000Y-119380000D02*
G75*
G03X81665000Y-118110000I-1270000J0D01*
G01*
X90555000Y-118110000D02*
G75*
G03X89285000Y-119380000I0J-1270000D01*
G01*
X89285000Y-104140000D02*
G75*
G03X90555000Y-105410000I1270000J0D01*
G01*
X81665000Y-105410000D02*
G75*
G03X82935000Y-104140000I0J1270000D01*
G01*
D13*
X78680000Y-141030000D02*
X78680000Y-139700000D01*
X80010000Y-141030000D02*
X78680000Y-141030000D01*
X81280000Y-141030000D02*
X81280000Y-138370000D01*
X81280000Y-138370000D02*
X94040000Y-138370000D01*
X81280000Y-141030000D02*
X94040000Y-141030000D01*
X94040000Y-141030000D02*
X94040000Y-138370000D01*
X77470000Y-137160000D02*
X77470000Y-101600000D01*
X95250000Y-137160000D02*
X77470000Y-137160000D01*
X95250000Y-101600000D02*
X95250000Y-137160000D01*
X77470000Y-101600000D02*
X95250000Y-101600000D01*
X82610000Y-100900000D02*
X90110000Y-100900000D01*
X90110000Y-100900000D02*
X90110000Y-105900000D01*
X82610000Y-105900000D02*
X90110000Y-105900000D01*
X82610000Y-105900000D02*
X82610000Y-100900000D01*
X84260000Y-133200000D02*
X88460000Y-133200000D01*
X88460000Y-133200000D02*
X88460000Y-136400000D01*
X88460000Y-136400000D02*
X84260000Y-136400000D01*
X84260000Y-136400000D02*
X84260000Y-133200000D01*
D14*
X96186666Y-108037380D02*
X96186666Y-108751666D01*
X96139047Y-108894523D01*
X96043809Y-108989761D01*
X95900952Y-109037380D01*
X95805714Y-109037380D01*
X96567619Y-108037380D02*
X97186666Y-108037380D01*
X96853333Y-108418333D01*
X96996190Y-108418333D01*
X97091428Y-108465952D01*
X97139047Y-108513571D01*
X97186666Y-108608809D01*
X97186666Y-108846904D01*
X97139047Y-108942142D01*
X97091428Y-108989761D01*
X96996190Y-109037380D01*
X96710476Y-109037380D01*
X96615238Y-108989761D01*
X96567619Y-108942142D01*
X98893333Y-136247142D02*
X98845714Y-136294761D01*
X98702857Y-136342380D01*
X98607619Y-136342380D01*
X98464761Y-136294761D01*
X98369523Y-136199523D01*
X98321904Y-136104285D01*
X98274285Y-135913809D01*
X98274285Y-135770952D01*
X98321904Y-135580476D01*
X98369523Y-135485238D01*
X98464761Y-135390000D01*
X98607619Y-135342380D01*
X98702857Y-135342380D01*
X98845714Y-135390000D01*
X98893333Y-135437619D01*
X99274285Y-135437619D02*
X99321904Y-135390000D01*
X99417142Y-135342380D01*
X99655238Y-135342380D01*
X99750476Y-135390000D01*
X99798095Y-135437619D01*
X99845714Y-135532857D01*
X99845714Y-135628095D01*
X99798095Y-135770952D01*
X99226666Y-136342380D01*
X99845714Y-136342380D01*
X98726666Y-108037380D02*
X98726666Y-108751666D01*
X98679047Y-108894523D01*
X98583809Y-108989761D01*
X98440952Y-109037380D01*
X98345714Y-109037380D01*
X99631428Y-108037380D02*
X99440952Y-108037380D01*
X99345714Y-108085000D01*
X99298095Y-108132619D01*
X99202857Y-108275476D01*
X99155238Y-108465952D01*
X99155238Y-108846904D01*
X99202857Y-108942142D01*
X99250476Y-108989761D01*
X99345714Y-109037380D01*
X99536190Y-109037380D01*
X99631428Y-108989761D01*
X99679047Y-108942142D01*
X99726666Y-108846904D01*
X99726666Y-108608809D01*
X99679047Y-108513571D01*
X99631428Y-108465952D01*
X99536190Y-108418333D01*
X99345714Y-108418333D01*
X99250476Y-108465952D01*
X99202857Y-108513571D01*
X99155238Y-108608809D01*
X101266666Y-108037380D02*
X101266666Y-108751666D01*
X101219047Y-108894523D01*
X101123809Y-108989761D01*
X100980952Y-109037380D01*
X100885714Y-109037380D01*
X101647619Y-108037380D02*
X102314285Y-108037380D01*
X101885714Y-109037380D01*
X70786666Y-108037380D02*
X70786666Y-108751666D01*
X70739047Y-108894523D01*
X70643809Y-108989761D01*
X70500952Y-109037380D01*
X70405714Y-109037380D01*
X71405714Y-108465952D02*
X71310476Y-108418333D01*
X71262857Y-108370714D01*
X71215238Y-108275476D01*
X71215238Y-108227857D01*
X71262857Y-108132619D01*
X71310476Y-108085000D01*
X71405714Y-108037380D01*
X71596190Y-108037380D01*
X71691428Y-108085000D01*
X71739047Y-108132619D01*
X71786666Y-108227857D01*
X71786666Y-108275476D01*
X71739047Y-108370714D01*
X71691428Y-108418333D01*
X71596190Y-108465952D01*
X71405714Y-108465952D01*
X71310476Y-108513571D01*
X71262857Y-108561190D01*
X71215238Y-108656428D01*
X71215238Y-108846904D01*
X71262857Y-108942142D01*
X71310476Y-108989761D01*
X71405714Y-109037380D01*
X71596190Y-109037380D01*
X71691428Y-108989761D01*
X71739047Y-108942142D01*
X71786666Y-108846904D01*
X71786666Y-108656428D01*
X71739047Y-108561190D01*
X71691428Y-108513571D01*
X71596190Y-108465952D01*
X72088476Y-105116380D02*
X72088476Y-105830666D01*
X72040857Y-105973523D01*
X71945619Y-106068761D01*
X71802761Y-106116380D01*
X71707523Y-106116380D01*
X73088476Y-106116380D02*
X72517047Y-106116380D01*
X72802761Y-106116380D02*
X72802761Y-105116380D01*
X72707523Y-105259238D01*
X72612285Y-105354476D01*
X72517047Y-105402095D01*
X73707523Y-105116380D02*
X73802761Y-105116380D01*
X73898000Y-105164000D01*
X73945619Y-105211619D01*
X73993238Y-105306857D01*
X74040857Y-105497333D01*
X74040857Y-105735428D01*
X73993238Y-105925904D01*
X73945619Y-106021142D01*
X73898000Y-106068761D01*
X73802761Y-106116380D01*
X73707523Y-106116380D01*
X73612285Y-106068761D01*
X73564666Y-106021142D01*
X73517047Y-105925904D01*
X73469428Y-105735428D01*
X73469428Y-105497333D01*
X73517047Y-105306857D01*
X73564666Y-105211619D01*
X73612285Y-105164000D01*
X73707523Y-105116380D01*
X72853333Y-135147142D02*
X72805714Y-135194761D01*
X72662857Y-135242380D01*
X72567619Y-135242380D01*
X72424761Y-135194761D01*
X72329523Y-135099523D01*
X72281904Y-135004285D01*
X72234285Y-134813809D01*
X72234285Y-134670952D01*
X72281904Y-134480476D01*
X72329523Y-134385238D01*
X72424761Y-134290000D01*
X72567619Y-134242380D01*
X72662857Y-134242380D01*
X72805714Y-134290000D01*
X72853333Y-134337619D01*
X73805714Y-135242380D02*
X73234285Y-135242380D01*
X73520000Y-135242380D02*
X73520000Y-134242380D01*
X73424761Y-134385238D01*
X73329523Y-134480476D01*
X73234285Y-134528095D01*
X89836666Y-95972380D02*
X89836666Y-96686666D01*
X89789047Y-96829523D01*
X89693809Y-96924761D01*
X89550952Y-96972380D01*
X89455714Y-96972380D01*
X90836666Y-96972380D02*
X90265238Y-96972380D01*
X90550952Y-96972380D02*
X90550952Y-95972380D01*
X90455714Y-96115238D01*
X90360476Y-96210476D01*
X90265238Y-96258095D01*
X94916666Y-95972380D02*
X94916666Y-96686666D01*
X94869047Y-96829523D01*
X94773809Y-96924761D01*
X94630952Y-96972380D01*
X94535714Y-96972380D01*
X95345238Y-96067619D02*
X95392857Y-96020000D01*
X95488095Y-95972380D01*
X95726190Y-95972380D01*
X95821428Y-96020000D01*
X95869047Y-96067619D01*
X95916666Y-96162857D01*
X95916666Y-96258095D01*
X95869047Y-96400952D01*
X95297619Y-96972380D01*
X95916666Y-96972380D01*
X73326666Y-108037380D02*
X73326666Y-108751666D01*
X73279047Y-108894523D01*
X73183809Y-108989761D01*
X73040952Y-109037380D01*
X72945714Y-109037380D01*
X74279047Y-108037380D02*
X73802857Y-108037380D01*
X73755238Y-108513571D01*
X73802857Y-108465952D01*
X73898095Y-108418333D01*
X74136190Y-108418333D01*
X74231428Y-108465952D01*
X74279047Y-108513571D01*
X74326666Y-108608809D01*
X74326666Y-108846904D01*
X74279047Y-108942142D01*
X74231428Y-108989761D01*
X74136190Y-109037380D01*
X73898095Y-109037380D01*
X73802857Y-108989761D01*
X73755238Y-108942142D01*
X75866666Y-108037380D02*
X75866666Y-108751666D01*
X75819047Y-108894523D01*
X75723809Y-108989761D01*
X75580952Y-109037380D01*
X75485714Y-109037380D01*
X76771428Y-108370714D02*
X76771428Y-109037380D01*
X76533333Y-107989761D02*
X76295238Y-108704047D01*
X76914285Y-108704047D01*
X75136476Y-105116380D02*
X75136476Y-105830666D01*
X75088857Y-105973523D01*
X74993619Y-106068761D01*
X74850761Y-106116380D01*
X74755523Y-106116380D01*
X76136476Y-106116380D02*
X75565047Y-106116380D01*
X75850761Y-106116380D02*
X75850761Y-105116380D01*
X75755523Y-105259238D01*
X75660285Y-105354476D01*
X75565047Y-105402095D01*
X77088857Y-106116380D02*
X76517428Y-106116380D01*
X76803142Y-106116380D02*
X76803142Y-105116380D01*
X76707904Y-105259238D01*
X76612666Y-105354476D01*
X76517428Y-105402095D01*
X85598095Y-106132380D02*
X85598095Y-106941904D01*
X85645714Y-107037142D01*
X85693333Y-107084761D01*
X85788571Y-107132380D01*
X85979047Y-107132380D01*
X86074285Y-107084761D01*
X86121904Y-107037142D01*
X86169523Y-106941904D01*
X86169523Y-106132380D01*
X87169523Y-107132380D02*
X86598095Y-107132380D01*
X86883809Y-107132380D02*
X86883809Y-106132380D01*
X86788571Y-106275238D01*
X86693333Y-106370476D01*
X86598095Y-106418095D01*
X94067380Y-140033333D02*
X94781666Y-140033333D01*
X94924523Y-140080952D01*
X95019761Y-140176190D01*
X95067380Y-140319047D01*
X95067380Y-140414285D01*
X95067380Y-139509523D02*
X95067380Y-139319047D01*
X95019761Y-139223809D01*
X94972142Y-139176190D01*
X94829285Y-139080952D01*
X94638809Y-139033333D01*
X94257857Y-139033333D01*
X94162619Y-139080952D01*
X94115000Y-139128571D01*
X94067380Y-139223809D01*
X94067380Y-139414285D01*
X94115000Y-139509523D01*
X94162619Y-139557142D01*
X94257857Y-139604761D01*
X94495952Y-139604761D01*
X94591190Y-139557142D01*
X94638809Y-139509523D01*
X94686428Y-139414285D01*
X94686428Y-139223809D01*
X94638809Y-139128571D01*
X94591190Y-139080952D01*
X94495952Y-139033333D01*
D15*
X85598095Y-102322380D02*
X85598095Y-103131904D01*
X85645714Y-103227142D01*
X85693333Y-103274761D01*
X85788571Y-103322380D01*
X85979047Y-103322380D01*
X86074285Y-103274761D01*
X86121904Y-103227142D01*
X86169523Y-103131904D01*
X86169523Y-102322380D01*
X87074285Y-102655714D02*
X87074285Y-103322380D01*
X86836190Y-102274761D02*
X86598095Y-102989047D01*
X87217142Y-102989047D01*
M02*
