G04 #@! TF.GenerationSoftware,KiCad,Pcbnew,(5.0.0)*
G04 #@! TF.CreationDate,2020-01-07T10:02:11+01:00*
G04 #@! TF.ProjectId,Pacifistabot-ESP-01s,506163696669737461626F742D455350,rev?*
G04 #@! TF.SameCoordinates,Original*
G04 #@! TF.FileFunction,Legend,Bot*
G04 #@! TF.FilePolarity,Positive*
%FSLAX46Y46*%
G04 Gerber Fmt 4.6, Leading zero omitted, Abs format (unit mm)*
G04 Created by KiCad (PCBNEW (5.0.0)) date 01/07/20 10:02:11*
%MOMM*%
%LPD*%
G01*
G04 APERTURE LIST*
%ADD10C,0.150000*%
%ADD11C,0.120000*%
%ADD12C,0.010000*%
G04 APERTURE END LIST*
D10*
X68098142Y-105548857D02*
X67198142Y-105548857D01*
X67198142Y-105891714D01*
X67241000Y-105977428D01*
X67283857Y-106020285D01*
X67369571Y-106063142D01*
X67498142Y-106063142D01*
X67583857Y-106020285D01*
X67626714Y-105977428D01*
X67669571Y-105891714D01*
X67669571Y-105548857D01*
X68098142Y-106834571D02*
X67626714Y-106834571D01*
X67541000Y-106791714D01*
X67498142Y-106706000D01*
X67498142Y-106534571D01*
X67541000Y-106448857D01*
X68055285Y-106834571D02*
X68098142Y-106748857D01*
X68098142Y-106534571D01*
X68055285Y-106448857D01*
X67969571Y-106406000D01*
X67883857Y-106406000D01*
X67798142Y-106448857D01*
X67755285Y-106534571D01*
X67755285Y-106748857D01*
X67712428Y-106834571D01*
X68055285Y-107648857D02*
X68098142Y-107563142D01*
X68098142Y-107391714D01*
X68055285Y-107306000D01*
X68012428Y-107263142D01*
X67926714Y-107220285D01*
X67669571Y-107220285D01*
X67583857Y-107263142D01*
X67541000Y-107306000D01*
X67498142Y-107391714D01*
X67498142Y-107563142D01*
X67541000Y-107648857D01*
X68098142Y-108034571D02*
X67498142Y-108034571D01*
X67198142Y-108034571D02*
X67241000Y-107991714D01*
X67283857Y-108034571D01*
X67241000Y-108077428D01*
X67198142Y-108034571D01*
X67283857Y-108034571D01*
X67498142Y-108334571D02*
X67498142Y-108677428D01*
X68098142Y-108463142D02*
X67326714Y-108463142D01*
X67241000Y-108506000D01*
X67198142Y-108591714D01*
X67198142Y-108677428D01*
X68098142Y-108977428D02*
X67498142Y-108977428D01*
X67198142Y-108977428D02*
X67241000Y-108934571D01*
X67283857Y-108977428D01*
X67241000Y-109020285D01*
X67198142Y-108977428D01*
X67283857Y-108977428D01*
X68055285Y-109363142D02*
X68098142Y-109448857D01*
X68098142Y-109620285D01*
X68055285Y-109706000D01*
X67969571Y-109748857D01*
X67926714Y-109748857D01*
X67841000Y-109706000D01*
X67798142Y-109620285D01*
X67798142Y-109491714D01*
X67755285Y-109406000D01*
X67669571Y-109363142D01*
X67626714Y-109363142D01*
X67541000Y-109406000D01*
X67498142Y-109491714D01*
X67498142Y-109620285D01*
X67541000Y-109706000D01*
X67498142Y-110006000D02*
X67498142Y-110348857D01*
X67198142Y-110134571D02*
X67969571Y-110134571D01*
X68055285Y-110177428D01*
X68098142Y-110263142D01*
X68098142Y-110348857D01*
X68098142Y-111034571D02*
X67626714Y-111034571D01*
X67541000Y-110991714D01*
X67498142Y-110906000D01*
X67498142Y-110734571D01*
X67541000Y-110648857D01*
X68055285Y-111034571D02*
X68098142Y-110948857D01*
X68098142Y-110734571D01*
X68055285Y-110648857D01*
X67969571Y-110606000D01*
X67883857Y-110606000D01*
X67798142Y-110648857D01*
X67755285Y-110734571D01*
X67755285Y-110948857D01*
X67712428Y-111034571D01*
X67626714Y-112148857D02*
X67626714Y-112448857D01*
X68098142Y-112577428D02*
X68098142Y-112148857D01*
X67198142Y-112148857D01*
X67198142Y-112577428D01*
X68055285Y-112920285D02*
X68098142Y-113048857D01*
X68098142Y-113263142D01*
X68055285Y-113348857D01*
X68012428Y-113391714D01*
X67926714Y-113434571D01*
X67841000Y-113434571D01*
X67755285Y-113391714D01*
X67712428Y-113348857D01*
X67669571Y-113263142D01*
X67626714Y-113091714D01*
X67583857Y-113006000D01*
X67541000Y-112963142D01*
X67455285Y-112920285D01*
X67369571Y-112920285D01*
X67283857Y-112963142D01*
X67241000Y-113006000D01*
X67198142Y-113091714D01*
X67198142Y-113306000D01*
X67241000Y-113434571D01*
X68098142Y-113820285D02*
X67198142Y-113820285D01*
X67198142Y-114163142D01*
X67241000Y-114248857D01*
X67283857Y-114291714D01*
X67369571Y-114334571D01*
X67498142Y-114334571D01*
X67583857Y-114291714D01*
X67626714Y-114248857D01*
X67669571Y-114163142D01*
X67669571Y-113820285D01*
X67198142Y-115277428D02*
X68098142Y-115577428D01*
X67198142Y-115877428D01*
X67198142Y-116348857D02*
X67198142Y-116434571D01*
X67241000Y-116520285D01*
X67283857Y-116563142D01*
X67369571Y-116606000D01*
X67541000Y-116648857D01*
X67755285Y-116648857D01*
X67926714Y-116606000D01*
X68012428Y-116563142D01*
X68055285Y-116520285D01*
X68098142Y-116434571D01*
X68098142Y-116348857D01*
X68055285Y-116263142D01*
X68012428Y-116220285D01*
X67926714Y-116177428D01*
X67755285Y-116134571D01*
X67541000Y-116134571D01*
X67369571Y-116177428D01*
X67283857Y-116220285D01*
X67241000Y-116263142D01*
X67198142Y-116348857D01*
X68098142Y-117506000D02*
X68098142Y-116991714D01*
X68098142Y-117248857D02*
X67198142Y-117248857D01*
X67326714Y-117163142D01*
X67412428Y-117077428D01*
X67455285Y-116991714D01*
X66447142Y-105260142D02*
X65547142Y-105260142D01*
X66447142Y-105645857D02*
X65975714Y-105645857D01*
X65890000Y-105603000D01*
X65847142Y-105517285D01*
X65847142Y-105388714D01*
X65890000Y-105303000D01*
X65932857Y-105260142D01*
X65847142Y-105945857D02*
X65847142Y-106288714D01*
X65547142Y-106074428D02*
X66318571Y-106074428D01*
X66404285Y-106117285D01*
X66447142Y-106203000D01*
X66447142Y-106288714D01*
X65847142Y-106460142D02*
X65847142Y-106803000D01*
X65547142Y-106588714D02*
X66318571Y-106588714D01*
X66404285Y-106631571D01*
X66447142Y-106717285D01*
X66447142Y-106803000D01*
X65847142Y-107102999D02*
X66747142Y-107102999D01*
X65890000Y-107102999D02*
X65847142Y-107188714D01*
X65847142Y-107360142D01*
X65890000Y-107445857D01*
X65932857Y-107488714D01*
X66018571Y-107531571D01*
X66275714Y-107531571D01*
X66361428Y-107488714D01*
X66404285Y-107445857D01*
X66447142Y-107360142D01*
X66447142Y-107188714D01*
X66404285Y-107102999D01*
X66404285Y-107874428D02*
X66447142Y-107960142D01*
X66447142Y-108131571D01*
X66404285Y-108217285D01*
X66318571Y-108260142D01*
X66275714Y-108260142D01*
X66190000Y-108217285D01*
X66147142Y-108131571D01*
X66147142Y-108002999D01*
X66104285Y-107917285D01*
X66018571Y-107874428D01*
X65975714Y-107874428D01*
X65890000Y-107917285D01*
X65847142Y-108002999D01*
X65847142Y-108131571D01*
X65890000Y-108217285D01*
X66361428Y-108645857D02*
X66404285Y-108688714D01*
X66447142Y-108645857D01*
X66404285Y-108602999D01*
X66361428Y-108645857D01*
X66447142Y-108645857D01*
X65890000Y-108645857D02*
X65932857Y-108688714D01*
X65975714Y-108645857D01*
X65932857Y-108602999D01*
X65890000Y-108645857D01*
X65975714Y-108645857D01*
X65504285Y-109717285D02*
X66661428Y-108945857D01*
X65504285Y-110660142D02*
X66661428Y-109888714D01*
X65847142Y-111345857D02*
X66575714Y-111345857D01*
X66661428Y-111302999D01*
X66704285Y-111260142D01*
X66747142Y-111174428D01*
X66747142Y-111045857D01*
X66704285Y-110960142D01*
X66404285Y-111345857D02*
X66447142Y-111260142D01*
X66447142Y-111088714D01*
X66404285Y-111002999D01*
X66361428Y-110960142D01*
X66275714Y-110917285D01*
X66018571Y-110917285D01*
X65932857Y-110960142D01*
X65890000Y-111002999D01*
X65847142Y-111088714D01*
X65847142Y-111260142D01*
X65890000Y-111345857D01*
X66447142Y-111774428D02*
X65847142Y-111774428D01*
X65547142Y-111774428D02*
X65590000Y-111731571D01*
X65632857Y-111774428D01*
X65590000Y-111817285D01*
X65547142Y-111774428D01*
X65632857Y-111774428D01*
X65847142Y-112074428D02*
X65847142Y-112417285D01*
X65547142Y-112202999D02*
X66318571Y-112202999D01*
X66404285Y-112245857D01*
X66447142Y-112331571D01*
X66447142Y-112417285D01*
X66447142Y-112717285D02*
X65547142Y-112717285D01*
X66447142Y-113102999D02*
X65975714Y-113102999D01*
X65890000Y-113060142D01*
X65847142Y-112974428D01*
X65847142Y-112845857D01*
X65890000Y-112760142D01*
X65932857Y-112717285D01*
X65847142Y-113917285D02*
X66447142Y-113917285D01*
X65847142Y-113531571D02*
X66318571Y-113531571D01*
X66404285Y-113574428D01*
X66447142Y-113660142D01*
X66447142Y-113788714D01*
X66404285Y-113874428D01*
X66361428Y-113917285D01*
X66447142Y-114345857D02*
X65547142Y-114345857D01*
X65890000Y-114345857D02*
X65847142Y-114431571D01*
X65847142Y-114602999D01*
X65890000Y-114688714D01*
X65932857Y-114731571D01*
X66018571Y-114774428D01*
X66275714Y-114774428D01*
X66361428Y-114731571D01*
X66404285Y-114688714D01*
X66447142Y-114602999D01*
X66447142Y-114431571D01*
X66404285Y-114345857D01*
X66361428Y-115160142D02*
X66404285Y-115202999D01*
X66447142Y-115160142D01*
X66404285Y-115117285D01*
X66361428Y-115160142D01*
X66447142Y-115160142D01*
X66404285Y-115974428D02*
X66447142Y-115888714D01*
X66447142Y-115717285D01*
X66404285Y-115631571D01*
X66361428Y-115588714D01*
X66275714Y-115545857D01*
X66018571Y-115545857D01*
X65932857Y-115588714D01*
X65890000Y-115631571D01*
X65847142Y-115717285D01*
X65847142Y-115888714D01*
X65890000Y-115974428D01*
X66447142Y-116488714D02*
X66404285Y-116402999D01*
X66361428Y-116360142D01*
X66275714Y-116317285D01*
X66018571Y-116317285D01*
X65932857Y-116360142D01*
X65890000Y-116402999D01*
X65847142Y-116488714D01*
X65847142Y-116617285D01*
X65890000Y-116702999D01*
X65932857Y-116745857D01*
X66018571Y-116788714D01*
X66275714Y-116788714D01*
X66361428Y-116745857D01*
X66404285Y-116702999D01*
X66447142Y-116617285D01*
X66447142Y-116488714D01*
X66447142Y-117174428D02*
X65847142Y-117174428D01*
X65932857Y-117174428D02*
X65890000Y-117217285D01*
X65847142Y-117302999D01*
X65847142Y-117431571D01*
X65890000Y-117517285D01*
X65975714Y-117560142D01*
X66447142Y-117560142D01*
X65975714Y-117560142D02*
X65890000Y-117602999D01*
X65847142Y-117688714D01*
X65847142Y-117817285D01*
X65890000Y-117902999D01*
X65975714Y-117945857D01*
X66447142Y-117945857D01*
X65504285Y-119017285D02*
X66661428Y-118245857D01*
X66447142Y-119317285D02*
X65847142Y-119317285D01*
X65547142Y-119317285D02*
X65590000Y-119274428D01*
X65632857Y-119317285D01*
X65590000Y-119360142D01*
X65547142Y-119317285D01*
X65632857Y-119317285D01*
X66447142Y-119874428D02*
X66404285Y-119788714D01*
X66361428Y-119745857D01*
X66275714Y-119702999D01*
X66018571Y-119702999D01*
X65932857Y-119745857D01*
X65890000Y-119788714D01*
X65847142Y-119874428D01*
X65847142Y-120002999D01*
X65890000Y-120088714D01*
X65932857Y-120131571D01*
X66018571Y-120174428D01*
X66275714Y-120174428D01*
X66361428Y-120131571D01*
X66404285Y-120088714D01*
X66447142Y-120002999D01*
X66447142Y-119874428D01*
X65847142Y-120560142D02*
X66447142Y-120560142D01*
X65932857Y-120560142D02*
X65890000Y-120602999D01*
X65847142Y-120688714D01*
X65847142Y-120817285D01*
X65890000Y-120902999D01*
X65975714Y-120945857D01*
X66447142Y-120945857D01*
X66447142Y-121374428D02*
X65547142Y-121374428D01*
X66447142Y-121760142D02*
X65975714Y-121760142D01*
X65890000Y-121717285D01*
X65847142Y-121631571D01*
X65847142Y-121502999D01*
X65890000Y-121417285D01*
X65932857Y-121374428D01*
X66404285Y-122145857D02*
X66447142Y-122231571D01*
X66447142Y-122402999D01*
X66404285Y-122488714D01*
X66318571Y-122531571D01*
X66275714Y-122531571D01*
X66190000Y-122488714D01*
X66147142Y-122402999D01*
X66147142Y-122274428D01*
X66104285Y-122188714D01*
X66018571Y-122145857D01*
X65975714Y-122145857D01*
X65890000Y-122188714D01*
X65847142Y-122274428D01*
X65847142Y-122402999D01*
X65890000Y-122488714D01*
X65975714Y-123217285D02*
X65975714Y-122917285D01*
X66447142Y-122917285D02*
X65547142Y-122917285D01*
X65547142Y-123345857D01*
X66447142Y-123688714D02*
X65547142Y-123688714D01*
X65547142Y-124031571D01*
X65590000Y-124117285D01*
X65632857Y-124160142D01*
X65718571Y-124202999D01*
X65847142Y-124202999D01*
X65932857Y-124160142D01*
X65975714Y-124117285D01*
X66018571Y-124031571D01*
X66018571Y-123688714D01*
X65504285Y-125231571D02*
X66661428Y-124460142D01*
X66447142Y-125531571D02*
X65547142Y-125531571D01*
X65547142Y-125874428D01*
X65590000Y-125960142D01*
X65632857Y-126002999D01*
X65718571Y-126045857D01*
X65847142Y-126045857D01*
X65932857Y-126002999D01*
X65975714Y-125960142D01*
X66018571Y-125874428D01*
X66018571Y-125531571D01*
X66447142Y-126817285D02*
X65975714Y-126817285D01*
X65890000Y-126774428D01*
X65847142Y-126688714D01*
X65847142Y-126517285D01*
X65890000Y-126431571D01*
X66404285Y-126817285D02*
X66447142Y-126731571D01*
X66447142Y-126517285D01*
X66404285Y-126431571D01*
X66318571Y-126388714D01*
X66232857Y-126388714D01*
X66147142Y-126431571D01*
X66104285Y-126517285D01*
X66104285Y-126731571D01*
X66061428Y-126817285D01*
X66404285Y-127631571D02*
X66447142Y-127545857D01*
X66447142Y-127374428D01*
X66404285Y-127288714D01*
X66361428Y-127245857D01*
X66275714Y-127202999D01*
X66018571Y-127202999D01*
X65932857Y-127245857D01*
X65890000Y-127288714D01*
X65847142Y-127374428D01*
X65847142Y-127545857D01*
X65890000Y-127631571D01*
X66447142Y-128017285D02*
X65847142Y-128017285D01*
X65547142Y-128017285D02*
X65590000Y-127974428D01*
X65632857Y-128017285D01*
X65590000Y-128060142D01*
X65547142Y-128017285D01*
X65632857Y-128017285D01*
X65847142Y-128317285D02*
X65847142Y-128660142D01*
X66447142Y-128445857D02*
X65675714Y-128445857D01*
X65590000Y-128488714D01*
X65547142Y-128574428D01*
X65547142Y-128660142D01*
X66447142Y-128960142D02*
X65847142Y-128960142D01*
X65547142Y-128960142D02*
X65590000Y-128917285D01*
X65632857Y-128960142D01*
X65590000Y-129002999D01*
X65547142Y-128960142D01*
X65632857Y-128960142D01*
X66404285Y-129345857D02*
X66447142Y-129431571D01*
X66447142Y-129602999D01*
X66404285Y-129688714D01*
X66318571Y-129731571D01*
X66275714Y-129731571D01*
X66190000Y-129688714D01*
X66147142Y-129602999D01*
X66147142Y-129474428D01*
X66104285Y-129388714D01*
X66018571Y-129345857D01*
X65975714Y-129345857D01*
X65890000Y-129388714D01*
X65847142Y-129474428D01*
X65847142Y-129602999D01*
X65890000Y-129688714D01*
X65847142Y-129988714D02*
X65847142Y-130331571D01*
X65547142Y-130117285D02*
X66318571Y-130117285D01*
X66404285Y-130160142D01*
X66447142Y-130245857D01*
X66447142Y-130331571D01*
X66447142Y-131017285D02*
X65975714Y-131017285D01*
X65890000Y-130974428D01*
X65847142Y-130888714D01*
X65847142Y-130717285D01*
X65890000Y-130631571D01*
X66404285Y-131017285D02*
X66447142Y-130931571D01*
X66447142Y-130717285D01*
X66404285Y-130631571D01*
X66318571Y-130588714D01*
X66232857Y-130588714D01*
X66147142Y-130631571D01*
X66104285Y-130717285D01*
X66104285Y-130931571D01*
X66061428Y-131017285D01*
X65975714Y-131745857D02*
X66018571Y-131874428D01*
X66061428Y-131917285D01*
X66147142Y-131960142D01*
X66275714Y-131960142D01*
X66361428Y-131917285D01*
X66404285Y-131874428D01*
X66447142Y-131788714D01*
X66447142Y-131445857D01*
X65547142Y-131445857D01*
X65547142Y-131745857D01*
X65590000Y-131831571D01*
X65632857Y-131874428D01*
X65718571Y-131917285D01*
X65804285Y-131917285D01*
X65890000Y-131874428D01*
X65932857Y-131831571D01*
X65975714Y-131745857D01*
X65975714Y-131445857D01*
X66447142Y-132474428D02*
X66404285Y-132388714D01*
X66361428Y-132345857D01*
X66275714Y-132302999D01*
X66018571Y-132302999D01*
X65932857Y-132345857D01*
X65890000Y-132388714D01*
X65847142Y-132474428D01*
X65847142Y-132602999D01*
X65890000Y-132688714D01*
X65932857Y-132731571D01*
X66018571Y-132774428D01*
X66275714Y-132774428D01*
X66361428Y-132731571D01*
X66404285Y-132688714D01*
X66447142Y-132602999D01*
X66447142Y-132474428D01*
X65847142Y-133031571D02*
X65847142Y-133374428D01*
X65547142Y-133160142D02*
X66318571Y-133160142D01*
X66404285Y-133202999D01*
X66447142Y-133288714D01*
X66447142Y-133374428D01*
D11*
G04 #@! TO.C,U3*
X91500000Y-125790000D02*
X91500000Y-124460000D01*
X90170000Y-125790000D02*
X91500000Y-125790000D01*
X91500000Y-123190000D02*
X91500000Y-120590000D01*
X88900000Y-123190000D02*
X91500000Y-123190000D01*
X88900000Y-125790000D02*
X88900000Y-123190000D01*
X91500000Y-120590000D02*
X81220000Y-120590000D01*
X88900000Y-125790000D02*
X81220000Y-125790000D01*
X81220000Y-125790000D02*
X81220000Y-120590000D01*
G04 #@! TO.C,U2*
X82950000Y-111120000D02*
X84210000Y-111120000D01*
X89770000Y-111120000D02*
X88510000Y-111120000D01*
X82950000Y-114880000D02*
X82950000Y-111120000D01*
X89770000Y-117130000D02*
X89770000Y-111120000D01*
G04 #@! TO.C,R1*
X86962064Y-117835000D02*
X85757936Y-117835000D01*
X86962064Y-119655000D02*
X85757936Y-119655000D01*
G04 #@! TO.C,J9*
X81280000Y-139703500D02*
X81280000Y-142363500D01*
X81280000Y-139703500D02*
X94040000Y-139703500D01*
X94040000Y-139703500D02*
X94040000Y-142363500D01*
X81280000Y-142363500D02*
X94040000Y-142363500D01*
X78680000Y-142363500D02*
X80010000Y-142363500D01*
X78680000Y-141033500D02*
X78680000Y-142363500D01*
G04 #@! TO.C,R6*
X85450000Y-131512064D02*
X85450000Y-130307936D01*
X87270000Y-131512064D02*
X87270000Y-130307936D01*
G04 #@! TO.C,R7*
X84180000Y-135959436D02*
X84180000Y-137163564D01*
X86000000Y-135959436D02*
X86000000Y-137163564D01*
G04 #@! TO.C,C3*
X88540000Y-137163564D02*
X88540000Y-135959436D01*
X86720000Y-137163564D02*
X86720000Y-135959436D01*
D12*
G04 #@! TO.C,*
G36*
X83151870Y-102533174D02*
X88806130Y-102533174D01*
X88806130Y-99699980D01*
X88702292Y-99699980D01*
X88695227Y-99861738D01*
X88675995Y-100031815D01*
X88645291Y-100205650D01*
X88603812Y-100378684D01*
X88552252Y-100546357D01*
X88538926Y-100584000D01*
X88444514Y-100813511D01*
X88332526Y-101031684D01*
X88203850Y-101237397D01*
X88059372Y-101429529D01*
X87899980Y-101606956D01*
X87726562Y-101768558D01*
X87540004Y-101913210D01*
X87430246Y-101986317D01*
X87218169Y-102107203D01*
X86994598Y-102210868D01*
X86762599Y-102296247D01*
X86525240Y-102362280D01*
X86285587Y-102407903D01*
X86172261Y-102422073D01*
X86090841Y-102427361D01*
X85994694Y-102428499D01*
X85890740Y-102425715D01*
X85785900Y-102419237D01*
X85687097Y-102409291D01*
X85655711Y-102405103D01*
X85566737Y-102389908D01*
X85464964Y-102368527D01*
X85357632Y-102342776D01*
X85251981Y-102314473D01*
X85155252Y-102285434D01*
X85089280Y-102262940D01*
X85020189Y-102235475D01*
X84938015Y-102199397D01*
X84848378Y-102157471D01*
X84756894Y-102112461D01*
X84669182Y-102067130D01*
X84590859Y-102024243D01*
X84527755Y-101986695D01*
X84371807Y-101879215D01*
X84219681Y-101757442D01*
X84075939Y-101625556D01*
X83945144Y-101487738D01*
X83834350Y-101351522D01*
X83688995Y-101138596D01*
X83564463Y-100918322D01*
X83460686Y-100690520D01*
X83377594Y-100455011D01*
X83315119Y-100211616D01*
X83273193Y-99960154D01*
X83261505Y-99849946D01*
X83255708Y-99701064D01*
X83262773Y-99539305D01*
X83282005Y-99369229D01*
X83312709Y-99195394D01*
X83354188Y-99022360D01*
X83405748Y-98854686D01*
X83419074Y-98817043D01*
X83514049Y-98586202D01*
X83626665Y-98367049D01*
X83756128Y-98160588D01*
X83901642Y-97967824D01*
X84062414Y-97789764D01*
X84237648Y-97627412D01*
X84426551Y-97481773D01*
X84527755Y-97414348D01*
X84591140Y-97376641D01*
X84669510Y-97333738D01*
X84757248Y-97288404D01*
X84848736Y-97243400D01*
X84938355Y-97201492D01*
X85020488Y-97165443D01*
X85089280Y-97138103D01*
X85175024Y-97109347D01*
X85275681Y-97079922D01*
X85384212Y-97051590D01*
X85493578Y-97026118D01*
X85596741Y-97005270D01*
X85664261Y-96993958D01*
X85774322Y-96981830D01*
X85897624Y-96975385D01*
X86026065Y-96974622D01*
X86151543Y-96979542D01*
X86265954Y-96990144D01*
X86293739Y-96993958D01*
X86387899Y-97010303D01*
X86493415Y-97032564D01*
X86603248Y-97058976D01*
X86710359Y-97087773D01*
X86807710Y-97117193D01*
X86868720Y-97138103D01*
X86937812Y-97165569D01*
X87019985Y-97201646D01*
X87109623Y-97243572D01*
X87201106Y-97288582D01*
X87288818Y-97333913D01*
X87367141Y-97376801D01*
X87430246Y-97414348D01*
X87586193Y-97521828D01*
X87738319Y-97643601D01*
X87882061Y-97775487D01*
X88012856Y-97913305D01*
X88123650Y-98049522D01*
X88269005Y-98262448D01*
X88393537Y-98482722D01*
X88497315Y-98710523D01*
X88580406Y-98946032D01*
X88642881Y-99189428D01*
X88684807Y-99440890D01*
X88696495Y-99551098D01*
X88702292Y-99699980D01*
X88806130Y-99699980D01*
X88806130Y-96867870D01*
X83151870Y-96867870D01*
X83151870Y-102533174D01*
X83151870Y-102533174D01*
G37*
X83151870Y-102533174D02*
X88806130Y-102533174D01*
X88806130Y-99699980D01*
X88702292Y-99699980D01*
X88695227Y-99861738D01*
X88675995Y-100031815D01*
X88645291Y-100205650D01*
X88603812Y-100378684D01*
X88552252Y-100546357D01*
X88538926Y-100584000D01*
X88444514Y-100813511D01*
X88332526Y-101031684D01*
X88203850Y-101237397D01*
X88059372Y-101429529D01*
X87899980Y-101606956D01*
X87726562Y-101768558D01*
X87540004Y-101913210D01*
X87430246Y-101986317D01*
X87218169Y-102107203D01*
X86994598Y-102210868D01*
X86762599Y-102296247D01*
X86525240Y-102362280D01*
X86285587Y-102407903D01*
X86172261Y-102422073D01*
X86090841Y-102427361D01*
X85994694Y-102428499D01*
X85890740Y-102425715D01*
X85785900Y-102419237D01*
X85687097Y-102409291D01*
X85655711Y-102405103D01*
X85566737Y-102389908D01*
X85464964Y-102368527D01*
X85357632Y-102342776D01*
X85251981Y-102314473D01*
X85155252Y-102285434D01*
X85089280Y-102262940D01*
X85020189Y-102235475D01*
X84938015Y-102199397D01*
X84848378Y-102157471D01*
X84756894Y-102112461D01*
X84669182Y-102067130D01*
X84590859Y-102024243D01*
X84527755Y-101986695D01*
X84371807Y-101879215D01*
X84219681Y-101757442D01*
X84075939Y-101625556D01*
X83945144Y-101487738D01*
X83834350Y-101351522D01*
X83688995Y-101138596D01*
X83564463Y-100918322D01*
X83460686Y-100690520D01*
X83377594Y-100455011D01*
X83315119Y-100211616D01*
X83273193Y-99960154D01*
X83261505Y-99849946D01*
X83255708Y-99701064D01*
X83262773Y-99539305D01*
X83282005Y-99369229D01*
X83312709Y-99195394D01*
X83354188Y-99022360D01*
X83405748Y-98854686D01*
X83419074Y-98817043D01*
X83514049Y-98586202D01*
X83626665Y-98367049D01*
X83756128Y-98160588D01*
X83901642Y-97967824D01*
X84062414Y-97789764D01*
X84237648Y-97627412D01*
X84426551Y-97481773D01*
X84527755Y-97414348D01*
X84591140Y-97376641D01*
X84669510Y-97333738D01*
X84757248Y-97288404D01*
X84848736Y-97243400D01*
X84938355Y-97201492D01*
X85020488Y-97165443D01*
X85089280Y-97138103D01*
X85175024Y-97109347D01*
X85275681Y-97079922D01*
X85384212Y-97051590D01*
X85493578Y-97026118D01*
X85596741Y-97005270D01*
X85664261Y-96993958D01*
X85774322Y-96981830D01*
X85897624Y-96975385D01*
X86026065Y-96974622D01*
X86151543Y-96979542D01*
X86265954Y-96990144D01*
X86293739Y-96993958D01*
X86387899Y-97010303D01*
X86493415Y-97032564D01*
X86603248Y-97058976D01*
X86710359Y-97087773D01*
X86807710Y-97117193D01*
X86868720Y-97138103D01*
X86937812Y-97165569D01*
X87019985Y-97201646D01*
X87109623Y-97243572D01*
X87201106Y-97288582D01*
X87288818Y-97333913D01*
X87367141Y-97376801D01*
X87430246Y-97414348D01*
X87586193Y-97521828D01*
X87738319Y-97643601D01*
X87882061Y-97775487D01*
X88012856Y-97913305D01*
X88123650Y-98049522D01*
X88269005Y-98262448D01*
X88393537Y-98482722D01*
X88497315Y-98710523D01*
X88580406Y-98946032D01*
X88642881Y-99189428D01*
X88684807Y-99440890D01*
X88696495Y-99551098D01*
X88702292Y-99699980D01*
X88806130Y-99699980D01*
X88806130Y-96867870D01*
X83151870Y-96867870D01*
X83151870Y-102533174D01*
G36*
X87505684Y-98644377D02*
X87386933Y-98666178D01*
X87273118Y-98706885D01*
X87166784Y-98766230D01*
X87070477Y-98843946D01*
X87067152Y-98847159D01*
X87033341Y-98879171D01*
X87005074Y-98904340D01*
X86986234Y-98919293D01*
X86981081Y-98921956D01*
X86968588Y-98916704D01*
X86940944Y-98902344D01*
X86902036Y-98880971D01*
X86855749Y-98854679D01*
X86847948Y-98850174D01*
X86785755Y-98815563D01*
X86738565Y-98793051D01*
X86703424Y-98781874D01*
X86677382Y-98781267D01*
X86657486Y-98790464D01*
X86648842Y-98798587D01*
X86634061Y-98827826D01*
X86631536Y-98862256D01*
X86639017Y-98884988D01*
X86651165Y-98895131D01*
X86678582Y-98913773D01*
X86717397Y-98938398D01*
X86763735Y-98966488D01*
X86771370Y-98971007D01*
X86817646Y-98998998D01*
X86856099Y-99023574D01*
X86883168Y-99042361D01*
X86895289Y-99052981D01*
X86895609Y-99053856D01*
X86886771Y-99063987D01*
X86863813Y-99080635D01*
X86837630Y-99096706D01*
X86732484Y-99169482D01*
X86638281Y-99259718D01*
X86557061Y-99364662D01*
X86490865Y-99481560D01*
X86441733Y-99607659D01*
X86431033Y-99645304D01*
X86414263Y-99736781D01*
X86407323Y-99839070D01*
X86410215Y-99943205D01*
X86422938Y-100040220D01*
X86431033Y-100076000D01*
X86476028Y-100207090D01*
X86538674Y-100327079D01*
X86617135Y-100434694D01*
X86709572Y-100528664D01*
X86814147Y-100607718D01*
X86929022Y-100670585D01*
X87052358Y-100715992D01*
X87182319Y-100742668D01*
X87317066Y-100749342D01*
X87396114Y-100743614D01*
X87531287Y-100717088D01*
X87657863Y-100671252D01*
X87774346Y-100607712D01*
X87879235Y-100528072D01*
X87971031Y-100433940D01*
X88048235Y-100326920D01*
X88109349Y-100208619D01*
X88152873Y-100080643D01*
X88177308Y-99944596D01*
X88180644Y-99903265D01*
X88184382Y-99861225D01*
X87784609Y-99861225D01*
X87784324Y-99916739D01*
X87782651Y-99956480D01*
X87778365Y-99986761D01*
X87770240Y-100013897D01*
X87757048Y-100044199D01*
X87743789Y-100071390D01*
X87686547Y-100164029D01*
X87614443Y-100240335D01*
X87527420Y-100300356D01*
X87442405Y-100338350D01*
X87406411Y-100348533D01*
X87365424Y-100354050D01*
X87312858Y-100355555D01*
X87275603Y-100354879D01*
X87222266Y-100352719D01*
X87183360Y-100348729D01*
X87151228Y-100341171D01*
X87118213Y-100328309D01*
X87081673Y-100310890D01*
X86994274Y-100255892D01*
X86918022Y-100184227D01*
X86857037Y-100100080D01*
X86837245Y-100062611D01*
X86821798Y-100028656D01*
X86811626Y-100000527D01*
X86805632Y-99971970D01*
X86802722Y-99936734D01*
X86801799Y-99888568D01*
X86801739Y-99860079D01*
X86802022Y-99804580D01*
X86803692Y-99764848D01*
X86807978Y-99734564D01*
X86816112Y-99707409D01*
X86829323Y-99677063D01*
X86842722Y-99649584D01*
X86897885Y-99561840D01*
X86969643Y-99485443D01*
X87053924Y-99424406D01*
X87091215Y-99404723D01*
X87125170Y-99389276D01*
X87153299Y-99379104D01*
X87181856Y-99373111D01*
X87217092Y-99370200D01*
X87265258Y-99369277D01*
X87293747Y-99369217D01*
X87349246Y-99369500D01*
X87388978Y-99371170D01*
X87419262Y-99375456D01*
X87446417Y-99383590D01*
X87476764Y-99396801D01*
X87504242Y-99410200D01*
X87591986Y-99465363D01*
X87668383Y-99537121D01*
X87729420Y-99621402D01*
X87749103Y-99658693D01*
X87764550Y-99692648D01*
X87774722Y-99720777D01*
X87780715Y-99749334D01*
X87783626Y-99784570D01*
X87784549Y-99832736D01*
X87784609Y-99861225D01*
X88184382Y-99861225D01*
X88184424Y-99860759D01*
X88189806Y-99827675D01*
X88195816Y-99809435D01*
X88197794Y-99807590D01*
X88211115Y-99811411D01*
X88239735Y-99824580D01*
X88279928Y-99845229D01*
X88327967Y-99871491D01*
X88348084Y-99882887D01*
X88402300Y-99913725D01*
X88440893Y-99934803D01*
X88467368Y-99947409D01*
X88485228Y-99952828D01*
X88497977Y-99952346D01*
X88509118Y-99947252D01*
X88514332Y-99943935D01*
X88538932Y-99920346D01*
X88553170Y-99896571D01*
X88557510Y-99875158D01*
X88554501Y-99863943D01*
X88505984Y-99863943D01*
X88502839Y-99888719D01*
X88487854Y-99906827D01*
X88467450Y-99911059D01*
X88464774Y-99910229D01*
X88452825Y-99903847D01*
X88423125Y-99887206D01*
X88377054Y-99861096D01*
X88315986Y-99826304D01*
X88241298Y-99783620D01*
X88154368Y-99733831D01*
X88056572Y-99677727D01*
X87949286Y-99616095D01*
X87833887Y-99549725D01*
X87711751Y-99479405D01*
X87584256Y-99405922D01*
X87574783Y-99400459D01*
X87446751Y-99326535D01*
X87323903Y-99255429D01*
X87207628Y-99187956D01*
X87099313Y-99124929D01*
X87000348Y-99067161D01*
X86912120Y-99015466D01*
X86836019Y-98970659D01*
X86773432Y-98933551D01*
X86725748Y-98904958D01*
X86694355Y-98885692D01*
X86680643Y-98876568D01*
X86680414Y-98876362D01*
X86665827Y-98857085D01*
X86668672Y-98839400D01*
X86670554Y-98836216D01*
X86687589Y-98818849D01*
X86698010Y-98814049D01*
X86710513Y-98818865D01*
X86740356Y-98833967D01*
X86785919Y-98858415D01*
X86845581Y-98891267D01*
X86917722Y-98931582D01*
X87000722Y-98978419D01*
X87092959Y-99030838D01*
X87192814Y-99087898D01*
X87298666Y-99148656D01*
X87408895Y-99212174D01*
X87521881Y-99277508D01*
X87636002Y-99343720D01*
X87749639Y-99409867D01*
X87861171Y-99475008D01*
X87968977Y-99538203D01*
X88071438Y-99598510D01*
X88166933Y-99654989D01*
X88253841Y-99706699D01*
X88330542Y-99752699D01*
X88395416Y-99792047D01*
X88446842Y-99823802D01*
X88483200Y-99847025D01*
X88502869Y-99860773D01*
X88505984Y-99863943D01*
X88554501Y-99863943D01*
X88551988Y-99854579D01*
X88534494Y-99832722D01*
X88502915Y-99807472D01*
X88455142Y-99776716D01*
X88403044Y-99746270D01*
X88351153Y-99715385D01*
X88312476Y-99689609D01*
X88289343Y-99670600D01*
X88283610Y-99661181D01*
X88288497Y-99641573D01*
X88298382Y-99610973D01*
X88303095Y-99597749D01*
X88331555Y-99489064D01*
X88339828Y-99376892D01*
X88338086Y-99358814D01*
X88286539Y-99358814D01*
X88284407Y-99390577D01*
X88278361Y-99406743D01*
X88275525Y-99407870D01*
X88263876Y-99402517D01*
X88235056Y-99387187D01*
X88191009Y-99362969D01*
X88133676Y-99330954D01*
X88065002Y-99292232D01*
X87986928Y-99247892D01*
X87901398Y-99199025D01*
X87819982Y-99152266D01*
X87729342Y-99100007D01*
X87644451Y-99050913D01*
X87567255Y-99006122D01*
X87499699Y-98966768D01*
X87443731Y-98933989D01*
X87401298Y-98908920D01*
X87374345Y-98892699D01*
X87364957Y-98886626D01*
X87364318Y-98873567D01*
X87381265Y-98855013D01*
X87412787Y-98833452D01*
X87455876Y-98811372D01*
X87456065Y-98811287D01*
X87485303Y-98794041D01*
X87500836Y-98776680D01*
X87501029Y-98762906D01*
X87484245Y-98756420D01*
X87480365Y-98756304D01*
X87449083Y-98762707D01*
X87413201Y-98779202D01*
X87378722Y-98801721D01*
X87351644Y-98826195D01*
X87337969Y-98848555D01*
X87337348Y-98853280D01*
X87333952Y-98862833D01*
X87321753Y-98862359D01*
X87297732Y-98850862D01*
X87259026Y-98827444D01*
X87212153Y-98797855D01*
X87238859Y-98777493D01*
X87270931Y-98758746D01*
X87318285Y-98738067D01*
X87374533Y-98717793D01*
X87433286Y-98700261D01*
X87479826Y-98689376D01*
X87590682Y-98678419D01*
X87701397Y-98687755D01*
X87809467Y-98715717D01*
X87912388Y-98760637D01*
X88007658Y-98820848D01*
X88092772Y-98894682D01*
X88165227Y-98980473D01*
X88222519Y-99076554D01*
X88262145Y-99181256D01*
X88270627Y-99216034D01*
X88279532Y-99266934D01*
X88284875Y-99316063D01*
X88286539Y-99358814D01*
X88338086Y-99358814D01*
X88328937Y-99263906D01*
X88299908Y-99152779D01*
X88253763Y-99046187D01*
X88191526Y-98946802D01*
X88114220Y-98857299D01*
X88022870Y-98780351D01*
X87979143Y-98751556D01*
X87866100Y-98695070D01*
X87747813Y-98658556D01*
X87626825Y-98641747D01*
X87505684Y-98644377D01*
X87505684Y-98644377D01*
G37*
X87505684Y-98644377D02*
X87386933Y-98666178D01*
X87273118Y-98706885D01*
X87166784Y-98766230D01*
X87070477Y-98843946D01*
X87067152Y-98847159D01*
X87033341Y-98879171D01*
X87005074Y-98904340D01*
X86986234Y-98919293D01*
X86981081Y-98921956D01*
X86968588Y-98916704D01*
X86940944Y-98902344D01*
X86902036Y-98880971D01*
X86855749Y-98854679D01*
X86847948Y-98850174D01*
X86785755Y-98815563D01*
X86738565Y-98793051D01*
X86703424Y-98781874D01*
X86677382Y-98781267D01*
X86657486Y-98790464D01*
X86648842Y-98798587D01*
X86634061Y-98827826D01*
X86631536Y-98862256D01*
X86639017Y-98884988D01*
X86651165Y-98895131D01*
X86678582Y-98913773D01*
X86717397Y-98938398D01*
X86763735Y-98966488D01*
X86771370Y-98971007D01*
X86817646Y-98998998D01*
X86856099Y-99023574D01*
X86883168Y-99042361D01*
X86895289Y-99052981D01*
X86895609Y-99053856D01*
X86886771Y-99063987D01*
X86863813Y-99080635D01*
X86837630Y-99096706D01*
X86732484Y-99169482D01*
X86638281Y-99259718D01*
X86557061Y-99364662D01*
X86490865Y-99481560D01*
X86441733Y-99607659D01*
X86431033Y-99645304D01*
X86414263Y-99736781D01*
X86407323Y-99839070D01*
X86410215Y-99943205D01*
X86422938Y-100040220D01*
X86431033Y-100076000D01*
X86476028Y-100207090D01*
X86538674Y-100327079D01*
X86617135Y-100434694D01*
X86709572Y-100528664D01*
X86814147Y-100607718D01*
X86929022Y-100670585D01*
X87052358Y-100715992D01*
X87182319Y-100742668D01*
X87317066Y-100749342D01*
X87396114Y-100743614D01*
X87531287Y-100717088D01*
X87657863Y-100671252D01*
X87774346Y-100607712D01*
X87879235Y-100528072D01*
X87971031Y-100433940D01*
X88048235Y-100326920D01*
X88109349Y-100208619D01*
X88152873Y-100080643D01*
X88177308Y-99944596D01*
X88180644Y-99903265D01*
X88184382Y-99861225D01*
X87784609Y-99861225D01*
X87784324Y-99916739D01*
X87782651Y-99956480D01*
X87778365Y-99986761D01*
X87770240Y-100013897D01*
X87757048Y-100044199D01*
X87743789Y-100071390D01*
X87686547Y-100164029D01*
X87614443Y-100240335D01*
X87527420Y-100300356D01*
X87442405Y-100338350D01*
X87406411Y-100348533D01*
X87365424Y-100354050D01*
X87312858Y-100355555D01*
X87275603Y-100354879D01*
X87222266Y-100352719D01*
X87183360Y-100348729D01*
X87151228Y-100341171D01*
X87118213Y-100328309D01*
X87081673Y-100310890D01*
X86994274Y-100255892D01*
X86918022Y-100184227D01*
X86857037Y-100100080D01*
X86837245Y-100062611D01*
X86821798Y-100028656D01*
X86811626Y-100000527D01*
X86805632Y-99971970D01*
X86802722Y-99936734D01*
X86801799Y-99888568D01*
X86801739Y-99860079D01*
X86802022Y-99804580D01*
X86803692Y-99764848D01*
X86807978Y-99734564D01*
X86816112Y-99707409D01*
X86829323Y-99677063D01*
X86842722Y-99649584D01*
X86897885Y-99561840D01*
X86969643Y-99485443D01*
X87053924Y-99424406D01*
X87091215Y-99404723D01*
X87125170Y-99389276D01*
X87153299Y-99379104D01*
X87181856Y-99373111D01*
X87217092Y-99370200D01*
X87265258Y-99369277D01*
X87293747Y-99369217D01*
X87349246Y-99369500D01*
X87388978Y-99371170D01*
X87419262Y-99375456D01*
X87446417Y-99383590D01*
X87476764Y-99396801D01*
X87504242Y-99410200D01*
X87591986Y-99465363D01*
X87668383Y-99537121D01*
X87729420Y-99621402D01*
X87749103Y-99658693D01*
X87764550Y-99692648D01*
X87774722Y-99720777D01*
X87780715Y-99749334D01*
X87783626Y-99784570D01*
X87784549Y-99832736D01*
X87784609Y-99861225D01*
X88184382Y-99861225D01*
X88184424Y-99860759D01*
X88189806Y-99827675D01*
X88195816Y-99809435D01*
X88197794Y-99807590D01*
X88211115Y-99811411D01*
X88239735Y-99824580D01*
X88279928Y-99845229D01*
X88327967Y-99871491D01*
X88348084Y-99882887D01*
X88402300Y-99913725D01*
X88440893Y-99934803D01*
X88467368Y-99947409D01*
X88485228Y-99952828D01*
X88497977Y-99952346D01*
X88509118Y-99947252D01*
X88514332Y-99943935D01*
X88538932Y-99920346D01*
X88553170Y-99896571D01*
X88557510Y-99875158D01*
X88554501Y-99863943D01*
X88505984Y-99863943D01*
X88502839Y-99888719D01*
X88487854Y-99906827D01*
X88467450Y-99911059D01*
X88464774Y-99910229D01*
X88452825Y-99903847D01*
X88423125Y-99887206D01*
X88377054Y-99861096D01*
X88315986Y-99826304D01*
X88241298Y-99783620D01*
X88154368Y-99733831D01*
X88056572Y-99677727D01*
X87949286Y-99616095D01*
X87833887Y-99549725D01*
X87711751Y-99479405D01*
X87584256Y-99405922D01*
X87574783Y-99400459D01*
X87446751Y-99326535D01*
X87323903Y-99255429D01*
X87207628Y-99187956D01*
X87099313Y-99124929D01*
X87000348Y-99067161D01*
X86912120Y-99015466D01*
X86836019Y-98970659D01*
X86773432Y-98933551D01*
X86725748Y-98904958D01*
X86694355Y-98885692D01*
X86680643Y-98876568D01*
X86680414Y-98876362D01*
X86665827Y-98857085D01*
X86668672Y-98839400D01*
X86670554Y-98836216D01*
X86687589Y-98818849D01*
X86698010Y-98814049D01*
X86710513Y-98818865D01*
X86740356Y-98833967D01*
X86785919Y-98858415D01*
X86845581Y-98891267D01*
X86917722Y-98931582D01*
X87000722Y-98978419D01*
X87092959Y-99030838D01*
X87192814Y-99087898D01*
X87298666Y-99148656D01*
X87408895Y-99212174D01*
X87521881Y-99277508D01*
X87636002Y-99343720D01*
X87749639Y-99409867D01*
X87861171Y-99475008D01*
X87968977Y-99538203D01*
X88071438Y-99598510D01*
X88166933Y-99654989D01*
X88253841Y-99706699D01*
X88330542Y-99752699D01*
X88395416Y-99792047D01*
X88446842Y-99823802D01*
X88483200Y-99847025D01*
X88502869Y-99860773D01*
X88505984Y-99863943D01*
X88554501Y-99863943D01*
X88551988Y-99854579D01*
X88534494Y-99832722D01*
X88502915Y-99807472D01*
X88455142Y-99776716D01*
X88403044Y-99746270D01*
X88351153Y-99715385D01*
X88312476Y-99689609D01*
X88289343Y-99670600D01*
X88283610Y-99661181D01*
X88288497Y-99641573D01*
X88298382Y-99610973D01*
X88303095Y-99597749D01*
X88331555Y-99489064D01*
X88339828Y-99376892D01*
X88338086Y-99358814D01*
X88286539Y-99358814D01*
X88284407Y-99390577D01*
X88278361Y-99406743D01*
X88275525Y-99407870D01*
X88263876Y-99402517D01*
X88235056Y-99387187D01*
X88191009Y-99362969D01*
X88133676Y-99330954D01*
X88065002Y-99292232D01*
X87986928Y-99247892D01*
X87901398Y-99199025D01*
X87819982Y-99152266D01*
X87729342Y-99100007D01*
X87644451Y-99050913D01*
X87567255Y-99006122D01*
X87499699Y-98966768D01*
X87443731Y-98933989D01*
X87401298Y-98908920D01*
X87374345Y-98892699D01*
X87364957Y-98886626D01*
X87364318Y-98873567D01*
X87381265Y-98855013D01*
X87412787Y-98833452D01*
X87455876Y-98811372D01*
X87456065Y-98811287D01*
X87485303Y-98794041D01*
X87500836Y-98776680D01*
X87501029Y-98762906D01*
X87484245Y-98756420D01*
X87480365Y-98756304D01*
X87449083Y-98762707D01*
X87413201Y-98779202D01*
X87378722Y-98801721D01*
X87351644Y-98826195D01*
X87337969Y-98848555D01*
X87337348Y-98853280D01*
X87333952Y-98862833D01*
X87321753Y-98862359D01*
X87297732Y-98850862D01*
X87259026Y-98827444D01*
X87212153Y-98797855D01*
X87238859Y-98777493D01*
X87270931Y-98758746D01*
X87318285Y-98738067D01*
X87374533Y-98717793D01*
X87433286Y-98700261D01*
X87479826Y-98689376D01*
X87590682Y-98678419D01*
X87701397Y-98687755D01*
X87809467Y-98715717D01*
X87912388Y-98760637D01*
X88007658Y-98820848D01*
X88092772Y-98894682D01*
X88165227Y-98980473D01*
X88222519Y-99076554D01*
X88262145Y-99181256D01*
X88270627Y-99216034D01*
X88279532Y-99266934D01*
X88284875Y-99316063D01*
X88286539Y-99358814D01*
X88338086Y-99358814D01*
X88328937Y-99263906D01*
X88299908Y-99152779D01*
X88253763Y-99046187D01*
X88191526Y-98946802D01*
X88114220Y-98857299D01*
X88022870Y-98780351D01*
X87979143Y-98751556D01*
X87866100Y-98695070D01*
X87747813Y-98658556D01*
X87626825Y-98641747D01*
X87505684Y-98644377D01*
G36*
X85774654Y-98968300D02*
X85690288Y-98969370D01*
X85618275Y-98971127D01*
X85561734Y-98973515D01*
X85523787Y-98976473D01*
X85520696Y-98976855D01*
X85415749Y-99000845D01*
X85321417Y-99042485D01*
X85238936Y-99099497D01*
X85169547Y-99169605D01*
X85114486Y-99250532D01*
X85074991Y-99340000D01*
X85052302Y-99435732D01*
X85047657Y-99535452D01*
X85062292Y-99636882D01*
X85097448Y-99737745D01*
X85101851Y-99747115D01*
X85158094Y-99839291D01*
X85230737Y-99917552D01*
X85317673Y-99979776D01*
X85349522Y-99996616D01*
X85397409Y-100017796D01*
X85445216Y-100033828D01*
X85497064Y-100045348D01*
X85557072Y-100052995D01*
X85629359Y-100057404D01*
X85718046Y-100059213D01*
X85755212Y-100059351D01*
X85934511Y-100059435D01*
X85937430Y-100403627D01*
X85938660Y-100507514D01*
X85940424Y-100594321D01*
X85942680Y-100663013D01*
X85945385Y-100712556D01*
X85948499Y-100741916D01*
X85951391Y-100750222D01*
X85968283Y-100749712D01*
X85997676Y-100745587D01*
X86010676Y-100743209D01*
X86095782Y-100715791D01*
X86171354Y-100670013D01*
X86234894Y-100608453D01*
X86283906Y-100533686D01*
X86315890Y-100448291D01*
X86321506Y-100422547D01*
X86324460Y-100394622D01*
X86326865Y-100347438D01*
X86328664Y-100283820D01*
X86329800Y-100206590D01*
X86330217Y-100118573D01*
X86329855Y-100022591D01*
X86329791Y-100014660D01*
X86326870Y-99667391D01*
X85929304Y-99661870D01*
X85816703Y-99660099D01*
X85724476Y-99658161D01*
X85650908Y-99655973D01*
X85594288Y-99653455D01*
X85552901Y-99650525D01*
X85525035Y-99647102D01*
X85508976Y-99643106D01*
X85506300Y-99641839D01*
X85470658Y-99609719D01*
X85447805Y-99564989D01*
X85439160Y-99513975D01*
X85446142Y-99463002D01*
X85459509Y-99433253D01*
X85473306Y-99412746D01*
X85488561Y-99396840D01*
X85508196Y-99384880D01*
X85535132Y-99376209D01*
X85572292Y-99370170D01*
X85622595Y-99366107D01*
X85688964Y-99363362D01*
X85774319Y-99361279D01*
X85780225Y-99361159D01*
X85868138Y-99359022D01*
X85937539Y-99356133D01*
X85992001Y-99351788D01*
X86035099Y-99345282D01*
X86070406Y-99335910D01*
X86101497Y-99322969D01*
X86131946Y-99305753D01*
X86161893Y-99285926D01*
X86224188Y-99230660D01*
X86274202Y-99161286D01*
X86308608Y-99083479D01*
X86323533Y-99010304D01*
X86326870Y-98971652D01*
X85967957Y-98968460D01*
X85868250Y-98967977D01*
X85774654Y-98968300D01*
X85774654Y-98968300D01*
G37*
X85774654Y-98968300D02*
X85690288Y-98969370D01*
X85618275Y-98971127D01*
X85561734Y-98973515D01*
X85523787Y-98976473D01*
X85520696Y-98976855D01*
X85415749Y-99000845D01*
X85321417Y-99042485D01*
X85238936Y-99099497D01*
X85169547Y-99169605D01*
X85114486Y-99250532D01*
X85074991Y-99340000D01*
X85052302Y-99435732D01*
X85047657Y-99535452D01*
X85062292Y-99636882D01*
X85097448Y-99737745D01*
X85101851Y-99747115D01*
X85158094Y-99839291D01*
X85230737Y-99917552D01*
X85317673Y-99979776D01*
X85349522Y-99996616D01*
X85397409Y-100017796D01*
X85445216Y-100033828D01*
X85497064Y-100045348D01*
X85557072Y-100052995D01*
X85629359Y-100057404D01*
X85718046Y-100059213D01*
X85755212Y-100059351D01*
X85934511Y-100059435D01*
X85937430Y-100403627D01*
X85938660Y-100507514D01*
X85940424Y-100594321D01*
X85942680Y-100663013D01*
X85945385Y-100712556D01*
X85948499Y-100741916D01*
X85951391Y-100750222D01*
X85968283Y-100749712D01*
X85997676Y-100745587D01*
X86010676Y-100743209D01*
X86095782Y-100715791D01*
X86171354Y-100670013D01*
X86234894Y-100608453D01*
X86283906Y-100533686D01*
X86315890Y-100448291D01*
X86321506Y-100422547D01*
X86324460Y-100394622D01*
X86326865Y-100347438D01*
X86328664Y-100283820D01*
X86329800Y-100206590D01*
X86330217Y-100118573D01*
X86329855Y-100022591D01*
X86329791Y-100014660D01*
X86326870Y-99667391D01*
X85929304Y-99661870D01*
X85816703Y-99660099D01*
X85724476Y-99658161D01*
X85650908Y-99655973D01*
X85594288Y-99653455D01*
X85552901Y-99650525D01*
X85525035Y-99647102D01*
X85508976Y-99643106D01*
X85506300Y-99641839D01*
X85470658Y-99609719D01*
X85447805Y-99564989D01*
X85439160Y-99513975D01*
X85446142Y-99463002D01*
X85459509Y-99433253D01*
X85473306Y-99412746D01*
X85488561Y-99396840D01*
X85508196Y-99384880D01*
X85535132Y-99376209D01*
X85572292Y-99370170D01*
X85622595Y-99366107D01*
X85688964Y-99363362D01*
X85774319Y-99361279D01*
X85780225Y-99361159D01*
X85868138Y-99359022D01*
X85937539Y-99356133D01*
X85992001Y-99351788D01*
X86035099Y-99345282D01*
X86070406Y-99335910D01*
X86101497Y-99322969D01*
X86131946Y-99305753D01*
X86161893Y-99285926D01*
X86224188Y-99230660D01*
X86274202Y-99161286D01*
X86308608Y-99083479D01*
X86323533Y-99010304D01*
X86326870Y-98971652D01*
X85967957Y-98968460D01*
X85868250Y-98967977D01*
X85774654Y-98968300D01*
G36*
X84108266Y-98826219D02*
X84060321Y-98834016D01*
X84029820Y-98844374D01*
X84012194Y-98861670D01*
X84002877Y-98890282D01*
X83997518Y-98932349D01*
X83992165Y-98975499D01*
X83985179Y-99002471D01*
X83974437Y-99019164D01*
X83963054Y-99028220D01*
X83947100Y-99037044D01*
X83932089Y-99038348D01*
X83911572Y-99030896D01*
X83879099Y-99013452D01*
X83875562Y-99011458D01*
X83841502Y-98993457D01*
X83813872Y-98981041D01*
X83800380Y-98977174D01*
X83785584Y-98984580D01*
X83761429Y-99003871D01*
X83736755Y-99027296D01*
X83687564Y-99077418D01*
X83707886Y-99112883D01*
X83727332Y-99146564D01*
X83745787Y-99178160D01*
X83745960Y-99178453D01*
X83757610Y-99209067D01*
X83752960Y-99239192D01*
X83745494Y-99255318D01*
X83733435Y-99265723D01*
X83711443Y-99272842D01*
X83674179Y-99279109D01*
X83661547Y-99280870D01*
X83615337Y-99288416D01*
X83586259Y-99298701D01*
X83569436Y-99316358D01*
X83559996Y-99346018D01*
X83554312Y-99382784D01*
X83546807Y-99439356D01*
X83613057Y-99472798D01*
X83659915Y-99500864D01*
X83685363Y-99527768D01*
X83689915Y-99555004D01*
X83674090Y-99584064D01*
X83657344Y-99600960D01*
X83625894Y-99627675D01*
X83594746Y-99652191D01*
X83588433Y-99656814D01*
X83556899Y-99679368D01*
X83577079Y-99734119D01*
X83590368Y-99767329D01*
X83602226Y-99792231D01*
X83607160Y-99799913D01*
X83622473Y-99805404D01*
X83653322Y-99809358D01*
X83693165Y-99810953D01*
X83695040Y-99810956D01*
X83736768Y-99811679D01*
X83762780Y-99815103D01*
X83779429Y-99823116D01*
X83793070Y-99837603D01*
X83795493Y-99840774D01*
X83817966Y-99870591D01*
X83794135Y-99932865D01*
X83781259Y-99969584D01*
X83772606Y-100000137D01*
X83770304Y-100014371D01*
X83778741Y-100031549D01*
X83799886Y-100053042D01*
X83827493Y-100074302D01*
X83855314Y-100090780D01*
X83877102Y-100097928D01*
X83883474Y-100096774D01*
X83899617Y-100085442D01*
X83925624Y-100065487D01*
X83942616Y-100051933D01*
X83971636Y-100031017D01*
X83996165Y-100017739D01*
X84005596Y-100015261D01*
X84032193Y-100020301D01*
X84058600Y-100032428D01*
X84076422Y-100047151D01*
X84079522Y-100054799D01*
X84071858Y-100065465D01*
X84050061Y-100089606D01*
X84015922Y-100125394D01*
X83971231Y-100170998D01*
X83917781Y-100224590D01*
X83857362Y-100284340D01*
X83797498Y-100342849D01*
X83715489Y-100423032D01*
X83648942Y-100489168D01*
X83597032Y-100542130D01*
X83558935Y-100582789D01*
X83533827Y-100612020D01*
X83520883Y-100630696D01*
X83518650Y-100638223D01*
X83530595Y-100655883D01*
X83560178Y-100678902D01*
X83593609Y-100699031D01*
X83627795Y-100717219D01*
X83655129Y-100728766D01*
X83682537Y-100735175D01*
X83716949Y-100737952D01*
X83765290Y-100738602D01*
X83775826Y-100738609D01*
X83818629Y-100738184D01*
X83855855Y-100736006D01*
X83889579Y-100730714D01*
X83921873Y-100720951D01*
X83954809Y-100705358D01*
X83990461Y-100682576D01*
X84030901Y-100651248D01*
X84078203Y-100610013D01*
X84134438Y-100557514D01*
X84201679Y-100492392D01*
X84282000Y-100413288D01*
X84301326Y-100394177D01*
X84366371Y-100330225D01*
X84426537Y-100271820D01*
X84480027Y-100220652D01*
X84525042Y-100178406D01*
X84559785Y-100146772D01*
X84582458Y-100127437D01*
X84591218Y-100122029D01*
X84593132Y-100134575D01*
X84594861Y-100166312D01*
X84596336Y-100214344D01*
X84597490Y-100275776D01*
X84598255Y-100347711D01*
X84598562Y-100427255D01*
X84598565Y-100436102D01*
X84598852Y-100516099D01*
X84599660Y-100588626D01*
X84600915Y-100650824D01*
X84602540Y-100699836D01*
X84604458Y-100732804D01*
X84606594Y-100746868D01*
X84606848Y-100747143D01*
X84621876Y-100747913D01*
X84650129Y-100744822D01*
X84664326Y-100742463D01*
X84748080Y-100716239D01*
X84824165Y-100670856D01*
X84889527Y-100608754D01*
X84941109Y-100532374D01*
X84950185Y-100514152D01*
X84979565Y-100451478D01*
X84979565Y-99667391D01*
X84579411Y-99661870D01*
X84179256Y-99656348D01*
X84137671Y-99614751D01*
X84113068Y-99587879D01*
X84100705Y-99564739D01*
X84096458Y-99535216D01*
X84096087Y-99512783D01*
X84097645Y-99475502D01*
X84105070Y-99450123D01*
X84122482Y-99426532D01*
X84137650Y-99410814D01*
X84179212Y-99369217D01*
X84424780Y-99362838D01*
X84506908Y-99360510D01*
X84570442Y-99358102D01*
X84618875Y-99355265D01*
X84655698Y-99351647D01*
X84684403Y-99346898D01*
X84708482Y-99340669D01*
X84731426Y-99332608D01*
X84733314Y-99331875D01*
X84800252Y-99296255D01*
X84861194Y-99246049D01*
X84912681Y-99185668D01*
X84951252Y-99119522D01*
X84973451Y-99052025D01*
X84977261Y-99020739D01*
X84979565Y-98971652D01*
X84604087Y-98965617D01*
X84515383Y-98964128D01*
X84434001Y-98962643D01*
X84362497Y-98961216D01*
X84303431Y-98959904D01*
X84259363Y-98958762D01*
X84232849Y-98957848D01*
X84226007Y-98957334D01*
X84220114Y-98947112D01*
X84207121Y-98922414D01*
X84189803Y-98888521D01*
X84189258Y-98887442D01*
X84155111Y-98819798D01*
X84108266Y-98826219D01*
X84108266Y-98826219D01*
G37*
X84108266Y-98826219D02*
X84060321Y-98834016D01*
X84029820Y-98844374D01*
X84012194Y-98861670D01*
X84002877Y-98890282D01*
X83997518Y-98932349D01*
X83992165Y-98975499D01*
X83985179Y-99002471D01*
X83974437Y-99019164D01*
X83963054Y-99028220D01*
X83947100Y-99037044D01*
X83932089Y-99038348D01*
X83911572Y-99030896D01*
X83879099Y-99013452D01*
X83875562Y-99011458D01*
X83841502Y-98993457D01*
X83813872Y-98981041D01*
X83800380Y-98977174D01*
X83785584Y-98984580D01*
X83761429Y-99003871D01*
X83736755Y-99027296D01*
X83687564Y-99077418D01*
X83707886Y-99112883D01*
X83727332Y-99146564D01*
X83745787Y-99178160D01*
X83745960Y-99178453D01*
X83757610Y-99209067D01*
X83752960Y-99239192D01*
X83745494Y-99255318D01*
X83733435Y-99265723D01*
X83711443Y-99272842D01*
X83674179Y-99279109D01*
X83661547Y-99280870D01*
X83615337Y-99288416D01*
X83586259Y-99298701D01*
X83569436Y-99316358D01*
X83559996Y-99346018D01*
X83554312Y-99382784D01*
X83546807Y-99439356D01*
X83613057Y-99472798D01*
X83659915Y-99500864D01*
X83685363Y-99527768D01*
X83689915Y-99555004D01*
X83674090Y-99584064D01*
X83657344Y-99600960D01*
X83625894Y-99627675D01*
X83594746Y-99652191D01*
X83588433Y-99656814D01*
X83556899Y-99679368D01*
X83577079Y-99734119D01*
X83590368Y-99767329D01*
X83602226Y-99792231D01*
X83607160Y-99799913D01*
X83622473Y-99805404D01*
X83653322Y-99809358D01*
X83693165Y-99810953D01*
X83695040Y-99810956D01*
X83736768Y-99811679D01*
X83762780Y-99815103D01*
X83779429Y-99823116D01*
X83793070Y-99837603D01*
X83795493Y-99840774D01*
X83817966Y-99870591D01*
X83794135Y-99932865D01*
X83781259Y-99969584D01*
X83772606Y-100000137D01*
X83770304Y-100014371D01*
X83778741Y-100031549D01*
X83799886Y-100053042D01*
X83827493Y-100074302D01*
X83855314Y-100090780D01*
X83877102Y-100097928D01*
X83883474Y-100096774D01*
X83899617Y-100085442D01*
X83925624Y-100065487D01*
X83942616Y-100051933D01*
X83971636Y-100031017D01*
X83996165Y-100017739D01*
X84005596Y-100015261D01*
X84032193Y-100020301D01*
X84058600Y-100032428D01*
X84076422Y-100047151D01*
X84079522Y-100054799D01*
X84071858Y-100065465D01*
X84050061Y-100089606D01*
X84015922Y-100125394D01*
X83971231Y-100170998D01*
X83917781Y-100224590D01*
X83857362Y-100284340D01*
X83797498Y-100342849D01*
X83715489Y-100423032D01*
X83648942Y-100489168D01*
X83597032Y-100542130D01*
X83558935Y-100582789D01*
X83533827Y-100612020D01*
X83520883Y-100630696D01*
X83518650Y-100638223D01*
X83530595Y-100655883D01*
X83560178Y-100678902D01*
X83593609Y-100699031D01*
X83627795Y-100717219D01*
X83655129Y-100728766D01*
X83682537Y-100735175D01*
X83716949Y-100737952D01*
X83765290Y-100738602D01*
X83775826Y-100738609D01*
X83818629Y-100738184D01*
X83855855Y-100736006D01*
X83889579Y-100730714D01*
X83921873Y-100720951D01*
X83954809Y-100705358D01*
X83990461Y-100682576D01*
X84030901Y-100651248D01*
X84078203Y-100610013D01*
X84134438Y-100557514D01*
X84201679Y-100492392D01*
X84282000Y-100413288D01*
X84301326Y-100394177D01*
X84366371Y-100330225D01*
X84426537Y-100271820D01*
X84480027Y-100220652D01*
X84525042Y-100178406D01*
X84559785Y-100146772D01*
X84582458Y-100127437D01*
X84591218Y-100122029D01*
X84593132Y-100134575D01*
X84594861Y-100166312D01*
X84596336Y-100214344D01*
X84597490Y-100275776D01*
X84598255Y-100347711D01*
X84598562Y-100427255D01*
X84598565Y-100436102D01*
X84598852Y-100516099D01*
X84599660Y-100588626D01*
X84600915Y-100650824D01*
X84602540Y-100699836D01*
X84604458Y-100732804D01*
X84606594Y-100746868D01*
X84606848Y-100747143D01*
X84621876Y-100747913D01*
X84650129Y-100744822D01*
X84664326Y-100742463D01*
X84748080Y-100716239D01*
X84824165Y-100670856D01*
X84889527Y-100608754D01*
X84941109Y-100532374D01*
X84950185Y-100514152D01*
X84979565Y-100451478D01*
X84979565Y-99667391D01*
X84579411Y-99661870D01*
X84179256Y-99656348D01*
X84137671Y-99614751D01*
X84113068Y-99587879D01*
X84100705Y-99564739D01*
X84096458Y-99535216D01*
X84096087Y-99512783D01*
X84097645Y-99475502D01*
X84105070Y-99450123D01*
X84122482Y-99426532D01*
X84137650Y-99410814D01*
X84179212Y-99369217D01*
X84424780Y-99362838D01*
X84506908Y-99360510D01*
X84570442Y-99358102D01*
X84618875Y-99355265D01*
X84655698Y-99351647D01*
X84684403Y-99346898D01*
X84708482Y-99340669D01*
X84731426Y-99332608D01*
X84733314Y-99331875D01*
X84800252Y-99296255D01*
X84861194Y-99246049D01*
X84912681Y-99185668D01*
X84951252Y-99119522D01*
X84973451Y-99052025D01*
X84977261Y-99020739D01*
X84979565Y-98971652D01*
X84604087Y-98965617D01*
X84515383Y-98964128D01*
X84434001Y-98962643D01*
X84362497Y-98961216D01*
X84303431Y-98959904D01*
X84259363Y-98958762D01*
X84232849Y-98957848D01*
X84226007Y-98957334D01*
X84220114Y-98947112D01*
X84207121Y-98922414D01*
X84189803Y-98888521D01*
X84189258Y-98887442D01*
X84155111Y-98819798D01*
X84108266Y-98826219D01*
G36*
X88136668Y-99117562D02*
X88134874Y-99138003D01*
X88138493Y-99174811D01*
X88143487Y-99208864D01*
X88152202Y-99259036D01*
X88160245Y-99289505D01*
X88168834Y-99302574D01*
X88179185Y-99300548D01*
X88187502Y-99292146D01*
X88193161Y-99272654D01*
X88193263Y-99239964D01*
X88188915Y-99200916D01*
X88181226Y-99162350D01*
X88171304Y-99131107D01*
X88160260Y-99114027D01*
X88158481Y-99113073D01*
X88144371Y-99110312D01*
X88136668Y-99117562D01*
X88136668Y-99117562D01*
G37*
X88136668Y-99117562D02*
X88134874Y-99138003D01*
X88138493Y-99174811D01*
X88143487Y-99208864D01*
X88152202Y-99259036D01*
X88160245Y-99289505D01*
X88168834Y-99302574D01*
X88179185Y-99300548D01*
X88187502Y-99292146D01*
X88193161Y-99272654D01*
X88193263Y-99239964D01*
X88188915Y-99200916D01*
X88181226Y-99162350D01*
X88171304Y-99131107D01*
X88160260Y-99114027D01*
X88158481Y-99113073D01*
X88144371Y-99110312D01*
X88136668Y-99117562D01*
G36*
X88044845Y-99115770D02*
X88039322Y-99132430D01*
X88038221Y-99161548D01*
X88040744Y-99196209D01*
X88046092Y-99229498D01*
X88053463Y-99254501D01*
X88062019Y-99264304D01*
X88075418Y-99254880D01*
X88083920Y-99236096D01*
X88087815Y-99202844D01*
X88084966Y-99168707D01*
X88077011Y-99138731D01*
X88065589Y-99117959D01*
X88052338Y-99111437D01*
X88044845Y-99115770D01*
X88044845Y-99115770D01*
G37*
X88044845Y-99115770D02*
X88039322Y-99132430D01*
X88038221Y-99161548D01*
X88040744Y-99196209D01*
X88046092Y-99229498D01*
X88053463Y-99254501D01*
X88062019Y-99264304D01*
X88075418Y-99254880D01*
X88083920Y-99236096D01*
X88087815Y-99202844D01*
X88084966Y-99168707D01*
X88077011Y-99138731D01*
X88065589Y-99117959D01*
X88052338Y-99111437D01*
X88044845Y-99115770D01*
G36*
X87954436Y-99112774D02*
X87950270Y-99139999D01*
X87950261Y-99141906D01*
X87954545Y-99168825D01*
X87964714Y-99183961D01*
X87976744Y-99183733D01*
X87984259Y-99172156D01*
X87988510Y-99145333D01*
X87983679Y-99120213D01*
X87971961Y-99105362D01*
X87966826Y-99104174D01*
X87954436Y-99112774D01*
X87954436Y-99112774D01*
G37*
X87954436Y-99112774D02*
X87950270Y-99139999D01*
X87950261Y-99141906D01*
X87954545Y-99168825D01*
X87964714Y-99183961D01*
X87976744Y-99183733D01*
X87984259Y-99172156D01*
X87988510Y-99145333D01*
X87983679Y-99120213D01*
X87971961Y-99105362D01*
X87966826Y-99104174D01*
X87954436Y-99112774D01*
G36*
X87517181Y-98872000D02*
X87496174Y-98891263D01*
X87484454Y-98913001D01*
X87487182Y-98932248D01*
X87489415Y-98934876D01*
X87503694Y-98936200D01*
X87528271Y-98920411D01*
X87543338Y-98907290D01*
X87567202Y-98884068D01*
X87575906Y-98870689D01*
X87571459Y-98863102D01*
X87566415Y-98860768D01*
X87542315Y-98860180D01*
X87517181Y-98872000D01*
X87517181Y-98872000D01*
G37*
X87517181Y-98872000D02*
X87496174Y-98891263D01*
X87484454Y-98913001D01*
X87487182Y-98932248D01*
X87489415Y-98934876D01*
X87503694Y-98936200D01*
X87528271Y-98920411D01*
X87543338Y-98907290D01*
X87567202Y-98884068D01*
X87575906Y-98870689D01*
X87571459Y-98863102D01*
X87566415Y-98860768D01*
X87542315Y-98860180D01*
X87517181Y-98872000D01*
G04 #@! TO.C,G\002A\002A\002A*
G36*
X75857485Y-138276479D02*
X75796456Y-138276518D01*
X75738364Y-138276581D01*
X75683740Y-138276667D01*
X75633111Y-138276773D01*
X75587006Y-138276898D01*
X75545954Y-138277040D01*
X75510483Y-138277198D01*
X75481121Y-138277369D01*
X75458398Y-138277553D01*
X75442841Y-138277746D01*
X75434979Y-138277949D01*
X75434092Y-138278044D01*
X75435695Y-138282454D01*
X75439813Y-138292099D01*
X75443466Y-138300269D01*
X75449490Y-138320214D01*
X75452547Y-138344938D01*
X75452590Y-138371272D01*
X75449569Y-138396046D01*
X75445176Y-138411932D01*
X75429217Y-138442755D01*
X75406953Y-138468508D01*
X75379347Y-138488255D01*
X75356299Y-138498366D01*
X75338459Y-138502319D01*
X75314800Y-138504654D01*
X75287819Y-138505353D01*
X75260013Y-138504397D01*
X75233877Y-138501768D01*
X75220036Y-138499380D01*
X75209860Y-138497242D01*
X75192384Y-138493555D01*
X75168590Y-138488525D01*
X75139460Y-138482361D01*
X75105976Y-138475270D01*
X75069120Y-138467461D01*
X75029873Y-138459142D01*
X74996767Y-138452120D01*
X74957493Y-138443848D01*
X74920786Y-138436231D01*
X74887467Y-138429430D01*
X74858359Y-138423609D01*
X74834285Y-138418930D01*
X74816068Y-138415556D01*
X74804529Y-138413648D01*
X74800507Y-138413340D01*
X74799170Y-138417840D01*
X74796277Y-138429788D01*
X74792015Y-138448345D01*
X74786570Y-138472673D01*
X74780127Y-138501934D01*
X74772875Y-138535290D01*
X74764997Y-138571903D01*
X74758311Y-138603254D01*
X74733359Y-138720714D01*
X74710081Y-138830292D01*
X74688391Y-138932386D01*
X74668206Y-139027396D01*
X74649439Y-139115720D01*
X74632006Y-139197759D01*
X74615823Y-139273910D01*
X74600805Y-139344574D01*
X74586866Y-139410149D01*
X74573923Y-139471035D01*
X74561889Y-139527631D01*
X74550680Y-139580336D01*
X74540212Y-139629549D01*
X74534471Y-139656532D01*
X74524118Y-139705199D01*
X74513320Y-139755970D01*
X74502388Y-139807377D01*
X74491635Y-139857955D01*
X74481372Y-139906234D01*
X74471912Y-139950749D01*
X74463566Y-139990031D01*
X74456647Y-140022614D01*
X74456176Y-140024832D01*
X74448892Y-140059134D01*
X74440212Y-140100002D01*
X74430500Y-140145719D01*
X74420120Y-140194570D01*
X74409438Y-140244839D01*
X74398817Y-140294810D01*
X74388622Y-140342768D01*
X74384215Y-140363499D01*
X74373979Y-140411649D01*
X74362850Y-140464009D01*
X74351250Y-140518601D01*
X74339598Y-140573444D01*
X74328315Y-140626560D01*
X74317821Y-140675968D01*
X74308538Y-140719688D01*
X74305967Y-140731799D01*
X74297133Y-140773406D01*
X74287905Y-140816849D01*
X74278649Y-140860406D01*
X74269730Y-140902357D01*
X74261515Y-140940979D01*
X74254370Y-140974551D01*
X74249269Y-140998499D01*
X74243435Y-141025887D01*
X74236203Y-141059882D01*
X74227926Y-141098811D01*
X74218961Y-141140996D01*
X74209664Y-141184765D01*
X74200392Y-141228441D01*
X74191694Y-141269432D01*
X74181846Y-141315836D01*
X74170808Y-141367814D01*
X74159106Y-141422895D01*
X74147264Y-141478610D01*
X74135806Y-141532489D01*
X74125259Y-141582063D01*
X74119491Y-141609157D01*
X74109650Y-141655378D01*
X74098588Y-141707345D01*
X74086844Y-141762522D01*
X74074957Y-141818374D01*
X74063469Y-141872366D01*
X74052917Y-141921963D01*
X74047866Y-141945707D01*
X74038606Y-141989241D01*
X74028622Y-142036177D01*
X74018346Y-142084482D01*
X74008211Y-142132123D01*
X73998650Y-142177066D01*
X73990094Y-142217279D01*
X73984621Y-142243001D01*
X73977912Y-142274823D01*
X73971903Y-142303898D01*
X73966791Y-142329219D01*
X73962777Y-142349775D01*
X73960059Y-142364557D01*
X73958836Y-142372556D01*
X73958838Y-142373690D01*
X73963173Y-142374867D01*
X73975030Y-142377646D01*
X73993650Y-142381859D01*
X74018275Y-142387337D01*
X74048147Y-142393915D01*
X74082506Y-142401425D01*
X74120596Y-142409699D01*
X74161657Y-142418570D01*
X74186062Y-142423821D01*
X74240531Y-142435579D01*
X74287402Y-142445854D01*
X74327374Y-142454852D01*
X74361145Y-142462783D01*
X74389413Y-142469853D01*
X74412876Y-142476270D01*
X74432234Y-142482242D01*
X74448183Y-142487977D01*
X74461423Y-142493682D01*
X74472651Y-142499566D01*
X74482566Y-142505835D01*
X74491867Y-142512697D01*
X74496016Y-142516017D01*
X74517866Y-142538945D01*
X74534627Y-142567086D01*
X74545035Y-142598101D01*
X74547131Y-142610733D01*
X74550132Y-142636584D01*
X75476071Y-142636744D01*
X75564019Y-142636746D01*
X75649725Y-142636723D01*
X75732806Y-142636675D01*
X75812876Y-142636604D01*
X75889550Y-142636511D01*
X75962443Y-142636397D01*
X76031172Y-142636263D01*
X76095350Y-142636110D01*
X76154593Y-142635940D01*
X76208516Y-142635753D01*
X76256735Y-142635551D01*
X76298864Y-142635335D01*
X76334519Y-142635105D01*
X76363315Y-142634863D01*
X76384868Y-142634611D01*
X76398791Y-142634349D01*
X76404701Y-142634078D01*
X76404884Y-142634029D01*
X76405566Y-142629258D01*
X76406191Y-142617023D01*
X76406737Y-142598326D01*
X76407187Y-142574170D01*
X76407519Y-142545556D01*
X76407714Y-142513487D01*
X76407758Y-142488394D01*
X76407758Y-142345634D01*
X76355900Y-142342608D01*
X76259521Y-142332972D01*
X76166303Y-142315494D01*
X76076237Y-142290168D01*
X75989314Y-142256990D01*
X75905527Y-142215955D01*
X75824867Y-142167059D01*
X75747326Y-142110297D01*
X75672894Y-142045664D01*
X75601564Y-141973157D01*
X75533327Y-141892769D01*
X75527225Y-141885003D01*
X75499709Y-141849762D01*
X75498611Y-142055956D01*
X75497514Y-142262149D01*
X75230015Y-142261147D01*
X75173149Y-142260921D01*
X75124093Y-142260670D01*
X75082192Y-142260345D01*
X75046788Y-142259899D01*
X75017226Y-142259287D01*
X74992849Y-142258459D01*
X74973000Y-142257371D01*
X74957024Y-142255974D01*
X74944264Y-142254221D01*
X74934064Y-142252066D01*
X74925768Y-142249460D01*
X74918718Y-142246358D01*
X74912260Y-142242712D01*
X74905736Y-142238475D01*
X74904760Y-142237819D01*
X74885883Y-142220439D01*
X74872729Y-142198676D01*
X74865373Y-142174193D01*
X74863889Y-142148653D01*
X74868350Y-142123718D01*
X74878831Y-142101053D01*
X74895404Y-142082320D01*
X74897768Y-142080444D01*
X74905861Y-142074426D01*
X74913492Y-142069440D01*
X74921527Y-142065379D01*
X74930829Y-142062141D01*
X74942262Y-142059618D01*
X74956690Y-142057709D01*
X74974978Y-142056306D01*
X74997989Y-142055306D01*
X75026588Y-142054605D01*
X75061639Y-142054097D01*
X75104005Y-142053677D01*
X75119827Y-142053539D01*
X75290278Y-142052076D01*
X75289160Y-140690263D01*
X75288042Y-139328449D01*
X75118708Y-139326130D01*
X75074061Y-139325490D01*
X75037013Y-139324839D01*
X75006700Y-139324076D01*
X74982255Y-139323101D01*
X74962813Y-139321814D01*
X74947508Y-139320115D01*
X74935473Y-139317902D01*
X74925844Y-139315076D01*
X74917753Y-139311537D01*
X74910335Y-139307183D01*
X74902725Y-139301916D01*
X74901389Y-139300951D01*
X74882828Y-139283434D01*
X74871018Y-139262179D01*
X74865445Y-139236078D01*
X74864834Y-139222615D01*
X74868129Y-139193283D01*
X74878317Y-139168818D01*
X74895448Y-139149162D01*
X74919571Y-139134254D01*
X74944973Y-139125435D01*
X74951284Y-139124067D01*
X74959287Y-139122898D01*
X74969637Y-139121914D01*
X74982993Y-139121100D01*
X75000010Y-139120440D01*
X75021348Y-139119920D01*
X75047661Y-139119526D01*
X75079609Y-139119242D01*
X75117847Y-139119053D01*
X75163034Y-139118944D01*
X75215825Y-139118901D01*
X75233885Y-139118899D01*
X75497567Y-139118899D01*
X75498638Y-139815968D01*
X75499709Y-140513038D01*
X75531205Y-140473193D01*
X75554195Y-140445772D01*
X75582420Y-140414754D01*
X75614344Y-140381633D01*
X75648433Y-140347899D01*
X75683154Y-140315043D01*
X75716972Y-140284558D01*
X75748352Y-140257934D01*
X75770642Y-140240439D01*
X75848843Y-140186172D01*
X75927695Y-140140091D01*
X76007951Y-140101918D01*
X76090369Y-140071374D01*
X76175702Y-140048179D01*
X76264707Y-140032055D01*
X76358138Y-140022722D01*
X76360134Y-140022598D01*
X76407758Y-140019673D01*
X76407758Y-138276466D01*
X75920925Y-138276466D01*
X75857485Y-138276479D01*
X75857485Y-138276479D01*
G37*
X75857485Y-138276479D02*
X75796456Y-138276518D01*
X75738364Y-138276581D01*
X75683740Y-138276667D01*
X75633111Y-138276773D01*
X75587006Y-138276898D01*
X75545954Y-138277040D01*
X75510483Y-138277198D01*
X75481121Y-138277369D01*
X75458398Y-138277553D01*
X75442841Y-138277746D01*
X75434979Y-138277949D01*
X75434092Y-138278044D01*
X75435695Y-138282454D01*
X75439813Y-138292099D01*
X75443466Y-138300269D01*
X75449490Y-138320214D01*
X75452547Y-138344938D01*
X75452590Y-138371272D01*
X75449569Y-138396046D01*
X75445176Y-138411932D01*
X75429217Y-138442755D01*
X75406953Y-138468508D01*
X75379347Y-138488255D01*
X75356299Y-138498366D01*
X75338459Y-138502319D01*
X75314800Y-138504654D01*
X75287819Y-138505353D01*
X75260013Y-138504397D01*
X75233877Y-138501768D01*
X75220036Y-138499380D01*
X75209860Y-138497242D01*
X75192384Y-138493555D01*
X75168590Y-138488525D01*
X75139460Y-138482361D01*
X75105976Y-138475270D01*
X75069120Y-138467461D01*
X75029873Y-138459142D01*
X74996767Y-138452120D01*
X74957493Y-138443848D01*
X74920786Y-138436231D01*
X74887467Y-138429430D01*
X74858359Y-138423609D01*
X74834285Y-138418930D01*
X74816068Y-138415556D01*
X74804529Y-138413648D01*
X74800507Y-138413340D01*
X74799170Y-138417840D01*
X74796277Y-138429788D01*
X74792015Y-138448345D01*
X74786570Y-138472673D01*
X74780127Y-138501934D01*
X74772875Y-138535290D01*
X74764997Y-138571903D01*
X74758311Y-138603254D01*
X74733359Y-138720714D01*
X74710081Y-138830292D01*
X74688391Y-138932386D01*
X74668206Y-139027396D01*
X74649439Y-139115720D01*
X74632006Y-139197759D01*
X74615823Y-139273910D01*
X74600805Y-139344574D01*
X74586866Y-139410149D01*
X74573923Y-139471035D01*
X74561889Y-139527631D01*
X74550680Y-139580336D01*
X74540212Y-139629549D01*
X74534471Y-139656532D01*
X74524118Y-139705199D01*
X74513320Y-139755970D01*
X74502388Y-139807377D01*
X74491635Y-139857955D01*
X74481372Y-139906234D01*
X74471912Y-139950749D01*
X74463566Y-139990031D01*
X74456647Y-140022614D01*
X74456176Y-140024832D01*
X74448892Y-140059134D01*
X74440212Y-140100002D01*
X74430500Y-140145719D01*
X74420120Y-140194570D01*
X74409438Y-140244839D01*
X74398817Y-140294810D01*
X74388622Y-140342768D01*
X74384215Y-140363499D01*
X74373979Y-140411649D01*
X74362850Y-140464009D01*
X74351250Y-140518601D01*
X74339598Y-140573444D01*
X74328315Y-140626560D01*
X74317821Y-140675968D01*
X74308538Y-140719688D01*
X74305967Y-140731799D01*
X74297133Y-140773406D01*
X74287905Y-140816849D01*
X74278649Y-140860406D01*
X74269730Y-140902357D01*
X74261515Y-140940979D01*
X74254370Y-140974551D01*
X74249269Y-140998499D01*
X74243435Y-141025887D01*
X74236203Y-141059882D01*
X74227926Y-141098811D01*
X74218961Y-141140996D01*
X74209664Y-141184765D01*
X74200392Y-141228441D01*
X74191694Y-141269432D01*
X74181846Y-141315836D01*
X74170808Y-141367814D01*
X74159106Y-141422895D01*
X74147264Y-141478610D01*
X74135806Y-141532489D01*
X74125259Y-141582063D01*
X74119491Y-141609157D01*
X74109650Y-141655378D01*
X74098588Y-141707345D01*
X74086844Y-141762522D01*
X74074957Y-141818374D01*
X74063469Y-141872366D01*
X74052917Y-141921963D01*
X74047866Y-141945707D01*
X74038606Y-141989241D01*
X74028622Y-142036177D01*
X74018346Y-142084482D01*
X74008211Y-142132123D01*
X73998650Y-142177066D01*
X73990094Y-142217279D01*
X73984621Y-142243001D01*
X73977912Y-142274823D01*
X73971903Y-142303898D01*
X73966791Y-142329219D01*
X73962777Y-142349775D01*
X73960059Y-142364557D01*
X73958836Y-142372556D01*
X73958838Y-142373690D01*
X73963173Y-142374867D01*
X73975030Y-142377646D01*
X73993650Y-142381859D01*
X74018275Y-142387337D01*
X74048147Y-142393915D01*
X74082506Y-142401425D01*
X74120596Y-142409699D01*
X74161657Y-142418570D01*
X74186062Y-142423821D01*
X74240531Y-142435579D01*
X74287402Y-142445854D01*
X74327374Y-142454852D01*
X74361145Y-142462783D01*
X74389413Y-142469853D01*
X74412876Y-142476270D01*
X74432234Y-142482242D01*
X74448183Y-142487977D01*
X74461423Y-142493682D01*
X74472651Y-142499566D01*
X74482566Y-142505835D01*
X74491867Y-142512697D01*
X74496016Y-142516017D01*
X74517866Y-142538945D01*
X74534627Y-142567086D01*
X74545035Y-142598101D01*
X74547131Y-142610733D01*
X74550132Y-142636584D01*
X75476071Y-142636744D01*
X75564019Y-142636746D01*
X75649725Y-142636723D01*
X75732806Y-142636675D01*
X75812876Y-142636604D01*
X75889550Y-142636511D01*
X75962443Y-142636397D01*
X76031172Y-142636263D01*
X76095350Y-142636110D01*
X76154593Y-142635940D01*
X76208516Y-142635753D01*
X76256735Y-142635551D01*
X76298864Y-142635335D01*
X76334519Y-142635105D01*
X76363315Y-142634863D01*
X76384868Y-142634611D01*
X76398791Y-142634349D01*
X76404701Y-142634078D01*
X76404884Y-142634029D01*
X76405566Y-142629258D01*
X76406191Y-142617023D01*
X76406737Y-142598326D01*
X76407187Y-142574170D01*
X76407519Y-142545556D01*
X76407714Y-142513487D01*
X76407758Y-142488394D01*
X76407758Y-142345634D01*
X76355900Y-142342608D01*
X76259521Y-142332972D01*
X76166303Y-142315494D01*
X76076237Y-142290168D01*
X75989314Y-142256990D01*
X75905527Y-142215955D01*
X75824867Y-142167059D01*
X75747326Y-142110297D01*
X75672894Y-142045664D01*
X75601564Y-141973157D01*
X75533327Y-141892769D01*
X75527225Y-141885003D01*
X75499709Y-141849762D01*
X75498611Y-142055956D01*
X75497514Y-142262149D01*
X75230015Y-142261147D01*
X75173149Y-142260921D01*
X75124093Y-142260670D01*
X75082192Y-142260345D01*
X75046788Y-142259899D01*
X75017226Y-142259287D01*
X74992849Y-142258459D01*
X74973000Y-142257371D01*
X74957024Y-142255974D01*
X74944264Y-142254221D01*
X74934064Y-142252066D01*
X74925768Y-142249460D01*
X74918718Y-142246358D01*
X74912260Y-142242712D01*
X74905736Y-142238475D01*
X74904760Y-142237819D01*
X74885883Y-142220439D01*
X74872729Y-142198676D01*
X74865373Y-142174193D01*
X74863889Y-142148653D01*
X74868350Y-142123718D01*
X74878831Y-142101053D01*
X74895404Y-142082320D01*
X74897768Y-142080444D01*
X74905861Y-142074426D01*
X74913492Y-142069440D01*
X74921527Y-142065379D01*
X74930829Y-142062141D01*
X74942262Y-142059618D01*
X74956690Y-142057709D01*
X74974978Y-142056306D01*
X74997989Y-142055306D01*
X75026588Y-142054605D01*
X75061639Y-142054097D01*
X75104005Y-142053677D01*
X75119827Y-142053539D01*
X75290278Y-142052076D01*
X75289160Y-140690263D01*
X75288042Y-139328449D01*
X75118708Y-139326130D01*
X75074061Y-139325490D01*
X75037013Y-139324839D01*
X75006700Y-139324076D01*
X74982255Y-139323101D01*
X74962813Y-139321814D01*
X74947508Y-139320115D01*
X74935473Y-139317902D01*
X74925844Y-139315076D01*
X74917753Y-139311537D01*
X74910335Y-139307183D01*
X74902725Y-139301916D01*
X74901389Y-139300951D01*
X74882828Y-139283434D01*
X74871018Y-139262179D01*
X74865445Y-139236078D01*
X74864834Y-139222615D01*
X74868129Y-139193283D01*
X74878317Y-139168818D01*
X74895448Y-139149162D01*
X74919571Y-139134254D01*
X74944973Y-139125435D01*
X74951284Y-139124067D01*
X74959287Y-139122898D01*
X74969637Y-139121914D01*
X74982993Y-139121100D01*
X75000010Y-139120440D01*
X75021348Y-139119920D01*
X75047661Y-139119526D01*
X75079609Y-139119242D01*
X75117847Y-139119053D01*
X75163034Y-139118944D01*
X75215825Y-139118901D01*
X75233885Y-139118899D01*
X75497567Y-139118899D01*
X75498638Y-139815968D01*
X75499709Y-140513038D01*
X75531205Y-140473193D01*
X75554195Y-140445772D01*
X75582420Y-140414754D01*
X75614344Y-140381633D01*
X75648433Y-140347899D01*
X75683154Y-140315043D01*
X75716972Y-140284558D01*
X75748352Y-140257934D01*
X75770642Y-140240439D01*
X75848843Y-140186172D01*
X75927695Y-140140091D01*
X76007951Y-140101918D01*
X76090369Y-140071374D01*
X76175702Y-140048179D01*
X76264707Y-140032055D01*
X76358138Y-140022722D01*
X76360134Y-140022598D01*
X76407758Y-140019673D01*
X76407758Y-138276466D01*
X75920925Y-138276466D01*
X75857485Y-138276479D01*
G36*
X73664234Y-141624050D02*
X73666351Y-141626167D01*
X73668467Y-141624050D01*
X73666351Y-141621933D01*
X73664234Y-141624050D01*
X73664234Y-141624050D01*
G37*
X73664234Y-141624050D02*
X73666351Y-141626167D01*
X73668467Y-141624050D01*
X73666351Y-141621933D01*
X73664234Y-141624050D01*
G36*
X73579567Y-141717183D02*
X73581684Y-141719300D01*
X73583801Y-141717183D01*
X73581684Y-141715067D01*
X73579567Y-141717183D01*
X73579567Y-141717183D01*
G37*
X73579567Y-141717183D02*
X73581684Y-141719300D01*
X73583801Y-141717183D01*
X73581684Y-141715067D01*
X73579567Y-141717183D01*
G36*
X76333421Y-140250329D02*
X76295591Y-140254279D01*
X76256254Y-140259965D01*
X76217599Y-140267116D01*
X76184679Y-140274717D01*
X76107824Y-140298820D01*
X76032906Y-140330733D01*
X75960521Y-140369906D01*
X75891262Y-140415789D01*
X75825725Y-140467833D01*
X75764503Y-140525487D01*
X75708190Y-140588202D01*
X75657382Y-140655429D01*
X75612673Y-140726618D01*
X75574656Y-140801218D01*
X75549902Y-140861777D01*
X75526026Y-140938469D01*
X75508687Y-141019106D01*
X75497885Y-141102414D01*
X75493616Y-141187121D01*
X75495881Y-141271956D01*
X75504676Y-141355645D01*
X75520001Y-141436917D01*
X75541854Y-141514499D01*
X75550759Y-141539777D01*
X75584727Y-141619166D01*
X75626450Y-141695698D01*
X75675511Y-141768746D01*
X75731499Y-141837684D01*
X75783543Y-141891924D01*
X75850273Y-141951662D01*
X75918564Y-142003212D01*
X75988887Y-142046783D01*
X76061712Y-142082584D01*
X76137509Y-142110823D01*
X76216746Y-142131709D01*
X76299896Y-142145450D01*
X76368155Y-142151363D01*
X76383396Y-142151892D01*
X76395049Y-142151726D01*
X76400801Y-142150905D01*
X76400963Y-142150788D01*
X76401174Y-142146404D01*
X76401379Y-142133934D01*
X76401578Y-142113756D01*
X76401770Y-142086251D01*
X76401954Y-142051797D01*
X76402129Y-142010774D01*
X76402295Y-141963563D01*
X76402449Y-141910541D01*
X76402592Y-141852090D01*
X76402722Y-141788589D01*
X76402839Y-141720417D01*
X76402942Y-141647954D01*
X76403029Y-141571579D01*
X76403101Y-141491673D01*
X76403155Y-141408614D01*
X76403191Y-141322783D01*
X76403209Y-141234558D01*
X76403210Y-141198862D01*
X76403208Y-141093060D01*
X76403200Y-140995400D01*
X76403182Y-140905556D01*
X76403154Y-140823204D01*
X76403111Y-140748018D01*
X76403052Y-140679674D01*
X76402974Y-140617846D01*
X76402875Y-140562210D01*
X76402751Y-140512440D01*
X76402601Y-140468212D01*
X76402422Y-140429200D01*
X76402212Y-140395079D01*
X76401967Y-140365524D01*
X76401686Y-140340211D01*
X76401365Y-140318814D01*
X76401003Y-140301008D01*
X76400596Y-140286469D01*
X76400142Y-140274870D01*
X76399640Y-140265888D01*
X76399085Y-140259196D01*
X76398476Y-140254471D01*
X76397810Y-140251386D01*
X76397084Y-140249618D01*
X76396296Y-140248840D01*
X76395802Y-140248715D01*
X76367555Y-140248385D01*
X76333421Y-140250329D01*
X76333421Y-140250329D01*
G37*
X76333421Y-140250329D02*
X76295591Y-140254279D01*
X76256254Y-140259965D01*
X76217599Y-140267116D01*
X76184679Y-140274717D01*
X76107824Y-140298820D01*
X76032906Y-140330733D01*
X75960521Y-140369906D01*
X75891262Y-140415789D01*
X75825725Y-140467833D01*
X75764503Y-140525487D01*
X75708190Y-140588202D01*
X75657382Y-140655429D01*
X75612673Y-140726618D01*
X75574656Y-140801218D01*
X75549902Y-140861777D01*
X75526026Y-140938469D01*
X75508687Y-141019106D01*
X75497885Y-141102414D01*
X75493616Y-141187121D01*
X75495881Y-141271956D01*
X75504676Y-141355645D01*
X75520001Y-141436917D01*
X75541854Y-141514499D01*
X75550759Y-141539777D01*
X75584727Y-141619166D01*
X75626450Y-141695698D01*
X75675511Y-141768746D01*
X75731499Y-141837684D01*
X75783543Y-141891924D01*
X75850273Y-141951662D01*
X75918564Y-142003212D01*
X75988887Y-142046783D01*
X76061712Y-142082584D01*
X76137509Y-142110823D01*
X76216746Y-142131709D01*
X76299896Y-142145450D01*
X76368155Y-142151363D01*
X76383396Y-142151892D01*
X76395049Y-142151726D01*
X76400801Y-142150905D01*
X76400963Y-142150788D01*
X76401174Y-142146404D01*
X76401379Y-142133934D01*
X76401578Y-142113756D01*
X76401770Y-142086251D01*
X76401954Y-142051797D01*
X76402129Y-142010774D01*
X76402295Y-141963563D01*
X76402449Y-141910541D01*
X76402592Y-141852090D01*
X76402722Y-141788589D01*
X76402839Y-141720417D01*
X76402942Y-141647954D01*
X76403029Y-141571579D01*
X76403101Y-141491673D01*
X76403155Y-141408614D01*
X76403191Y-141322783D01*
X76403209Y-141234558D01*
X76403210Y-141198862D01*
X76403208Y-141093060D01*
X76403200Y-140995400D01*
X76403182Y-140905556D01*
X76403154Y-140823204D01*
X76403111Y-140748018D01*
X76403052Y-140679674D01*
X76402974Y-140617846D01*
X76402875Y-140562210D01*
X76402751Y-140512440D01*
X76402601Y-140468212D01*
X76402422Y-140429200D01*
X76402212Y-140395079D01*
X76401967Y-140365524D01*
X76401686Y-140340211D01*
X76401365Y-140318814D01*
X76401003Y-140301008D01*
X76400596Y-140286469D01*
X76400142Y-140274870D01*
X76399640Y-140265888D01*
X76399085Y-140259196D01*
X76398476Y-140254471D01*
X76397810Y-140251386D01*
X76397084Y-140249618D01*
X76396296Y-140248840D01*
X76395802Y-140248715D01*
X76367555Y-140248385D01*
X76333421Y-140250329D01*
G36*
X95208705Y-140216467D02*
X95203600Y-140252450D01*
X95202715Y-140267325D01*
X95201962Y-140297521D01*
X95201347Y-140341424D01*
X95200879Y-140397422D01*
X95200566Y-140463903D01*
X95200415Y-140539253D01*
X95200434Y-140621859D01*
X95200632Y-140710111D01*
X95200964Y-140792200D01*
X95203434Y-141295967D01*
X95311384Y-141298336D01*
X95419334Y-141300706D01*
X95419334Y-140216466D01*
X95314019Y-140216466D01*
X95208705Y-140216467D01*
X95208705Y-140216467D01*
G37*
X95208705Y-140216467D02*
X95203600Y-140252450D01*
X95202715Y-140267325D01*
X95201962Y-140297521D01*
X95201347Y-140341424D01*
X95200879Y-140397422D01*
X95200566Y-140463903D01*
X95200415Y-140539253D01*
X95200434Y-140621859D01*
X95200632Y-140710111D01*
X95200964Y-140792200D01*
X95203434Y-141295967D01*
X95311384Y-141298336D01*
X95419334Y-141300706D01*
X95419334Y-140216466D01*
X95314019Y-140216466D01*
X95208705Y-140216467D01*
G36*
X95616184Y-140218330D02*
X95508234Y-140220700D01*
X95508234Y-141295967D01*
X95610292Y-141298330D01*
X95650297Y-141298784D01*
X95683964Y-141298274D01*
X95707777Y-141296916D01*
X95718219Y-141294825D01*
X95718242Y-141294803D01*
X95719271Y-141285524D01*
X95720243Y-141260758D01*
X95721142Y-141221948D01*
X95721953Y-141170539D01*
X95722659Y-141107977D01*
X95723246Y-141035707D01*
X95723696Y-140955172D01*
X95723996Y-140867819D01*
X95724129Y-140775092D01*
X95724134Y-140752436D01*
X95724134Y-140215961D01*
X95616184Y-140218330D01*
X95616184Y-140218330D01*
G37*
X95616184Y-140218330D02*
X95508234Y-140220700D01*
X95508234Y-141295967D01*
X95610292Y-141298330D01*
X95650297Y-141298784D01*
X95683964Y-141298274D01*
X95707777Y-141296916D01*
X95718219Y-141294825D01*
X95718242Y-141294803D01*
X95719271Y-141285524D01*
X95720243Y-141260758D01*
X95721142Y-141221948D01*
X95721953Y-141170539D01*
X95722659Y-141107977D01*
X95723246Y-141035707D01*
X95723696Y-140955172D01*
X95723996Y-140867819D01*
X95724129Y-140775092D01*
X95724134Y-140752436D01*
X95724134Y-140215961D01*
X95616184Y-140218330D01*
G36*
X100545322Y-140216645D02*
X100512542Y-140217395D01*
X100491562Y-140219037D01*
X100479815Y-140221890D01*
X100474736Y-140226276D01*
X100473746Y-140231283D01*
X100473672Y-140242457D01*
X100473529Y-140268886D01*
X100473327Y-140308890D01*
X100473073Y-140360792D01*
X100472775Y-140422912D01*
X100472442Y-140493571D01*
X100472081Y-140571092D01*
X100471701Y-140653796D01*
X100471630Y-140669433D01*
X100469701Y-141092766D01*
X100306717Y-141095066D01*
X100143734Y-141097365D01*
X100143734Y-141300200D01*
X100711000Y-141300200D01*
X100711000Y-140216466D01*
X100592467Y-140216466D01*
X100545322Y-140216645D01*
X100545322Y-140216645D01*
G37*
X100545322Y-140216645D02*
X100512542Y-140217395D01*
X100491562Y-140219037D01*
X100479815Y-140221890D01*
X100474736Y-140226276D01*
X100473746Y-140231283D01*
X100473672Y-140242457D01*
X100473529Y-140268886D01*
X100473327Y-140308890D01*
X100473073Y-140360792D01*
X100472775Y-140422912D01*
X100472442Y-140493571D01*
X100472081Y-140571092D01*
X100471701Y-140653796D01*
X100471630Y-140669433D01*
X100469701Y-141092766D01*
X100306717Y-141095066D01*
X100143734Y-141097365D01*
X100143734Y-141300200D01*
X100711000Y-141300200D01*
X100711000Y-140216466D01*
X100592467Y-140216466D01*
X100545322Y-140216645D01*
G36*
X96082644Y-140496635D02*
X96014795Y-140507595D01*
X95954357Y-140524810D01*
X95904500Y-140547616D01*
X95873670Y-140570086D01*
X95858353Y-140585198D01*
X95846108Y-140600051D01*
X95836590Y-140616689D01*
X95829449Y-140637155D01*
X95824339Y-140663490D01*
X95820913Y-140697737D01*
X95818822Y-140741938D01*
X95817721Y-140798137D01*
X95817261Y-140868375D01*
X95817176Y-140902266D01*
X95816666Y-140992151D01*
X95815440Y-141066995D01*
X95813392Y-141128681D01*
X95810416Y-141179092D01*
X95806406Y-141220108D01*
X95801256Y-141253613D01*
X95796010Y-141277177D01*
X95789901Y-141300720D01*
X95898834Y-141298343D01*
X96007767Y-141295967D01*
X96025301Y-141223275D01*
X96044724Y-141243950D01*
X96062707Y-141258313D01*
X96090046Y-141274976D01*
X96116391Y-141288237D01*
X96142048Y-141298942D01*
X96165756Y-141306079D01*
X96192423Y-141310509D01*
X96226956Y-141313093D01*
X96266000Y-141314475D01*
X96315510Y-141315048D01*
X96352565Y-141313430D01*
X96381543Y-141309247D01*
X96405700Y-141302514D01*
X96448699Y-141280291D01*
X96489316Y-141246019D01*
X96522462Y-141204363D01*
X96532877Y-141185900D01*
X96542845Y-141159264D01*
X96548130Y-141126690D01*
X96549634Y-141084300D01*
X96549069Y-141077529D01*
X96333702Y-141077529D01*
X96326578Y-141110077D01*
X96308069Y-141139591D01*
X96282338Y-141160167D01*
X96272673Y-141164081D01*
X96234397Y-141170369D01*
X96189420Y-141169934D01*
X96145331Y-141163381D01*
X96109722Y-141151316D01*
X96109195Y-141151047D01*
X96076625Y-141127471D01*
X96053372Y-141094131D01*
X96038477Y-141049060D01*
X96030994Y-140990480D01*
X96026538Y-140919063D01*
X96055253Y-140931026D01*
X96081635Y-140939550D01*
X96114077Y-140946861D01*
X96126300Y-140948835D01*
X96172629Y-140956749D01*
X96217325Y-140967055D01*
X96255768Y-140978499D01*
X96283338Y-140989826D01*
X96288678Y-140992935D01*
X96313756Y-141018247D01*
X96329894Y-141052157D01*
X96333702Y-141077529D01*
X96549069Y-141077529D01*
X96544559Y-141023558D01*
X96528593Y-140974267D01*
X96500626Y-140934055D01*
X96465452Y-140904462D01*
X96434161Y-140885739D01*
X96399544Y-140870824D01*
X96358267Y-140858760D01*
X96306999Y-140848589D01*
X96242408Y-140839354D01*
X96236319Y-140838597D01*
X96172294Y-140829891D01*
X96123188Y-140821016D01*
X96087000Y-140811155D01*
X96061729Y-140799490D01*
X96045374Y-140785204D01*
X96035932Y-140767481D01*
X96032877Y-140755533D01*
X96033215Y-140717310D01*
X96047342Y-140683300D01*
X96073045Y-140657869D01*
X96085737Y-140651215D01*
X96117366Y-140643189D01*
X96156448Y-140640537D01*
X96197056Y-140642901D01*
X96233262Y-140649924D01*
X96259138Y-140661246D01*
X96259803Y-140661730D01*
X96279027Y-140681610D01*
X96296021Y-140708277D01*
X96306670Y-140734589D01*
X96308334Y-140745920D01*
X96310973Y-140751100D01*
X96320532Y-140754655D01*
X96339472Y-140756860D01*
X96370257Y-140757994D01*
X96415347Y-140758332D01*
X96418784Y-140758333D01*
X96529234Y-140758333D01*
X96523649Y-140726583D01*
X96504620Y-140662243D01*
X96472054Y-140607960D01*
X96426154Y-140563891D01*
X96367120Y-140530193D01*
X96295155Y-140507024D01*
X96227900Y-140496121D01*
X96154736Y-140492590D01*
X96082644Y-140496635D01*
X96082644Y-140496635D01*
G37*
X96082644Y-140496635D02*
X96014795Y-140507595D01*
X95954357Y-140524810D01*
X95904500Y-140547616D01*
X95873670Y-140570086D01*
X95858353Y-140585198D01*
X95846108Y-140600051D01*
X95836590Y-140616689D01*
X95829449Y-140637155D01*
X95824339Y-140663490D01*
X95820913Y-140697737D01*
X95818822Y-140741938D01*
X95817721Y-140798137D01*
X95817261Y-140868375D01*
X95817176Y-140902266D01*
X95816666Y-140992151D01*
X95815440Y-141066995D01*
X95813392Y-141128681D01*
X95810416Y-141179092D01*
X95806406Y-141220108D01*
X95801256Y-141253613D01*
X95796010Y-141277177D01*
X95789901Y-141300720D01*
X95898834Y-141298343D01*
X96007767Y-141295967D01*
X96025301Y-141223275D01*
X96044724Y-141243950D01*
X96062707Y-141258313D01*
X96090046Y-141274976D01*
X96116391Y-141288237D01*
X96142048Y-141298942D01*
X96165756Y-141306079D01*
X96192423Y-141310509D01*
X96226956Y-141313093D01*
X96266000Y-141314475D01*
X96315510Y-141315048D01*
X96352565Y-141313430D01*
X96381543Y-141309247D01*
X96405700Y-141302514D01*
X96448699Y-141280291D01*
X96489316Y-141246019D01*
X96522462Y-141204363D01*
X96532877Y-141185900D01*
X96542845Y-141159264D01*
X96548130Y-141126690D01*
X96549634Y-141084300D01*
X96549069Y-141077529D01*
X96333702Y-141077529D01*
X96326578Y-141110077D01*
X96308069Y-141139591D01*
X96282338Y-141160167D01*
X96272673Y-141164081D01*
X96234397Y-141170369D01*
X96189420Y-141169934D01*
X96145331Y-141163381D01*
X96109722Y-141151316D01*
X96109195Y-141151047D01*
X96076625Y-141127471D01*
X96053372Y-141094131D01*
X96038477Y-141049060D01*
X96030994Y-140990480D01*
X96026538Y-140919063D01*
X96055253Y-140931026D01*
X96081635Y-140939550D01*
X96114077Y-140946861D01*
X96126300Y-140948835D01*
X96172629Y-140956749D01*
X96217325Y-140967055D01*
X96255768Y-140978499D01*
X96283338Y-140989826D01*
X96288678Y-140992935D01*
X96313756Y-141018247D01*
X96329894Y-141052157D01*
X96333702Y-141077529D01*
X96549069Y-141077529D01*
X96544559Y-141023558D01*
X96528593Y-140974267D01*
X96500626Y-140934055D01*
X96465452Y-140904462D01*
X96434161Y-140885739D01*
X96399544Y-140870824D01*
X96358267Y-140858760D01*
X96306999Y-140848589D01*
X96242408Y-140839354D01*
X96236319Y-140838597D01*
X96172294Y-140829891D01*
X96123188Y-140821016D01*
X96087000Y-140811155D01*
X96061729Y-140799490D01*
X96045374Y-140785204D01*
X96035932Y-140767481D01*
X96032877Y-140755533D01*
X96033215Y-140717310D01*
X96047342Y-140683300D01*
X96073045Y-140657869D01*
X96085737Y-140651215D01*
X96117366Y-140643189D01*
X96156448Y-140640537D01*
X96197056Y-140642901D01*
X96233262Y-140649924D01*
X96259138Y-140661246D01*
X96259803Y-140661730D01*
X96279027Y-140681610D01*
X96296021Y-140708277D01*
X96306670Y-140734589D01*
X96308334Y-140745920D01*
X96310973Y-140751100D01*
X96320532Y-140754655D01*
X96339472Y-140756860D01*
X96370257Y-140757994D01*
X96415347Y-140758332D01*
X96418784Y-140758333D01*
X96529234Y-140758333D01*
X96523649Y-140726583D01*
X96504620Y-140662243D01*
X96472054Y-140607960D01*
X96426154Y-140563891D01*
X96367120Y-140530193D01*
X96295155Y-140507024D01*
X96227900Y-140496121D01*
X96154736Y-140492590D01*
X96082644Y-140496635D01*
G36*
X99729687Y-140494746D02*
X99639880Y-140499431D01*
X99564165Y-140513240D01*
X99502313Y-140536257D01*
X99454095Y-140568569D01*
X99419283Y-140610264D01*
X99417942Y-140612508D01*
X99394434Y-140652500D01*
X99390195Y-140953066D01*
X99388766Y-141040978D01*
X99387159Y-141113033D01*
X99385323Y-141170307D01*
X99383209Y-141213876D01*
X99380766Y-141244816D01*
X99377946Y-141264204D01*
X99375379Y-141272127D01*
X99367306Y-141287943D01*
X99364800Y-141295410D01*
X99372741Y-141297199D01*
X99394457Y-141298684D01*
X99426792Y-141299727D01*
X99466590Y-141300189D01*
X99473961Y-141300200D01*
X99521014Y-141299974D01*
X99553736Y-141298610D01*
X99574729Y-141295078D01*
X99586594Y-141288349D01*
X99591934Y-141277394D01*
X99593350Y-141261183D01*
X99593400Y-141252941D01*
X99595107Y-141237348D01*
X99598225Y-141232466D01*
X99607306Y-141236890D01*
X99625629Y-141248291D01*
X99641835Y-141259152D01*
X99698625Y-141289981D01*
X99762999Y-141308825D01*
X99837490Y-141316355D01*
X99858738Y-141316543D01*
X99898946Y-141314901D01*
X99937831Y-141311049D01*
X99968650Y-141305719D01*
X99975584Y-141303859D01*
X100015983Y-141284971D01*
X100055153Y-141255543D01*
X100088305Y-141220027D01*
X100110651Y-141182874D01*
X100113339Y-141175825D01*
X100122852Y-141132733D01*
X100126364Y-141082052D01*
X100126063Y-141076474D01*
X99906479Y-141076474D01*
X99901368Y-141114301D01*
X99884260Y-141141557D01*
X99853072Y-141161318D01*
X99847396Y-141163688D01*
X99816359Y-141170640D01*
X99777121Y-141172215D01*
X99737473Y-141168604D01*
X99705622Y-141160177D01*
X99665642Y-141137529D01*
X99637342Y-141106839D01*
X99619630Y-141066096D01*
X99611411Y-141013291D01*
X99610520Y-140985249D01*
X99610334Y-140920064D01*
X99637850Y-140931385D01*
X99664357Y-140939933D01*
X99695838Y-140947033D01*
X99703467Y-140948278D01*
X99769832Y-140959659D01*
X99820933Y-140972689D01*
X99858428Y-140988415D01*
X99883977Y-141007885D01*
X99899238Y-141032147D01*
X99905869Y-141062247D01*
X99906479Y-141076474D01*
X100126063Y-141076474D01*
X100123664Y-141032107D01*
X100117723Y-141001151D01*
X100096616Y-140956357D01*
X100060237Y-140918381D01*
X100008893Y-140887410D01*
X99942893Y-140863630D01*
X99863667Y-140847392D01*
X99800632Y-140838056D01*
X99752029Y-140830447D01*
X99715511Y-140824025D01*
X99688727Y-140818249D01*
X99669331Y-140812578D01*
X99654973Y-140806472D01*
X99643305Y-140799389D01*
X99637867Y-140795405D01*
X99619525Y-140778495D01*
X99611729Y-140760241D01*
X99610334Y-140738620D01*
X99617141Y-140698935D01*
X99637515Y-140669342D01*
X99671388Y-140649891D01*
X99718689Y-140640636D01*
X99741567Y-140639800D01*
X99794735Y-140645066D01*
X99835091Y-140661084D01*
X99863171Y-140688184D01*
X99878955Y-140724467D01*
X99886552Y-140754100D01*
X99993976Y-140756469D01*
X100101400Y-140758839D01*
X100101400Y-140733428D01*
X100097103Y-140708814D01*
X100085981Y-140676387D01*
X100070688Y-140642368D01*
X100053879Y-140612973D01*
X100044837Y-140600901D01*
X100005182Y-140565617D01*
X99951772Y-140535822D01*
X99903254Y-140517022D01*
X99871855Y-140507205D01*
X99844042Y-140500721D01*
X99814723Y-140496919D01*
X99778806Y-140495144D01*
X99731200Y-140494743D01*
X99729687Y-140494746D01*
X99729687Y-140494746D01*
G37*
X99729687Y-140494746D02*
X99639880Y-140499431D01*
X99564165Y-140513240D01*
X99502313Y-140536257D01*
X99454095Y-140568569D01*
X99419283Y-140610264D01*
X99417942Y-140612508D01*
X99394434Y-140652500D01*
X99390195Y-140953066D01*
X99388766Y-141040978D01*
X99387159Y-141113033D01*
X99385323Y-141170307D01*
X99383209Y-141213876D01*
X99380766Y-141244816D01*
X99377946Y-141264204D01*
X99375379Y-141272127D01*
X99367306Y-141287943D01*
X99364800Y-141295410D01*
X99372741Y-141297199D01*
X99394457Y-141298684D01*
X99426792Y-141299727D01*
X99466590Y-141300189D01*
X99473961Y-141300200D01*
X99521014Y-141299974D01*
X99553736Y-141298610D01*
X99574729Y-141295078D01*
X99586594Y-141288349D01*
X99591934Y-141277394D01*
X99593350Y-141261183D01*
X99593400Y-141252941D01*
X99595107Y-141237348D01*
X99598225Y-141232466D01*
X99607306Y-141236890D01*
X99625629Y-141248291D01*
X99641835Y-141259152D01*
X99698625Y-141289981D01*
X99762999Y-141308825D01*
X99837490Y-141316355D01*
X99858738Y-141316543D01*
X99898946Y-141314901D01*
X99937831Y-141311049D01*
X99968650Y-141305719D01*
X99975584Y-141303859D01*
X100015983Y-141284971D01*
X100055153Y-141255543D01*
X100088305Y-141220027D01*
X100110651Y-141182874D01*
X100113339Y-141175825D01*
X100122852Y-141132733D01*
X100126364Y-141082052D01*
X100126063Y-141076474D01*
X99906479Y-141076474D01*
X99901368Y-141114301D01*
X99884260Y-141141557D01*
X99853072Y-141161318D01*
X99847396Y-141163688D01*
X99816359Y-141170640D01*
X99777121Y-141172215D01*
X99737473Y-141168604D01*
X99705622Y-141160177D01*
X99665642Y-141137529D01*
X99637342Y-141106839D01*
X99619630Y-141066096D01*
X99611411Y-141013291D01*
X99610520Y-140985249D01*
X99610334Y-140920064D01*
X99637850Y-140931385D01*
X99664357Y-140939933D01*
X99695838Y-140947033D01*
X99703467Y-140948278D01*
X99769832Y-140959659D01*
X99820933Y-140972689D01*
X99858428Y-140988415D01*
X99883977Y-141007885D01*
X99899238Y-141032147D01*
X99905869Y-141062247D01*
X99906479Y-141076474D01*
X100126063Y-141076474D01*
X100123664Y-141032107D01*
X100117723Y-141001151D01*
X100096616Y-140956357D01*
X100060237Y-140918381D01*
X100008893Y-140887410D01*
X99942893Y-140863630D01*
X99863667Y-140847392D01*
X99800632Y-140838056D01*
X99752029Y-140830447D01*
X99715511Y-140824025D01*
X99688727Y-140818249D01*
X99669331Y-140812578D01*
X99654973Y-140806472D01*
X99643305Y-140799389D01*
X99637867Y-140795405D01*
X99619525Y-140778495D01*
X99611729Y-140760241D01*
X99610334Y-140738620D01*
X99617141Y-140698935D01*
X99637515Y-140669342D01*
X99671388Y-140649891D01*
X99718689Y-140640636D01*
X99741567Y-140639800D01*
X99794735Y-140645066D01*
X99835091Y-140661084D01*
X99863171Y-140688184D01*
X99878955Y-140724467D01*
X99886552Y-140754100D01*
X99993976Y-140756469D01*
X100101400Y-140758839D01*
X100101400Y-140733428D01*
X100097103Y-140708814D01*
X100085981Y-140676387D01*
X100070688Y-140642368D01*
X100053879Y-140612973D01*
X100044837Y-140600901D01*
X100005182Y-140565617D01*
X99951772Y-140535822D01*
X99903254Y-140517022D01*
X99871855Y-140507205D01*
X99844042Y-140500721D01*
X99814723Y-140496919D01*
X99778806Y-140495144D01*
X99731200Y-140494743D01*
X99729687Y-140494746D01*
G36*
X94649004Y-140504199D02*
X94584336Y-140527137D01*
X94525580Y-140563794D01*
X94487431Y-140597389D01*
X94437676Y-140658389D01*
X94401199Y-140729373D01*
X94378371Y-140809361D01*
X94369564Y-140897373D01*
X94369467Y-140908055D01*
X94369467Y-140961533D01*
X94930431Y-140961533D01*
X94924735Y-140997157D01*
X94909236Y-141053845D01*
X94882751Y-141097707D01*
X94844979Y-141129052D01*
X94795618Y-141148191D01*
X94774050Y-141152286D01*
X94716212Y-141153283D01*
X94664051Y-141138378D01*
X94616866Y-141107337D01*
X94604489Y-141095762D01*
X94563394Y-141054666D01*
X94474897Y-141054666D01*
X94431896Y-141054991D01*
X94404160Y-141057407D01*
X94390025Y-141064082D01*
X94387821Y-141077182D01*
X94395884Y-141098873D01*
X94412545Y-141131322D01*
X94413917Y-141133915D01*
X94455854Y-141197644D01*
X94507263Y-141247650D01*
X94568943Y-141284501D01*
X94641688Y-141308767D01*
X94665374Y-141313604D01*
X94708242Y-141320499D01*
X94740674Y-141323514D01*
X94768644Y-141322948D01*
X94792800Y-141319964D01*
X94880549Y-141300000D01*
X94955200Y-141269600D01*
X95017252Y-141228426D01*
X95067203Y-141176136D01*
X95105551Y-141112390D01*
X95109545Y-141103617D01*
X95134723Y-141028016D01*
X95146982Y-140947457D01*
X95146476Y-140865685D01*
X95134550Y-140793635D01*
X94927628Y-140793635D01*
X94926847Y-140803803D01*
X94918954Y-140810602D01*
X94902098Y-140814706D01*
X94874433Y-140816791D01*
X94834109Y-140817533D01*
X94779278Y-140817607D01*
X94758934Y-140817600D01*
X94701273Y-140817506D01*
X94658380Y-140817092D01*
X94628088Y-140816165D01*
X94608233Y-140814529D01*
X94596648Y-140811987D01*
X94591168Y-140808346D01*
X94589627Y-140803409D01*
X94589600Y-140802329D01*
X94593239Y-140786584D01*
X94602606Y-140762240D01*
X94611273Y-140743568D01*
X94628572Y-140714255D01*
X94648872Y-140694414D01*
X94676435Y-140678405D01*
X94725709Y-140660711D01*
X94773081Y-140658889D01*
X94822252Y-140672902D01*
X94830900Y-140676783D01*
X94866934Y-140696561D01*
X94891389Y-140718381D01*
X94909353Y-140747290D01*
X94915244Y-140760488D01*
X94923144Y-140779422D01*
X94927628Y-140793635D01*
X95134550Y-140793635D01*
X95133359Y-140786444D01*
X95107787Y-140713478D01*
X95092183Y-140683560D01*
X95047869Y-140623484D01*
X94991993Y-140572588D01*
X94927735Y-140532937D01*
X94858277Y-140506597D01*
X94804499Y-140496801D01*
X94721690Y-140494309D01*
X94649004Y-140504199D01*
X94649004Y-140504199D01*
G37*
X94649004Y-140504199D02*
X94584336Y-140527137D01*
X94525580Y-140563794D01*
X94487431Y-140597389D01*
X94437676Y-140658389D01*
X94401199Y-140729373D01*
X94378371Y-140809361D01*
X94369564Y-140897373D01*
X94369467Y-140908055D01*
X94369467Y-140961533D01*
X94930431Y-140961533D01*
X94924735Y-140997157D01*
X94909236Y-141053845D01*
X94882751Y-141097707D01*
X94844979Y-141129052D01*
X94795618Y-141148191D01*
X94774050Y-141152286D01*
X94716212Y-141153283D01*
X94664051Y-141138378D01*
X94616866Y-141107337D01*
X94604489Y-141095762D01*
X94563394Y-141054666D01*
X94474897Y-141054666D01*
X94431896Y-141054991D01*
X94404160Y-141057407D01*
X94390025Y-141064082D01*
X94387821Y-141077182D01*
X94395884Y-141098873D01*
X94412545Y-141131322D01*
X94413917Y-141133915D01*
X94455854Y-141197644D01*
X94507263Y-141247650D01*
X94568943Y-141284501D01*
X94641688Y-141308767D01*
X94665374Y-141313604D01*
X94708242Y-141320499D01*
X94740674Y-141323514D01*
X94768644Y-141322948D01*
X94792800Y-141319964D01*
X94880549Y-141300000D01*
X94955200Y-141269600D01*
X95017252Y-141228426D01*
X95067203Y-141176136D01*
X95105551Y-141112390D01*
X95109545Y-141103617D01*
X95134723Y-141028016D01*
X95146982Y-140947457D01*
X95146476Y-140865685D01*
X95134550Y-140793635D01*
X94927628Y-140793635D01*
X94926847Y-140803803D01*
X94918954Y-140810602D01*
X94902098Y-140814706D01*
X94874433Y-140816791D01*
X94834109Y-140817533D01*
X94779278Y-140817607D01*
X94758934Y-140817600D01*
X94701273Y-140817506D01*
X94658380Y-140817092D01*
X94628088Y-140816165D01*
X94608233Y-140814529D01*
X94596648Y-140811987D01*
X94591168Y-140808346D01*
X94589627Y-140803409D01*
X94589600Y-140802329D01*
X94593239Y-140786584D01*
X94602606Y-140762240D01*
X94611273Y-140743568D01*
X94628572Y-140714255D01*
X94648872Y-140694414D01*
X94676435Y-140678405D01*
X94725709Y-140660711D01*
X94773081Y-140658889D01*
X94822252Y-140672902D01*
X94830900Y-140676783D01*
X94866934Y-140696561D01*
X94891389Y-140718381D01*
X94909353Y-140747290D01*
X94915244Y-140760488D01*
X94923144Y-140779422D01*
X94927628Y-140793635D01*
X95134550Y-140793635D01*
X95133359Y-140786444D01*
X95107787Y-140713478D01*
X95092183Y-140683560D01*
X95047869Y-140623484D01*
X94991993Y-140572588D01*
X94927735Y-140532937D01*
X94858277Y-140506597D01*
X94804499Y-140496801D01*
X94721690Y-140494309D01*
X94649004Y-140504199D01*
G36*
X97032707Y-140191056D02*
X96976394Y-140194390D01*
X96924631Y-140200600D01*
X96884607Y-140208977D01*
X96834985Y-140224248D01*
X96796478Y-140240289D01*
X96763444Y-140260317D01*
X96730243Y-140287549D01*
X96705314Y-140311211D01*
X96666407Y-140354609D01*
X96640155Y-140397977D01*
X96623877Y-140446941D01*
X96615642Y-140499409D01*
X96610715Y-140547146D01*
X96732469Y-140544790D01*
X96780208Y-140543725D01*
X96813636Y-140542417D01*
X96835371Y-140540460D01*
X96848036Y-140537449D01*
X96854250Y-140532975D01*
X96856634Y-140526632D01*
X96856822Y-140525500D01*
X96868507Y-140481667D01*
X96887805Y-140445164D01*
X96912253Y-140420583D01*
X96913543Y-140419764D01*
X96964630Y-140395792D01*
X97020084Y-140382696D01*
X97075575Y-140380708D01*
X97126770Y-140390062D01*
X97162491Y-140406350D01*
X97191349Y-140426939D01*
X97207824Y-140446748D01*
X97215244Y-140471320D01*
X97216879Y-140496943D01*
X97215896Y-140524902D01*
X97210293Y-140542837D01*
X97197682Y-140557509D01*
X97194493Y-140560316D01*
X97175415Y-140572476D01*
X97144381Y-140586033D01*
X97100285Y-140601363D01*
X97042016Y-140618845D01*
X96968468Y-140638854D01*
X96947567Y-140644295D01*
X96857821Y-140669645D01*
X96783581Y-140695875D01*
X96723425Y-140724191D01*
X96675930Y-140755794D01*
X96639670Y-140791888D01*
X96613225Y-140833678D01*
X96595169Y-140882367D01*
X96584079Y-140939158D01*
X96582411Y-140953066D01*
X96582337Y-140993499D01*
X96588592Y-141041743D01*
X96599777Y-141090541D01*
X96614495Y-141132636D01*
X96618695Y-141141523D01*
X96647039Y-141181931D01*
X96688739Y-141221077D01*
X96740253Y-141256636D01*
X96798038Y-141286284D01*
X96858551Y-141307697D01*
X96879834Y-141312840D01*
X96927859Y-141319828D01*
X96986154Y-141323609D01*
X97048627Y-141324192D01*
X97109188Y-141321584D01*
X97161743Y-141315793D01*
X97179823Y-141312444D01*
X97255257Y-141288994D01*
X97323227Y-141253879D01*
X97382049Y-141208813D01*
X97430037Y-141155512D01*
X97465504Y-141095691D01*
X97486766Y-141031064D01*
X97491722Y-140995121D01*
X97495942Y-140936133D01*
X97258523Y-140936133D01*
X97252845Y-140974001D01*
X97244427Y-141003642D01*
X97229383Y-141036422D01*
X97220133Y-141051702D01*
X97187424Y-141086824D01*
X97143635Y-141111380D01*
X97087734Y-141125781D01*
X97023159Y-141130430D01*
X96957996Y-141126431D01*
X96904740Y-141113008D01*
X96860750Y-141089407D01*
X96849509Y-141080684D01*
X96832626Y-141064977D01*
X96823997Y-141049991D01*
X96820902Y-141029041D01*
X96820567Y-141009584D01*
X96823103Y-140979666D01*
X96831779Y-140954290D01*
X96848199Y-140932413D01*
X96873967Y-140912991D01*
X96910686Y-140894982D01*
X96959962Y-140877344D01*
X97023396Y-140859035D01*
X97071021Y-140846768D01*
X97162774Y-140821744D01*
X97239022Y-140796055D01*
X97301194Y-140768929D01*
X97350720Y-140739593D01*
X97389029Y-140707272D01*
X97417548Y-140671194D01*
X97427385Y-140653890D01*
X97444271Y-140606155D01*
X97452773Y-140549415D01*
X97452920Y-140489361D01*
X97444740Y-140431683D01*
X97428262Y-140382073D01*
X97425989Y-140377441D01*
X97389492Y-140323837D01*
X97338883Y-140276730D01*
X97276215Y-140237579D01*
X97203542Y-140207844D01*
X97176167Y-140199943D01*
X97137871Y-140193669D01*
X97088292Y-140190762D01*
X97032707Y-140191056D01*
X97032707Y-140191056D01*
G37*
X97032707Y-140191056D02*
X96976394Y-140194390D01*
X96924631Y-140200600D01*
X96884607Y-140208977D01*
X96834985Y-140224248D01*
X96796478Y-140240289D01*
X96763444Y-140260317D01*
X96730243Y-140287549D01*
X96705314Y-140311211D01*
X96666407Y-140354609D01*
X96640155Y-140397977D01*
X96623877Y-140446941D01*
X96615642Y-140499409D01*
X96610715Y-140547146D01*
X96732469Y-140544790D01*
X96780208Y-140543725D01*
X96813636Y-140542417D01*
X96835371Y-140540460D01*
X96848036Y-140537449D01*
X96854250Y-140532975D01*
X96856634Y-140526632D01*
X96856822Y-140525500D01*
X96868507Y-140481667D01*
X96887805Y-140445164D01*
X96912253Y-140420583D01*
X96913543Y-140419764D01*
X96964630Y-140395792D01*
X97020084Y-140382696D01*
X97075575Y-140380708D01*
X97126770Y-140390062D01*
X97162491Y-140406350D01*
X97191349Y-140426939D01*
X97207824Y-140446748D01*
X97215244Y-140471320D01*
X97216879Y-140496943D01*
X97215896Y-140524902D01*
X97210293Y-140542837D01*
X97197682Y-140557509D01*
X97194493Y-140560316D01*
X97175415Y-140572476D01*
X97144381Y-140586033D01*
X97100285Y-140601363D01*
X97042016Y-140618845D01*
X96968468Y-140638854D01*
X96947567Y-140644295D01*
X96857821Y-140669645D01*
X96783581Y-140695875D01*
X96723425Y-140724191D01*
X96675930Y-140755794D01*
X96639670Y-140791888D01*
X96613225Y-140833678D01*
X96595169Y-140882367D01*
X96584079Y-140939158D01*
X96582411Y-140953066D01*
X96582337Y-140993499D01*
X96588592Y-141041743D01*
X96599777Y-141090541D01*
X96614495Y-141132636D01*
X96618695Y-141141523D01*
X96647039Y-141181931D01*
X96688739Y-141221077D01*
X96740253Y-141256636D01*
X96798038Y-141286284D01*
X96858551Y-141307697D01*
X96879834Y-141312840D01*
X96927859Y-141319828D01*
X96986154Y-141323609D01*
X97048627Y-141324192D01*
X97109188Y-141321584D01*
X97161743Y-141315793D01*
X97179823Y-141312444D01*
X97255257Y-141288994D01*
X97323227Y-141253879D01*
X97382049Y-141208813D01*
X97430037Y-141155512D01*
X97465504Y-141095691D01*
X97486766Y-141031064D01*
X97491722Y-140995121D01*
X97495942Y-140936133D01*
X97258523Y-140936133D01*
X97252845Y-140974001D01*
X97244427Y-141003642D01*
X97229383Y-141036422D01*
X97220133Y-141051702D01*
X97187424Y-141086824D01*
X97143635Y-141111380D01*
X97087734Y-141125781D01*
X97023159Y-141130430D01*
X96957996Y-141126431D01*
X96904740Y-141113008D01*
X96860750Y-141089407D01*
X96849509Y-141080684D01*
X96832626Y-141064977D01*
X96823997Y-141049991D01*
X96820902Y-141029041D01*
X96820567Y-141009584D01*
X96823103Y-140979666D01*
X96831779Y-140954290D01*
X96848199Y-140932413D01*
X96873967Y-140912991D01*
X96910686Y-140894982D01*
X96959962Y-140877344D01*
X97023396Y-140859035D01*
X97071021Y-140846768D01*
X97162774Y-140821744D01*
X97239022Y-140796055D01*
X97301194Y-140768929D01*
X97350720Y-140739593D01*
X97389029Y-140707272D01*
X97417548Y-140671194D01*
X97427385Y-140653890D01*
X97444271Y-140606155D01*
X97452773Y-140549415D01*
X97452920Y-140489361D01*
X97444740Y-140431683D01*
X97428262Y-140382073D01*
X97425989Y-140377441D01*
X97389492Y-140323837D01*
X97338883Y-140276730D01*
X97276215Y-140237579D01*
X97203542Y-140207844D01*
X97176167Y-140199943D01*
X97137871Y-140193669D01*
X97088292Y-140190762D01*
X97032707Y-140191056D01*
G36*
X98506083Y-139209696D02*
X98503361Y-139218404D01*
X98496938Y-139242042D01*
X98487199Y-139279108D01*
X98474529Y-139328099D01*
X98459315Y-139387512D01*
X98441940Y-139455846D01*
X98422792Y-139531596D01*
X98402254Y-139613261D01*
X98389525Y-139664077D01*
X98276834Y-140114591D01*
X97845034Y-140115903D01*
X97760204Y-140116132D01*
X97679821Y-140116291D01*
X97605610Y-140116381D01*
X97539296Y-140116404D01*
X97482605Y-140116359D01*
X97437260Y-140116247D01*
X97404987Y-140116069D01*
X97387511Y-140115825D01*
X97385717Y-140115758D01*
X97367015Y-140116646D01*
X97358285Y-140120764D01*
X97358201Y-140121310D01*
X97364763Y-140129864D01*
X97382199Y-140145135D01*
X97407129Y-140164697D01*
X97436178Y-140186120D01*
X97465966Y-140206976D01*
X97493116Y-140224838D01*
X97514251Y-140237277D01*
X97525906Y-140241867D01*
X97537450Y-140247686D01*
X97544552Y-140254669D01*
X97555169Y-140263828D01*
X97576111Y-140279351D01*
X97604045Y-140299000D01*
X97635636Y-140320539D01*
X97667551Y-140341733D01*
X97696455Y-140360343D01*
X97719015Y-140374134D01*
X97731896Y-140380870D01*
X97733159Y-140381187D01*
X97743745Y-140387482D01*
X97745859Y-140390033D01*
X97755404Y-140398384D01*
X97775531Y-140413175D01*
X97802874Y-140432181D01*
X97834069Y-140453173D01*
X97865749Y-140473925D01*
X97894547Y-140492211D01*
X97917099Y-140505802D01*
X97930039Y-140512474D01*
X97931419Y-140512800D01*
X97942165Y-140518443D01*
X97957652Y-140532205D01*
X97959334Y-140533967D01*
X97974888Y-140548311D01*
X97986293Y-140555058D01*
X97987019Y-140555133D01*
X97998711Y-140559653D01*
X98016577Y-140570637D01*
X98018050Y-140571675D01*
X98041281Y-140588216D01*
X97831866Y-141009825D01*
X97782731Y-141108741D01*
X97740594Y-141193575D01*
X97704929Y-141265414D01*
X97675210Y-141325345D01*
X97650911Y-141374456D01*
X97631505Y-141413835D01*
X97616467Y-141444568D01*
X97605269Y-141467743D01*
X97597387Y-141484448D01*
X97592294Y-141495770D01*
X97589464Y-141502796D01*
X97588371Y-141506613D01*
X97588488Y-141508310D01*
X97589289Y-141508973D01*
X97590089Y-141509511D01*
X97593145Y-141510191D01*
X97599852Y-141508740D01*
X97611255Y-141504660D01*
X97628399Y-141497452D01*
X97652330Y-141486616D01*
X97684093Y-141471655D01*
X97724735Y-141452069D01*
X97775299Y-141427360D01*
X97836833Y-141397029D01*
X97910381Y-141360578D01*
X97996988Y-141317506D01*
X98095430Y-141268450D01*
X98172958Y-141229822D01*
X98245854Y-141193563D01*
X98312727Y-141160362D01*
X98372187Y-141130906D01*
X98422841Y-141105884D01*
X98463299Y-141085982D01*
X98492168Y-141071889D01*
X98508058Y-141064293D01*
X98510767Y-141063133D01*
X98517230Y-141068960D01*
X98534588Y-141085745D01*
X98561790Y-141112446D01*
X98597786Y-141148020D01*
X98641525Y-141191425D01*
X98691956Y-141241617D01*
X98748028Y-141297553D01*
X98808690Y-141358192D01*
X98869737Y-141419329D01*
X98978636Y-141528259D01*
X99075843Y-141625024D01*
X99161404Y-141709666D01*
X99235362Y-141782226D01*
X99297761Y-141842748D01*
X99348645Y-141891272D01*
X99388059Y-141927843D01*
X99416046Y-141952502D01*
X99432649Y-141965290D01*
X99437914Y-141966252D01*
X99437537Y-141964833D01*
X99431312Y-141946944D01*
X99422847Y-141920473D01*
X99418297Y-141905567D01*
X99410925Y-141881838D01*
X99399156Y-141845079D01*
X99383495Y-141796802D01*
X99364446Y-141738517D01*
X99342511Y-141671738D01*
X99318195Y-141597976D01*
X99292001Y-141518744D01*
X99264433Y-141435554D01*
X99235996Y-141349918D01*
X99207191Y-141263348D01*
X99178525Y-141177356D01*
X99150499Y-141093455D01*
X99123618Y-141013156D01*
X99098386Y-140937972D01*
X99075306Y-140869414D01*
X99054882Y-140808996D01*
X99037618Y-140758229D01*
X99024017Y-140718624D01*
X99014583Y-140691696D01*
X99009821Y-140678955D01*
X99009416Y-140678160D01*
X99002378Y-140665722D01*
X99001824Y-140663014D01*
X98998529Y-140638247D01*
X98992432Y-140615512D01*
X98985313Y-140600460D01*
X98981178Y-140597467D01*
X98982256Y-140593251D01*
X98996312Y-140580474D01*
X99023600Y-140558936D01*
X99064376Y-140528438D01*
X99114973Y-140491633D01*
X99093867Y-140491633D01*
X99089634Y-140495867D01*
X99085400Y-140491633D01*
X99089634Y-140487400D01*
X99093867Y-140491633D01*
X99114973Y-140491633D01*
X99118893Y-140488782D01*
X99138317Y-140474818D01*
X99166643Y-140453635D01*
X99188823Y-140435401D01*
X99201811Y-140422710D01*
X99203934Y-140418976D01*
X99208581Y-140413527D01*
X99210736Y-140414404D01*
X99220287Y-140411591D01*
X99237286Y-140399798D01*
X99249307Y-140389504D01*
X99268710Y-140372839D01*
X99283302Y-140362308D01*
X99287759Y-140360400D01*
X99297725Y-140354725D01*
X99310572Y-140342452D01*
X99326454Y-140328149D01*
X99350806Y-140309768D01*
X99371333Y-140295874D01*
X99394426Y-140280188D01*
X99427039Y-140256874D01*
X99465346Y-140228720D01*
X99505518Y-140198516D01*
X99518058Y-140188938D01*
X99554741Y-140160949D01*
X99587515Y-140136216D01*
X99610527Y-140119100D01*
X98298000Y-140119100D01*
X98293767Y-140123333D01*
X98289534Y-140119100D01*
X98293767Y-140114866D01*
X98298000Y-140119100D01*
X99610527Y-140119100D01*
X99613639Y-140116786D01*
X99630375Y-140104707D01*
X99634193Y-140102166D01*
X99645788Y-140093875D01*
X99667597Y-140077165D01*
X99696706Y-140054306D01*
X99730197Y-140027573D01*
X99737236Y-140021903D01*
X99770687Y-139994918D01*
X99799714Y-139971504D01*
X99821599Y-139953851D01*
X99833630Y-139944149D01*
X99834701Y-139943287D01*
X99846586Y-139934302D01*
X99865867Y-139920241D01*
X99872329Y-139915600D01*
X99886929Y-139904121D01*
X99890964Y-139897467D01*
X99883151Y-139895554D01*
X99862207Y-139898294D01*
X99826848Y-139905601D01*
X99803278Y-139910959D01*
X99763425Y-139919538D01*
X99723019Y-139927203D01*
X99690010Y-139932458D01*
X99686534Y-139932904D01*
X99669369Y-139935642D01*
X99637345Y-139941386D01*
X99592200Y-139949801D01*
X99535676Y-139960552D01*
X99469513Y-139973306D01*
X99395451Y-139987729D01*
X99315232Y-140003485D01*
X99230594Y-140020241D01*
X99196464Y-140027035D01*
X99112292Y-140043755D01*
X99033244Y-140059340D01*
X98960852Y-140073497D01*
X98896650Y-140085931D01*
X98842171Y-140096349D01*
X98798948Y-140104455D01*
X98768513Y-140109956D01*
X98752400Y-140112558D01*
X98750198Y-140112687D01*
X98747684Y-140104188D01*
X98741463Y-140080767D01*
X98731920Y-140043930D01*
X98719440Y-139995186D01*
X98704405Y-139936045D01*
X98687201Y-139868014D01*
X98668211Y-139792602D01*
X98647819Y-139711317D01*
X98636426Y-139665779D01*
X98615320Y-139581748D01*
X98595245Y-139502624D01*
X98576605Y-139429939D01*
X98559802Y-139365227D01*
X98545239Y-139310019D01*
X98533318Y-139265849D01*
X98524443Y-139234249D01*
X98519015Y-139216753D01*
X98517682Y-139213731D01*
X98508189Y-139208818D01*
X98506083Y-139209696D01*
X98506083Y-139209696D01*
G37*
X98506083Y-139209696D02*
X98503361Y-139218404D01*
X98496938Y-139242042D01*
X98487199Y-139279108D01*
X98474529Y-139328099D01*
X98459315Y-139387512D01*
X98441940Y-139455846D01*
X98422792Y-139531596D01*
X98402254Y-139613261D01*
X98389525Y-139664077D01*
X98276834Y-140114591D01*
X97845034Y-140115903D01*
X97760204Y-140116132D01*
X97679821Y-140116291D01*
X97605610Y-140116381D01*
X97539296Y-140116404D01*
X97482605Y-140116359D01*
X97437260Y-140116247D01*
X97404987Y-140116069D01*
X97387511Y-140115825D01*
X97385717Y-140115758D01*
X97367015Y-140116646D01*
X97358285Y-140120764D01*
X97358201Y-140121310D01*
X97364763Y-140129864D01*
X97382199Y-140145135D01*
X97407129Y-140164697D01*
X97436178Y-140186120D01*
X97465966Y-140206976D01*
X97493116Y-140224838D01*
X97514251Y-140237277D01*
X97525906Y-140241867D01*
X97537450Y-140247686D01*
X97544552Y-140254669D01*
X97555169Y-140263828D01*
X97576111Y-140279351D01*
X97604045Y-140299000D01*
X97635636Y-140320539D01*
X97667551Y-140341733D01*
X97696455Y-140360343D01*
X97719015Y-140374134D01*
X97731896Y-140380870D01*
X97733159Y-140381187D01*
X97743745Y-140387482D01*
X97745859Y-140390033D01*
X97755404Y-140398384D01*
X97775531Y-140413175D01*
X97802874Y-140432181D01*
X97834069Y-140453173D01*
X97865749Y-140473925D01*
X97894547Y-140492211D01*
X97917099Y-140505802D01*
X97930039Y-140512474D01*
X97931419Y-140512800D01*
X97942165Y-140518443D01*
X97957652Y-140532205D01*
X97959334Y-140533967D01*
X97974888Y-140548311D01*
X97986293Y-140555058D01*
X97987019Y-140555133D01*
X97998711Y-140559653D01*
X98016577Y-140570637D01*
X98018050Y-140571675D01*
X98041281Y-140588216D01*
X97831866Y-141009825D01*
X97782731Y-141108741D01*
X97740594Y-141193575D01*
X97704929Y-141265414D01*
X97675210Y-141325345D01*
X97650911Y-141374456D01*
X97631505Y-141413835D01*
X97616467Y-141444568D01*
X97605269Y-141467743D01*
X97597387Y-141484448D01*
X97592294Y-141495770D01*
X97589464Y-141502796D01*
X97588371Y-141506613D01*
X97588488Y-141508310D01*
X97589289Y-141508973D01*
X97590089Y-141509511D01*
X97593145Y-141510191D01*
X97599852Y-141508740D01*
X97611255Y-141504660D01*
X97628399Y-141497452D01*
X97652330Y-141486616D01*
X97684093Y-141471655D01*
X97724735Y-141452069D01*
X97775299Y-141427360D01*
X97836833Y-141397029D01*
X97910381Y-141360578D01*
X97996988Y-141317506D01*
X98095430Y-141268450D01*
X98172958Y-141229822D01*
X98245854Y-141193563D01*
X98312727Y-141160362D01*
X98372187Y-141130906D01*
X98422841Y-141105884D01*
X98463299Y-141085982D01*
X98492168Y-141071889D01*
X98508058Y-141064293D01*
X98510767Y-141063133D01*
X98517230Y-141068960D01*
X98534588Y-141085745D01*
X98561790Y-141112446D01*
X98597786Y-141148020D01*
X98641525Y-141191425D01*
X98691956Y-141241617D01*
X98748028Y-141297553D01*
X98808690Y-141358192D01*
X98869737Y-141419329D01*
X98978636Y-141528259D01*
X99075843Y-141625024D01*
X99161404Y-141709666D01*
X99235362Y-141782226D01*
X99297761Y-141842748D01*
X99348645Y-141891272D01*
X99388059Y-141927843D01*
X99416046Y-141952502D01*
X99432649Y-141965290D01*
X99437914Y-141966252D01*
X99437537Y-141964833D01*
X99431312Y-141946944D01*
X99422847Y-141920473D01*
X99418297Y-141905567D01*
X99410925Y-141881838D01*
X99399156Y-141845079D01*
X99383495Y-141796802D01*
X99364446Y-141738517D01*
X99342511Y-141671738D01*
X99318195Y-141597976D01*
X99292001Y-141518744D01*
X99264433Y-141435554D01*
X99235996Y-141349918D01*
X99207191Y-141263348D01*
X99178525Y-141177356D01*
X99150499Y-141093455D01*
X99123618Y-141013156D01*
X99098386Y-140937972D01*
X99075306Y-140869414D01*
X99054882Y-140808996D01*
X99037618Y-140758229D01*
X99024017Y-140718624D01*
X99014583Y-140691696D01*
X99009821Y-140678955D01*
X99009416Y-140678160D01*
X99002378Y-140665722D01*
X99001824Y-140663014D01*
X98998529Y-140638247D01*
X98992432Y-140615512D01*
X98985313Y-140600460D01*
X98981178Y-140597467D01*
X98982256Y-140593251D01*
X98996312Y-140580474D01*
X99023600Y-140558936D01*
X99064376Y-140528438D01*
X99114973Y-140491633D01*
X99093867Y-140491633D01*
X99089634Y-140495867D01*
X99085400Y-140491633D01*
X99089634Y-140487400D01*
X99093867Y-140491633D01*
X99114973Y-140491633D01*
X99118893Y-140488782D01*
X99138317Y-140474818D01*
X99166643Y-140453635D01*
X99188823Y-140435401D01*
X99201811Y-140422710D01*
X99203934Y-140418976D01*
X99208581Y-140413527D01*
X99210736Y-140414404D01*
X99220287Y-140411591D01*
X99237286Y-140399798D01*
X99249307Y-140389504D01*
X99268710Y-140372839D01*
X99283302Y-140362308D01*
X99287759Y-140360400D01*
X99297725Y-140354725D01*
X99310572Y-140342452D01*
X99326454Y-140328149D01*
X99350806Y-140309768D01*
X99371333Y-140295874D01*
X99394426Y-140280188D01*
X99427039Y-140256874D01*
X99465346Y-140228720D01*
X99505518Y-140198516D01*
X99518058Y-140188938D01*
X99554741Y-140160949D01*
X99587515Y-140136216D01*
X99610527Y-140119100D01*
X98298000Y-140119100D01*
X98293767Y-140123333D01*
X98289534Y-140119100D01*
X98293767Y-140114866D01*
X98298000Y-140119100D01*
X99610527Y-140119100D01*
X99613639Y-140116786D01*
X99630375Y-140104707D01*
X99634193Y-140102166D01*
X99645788Y-140093875D01*
X99667597Y-140077165D01*
X99696706Y-140054306D01*
X99730197Y-140027573D01*
X99737236Y-140021903D01*
X99770687Y-139994918D01*
X99799714Y-139971504D01*
X99821599Y-139953851D01*
X99833630Y-139944149D01*
X99834701Y-139943287D01*
X99846586Y-139934302D01*
X99865867Y-139920241D01*
X99872329Y-139915600D01*
X99886929Y-139904121D01*
X99890964Y-139897467D01*
X99883151Y-139895554D01*
X99862207Y-139898294D01*
X99826848Y-139905601D01*
X99803278Y-139910959D01*
X99763425Y-139919538D01*
X99723019Y-139927203D01*
X99690010Y-139932458D01*
X99686534Y-139932904D01*
X99669369Y-139935642D01*
X99637345Y-139941386D01*
X99592200Y-139949801D01*
X99535676Y-139960552D01*
X99469513Y-139973306D01*
X99395451Y-139987729D01*
X99315232Y-140003485D01*
X99230594Y-140020241D01*
X99196464Y-140027035D01*
X99112292Y-140043755D01*
X99033244Y-140059340D01*
X98960852Y-140073497D01*
X98896650Y-140085931D01*
X98842171Y-140096349D01*
X98798948Y-140104455D01*
X98768513Y-140109956D01*
X98752400Y-140112558D01*
X98750198Y-140112687D01*
X98747684Y-140104188D01*
X98741463Y-140080767D01*
X98731920Y-140043930D01*
X98719440Y-139995186D01*
X98704405Y-139936045D01*
X98687201Y-139868014D01*
X98668211Y-139792602D01*
X98647819Y-139711317D01*
X98636426Y-139665779D01*
X98615320Y-139581748D01*
X98595245Y-139502624D01*
X98576605Y-139429939D01*
X98559802Y-139365227D01*
X98545239Y-139310019D01*
X98533318Y-139265849D01*
X98524443Y-139234249D01*
X98519015Y-139216753D01*
X98517682Y-139213731D01*
X98508189Y-139208818D01*
X98506083Y-139209696D01*
G04 #@! TO.C,U3*
D10*
X80097380Y-122428095D02*
X80906904Y-122428095D01*
X81002142Y-122475714D01*
X81049761Y-122523333D01*
X81097380Y-122618571D01*
X81097380Y-122809047D01*
X81049761Y-122904285D01*
X81002142Y-122951904D01*
X80906904Y-122999523D01*
X80097380Y-122999523D01*
X80097380Y-123380476D02*
X80097380Y-123999523D01*
X80478333Y-123666190D01*
X80478333Y-123809047D01*
X80525952Y-123904285D01*
X80573571Y-123951904D01*
X80668809Y-123999523D01*
X80906904Y-123999523D01*
X81002142Y-123951904D01*
X81049761Y-123904285D01*
X81097380Y-123809047D01*
X81097380Y-123523333D01*
X81049761Y-123428095D01*
X81002142Y-123380476D01*
G04 #@! TO.C,U2*
X87121904Y-106132380D02*
X87121904Y-106941904D01*
X87074285Y-107037142D01*
X87026666Y-107084761D01*
X86931428Y-107132380D01*
X86740952Y-107132380D01*
X86645714Y-107084761D01*
X86598095Y-107037142D01*
X86550476Y-106941904D01*
X86550476Y-106132380D01*
X86121904Y-106227619D02*
X86074285Y-106180000D01*
X85979047Y-106132380D01*
X85740952Y-106132380D01*
X85645714Y-106180000D01*
X85598095Y-106227619D01*
X85550476Y-106322857D01*
X85550476Y-106418095D01*
X85598095Y-106560952D01*
X86169523Y-107132380D01*
X85550476Y-107132380D01*
G04 #@! TO.C,R1*
X86526666Y-117377380D02*
X86860000Y-116901190D01*
X87098095Y-117377380D02*
X87098095Y-116377380D01*
X86717142Y-116377380D01*
X86621904Y-116425000D01*
X86574285Y-116472619D01*
X86526666Y-116567857D01*
X86526666Y-116710714D01*
X86574285Y-116805952D01*
X86621904Y-116853571D01*
X86717142Y-116901190D01*
X87098095Y-116901190D01*
X85574285Y-117377380D02*
X86145714Y-117377380D01*
X85860000Y-117377380D02*
X85860000Y-116377380D01*
X85955238Y-116520238D01*
X86050476Y-116615476D01*
X86145714Y-116663095D01*
G04 #@! TO.C,J9*
X76692380Y-140700166D02*
X77406666Y-140700166D01*
X77549523Y-140652547D01*
X77644761Y-140557309D01*
X77692380Y-140414452D01*
X77692380Y-140319214D01*
X77692380Y-141223976D02*
X77692380Y-141414452D01*
X77644761Y-141509690D01*
X77597142Y-141557309D01*
X77454285Y-141652547D01*
X77263809Y-141700166D01*
X76882857Y-141700166D01*
X76787619Y-141652547D01*
X76740000Y-141604928D01*
X76692380Y-141509690D01*
X76692380Y-141319214D01*
X76740000Y-141223976D01*
X76787619Y-141176357D01*
X76882857Y-141128738D01*
X77120952Y-141128738D01*
X77216190Y-141176357D01*
X77263809Y-141223976D01*
X77311428Y-141319214D01*
X77311428Y-141509690D01*
X77263809Y-141604928D01*
X77216190Y-141652547D01*
X77120952Y-141700166D01*
G04 #@! TO.C,R6*
X86526666Y-128595380D02*
X86860000Y-128119190D01*
X87098095Y-128595380D02*
X87098095Y-127595380D01*
X86717142Y-127595380D01*
X86621904Y-127643000D01*
X86574285Y-127690619D01*
X86526666Y-127785857D01*
X86526666Y-127928714D01*
X86574285Y-128023952D01*
X86621904Y-128071571D01*
X86717142Y-128119190D01*
X87098095Y-128119190D01*
X85669523Y-127595380D02*
X85860000Y-127595380D01*
X85955238Y-127643000D01*
X86002857Y-127690619D01*
X86098095Y-127833476D01*
X86145714Y-128023952D01*
X86145714Y-128404904D01*
X86098095Y-128500142D01*
X86050476Y-128547761D01*
X85955238Y-128595380D01*
X85764761Y-128595380D01*
X85669523Y-128547761D01*
X85621904Y-128500142D01*
X85574285Y-128404904D01*
X85574285Y-128166809D01*
X85621904Y-128071571D01*
X85669523Y-128023952D01*
X85764761Y-127976333D01*
X85955238Y-127976333D01*
X86050476Y-128023952D01*
X86098095Y-128071571D01*
X86145714Y-128166809D01*
G04 #@! TO.C,R7*
X85256666Y-134246880D02*
X85590000Y-133770690D01*
X85828095Y-134246880D02*
X85828095Y-133246880D01*
X85447142Y-133246880D01*
X85351904Y-133294500D01*
X85304285Y-133342119D01*
X85256666Y-133437357D01*
X85256666Y-133580214D01*
X85304285Y-133675452D01*
X85351904Y-133723071D01*
X85447142Y-133770690D01*
X85828095Y-133770690D01*
X84923333Y-133246880D02*
X84256666Y-133246880D01*
X84685238Y-134246880D01*
G04 #@! TO.C,C3*
X87796666Y-134151642D02*
X87844285Y-134199261D01*
X87987142Y-134246880D01*
X88082380Y-134246880D01*
X88225238Y-134199261D01*
X88320476Y-134104023D01*
X88368095Y-134008785D01*
X88415714Y-133818309D01*
X88415714Y-133675452D01*
X88368095Y-133484976D01*
X88320476Y-133389738D01*
X88225238Y-133294500D01*
X88082380Y-133246880D01*
X87987142Y-133246880D01*
X87844285Y-133294500D01*
X87796666Y-133342119D01*
X87463333Y-133246880D02*
X86844285Y-133246880D01*
X87177619Y-133627833D01*
X87034761Y-133627833D01*
X86939523Y-133675452D01*
X86891904Y-133723071D01*
X86844285Y-133818309D01*
X86844285Y-134056404D01*
X86891904Y-134151642D01*
X86939523Y-134199261D01*
X87034761Y-134246880D01*
X87320476Y-134246880D01*
X87415714Y-134199261D01*
X87463333Y-134151642D01*
G04 #@! TD*
M02*
