M48
;DRILL file {KiCad (5.0.0)} date 01/07/20 10:02:50
;FORMAT={3:3/ absolute / metric / suppress leading zeros}
FMAT,2
METRIC,TZ
T1C0.400
T2C0.500
T3C0.762
T4C0.800
T5C1.000
T6C1.501
T7C3.200
%
G90
G05
M71
T1
X97790Y-136017
T2
X100851Y-136906
X101554Y-135209
X101554Y-138603
X103251Y-134506
X103251Y-139306
X104948Y-135209
X104948Y-138603
X105651Y-136906
X100851Y-101981
X101554Y-100284
X101554Y-103678
X103251Y-99581
X103251Y-104381
X104948Y-100284
X104948Y-103678
X105651Y-101981
X66053Y-101981
X66756Y-100284
X66756Y-103678
X68453Y-99581
X68453Y-104381
X70150Y-100284
X70150Y-103678
X70853Y-101981
X66053Y-136906
X66756Y-135209
X66756Y-138603
X68453Y-134506
X68453Y-139306
X70150Y-135209
X70150Y-138603
X70853Y-136906
T3
X81665Y-104140
X81665Y-119380
X90805Y-119380
X90809Y-104140
T4
X71120Y-129540
X74920Y-129540
X78740Y-102870
X78740Y-105410
X78740Y-107950
X78740Y-110490
X78740Y-113030
X78740Y-115570
X78740Y-118110
X78740Y-120650
X78740Y-123190
X78740Y-125730
X78740Y-128270
X78740Y-130810
X78740Y-133350
X78740Y-135890
X78740Y-138430
X93980Y-102870
X93980Y-105410
X93980Y-107950
X93980Y-110490
X93980Y-113030
X93980Y-115570
X93980Y-118110
X93980Y-120650
X93980Y-123190
X93980Y-125730
X93980Y-128270
X93980Y-130810
X93980Y-133350
X93980Y-135890
X93980Y-138430
X82550Y-137160
X90170Y-137160
X82550Y-133985
X90170Y-133985
X82550Y-130810
X90170Y-130810
X82550Y-127635
X90170Y-127635
T5
X76200Y-98425
X76200Y-100965
X76200Y-103505
X97790Y-129540
X102790Y-129540
X73025Y-98425
X73025Y-100965
X73025Y-103505
X76200Y-110490
X76200Y-113030
X76200Y-115570
X76200Y-118110
X76200Y-120650
X76200Y-123190
X73660Y-110490
X73660Y-113030
X73660Y-115570
X73660Y-118110
X73660Y-120650
X73660Y-123190
X101600Y-110490
X101600Y-113030
X101600Y-115570
X101600Y-118110
X101600Y-120650
X101600Y-123190
X80010Y-141034
X82550Y-141034
X85090Y-141034
X87630Y-141034
X90170Y-141034
X92710Y-141034
X71120Y-110490
X71120Y-113030
X71120Y-115570
X71120Y-118110
X71120Y-120650
X71120Y-123190
X99060Y-110490
X99060Y-113030
X99060Y-115570
X99060Y-118110
X99060Y-120650
X99060Y-123190
X82550Y-121920
X82550Y-124460
X85090Y-121920
X85090Y-124460
X87630Y-121920
X87630Y-124460
X90170Y-121920
X90170Y-124460
X96520Y-102870
X96520Y-105410
X96520Y-107950
X96520Y-110490
X96520Y-113030
X96520Y-115570
X96520Y-118110
X96520Y-120650
X96520Y-123190
T6
X92710Y-98425
X97790Y-98425
T7
X68453Y-136906
X103251Y-136906
X103251Y-101981
X68453Y-101981
T0
M30
