G04 #@! TF.GenerationSoftware,KiCad,Pcbnew,(5.0.0)*
G04 #@! TF.CreationDate,2020-01-07T10:02:11+01:00*
G04 #@! TF.ProjectId,Pacifistabot-ESP-01s,506163696669737461626F742D455350,rev?*
G04 #@! TF.SameCoordinates,Original*
G04 #@! TF.FileFunction,Soldermask,Top*
G04 #@! TF.FilePolarity,Negative*
%FSLAX46Y46*%
G04 Gerber Fmt 4.6, Leading zero omitted, Abs format (unit mm)*
G04 Created by KiCad (PCBNEW (5.0.0)) date 01/07/20 10:02:11*
%MOMM*%
%LPD*%
G01*
G04 APERTURE LIST*
%ADD10C,0.600000*%
%ADD11C,6.400000*%
%ADD12O,1.700000X1.700000*%
%ADD13R,1.700000X1.700000*%
%ADD14C,1.574800*%
%ADD15R,1.600000X1.600000*%
%ADD16C,1.600000*%
%ADD17R,2.000000X2.000000*%
%ADD18C,2.000000*%
%ADD19C,4.000500*%
%ADD20O,1.600000X1.600000*%
%ADD21C,1.524000*%
G04 APERTURE END LIST*
D10*
G04 #@! TO.C,*
X104948056Y-135208944D03*
X103251000Y-134506000D03*
X101553944Y-135208944D03*
X100851000Y-136906000D03*
X101553944Y-138603056D03*
X103251000Y-139306000D03*
X104948056Y-138603056D03*
X105651000Y-136906000D03*
D11*
X103251000Y-136906000D03*
G04 #@! TD*
G04 #@! TO.C,*
X68453000Y-136906000D03*
D10*
X70853000Y-136906000D03*
X70150056Y-138603056D03*
X68453000Y-139306000D03*
X66755944Y-138603056D03*
X66053000Y-136906000D03*
X66755944Y-135208944D03*
X68453000Y-134506000D03*
X70150056Y-135208944D03*
G04 #@! TD*
G04 #@! TO.C,*
X70150056Y-100283944D03*
X68453000Y-99581000D03*
X66755944Y-100283944D03*
X66053000Y-101981000D03*
X66755944Y-103678056D03*
X68453000Y-104381000D03*
X70150056Y-103678056D03*
X70853000Y-101981000D03*
D11*
X68453000Y-101981000D03*
G04 #@! TD*
G04 #@! TO.C,*
X103251000Y-101981000D03*
D10*
X105651000Y-101981000D03*
X104948056Y-103678056D03*
X103251000Y-104381000D03*
X101553944Y-103678056D03*
X100851000Y-101981000D03*
X101553944Y-100283944D03*
X103251000Y-99581000D03*
X104948056Y-100283944D03*
G04 #@! TD*
D12*
G04 #@! TO.C,U3*
X82550000Y-121920000D03*
X82550000Y-124460000D03*
X85090000Y-121920000D03*
X85090000Y-124460000D03*
X87630000Y-121920000D03*
X87630000Y-124460000D03*
X90170000Y-121920000D03*
D13*
X90170000Y-124460000D03*
G04 #@! TD*
D14*
G04 #@! TO.C,A1*
X93980000Y-102870000D03*
X78740000Y-102870000D03*
X93980000Y-105410000D03*
X78740000Y-105410000D03*
X93980000Y-107950000D03*
X78740000Y-107950000D03*
X93980000Y-110490000D03*
X78740000Y-110490000D03*
X93980000Y-113030000D03*
X78740000Y-113030000D03*
X93980000Y-115570000D03*
X78740000Y-115570000D03*
X93980000Y-118110000D03*
X78740000Y-118110000D03*
X93980000Y-120650000D03*
X78740000Y-120650000D03*
X93980000Y-123190000D03*
X78740000Y-123190000D03*
X93980000Y-125730000D03*
X78740000Y-125730000D03*
X93980000Y-128270000D03*
X78740000Y-128270000D03*
X93980000Y-130810000D03*
X78740000Y-130810000D03*
X93980000Y-133350000D03*
X78740000Y-133350000D03*
X93980000Y-135890000D03*
X78740000Y-135890000D03*
X93980000Y-138430000D03*
X78740000Y-138430000D03*
G04 #@! TD*
D15*
G04 #@! TO.C,C1*
X74920000Y-129540000D03*
D16*
X71120000Y-129540000D03*
G04 #@! TD*
D17*
G04 #@! TO.C,C2*
X97790000Y-129540000D03*
D18*
X102790000Y-129540000D03*
G04 #@! TD*
D19*
G04 #@! TO.C,J1*
X92710000Y-98425000D03*
G04 #@! TD*
G04 #@! TO.C,J2*
X97790000Y-98425000D03*
G04 #@! TD*
D12*
G04 #@! TO.C,J5*
X73660000Y-123190000D03*
X73660000Y-120650000D03*
X73660000Y-118110000D03*
X73660000Y-115570000D03*
X73660000Y-113030000D03*
D13*
X73660000Y-110490000D03*
G04 #@! TD*
G04 #@! TO.C,J6*
X99060000Y-123190000D03*
D12*
X99060000Y-120650000D03*
X99060000Y-118110000D03*
X99060000Y-115570000D03*
X99060000Y-113030000D03*
X99060000Y-110490000D03*
G04 #@! TD*
G04 #@! TO.C,J7*
X101600000Y-110490000D03*
X101600000Y-113030000D03*
X101600000Y-115570000D03*
X101600000Y-118110000D03*
X101600000Y-120650000D03*
D13*
X101600000Y-123190000D03*
G04 #@! TD*
G04 #@! TO.C,J8*
X71120000Y-110490000D03*
D12*
X71120000Y-113030000D03*
X71120000Y-115570000D03*
X71120000Y-118110000D03*
X71120000Y-120650000D03*
X71120000Y-123190000D03*
G04 #@! TD*
G04 #@! TO.C,J10*
X73025000Y-103505000D03*
X73025000Y-100965000D03*
D13*
X73025000Y-98425000D03*
G04 #@! TD*
D16*
G04 #@! TO.C,R2*
X90170000Y-127635000D03*
D20*
X82550000Y-127635000D03*
G04 #@! TD*
D16*
G04 #@! TO.C,R3*
X82550000Y-130810000D03*
D20*
X90170000Y-130810000D03*
G04 #@! TD*
G04 #@! TO.C,R4*
X82550000Y-137160000D03*
D16*
X90170000Y-137160000D03*
G04 #@! TD*
G04 #@! TO.C,R5*
X82550000Y-133985000D03*
D20*
X90170000Y-133985000D03*
G04 #@! TD*
D21*
G04 #@! TO.C,U1*
X90805000Y-119380000D03*
X81665000Y-119380000D03*
X90809000Y-104140000D03*
X81665000Y-104140000D03*
G04 #@! TD*
D13*
G04 #@! TO.C,J4*
X76200000Y-110490000D03*
D12*
X76200000Y-113030000D03*
X76200000Y-115570000D03*
X76200000Y-118110000D03*
X76200000Y-120650000D03*
X76200000Y-123190000D03*
G04 #@! TD*
G04 #@! TO.C,J11*
X76200000Y-103505000D03*
X76200000Y-100965000D03*
D13*
X76200000Y-98425000D03*
G04 #@! TD*
G04 #@! TO.C,J3*
X96520000Y-123190000D03*
D12*
X96520000Y-120650000D03*
X96520000Y-118110000D03*
X96520000Y-115570000D03*
X96520000Y-113030000D03*
X96520000Y-110490000D03*
X96520000Y-107950000D03*
X96520000Y-105410000D03*
X96520000Y-102870000D03*
G04 #@! TD*
D13*
G04 #@! TO.C,J9*
X80010000Y-141033500D03*
D12*
X82550000Y-141033500D03*
X85090000Y-141033500D03*
X87630000Y-141033500D03*
X90170000Y-141033500D03*
X92710000Y-141033500D03*
G04 #@! TD*
M02*
